<svg version="1.2" xmlns="http://www.w3.org/2000/svg" viewBox="0 0 600 77" width="600" height="77"><defs><clipPath clipPathUnits="userSpaceOnUse" id="cp1"><path d="m-72-582h1224v1584h-1224z"/></clipPath></defs><style>.A{fill:#383838}.B{fill:#f57a1a}</style><g clip-path="url(#cp1)"><path fill-rule="evenodd" class="A" d="m58.9 76.9c-1.6-0.5-2.8-1.4-3.4-3h-10.5q-1.2 0-2.4 0c-1 0-1.6-0.6-1.6-1.5c0-0.8 0.6-1.5 1.6-1.5q6.1 0 12.3 0h0.4c0.7-0.8 1.3-1.6 2-2.5c-0.1-0.1-0.2-0.3-0.4-0.5c-3.7-5.8-7.4-11.6-11.1-17.5c-6.2-9.9-0.2-22.8 11.4-24.7c8.9-1.4 17.6 5 18.7 14q0 0.3 0.1 0.7v2.9c0 0.1-0.1 0.2-0.1 0.4c-0.3 2.9-1.5 5.4-3 7.8c-3.5 5.5-7 11-10.5 16.4q-0.2 0.3-0.4 0.7c0.2 0.1 0.3 0.2 0.3 0.3c1.4 1.1 2.1 2.5 1.7 4.3c-0.3 1.8-1.4 3-3.2 3.5q-0.2 0.1-0.4 0.2zm0.8-10.3c0.1-0.1 0.1-0.2 0.2-0.3c3.7-5.8 7.4-11.6 11.1-17.4c1.7-2.7 2.3-5.6 1.9-8.8c-1.1-9-10.9-14.3-19.1-10.3c-7.2 3.6-9.7 12.4-5.3 19.3c3.6 5.7 7.2 11.3 10.8 17c0.1 0.1 0.2 0.3 0.4 0.5zm-0.1 7.3c0.8 0 1.5-0.6 1.5-1.4c0.1-0.8-0.6-1.5-1.4-1.6c-0.8 0-1.5 0.7-1.5 1.4c-0.1 0.9 0.6 1.6 1.4 1.6zm-39.1-23.7c-0.9 2-2.4 3.1-4.6 2.9c-1.9-0.2-3.2-1.2-3.8-3.1c-0.7-2.1 0.1-3.8 1.9-5.2q-0.2-0.3-0.3-0.6q-5.7-9.3-11.3-18.5c-6.2-10.1 0.3-23.4 12-24.7c10.1-1.1 18.8 7 18.2 17.1c-0.1 2.8-1 5.4-2.5 7.9q-5.6 9.2-11.3 18.4c0 0.1-0.1 0.2-0.1 0.2c0.6 0.9 1.2 1.6 1.8 2.4c0.1 0.1 0.4 0.2 0.7 0.2c3.6 0 7.3-0.1 11 0c4.1 0 7.3 3.4 7.3 7.6c-0.1 4-3.4 7.2-7.5 7.2c-5.9 0-11.8 0-17.6 0c-2.2 0-3.9 1.3-4.5 3.3c-0.7 2.9 1.4 5.6 4.4 5.6q7.1 0 14.2 0q2.1 0 2.1 1.5q-0.1 1.5-2.1 1.5c-4.8 0-9.5 0-14.3 0c-4.1 0-7.4-3.3-7.4-7.4c0-4.1 3.3-7.4 7.5-7.4c5.9-0.1 11.8 0 17.6 0c2.3-0.1 4-1.5 4.5-3.6c0.6-2.6-1.3-5.2-4-5.3c-3.9-0.1-7.9 0-11.9 0zm-4.2-7.4c0.1-0.2 0.2-0.3 0.3-0.4q5.6-9.3 11.3-18.5c1.1-1.8 1.6-3.8 1.7-5.9c0.5-8.4-6.6-15.1-15-14c-9.5 1.1-14.7 11.9-9.7 20.1q5.5 9 11 18c0.1 0.2 0.2 0.4 0.4 0.7zm0 4.4c-0.8 0-1.5 0.7-1.5 1.4c0 0.9 0.7 1.6 1.5 1.5c0.9 0 1.5-0.7 1.5-1.5c0-0.8-0.7-1.4-1.5-1.4z"/><path fill-rule="evenodd" class="B" d="m37.3 72.4c0 0.8-0.7 1.5-1.5 1.5c-0.8 0-1.5-0.7-1.5-1.5c0-0.8 0.7-1.5 1.5-1.5c0.8 0 1.4 0.7 1.5 1.5zm22.5-38c4 0.1 7.3 3.4 7.3 7.5c0 4.1-3.5 7.4-7.6 7.4c-4-0.1-7.3-3.5-7.2-7.6c0-4 3.4-7.3 7.5-7.3zm-0.1 11.9c2.4 0 4.4-2 4.4-4.5c0-2.4-2-4.4-4.4-4.4c-2.5 0-4.5 2-4.5 4.5c0 2.4 2.1 4.4 4.5 4.4zm-35.9-29.1c-0.1 4.1-3.4 7.4-7.5 7.4c-4.1 0-7.4-3.4-7.4-7.5c0-4 3.4-7.3 7.5-7.3c4 0 7.4 3.3 7.4 7.4zm-7.4 4.4c2.4 0 4.4-2 4.4-4.4c0-2.5-2-4.4-4.5-4.5c-2.4 0-4.4 2.1-4.4 4.5c0 2.5 2 4.5 4.5 4.4zm582.2-20.7q0.2 0.1 0.4 0.2c0.6 0.4 0.8 1 0.6 1.7c-0.2 0.7-0.7 1-1.4 1c-0.7 0-1.2-0.4-1.4-1c-0.2-0.7 0-1.3 0.6-1.7q0.2-0.1 0.4-0.2z"/></g></svg>