<svg version="1.2" xmlns="http://www.w3.org/2000/svg" viewBox="0 0 57 76" width="57" height="76"><defs><clipPath clipPathUnits="userSpaceOnUse" id="cp1"><path d="m-642-583h1224v1584h-1224z"/></clipPath></defs><style>.A{fill:#383838}.B{fill:#f57a1a}</style><g clip-path="url(#cp1)"><path fill-rule="evenodd" class="A" d="m44.3 64.9q-1.3 3.6-2.6 7.2c-0.3 0.9-0.6 1.7-0.8 2.5c-0.3 0.7-0.7 1.2-1.4 1.3c-0.8 0-1.2-0.4-1.6-1.1q-4.6-8.1-9.2-16.2c-0.2-0.2-0.3-0.4-0.5-0.7c-0.2 0.2-0.3 0.5-0.4 0.7q-4.5 7.8-9 15.6q-0.2 0.4-0.4 0.8c-0.3 0.5-0.8 0.9-1.5 0.9c-0.7-0.1-1.1-0.6-1.3-1.2c-1.1-3.1-2.2-6.1-3.3-9.2c-0.1-0.5-0.4-0.7-1-0.5c-3 0.6-6 1.2-9.1 1.9c-0.7 0.1-1.3 0-1.8-0.6c-0.4-0.6-0.3-1.2 0.1-1.8q4.2-7.4 8.4-14.9c0.3-0.5 0.3-0.7-0.1-1.1c-13.8-13.2-11-35.6 5.5-45q3.1-1.7 6.5-2.7c1.1-0.2 2 0.1 2.2 1c0.2 0.9-0.3 1.6-1.4 1.9c-8.8 2.6-14.8 8.2-17.5 17c-4.5 14.4 4.8 29.5 19.6 32.2c13.5 2.4 26.4-6.3 29.2-19.8c2.7-12.9-5.2-25.9-17.9-29.4q-0.2 0-0.4 0c-1-0.3-1.4-1.1-1.2-2c0.3-0.8 1.1-1.2 2-0.9c1.5 0.5 2.9 0.9 4.3 1.5c10.7 4.8 17.3 15.5 16.7 27.1c-0.4 7.4-3.3 13.7-8.6 18.9c-0.6 0.6-0.6 0.9-0.2 1.6c2.8 4.8 5.5 9.6 8.2 14.3q0.1 0.2 0.2 0.4c0.3 0.6 0.4 1.2-0.1 1.8c-0.4 0.5-0.9 0.6-1.6 0.5q-4.7-1-9.3-1.9q-0.3-0.1-0.7-0.1zm-32.7-14c-2.3 4.1-4.7 8.2-7 12.4c0.3 0 0.5-0.1 0.7-0.1q3.6-0.7 7.1-1.5c1.2-0.2 1.7 0.1 2.2 1.3q1.1 3.1 2.2 6.2c0.2 0.5 0.3 1 0.6 1.6c2.8-4.9 5.5-9.8 8.3-14.6c-5.2-0.6-9.8-2.3-14.1-5.3zm40.3 12.4c-2.4-4.2-4.8-8.3-7.1-12.4c-4.2 3-8.9 4.8-14.1 5.3c2.8 4.9 5.5 9.7 8.3 14.6c0.1-0.3 0.2-0.4 0.2-0.5q1.3-3.7 2.7-7.5c0.3-1 0.9-1.3 2-1.1q1.5 0.3 3 0.6c1.6 0.4 3.2 0.7 5 1z"/><path fill-rule="evenodd" class="B" d="m28.2 50.3c-12.3 0-22.3-10-22.3-22.2c0-12.3 10.1-22.3 22.3-22.3c12.3 0 22.3 10 22.3 22.2c0 12.3-10 22.3-22.3 22.3zm-19.3-22.3c0 10.7 8.7 19.4 19.3 19.4c10.6 0 19.3-8.7 19.3-19.3c0-10.6-8.6-19.3-19.3-19.3c-10.6-0.1-19.3 8.6-19.3 19.2z"/><path fill-rule="evenodd" class="B" d="m18.9 39.2c0.3-2.2 0.6-4.4 1.1-6.6c0.2-1.1 0.1-1.8-0.8-2.6c-1.6-1.3-3-2.9-4.5-4.4c-0.5-0.5-0.8-1-0.6-1.7c0.3-0.7 0.8-1 1.5-1c2.3-0.4 4.7-0.7 7-1.1c0.5-0.1 0.8-0.2 1-0.7c1-2.1 2.1-4.2 3.1-6.3c0.3-0.7 0.7-1.1 1.5-1.1c0.8 0 1.2 0.5 1.5 1.1c1 2.1 2.1 4.2 3.1 6.3c0.3 0.5 0.6 0.7 1 0.7q3.6 0.5 7.1 1.1c0.6 0.1 1.2 0.3 1.4 1c0.2 0.7 0 1.2-0.5 1.7c-1.7 1.7-3.4 3.4-5.2 5c-0.3 0.4-0.4 0.7-0.3 1.2c0.4 2.3 0.8 4.7 1.2 7.1c0.1 0.7-0.1 1.2-0.6 1.6c-0.5 0.4-1.1 0.4-1.7 0.1c-2.1-1.2-4.3-2.3-6.4-3.4c-0.4-0.2-0.8-0.2-1.2 0q-3.2 1.7-6.5 3.4c-1.1 0.5-2.3-0.2-2.2-1.4zm3.4-2.6c1.7-0.9 3.3-1.7 4.8-2.5c0.8-0.4 1.4-0.4 2.2 0c1.4 0.8 2.8 1.5 4.2 2.2c0.2 0.1 0.3 0.1 0.6 0.2c-0.3-1.8-0.6-3.6-0.9-5.3c-0.2-0.8 0.1-1.4 0.6-2q1.8-1.6 3.5-3.3c0.1-0.2 0.2-0.3 0.4-0.5c-1.9-0.3-3.7-0.6-5.6-0.9c-0.6-0.1-1.1-0.4-1.4-1q-1.1-2.2-2.2-4.4q-0.1-0.2-0.3-0.5c-0.1 0.1-0.1 0.1-0.1 0.2q-0.8 1.5-1.6 3.1c-1.5 2.9-0.9 2.4-4.1 2.9c-1.2 0.2-2.4 0.4-3.5 0.6q1.9 2 3.7 3.9c0.5 0.5 0.8 1.1 0.6 1.8c-0.3 1.8-0.6 3.6-0.9 5.5z"/></g></svg>