<svg version="1.2" xmlns="http://www.w3.org/2000/svg" viewBox="0 0 77 77" width="77" height="77"><defs><clipPath clipPathUnits="userSpaceOnUse" id="cp1"><path d="m-641-228h1224v1584h-1224z"/></clipPath></defs><style>.A{fill:#383838}.B{fill:#f57a1a}</style><g clip-path="url(#cp1)"><path fill-rule="evenodd" class="A" d="m68.3 41c2.9 0 6-3.3 6.2-6.7c0.2-4-2.6-7.4-6.6-7.8c-3.2-0.4-7.7 1.7-8.2 7.3h-2.3c-0.4-4.8 3.4-8.7 9.4-9.9c-1-7.7-11-14.5-20.3-8.9c-5.3-9-15.6-11.3-23.4-7.8c-8.3 3.6-11.4 11.8-11 16.9c3.4 0.8 5.8 2.3 6.7 4.2q-1 0.6-1.9 1.3c-3.5-3.4-6.6-4-9.9-2.1c-2.8 1.7-4.2 5.1-3.2 8.3c0.8 2.8 3.5 5.2 5.9 5.1l1.3 2.7c-5.4-0.1-9.5-3.9-10-9c-0.4-5.1 3.1-9.5 8.4-10.5q0 0 0.1 0c0.1-1.2 0.2-2.3 0.4-3.5c1.4-9.2 9.1-16.4 18.4-17.3c7.6-0.7 13.8 2.1 18.6 8c0.3 0.4 0.5 0.5 1 0.3c0.9-0.3 1.8-0.5 2.7-0.7c0.5-0.2 0.6-0.4 0.3-0.9c-0.4-0.7-0.8-1.4-1.2-2.2c-0.1-0.1 0-0.5 0.1-0.7c1.4-1.5 2.9-2.9 4.4-4.4q1.3 0.7 2.5 1.4c0.7 0.3 1.2 0.1 1.4-0.6q0.4-1.4 0.8-2.7h6.7q0.4 1.3 0.8 2.6c0.2 0.8 0.7 1 1.5 0.6q0 0 0 0c0.8-0.4 1.6-1.2 2.4-1.2c0.6 0.1 1.2 1.1 1.8 1.7q1.4 1.4 2.8 2.8c0 0 0 0.1 0.1 0.2c-0.4 0.7-0.7 1.4-1.2 2.1c-0.6 0.8-0.4 1.6 0.8 1.8q1 0.2 1.9 0.5c0.2 0.1 0.4 0.4 0.4 0.5c0.1 2.1 0 4.3 0 6.4q-1.3 0.4-2.6 0.7c-0.9 0.3-1.1 0.8-0.6 1.6c0.4 0.6 0.7 1.3 1.1 1.9c0.2 0.3 0.2 0.5-0.1 0.8c-0.7 0.6-1.3 1.2-1.9 1.7c0.8 0.9 1.5 1.5 2.1 2.3c2.3 3.2 2.8 6.6 1.1 10.2c-1.7 3.6-4.7 5.4-8.7 5.6zm-14.3-30.5c0.7 0.1 1.3 0.1 2 0.2c0.5 0.1 0.7 0 1-0.3c1.4-1.5 3.1-2.2 5.1-2.3c2.9 0 5.1 1.2 6.6 3.7c1.4 2.5 1.3 5-0.2 7.5c-0.1 0.2-0.3 0.6-0.2 0.8c0.3 1.3 0.7 2.6 1.1 3.8c0.2 0.5 0.9 0.8 1.3 0.4q0.7-0.5 1.4-1.1c-0.4-0.7-0.6-1.3-1-1.7c-0.4-0.6-0.5-1.1-0.1-1.7c0.3-0.5 0.5-1.1 0.7-1.6c0.1-0.3 0.4-0.5 0.7-0.6c0.7-0.3 1.4-0.4 2.1-0.6v-3.1c-0.5-0.1-1-0.3-1.5-0.4c-0.8-0.1-1.1-0.6-1.6-1.4c-0.8-1.4-0.6-2.6 0.3-3.8c0.2-0.1 0.2-0.5 0.1-0.6c-0.6-0.7-1.2-1.5-1.9-1.8c-0.4-0.2-1.2 0.5-1.8 0.8c-0.1 0.1-0.2 0.2-0.3 0.2c-0.2 0-0.5 0.1-0.7 0c-0.8-0.3-1.8-0.5-2.4-1.1c-0.5-0.5-0.6-1.6-0.9-2.4q0-0.1 0-0.2h-3c-0.2 0.6-0.4 1.1-0.5 1.7c-0.1 0.7-0.4 1.1-1.2 1.3c-0.5 0.1-0.9 0.5-1.5 0.6c-0.3 0.1-0.7 0.1-1 0c-0.6-0.3-1.3-0.7-1.8-1c-0.8 0.7-1.5 1.4-2.2 2.1c0.5 0.9 0.9 1.7 1.4 2.6zm5.4 1.1c3 1.2 5.4 3.1 7.3 5.7c1-1.7 0.4-4.3-1.3-5.7c-1.8-1.4-4.3-1.4-6 0z"/><path class="B" d="m50.4 31.7c0.5-0.5 0.9-1 1.5-1.5h-25.7q0 0-0.1 0.1q0.8 0.6 1.6 1.3c-0.7 0.7-1.3 1.2-1.7 1.7c-1.5-1.5-3-3-4.4-4.4c1.4-1.4 2.8-2.9 4.3-4.4c0.5 0.5 1.1 1 1.7 1.7q-0.8 0.6-1.6 1.2q0.1 0.1 0.2 0.2h25.8c-0.7-0.5-1.2-0.9-1.8-1.4c0.8-0.7 1.3-1.2 1.8-1.6c1.5 1.4 3 2.9 4.4 4.3c-1.4 1.4-2.9 2.9-4.4 4.4m-35-11.6q-1.1-0.2-2.2-0.3c0.8-7.1 7.8-13.5 15.6-13.3v2.4c-7.1 0.5-11.6 4.2-13.4 11.2zm17.9-10.4c-0.8-0.2-1.5-0.4-2.2-0.6c0.1-0.8 0.2-1.5 0.4-2.4c0.8 0.2 1.7 0.4 2.6 0.6c-0.3 0.9-0.5 1.6-0.8 2.4z"/><path fill-rule="evenodd" class="B" d="m49 43.6c-0.8 1.7-1.4 3.3-2.1 4.8c2.6-0.8 4.3-2.8 6.2-4.8l3-2.9c1.5-1.5 2.9-2.9 4.4-4.3c1.3-1.3 2.9-1.7 4.6-1.1c1.7 0.5 2.8 1.7 3.2 3.5c0.1 0.7 0 1.4 0 2.2l-1 2.6c-0.6 0-1 0.2-1.5 0.6q-7.5 7.6-15.1 15.2c-0.5 0.4-0.7 0.9-0.7 1.6q0 7.4 0 14.7v0.9h-22v-0.8q0-7.6 0-15.1c0-0.4-0.2-0.9-0.5-1.1q-7.7-7.8-15.5-15.6c-0.3-0.2-0.7-0.4-1-0.4l-1.3-2.7q0-0.1 0-0.2c-0.3-2.3 0.6-4.2 2.5-5.2c1.9-0.9 4-0.5 5.6 1.1q1.1 1.1 2.2 2.2c0.8 0.8 1.5 1.8 2.4 2.2l2.5 2.6c1.9 2 3.6 4.1 6.2 4.8q-1-2.3-2.1-4.8l0.3-2.5c0.9-5.4 5-8.2 8.9-8.5q3.2-0.2 6 1.5c2.6 1.6 4 4 4.5 7zm-17.3-1.3c0 4.1 3.3 7.4 7.4 7.4c4 0 7.3-3.3 7.3-7.3c0-4-3.2-7.4-7.3-7.4c-4 0-7.3 3.3-7.4 7.3zm7.4 25.1c-1.1-1.1-2.2-2.2-3.2-3.3c-0.3-0.2-0.5-0.7-0.5-1.1c0.2-2.1 0.4-4.2 0.6-6.3q0.1-2.3 0.3-4.7c-0.6-0.1-1.2-0.2-1.7-0.3c-3.9-0.3-7.1-1.9-9.8-4.7c-2.8-2.9-5.6-5.6-8.4-8.4q-0.3-0.4-0.6-0.6c-1.3-1-3.1-0.5-3.5 1.1c-0.4 1 0.1 1.8 0.8 2.5q8.5 8.5 16.9 17c0.3 0.2 0.5 0.7 0.5 1.1q0 6.8 0 13.7v0.8h17.2c0-4.9 0-9.7 0-14.5c-0.1-0.5 0.1-0.8 0.4-1.2q3-2.9 6-5.9q5.5-5.5 11.1-11.1c0.6-0.6 1-1.4 0.8-2.3c-0.5-1.8-2.5-2.3-3.9-0.9q-4.6 4.5-9.2 9.2c-2.1 2.1-4.6 3.5-7.6 4q-1.7 0.2-3.5 0.5c0.1 0.3 0.1 0.6 0.1 0.9q0.4 5 0.8 10.1c0.1 0.3 0 0.7-0.2 0.9c-1.1 1.2-2.2 2.3-3.4 3.5zm0.1-3.5c0.4-0.5 1-1 1-1.5c-0.2-3.3-0.5-6.5-0.8-9.8c0-0.4-0.2-0.5-0.6-0.3c-0.3 3-0.5 6.1-0.8 9.2c-0.1 1.1 0.2 1.8 1.2 2.4z"/></g></svg>