<svg version="1.2" xmlns="http://www.w3.org/2000/svg" viewBox="0 0 77 77" width="77" height="77"><defs><clipPath clipPathUnits="userSpaceOnUse" id="cp1"><path d="m-72-952h1224v1584h-1224z"/></clipPath></defs><style>.A{fill:#383838}.B{fill:#f57a1a}</style><g clip-path="url(#cp1)"><path fill-rule="evenodd" class="A" d="m76 4.7v68.4c0 2.1-1.7 3.8-3.8 3.8h-68.4c-2.1 0-3.8-1.7-3.8-3.8v-68.4c0-2.1 1.7-3.8 3.8-3.8h68.4c2.1 0 3.8 1.7 3.8 3.8zm-2.5 13.9h-71v54.5c0 0.7 0.6 1.3 1.3 1.3h68.4c0.7 0 1.3-0.6 1.3-1.3zm0-13.9c0-0.7-0.6-1.3-1.3-1.3h-68.4c-0.7 0-1.3 0.6-1.3 1.3v11.4h71z"/><path fill-rule="evenodd" class="B" d="m12.7 9.8c0 2.1-1.7 3.8-3.8 3.8c-2.1 0-3.8-1.7-3.8-3.8c0-2.1 1.7-3.8 3.8-3.8c2.1 0 3.8 1.7 3.8 3.8zm-2.6 0c0-0.7-0.5-1.3-1.2-1.3c-0.7 0-1.3 0.6-1.3 1.3c0 0.7 0.6 1.3 1.3 1.3c0.7 0 1.2-0.6 1.2-1.3zm12.7 0c0 2.1-1.7 3.8-3.8 3.8c-2.1 0-3.8-1.7-3.8-3.8c0-2.1 1.7-3.8 3.8-3.8c2.1 0 3.8 1.7 3.8 3.8zm-2.5 0c0-0.7-0.6-1.3-1.3-1.3c-0.7 0-1.3 0.6-1.3 1.3c0 0.7 0.6 1.3 1.3 1.3c0.7 0 1.3-0.6 1.3-1.3zm12.6 0c0 2.1-1.7 3.8-3.8 3.8c-2 0-3.8-1.7-3.8-3.8c0-2.1 1.8-3.8 3.8-3.8c2.1 0 3.8 1.7 3.8 3.8zm-2.5 0c0-0.7-0.6-1.3-1.3-1.3c-0.7 0-1.2 0.6-1.2 1.3c0 0.7 0.5 1.3 1.2 1.3c0.7 0 1.3-0.6 1.3-1.3zm40.5-2.6v5.1c0 0.7-0.5 1.3-1.2 1.3h-25.4c-0.7 0-1.2-0.6-1.2-1.3v-5.1c0-0.6 0.5-1.1 1.2-1.2h25.4c0.7 0 1.2 0.5 1.2 1.2zm-2.5 1.3h-22.8v2.6h22.8zm-29.6 15.5c0 0 2.5 2.1 6 4.3c3.6 2.1 8.2 4.2 12.2 4.2c0.7 0 1.3 0.6 1.3 1.3c0 8.3-1.3 15.5-4.5 21.5c-3.1 5.9-8.1 10.6-15.3 13.8c-0.3 0.2-0.7 0.2-1 0c-11.2-5-17-13.5-19-24.9c-0.3-1.7 2.3-2.1 2.5-0.4c1.9 10.6 6.9 17.9 17 22.7c6.5-3 10.8-7.1 13.6-12.4c2.7-5.2 4-11.5 4.1-19.1c-4.4-0.4-8.8-2.5-12.2-4.6c-3.2-1.9-4.9-3.4-5.5-3.9c-0.6 0.5-2.3 2-5.5 3.9c-3.4 2.1-7.8 4.2-12.2 4.6c0 1.4 0.1 2.7 0.2 4c0.1 1.7-2.5 1.9-2.6 0.2q-0.2-2.6-0.2-5.4c0-0.7 0.6-1.3 1.3-1.3c4 0 8.6-2.1 12.2-4.2c3.5-2.2 6-4.3 6-4.3q0.3-0.4 0.8-0.3q0.5 0 0.8 0.3z"/><path fill-rule="evenodd" class="B" d="m43.1 44c0 2.3-1.7 4.3-3.8 4.9v6.5c0 1.7-2.6 1.7-2.6 0v-6.5c-2.1-0.6-3.8-2.6-3.8-4.9c0-2.8 2.3-5.1 5.1-5.1c2.8 0 5.1 2.3 5.1 5.1zm-2.6 0c0-1.4-1.1-2.5-2.5-2.5c-1.4 0-2.5 1.1-2.5 2.5c0 1.4 1.1 2.5 2.5 2.5c1.4 0 2.5-1.1 2.5-2.5z"/></g></svg>