<svg version="1.2" xmlns="http://www.w3.org/2000/svg" viewBox="0 0 77 77" width="77" height="77"><defs><clipPath clipPathUnits="userSpaceOnUse" id="cp1"><path d="m-642-952h1224v1584h-1224z"/></clipPath></defs><style>.A{fill:#383838}.B{fill:#f57a1a}</style><g clip-path="url(#cp1)"><path fill-rule="evenodd" class="A" d="m58.4 60.7h-7.7v12.5c0 0.4 0.7 0.9 1.5 0.9c0.8 0 1.5 0.6 1.5 1.4c0 0.8-0.7 1.4-1.5 1.4c-2.4 0-4.3-1.7-4.3-3.7v-12.5h-5.1v8.7c0 0.8-0.6 1.5-1.4 1.5c-0.4 0-0.7-0.2-1-0.5c-0.3-0.2-0.4-0.6-0.4-1v-8.7h-5.1v12.5c0 2-1.9 3.7-4.3 3.7c-0.8 0-1.5-0.6-1.5-1.4c0-0.8 0.7-1.4 1.5-1.4c0.8 0 1.5-0.5 1.5-0.9v-12.5h-5.1v8.7c0 0.8-0.6 1.5-1.4 1.5c-0.4 0-0.7-0.2-1-0.5c-0.3-0.2-0.4-0.6-0.4-1v-8.7h-6.6c-0.8 0-1.4-0.6-1.4-1.4v-7.7h-12.5c-0.4 0-0.9 0.7-0.9 1.6c0 0.7-0.6 1.4-1.4 1.4c-0.8 0-1.4-0.7-1.4-1.4c0-2.5 1.7-4.4 3.7-4.4h12.5v-5.1h-8.7c-0.8 0-1.4-0.6-1.4-1.4c0-0.8 0.6-1.4 1.4-1.4h8.7v-5.1h-12.5c-2 0-3.7-1.9-3.7-4.3c0-0.5 0.3-1 0.7-1.3c0.5-0.2 1-0.2 1.4 0c0.5 0.3 0.8 0.8 0.8 1.3c0 0.8 0.4 1.5 0.8 1.5h12.5v-5.1h-8.7c-0.8 0-1.4-0.6-1.4-1.4c0-0.8 0.6-1.4 1.4-1.4h8.7v-6.6c0-0.8 0.6-1.4 1.4-1.4h7.7v-12.4c0-0.5-0.7-0.9-1.5-0.9c-0.8 0-1.5-0.7-1.5-1.5c0-0.7 0.7-1.4 1.5-1.4c2.4 0 4.3 1.7 4.3 3.8v12.4h5.1v-8.7c0-0.8 0.6-1.4 1.4-1.4c0.8 0 1.4 0.6 1.4 1.4v8.7h5.1v-12.4c0-2.1 1.9-3.8 4.3-3.8c0.8 0 1.5 0.7 1.5 1.4c0 0.8-0.7 1.5-1.5 1.5c-0.8 0-1.5 0.4-1.5 0.9v12.4h5.1v-8.7c0-0.8 0.6-1.4 1.4-1.4c0.8 0 1.4 0.6 1.4 1.4v8.7h6.6c0.8 0 1.4 0.6 1.4 1.4v7.7h12.5c0.4 0 0.9-0.7 0.9-1.5c0-0.8 0.6-1.5 1.4-1.5c0.8 0 1.4 0.7 1.4 1.5c0 2.4-1.7 4.3-3.7 4.3h-12.5v5.1h8.7c0.8 0 1.4 0.6 1.4 1.4c0 0.8-0.6 1.5-1.4 1.5h-8.7v5h12.5c2 0 3.7 1.9 3.7 4.3c0 0.4-0.1 0.8-0.4 1.1c-0.3 0.2-0.6 0.4-1 0.4c-0.8 0-1.5-0.7-1.5-1.4c0-0.9-0.4-1.6-0.8-1.6h-12.5v5.1h8.7c0.8 0 1.4 0.6 1.4 1.4c0 0.8-0.6 1.4-1.4 1.4h-8.7v6.6c0 0.8-0.6 1.4-1.4 1.4zm-39.4-2.8h38v-38h-6.6q0 0 0 0q0 0 0 0h-15.8q0 0 0 0q0 0 0 0h-15.6z"/><path class="B" d="m49.3 36.8c-0.4 0-0.8-0.2-1.1-0.4c-1.6-1.7-3.7-2.9-5.9-3.6c-5.1-1.6-10.7-0.2-14.6 3.6c-0.2 0.2-0.6 0.4-1 0.4c-0.4 0-0.8-0.1-1-0.4c-0.3-0.3-0.5-0.7-0.5-1.1c0-0.3 0.2-0.7 0.5-1c2.5-2.6 5.9-4.3 9.5-4.8q8.7-1.3 15.1 4.8c0.4 0.4 0.5 0.9 0.4 1.4c-0.1 0.6-0.5 1-1.1 1.1q-0.1 0-0.3 0zm-11-2.3c3.1 0.1 6.1 1.3 8.3 3.5c0.3 0.4 0.5 0.9 0.4 1.4c-0.2 0.6-0.6 1-1.1 1.1c-0.5 0.1-1 0-1.4-0.4c-1.9-1.9-4.6-2.9-7.3-2.6c-2.2 0.1-4.2 1-5.7 2.6c-0.4 0.4-0.9 0.5-1.4 0.4c-0.6-0.1-1-0.5-1.1-1c-0.1-0.5 0-1.1 0.4-1.4c1.5-1.6 3.4-2.6 5.5-3.2q1.7-0.4 3.4-0.4zm-0.3 5.2c1.8 0 3.6 0.7 4.9 2c0.4 0.4 0.5 0.9 0.4 1.4c-0.1 0.5-0.5 0.9-1 1.1c-0.5 0.1-1-0.1-1.4-0.4c-1.6-1.6-4.2-1.6-5.8 0c-0.2 0.2-0.6 0.4-1 0.4c-0.6 0-1.1-0.3-1.4-0.8c-0.2-0.6-0.1-1.2 0.4-1.7c1.3-1.3 3-2 4.9-2zm0 5.1c1 0 1.9 0.8 1.9 1.9c0 1-0.8 1.9-1.9 1.9c-1 0-1.9-0.8-1.9-1.9c0-0.5 0.2-1 0.5-1.3c0.4-0.4 0.9-0.6 1.4-0.6z"/></g></svg>