<svg version="1.2" xmlns="http://www.w3.org/2000/svg" viewBox="0 0 80 81" width="80" height="81"><defs><clipPath clipPathUnits="userSpaceOnUse" id="cp1"><path d="m-72-1229h1224v1584h-1224z"/></clipPath></defs><style>.A{fill:#383838}.B{fill:#fc8019}</style><g clip-path="url(#cp1)"><path fill-rule="evenodd" class="A" d="m0 64v-59.6c0.2-0.5 0.4-1.2 0.7-1.7c0.8-1.4 2.1-2.1 3.5-2.5h71.6c3.4 1 4.2 3.4 4.2 6.1c-0.1 18.7 0 37.5 0 56.2c0 3.6-2 5.6-5.6 5.6q-5.6 0-11.3 0c-0.5 0-0.8 0.1-1 0.5c-4.6 6.4-10.7 10.3-18.4 11.3c-10.7 1.3-19.2-2.5-25.7-11.1c-0.4-0.5-0.7-0.7-1.4-0.7q-5.6 0-11.3 0c-2.7 0-4.4-1.3-5.2-4q0-0.1-0.1-0.1zm76.8-44.1h-73.7c0 14 0 28.8 0 42.8c0 1.5 0.7 2.3 2.3 2.3q4.8 0 9.6 0c0.2 0 0.4-0.1 0.7-0.1c-0.1-0.2-0.2-0.3-0.2-0.5q-3-6.6-2.2-13.9q0.5-5.3 3.1-10c0.4-0.9 1.3-1.2 2.1-0.8c0.9 0.4 1.1 1.3 0.5 2.4c-2.6 5-3.3 10.3-2.3 15.8c2.4 13 15.5 21.5 28.3 18.6c12.6-2.8 20.4-14.5 18.4-27.2c-1.8-11-11.5-19.4-22.6-19.7c-4.3-0.1-8.3 0.8-12 2.8c-0.4 0.2-1 0.3-1.4 0.2c-0.7-0.1-1.1-0.6-1.2-1.3c-0.1-0.8 0.4-1.3 1.1-1.7c8.3-4.2 16.7-4.4 24.9-0.2c12.7 6.5 18.1 21.6 12.4 34.7c-0.1 0.2-0.2 0.5-0.3 0.9h0.9q4.6 0 9.2 0c1.8 0 2.4-0.7 2.4-2.5q0-20.9 0-41.7zm-73.6-3.3h73.6v-0.7q0-5.1 0-10.2c0-1.6-0.7-2.3-2.2-2.3q-34.6 0-69.2 0c-1.6 0-2.3 0.7-2.3 2.2q0 5.2 0 10.3q0 0.4 0.1 0.7z"/><path fill-rule="evenodd" class="B" d="m26.6 55.1q0-1.5 0-3c0-2.1 1-3.5 2.9-4.2c0.5-0.1 0.5-0.4 0.5-0.7c0-1.7-0.1-3.4 0.2-5c0.5-3.8 3.9-6.7 7.8-6.8c1.7-0.1 3.5-0.1 5.2 0.1c3.8 0.6 6.7 4 6.8 7.8q0 2 0 3.9c0 0.4 0.1 0.6 0.5 0.7c1.7 0.6 2.8 1.8 2.8 3.5c0.1 3 0.2 6.1-0.3 9.1c-0.9 6.2-6.7 10.7-13.1 10.7c-6.3 0-11.9-4.6-13-10.7c-0.3-1.8-0.3-3.6-0.4-5.4q0 0 0.1 0zm13.4-4.3q-4.4 0-8.9 0c-0.9 0-1.4 0.4-1.4 1.2c0 2.3-0.1 4.7 0.1 7.1c0.5 5 5 9 10.2 9c5.2 0 9.7-4 10.1-9.1c0.2-2.2 0.1-4.5 0.1-6.7c0.1-1.1-0.3-1.5-1.4-1.5q-4.4 0-8.8 0zm6.9-3.1c0-1.5 0-2.8 0-4.2c-0.1-2.7-2.3-4.9-5.1-5q-1.8-0.1-3.7 0c-2.2 0-4.3 1.5-4.7 3.7c-0.4 1.8-0.3 3.6-0.4 5.5z"/><circle class="A" cx="22.1" cy="35.4" r="1.6"/><path class="B" d="m22.7 8.5q5.7 0 11.5 0c0.7 0 1.2 0.1 1.6 0.7c0.5 0.9 0.1 2-0.9 2.3c-0.4 0.1-0.7 0.1-1.1 0.1q-11.1 0-22.2 0q-0.5 0-0.9-0.1c-0.8-0.1-1.4-0.8-1.3-1.6c0.1-0.8 0.7-1.4 1.5-1.4c0.8 0 1.6 0 2.4 0q4.7 0 9.4 0zm29.4 0c0.9 0 1.6 0.6 1.6 1.5c0 0.8-0.7 1.6-1.6 1.6c-0.8 0-1.5-0.8-1.5-1.6c0-0.9 0.7-1.5 1.5-1.5zm15.3 1.5c0.1-0.9 0.7-1.5 1.6-1.5c0.9 0 1.5 0.7 1.6 1.5c0 0.9-0.8 1.6-1.7 1.6c-0.8-0.1-1.5-0.8-1.5-1.6zm-8.4-0.1c0-0.8 0.7-1.4 1.6-1.4c0.9 0 1.6 0.7 1.5 1.6c0 0.8-0.8 1.5-1.6 1.5c-0.8 0-1.5-0.8-1.5-1.7zm-20.6 49c0-0.6 0-1.2 0-1.9c0.1-0.9 0.7-1.5 1.5-1.5c0.9 0 1.6 0.6 1.6 1.5q0.1 1.9 0 3.8c0 0.9-0.7 1.5-1.5 1.5c-0.9 0-1.5-0.6-1.6-1.5c0-0.6 0-1.3 0-1.9z"/></g></svg>