<svg version="1.2" xmlns="http://www.w3.org/2000/svg" viewBox="0 0 81 64" width="81" height="64"><defs><clipPath clipPathUnits="userSpaceOnUse" id="cp1"><path d="m-71-140h1224v1584h-1224z"/></clipPath></defs><style>.A{fill:#383838}.B{fill:#fc8019}</style><g clip-path="url(#cp1)"><path class="A" d="m80.2 54.9l-6.5 7.6c-0.4 0.5-1 0.8-1.6 0.8c-0.5 0-1-0.2-1.4-0.5c-0.9-0.8-1-2.1-0.2-3l3.8-4.4h-15.5c-6.3 0-12.2-3.7-16.5-10.3c-0.6-1-0.4-2.3 0.6-2.9c1-0.7 2.3-0.4 2.9 0.6c3.6 5.4 8.2 8.3 13 8.3h15.5l-3.8-4.4c-0.8-0.9-0.7-2.2 0.2-3c0.9-0.7 2.2-0.6 3 0.3l6.5 7.6c0.5 0.4 0.8 1 0.8 1.6c0 0.7-0.3 1.3-0.8 1.7zm-46-29.9c0.7 1 0.4 2.3-0.6 2.9q-0.5 0.4-1.1 0.4c-0.7 0-1.4-0.4-1.8-1l-4.4-6.7c-3.6-5.4-8.2-8.4-13.1-8.4h-10.1c-1.2 0-2.1-0.9-2.1-2.1c0-1.2 0.9-2.1 2.1-2.1h10.1c6.3 0 12.2 3.6 16.6 10.2z"/><path class="B" d="m80.5 11.3q0 0.1-0.1 0.1q0 0.1 0 0.1l-6.7 7.9c-0.4 0.5-1 0.7-1.6 0.7c-0.5 0-1-0.1-1.4-0.5c-0.9-0.7-1-2.1-0.2-2.9l3.8-4.5h-10.7c-4.8 0-9.4 3-12.9 8.4l-16.1 24.5c-4.4 6.6-10.2 10.3-16.6 10.3h-14.9c-1.2 0-2.1-1-2.1-2.2c0-1.1 0.9-2.1 2.1-2.1h14.9c4.9 0 9.5-2.9 13.1-8.3l16.1-24.6c4.2-6.5 10.2-10.2 16.4-10.2h10.7l-3.8-4.5c-0.8-0.8-0.7-2.2 0.2-2.9c0.9-0.8 2.2-0.7 3 0.2l6.7 7.9q0 0.1 0 0.1q0.1 0 0.1 0.1q0.1 0 0.1 0.1q0 0.1 0.1 0.1q0 0.1 0 0.1q0.1 0.1 0.1 0.2q0 0 0 0.1q0 0.1 0.1 0.1q0 0.1 0 0.2q0 0 0 0.1q0 0.1 0 0.1q0 0.1 0 0.1q0 0 0 0.1q0 0 0 0.1q0 0.1 0 0.1q0 0.1 0 0.2q-0.1 0-0.1 0.1q0 0.1 0 0.1q0 0.1-0.1 0.2q0 0 0 0.1q-0.1 0-0.1 0.1q0 0.1-0.1 0.1z"/></g></svg>