<svg version="1.2" xmlns="http://www.w3.org/2000/svg" viewBox="0 0 82 80" width="82" height="80"><defs><clipPath clipPathUnits="userSpaceOnUse" id="cp1"><path d="m-71-604h1224v1584h-1224z"/></clipPath></defs><style>.A{fill:#383838}.B{fill:#fc8019}</style><g clip-path="url(#cp1)"><path fill-rule="evenodd" class="A" d="m71.9 37v6h2.8q2.4 0 4.7 0q1.6 0 1.6 1.1q0 1.2-1.6 1.2q-3.3 0-6.5 0h-1v5.9h0.9q3.4 0 6.8 0q1.4 0 1.4 1.1c0 0.7-0.5 1.2-1.4 1.2c-2.5 0-5.1 0-7.7 0v5.9q0.5 0 0.9 0q3.4 0 6.8 0c0.8 0 1.3 0.3 1.4 1.1c0.1 0.7-0.5 1.2-1.4 1.2q-3.3 0-6.7 0c-0.3 0-0.6 0-1 0q0 0.9 0 1.6q0 1.4 0 2.7c0 2.9-2 4.8-4.8 4.9c-1.4 0-2.8 0-4.3 0q-0.1 0.5-0.1 0.9q0 3.1 0 6.2q0 0.3 0 0.6q0 1.4-1.1 1.4c-0.7 0-1.1-0.5-1.1-1.4q0-3.4 0-6.7q0-0.4 0-1h-5.9q-0.1 0.4-0.1 0.9q0 3.2 0 6.3q0 0.3 0 0.6c0 0.8-0.5 1.3-1.2 1.3c-0.7 0-1.1-0.5-1.1-1.3q0-3.2 0-6.3c0-0.5 0-0.9 0-1.5h-5.9v2.9q0 2.3 0 4.6c0 1.1-0.4 1.6-1.2 1.6q-1.1 0-1.1-1.5q0-3.4 0-6.7v-0.9h-6v0.9q0 3.4 0 6.7c0 1-0.4 1.5-1.1 1.5c-0.7 0-1.1-0.5-1.1-1.5c-0.1-2.5-0.1-5-0.1-7.6h-5.9q0 0.5 0 1q0 3.3 0 6.6q0 1.5-1.1 1.5c-0.8 0-1.2-0.5-1.2-1.5q0-3.3 0-6.6q0-0.5 0-1h-5.9q0 0.5 0 0.9q0 3.5 0 6.9c0 0.8-0.5 1.3-1.2 1.3c-0.7 0-1-0.5-1.1-1.2q0-0.3 0-0.6q0-3.2 0-6.3v-1c-1.5 0-2.9 0-4.3 0c-1.2 0-2.3-0.3-3.2-1.1c-1.1-1-1.6-2.2-1.6-3.6c-0.1-1.5-0.1-2.9-0.1-4.5h-0.9c-2.2 0-4.5 0-6.7 0c-0.4 0-1-0.3-1.3-0.6c-0.5-0.7 0.1-1.6 1.1-1.6q3.4-0.1 6.8-0.1q0.5 0 1 0v-5.9c-2.1 0-5.1 0-7.2 0q-0.4 0-0.7 0c-0.8-0.1-1.2-0.6-1.2-1.2c0.1-0.8 0.6-1.1 1.3-1.1q3.4 0 6.8 0q0.5 0 1 0v-5.9q-0.4 0-0.8 0q-3.5 0-6.9 0c-0.9 0-1.3-0.5-1.4-1.1c0-0.8 0.5-1.2 1.4-1.2q3.4 0 6.9 0h0.8v-6h-0.9q-3.4 0-6.7 0c-1 0-1.5-0.4-1.5-1.1c0-0.7 0.5-1.2 1.4-1.2c2.6 0 5.1 0 7.7 0v-5.9q-2.1 0-4.1 0q-1.8 0-3.6 0q-1.3 0-1.4-1.1c0-0.7 0.5-1.2 1.4-1.2q3.6 0 7.2 0q0.2 0 0.5 0v-5.9q-0.8 0-1.7 0q-3 0-6.1 0c-0.8-0.1-1.3-0.5-1.3-1.2c0.1-0.7 0.5-1.1 1.2-1.1q0.4 0 0.7 0q3.1 0 6.3 0h0.9c0-1.4 0-2.7 0-4c0.1-3.3 1.9-5.2 5.2-5.2c1.3 0 2.6 0 4 0c0-0.5 0-0.9 0-1.3q0-3.2 0-6.3c0-1 0.4-1.5 1.2-1.5q1.1 0 1.1 1.5q0 3.3 0 6.7q0 0.4 0 0.9h5.9q0-0.6 0-1.2q0-3.2 0-6.4c0-1 0.4-1.5 1.2-1.5q1.1 0 1.1 1.5q0 3.3 0 6.6q0 0.5 0 1h5.9q0-0.4 0-0.9q0.1-3.4 0-6.8c0-0.6 0.2-1.2 0.9-1.3c0.3-0.1 0.9 0.1 1.2 0.4c0.2 0.2 0.2 0.6 0.2 1c0.1 2.5 0 5 0 7.6h6v-1.1q0-3.3 0-6.6c0-0.9 0.4-1.4 1.1-1.4c0.7 0 1.2 0.5 1.2 1.4c0 2.6 0 5.1 0 7.7h5.9q0-2.4 0-4.8q0-1.5 0-2.9q0.1-1.3 1.1-1.4c0.7 0 1.2 0.5 1.2 1.4q0 3.4 0 6.8q0 0.4 0 0.9h6q0-0.7 0-1.3q0-3.2 0-6.3q0-1.5 1.1-1.5q1.1 0 1.1 1.5q0 3.3 0 6.7c0 0.2 0 0.5 0 0.9c1.4 0 2.7 0 4.1 0c3.2 0 5.1 1.9 5.1 5.1c0 1.4 0 2.7 0 4.1c0.5 0 1 0 1.5 0q3.1 0 6.2 0c0.9 0 1.4 0.4 1.4 1.2c0 0.7-0.5 1.1-1.4 1.1q-3.4 0-6.7 0q-0.5 0-1 0v5.9q1.3 0 2.6 0q2.5 0 5 0c1 0 1.5 0.4 1.5 1.2q0 1.1-1.4 1.1q-3.4 0-6.7 0q-0.5 0-1 0v5.9h0.9q3.4 0 6.7 0c1 0 1.5 0.4 1.5 1.2c0 0.7-0.5 1.1-1.5 1.1c-2.5 0-5 0-7.6 0zm-2.3 3q0-12.8 0-25.7c0-2.1-0.8-2.9-2.9-2.9q-25.7 0-51.4 0c-2 0-2.9 0.8-2.9 2.9q0 25.7 0 51.4c0 2.1 0.9 2.9 2.9 2.9q25.7 0 51.4 0c2.1 0 2.9-0.8 2.9-2.9q0-12.9 0-25.7z"/><path fill-rule="evenodd" class="B" d="m62.7 33.9v-8.7h-1.5c-1.6 0-3.2 0.1-4.7 0c-1.4-0.2-2.2 0.5-2.9 1.5c0.5 1 0.8 2.1 0.5 3.3c-0.6 2.1-2.7 3.3-4.8 2.8c-2.2-0.5-3.5-2.7-3-4.8c0.5-2.1 2.6-3.4 4.7-2.9c0.6 0.1 1 0 1.3-0.4c1-1.5 2.4-1.9 4.2-1.8c2 0.1 4.1 0 6.2 0v-4.5h-43.3v6.7h12.6c0.5-1.3 1.2-2.4 2.6-2.8c0.8-0.2 1.8-0.3 2.7-0.1c2 0.4 3.3 2.3 3.2 4.3c-0.1 2-1.5 3.7-3.5 4c-2.1 0.5-3.9-0.7-5-3h-12.6v7.9h1c1.4 0 2.7 0 4 0c1.1 0.1 2 0 2.6-1.3c0.9-1.7 3.1-2.2 4.9-1.6c1.9 0.7 3 2.4 2.9 4.5c-0.2 1.8-1.6 3.4-3.4 3.8c-1.9 0.4-3.9-0.5-4.7-2.3c-0.3-0.7-0.7-0.8-1.4-0.8c-1.9 0-3.9 0-6 0q0 1.5 0 2.9c0 0.6 0 1.3 0 1.9c-0.1 0.7-0.4 1.2-1.2 1.1c-0.7 0-1.1-0.5-1.1-1.2q0-3.4 0-6.7q0-8.4 0-16.8c0-2.1 0.8-2.9 2.9-2.9q21.1 0 42.2 0c2.1 0 2.9 0.8 2.9 2.9q0 14.9 0 29.9q0 6.2 0 12.4c0 2-0.8 2.8-2.8 2.8q-13.9 0-27.8 0q-7.3 0-14.6 0c-2 0-2.8-0.8-2.8-2.8q0-2.4 0-4.8c0-0.9 0.5-1.5 1.2-1.5c0.7 0 1.1 0.6 1.1 1.5c0 1.7 0 3.4 0 5.2h12.3c0-1.7 0.1-3.4 0-5.1c-0.1-0.5-0.7-0.8-1-1.2c-0.4-0.7-0.8-0.3-1.2-0.1c-1.7 0.7-3.6 0.1-4.7-1.3c-1.1-1.4-1.1-3.4 0-4.9c1.2-1.4 3.1-1.9 4.8-1.1c1.7 0.7 2.7 2.5 2.3 4.3c-0.2 0.6-0.1 1.1 0.5 1.5c1.4 0.9 1.8 2.3 1.6 4c-0.1 1.3 0 2.6 0 4h7.1q0-2.2 0-4.4c0-0.2-0.2-0.4-0.4-0.6c-0.8-0.8-1.8-1.7-2.6-2.6c-0.3-0.4-0.5-1-0.6-1.5c-0.1-1-0.1-2 0-3c0-0.6-0.1-0.9-0.7-1.2c-1.8-0.8-2.8-2.7-2.4-4.7c0.3-1.8 1.9-3.2 3.8-3.4c2-0.2 3.8 1 4.5 2.8c0.7 2.2-0.2 4.4-2.3 5.4c-0.5 0.2-0.6 0.5-0.7 1c-0.3 2.2 0.4 3.9 2.2 5.2c0.3 0.2 0.5 0.5 0.7 0.7c0.7 0.5 0.9 1.2 0.8 2c0 1.4 0 2.8 0 4.2h19.4v-10.1h-8.6q-0.1 0.3-0.3 0.7c-0.9 1.8-2.9 2.8-4.9 2.3c-1.9-0.5-3.3-2.2-3.3-4.2c0-2 1.4-3.7 3.3-4.2c2-0.5 4 0.4 4.8 2.3c0.3 0.6 0.7 0.8 1.3 0.7c2.3 0 4.5 0 6.7 0h1v-12.9h-1.7c-1.4 0-2.8 0.1-4.3-0.1c-1.3-0.1-2.1 0.5-2.7 1.3c0.1 1.1 0.5 2 0.4 2.9c-0.1 2.3-2.2 3.9-4.4 3.6c-2.3-0.3-3.8-2.4-3.5-4.6c0.4-2.3 2.5-3.8 4.7-3.3c0.6 0.1 1 0.1 1.4-0.4c1-1.5 2.4-1.9 4.1-1.7c1.7 0.1 3.4 0 5.1 0zm-28.4-7.6c0 1.1 0.8 2 1.9 2c1.2 0 2.1-0.9 2.1-2c0-1.2-0.9-2-2.1-2c-1.1 0-1.9 0.8-1.9 2zm-5.8 10.2c0 1.2 0.9 2.1 2 2.1c1.1 0 2-0.8 2.1-1.9c0-1.2-0.9-2.1-2-2.1c-1.1-0.1-2.1 0.8-2.1 1.9zm12.1 8.1c0-1.2-0.9-2.1-2.1-2.1c-1.1 0.1-2 1-2 2.1c0.1 1.1 1 2 2.1 2c1.1 0 2-0.9 2-2zm11.4 5.7c0-1.1-0.9-2-2-2c-1.2 0-2.1 0.9-2.1 2c0.1 1.1 0.9 2 2 2c1.1 0 2.1-0.8 2.1-2zm-22.4 1.2c0-1-0.8-1.8-1.7-1.7c-1 0-1.7 0.8-1.7 1.7c0 1 0.9 1.8 1.8 1.7c0.9 0 1.7-0.9 1.6-1.7zm20.9-9.9c0.9 0 1.7-0.8 1.7-1.7c0.1-0.9-0.8-1.7-1.7-1.7c-0.9 0-1.7 0.8-1.7 1.8c0.1 0.9 0.8 1.6 1.7 1.6zm-0.2-14.3c-1-0.1-1.7 0.7-1.7 1.7c0 0.9 0.7 1.6 1.7 1.6c0.9 0.1 1.6-0.6 1.7-1.6c0-0.9-0.7-1.7-1.7-1.7zm-33.2 22c0-0.4 0-0.8 0-1.2c0.1-0.6 0.4-1 1.1-1c0.6 0 1 0.3 1.1 0.9q0.1 1.3 0 2.6c-0.1 0.6-0.6 0.9-1.1 0.9c-0.6 0-1-0.4-1.1-1c0-0.4 0-0.8 0-1.2q0 0 0 0z"/></g></svg>