<svg version="1.2" xmlns="http://www.w3.org/2000/svg" viewBox="0 0 80 55" width="80" height="55"><defs><clipPath clipPathUnits="userSpaceOnUse" id="cp1"><path d="m-72-493h1224v1584h-1224z"/></clipPath></defs><style>.A{fill:#383838}.B{fill:#fc8019}</style><g clip-path="url(#cp1)"><path fill-rule="evenodd" class="A" d="m54.5 40c-1.3 0-2.4 0-3.6 0q-3.1 0-3.1-3.2q-0.1-2.3 0-4.6c0-1.9 1-3 2.9-3q5.8 0 11.6 0c1.9 0 2.9 1.1 2.9 2.9q0 7.9 0 15.7c0 1.1-0.4 1.9-1.3 2.6c-4.3 3.2-9 4.7-14.4 4.3c-8.8-0.7-16.5-7.1-18.6-15.8c-2.9-12 5.1-24 17.4-25.6c5.7-0.8 10.9 0.6 15.4 4.1c1.8 1.3 1.9 3 0.4 4.6q-1.5 1.6-3.1 3.2c-1.3 1.5-2.5 1.6-4.1 0.5c-6.2-4.2-14.3-0.9-15.7 6.5c-1.4 7.2 5.7 13.5 12.7 11.4c0.5-0.1 0.6-0.3 0.6-0.8c0-0.9 0-1.8 0-2.8zm-4-2.7c1.7 0 3.4 0 5 0c1.2 0 1.7 0.5 1.7 1.7c0 1.6 0 3.3 0 5c0 0.8-0.3 1.4-1.1 1.7c-1.8 0.7-3.7 1.1-5.6 0.9c-5.3-0.4-9.1-2.9-11.1-7.7c-2-4.9-1.3-9.5 2.2-13.4c3.5-3.9 7.9-5.2 13-3.8c1.5 0.4 2.9 1.2 4.4 1.9c1-1.2 2.2-2.5 3.4-3.8c-0.1-0.1-0.1-0.1-0.2-0.2q-0.2-0.2-0.5-0.4c-3.7-2.6-7.8-3.7-12.3-3.3c-12.1 1.1-19.7 13.7-15 24.9c4.6 11.1 18.4 14.8 27.8 7.5c0.2-0.2 0.3-0.6 0.3-0.9q0.1-7.4 0-14.7q0-0.4 0-0.7h-12z"/><path fill-rule="evenodd" class="A" d="m16.3 25.2c4.1 0.8 7.6 2.7 10 6.3c3.5 5 3.8 10.5 0.7 15.8c-3 5.3-7.9 7.9-14 7.3c-6.2-0.5-10.4-3.9-12.7-9.6c-0.8-2.1 0.1-3.6 2.2-3.9c1.7-0.3 3.4-0.5 5-0.8c1.5-0.2 2.5 0.4 3.2 1.7c0.9 1.6 2.3 2.2 4.1 1.9c1.6-0.2 2.9-1.4 3.3-2.9c0.8-3.1-2-5.7-5.2-4.8c-0.8 0.2-1.5 0.6-2.2 1c-0.8 0.6-1.7 0.9-2.7 0.6c-1.8-0.4-3.6-0.7-5.4-1.2c-1.8-0.4-2.7-1.6-2.2-3.5q1.8-8.2 3.6-16.4c0.3-1.4 1.3-2.2 2.7-2.2q9.1-0.1 18.2 0c1.6 0 2.7 1.1 2.7 2.7q0 2.5 0 5.1c0 1.8-1.1 2.9-2.9 2.9q-4.2 0-8.4 0zm-13.6 18.5c0.1 0.2 0.1 0.3 0.1 0.4q0.1 0.3 0.2 0.5c2.1 4.5 5.5 7 10.4 7.4c7 0.6 13.2-5.5 12.9-12.4c-0.4-7.6-7-12.8-14.4-11.5c-1.3 0.2-2-0.5-1.8-1.7q0.3-1.3 0.6-2.5c0.2-1.1 0.6-1.4 1.7-1.4q5.8 0 11.7 0h0.8v-5.3h-18.3c-1.2 5.6-2.4 11.1-3.7 16.7c2 0.5 3.8 0.9 5.7 1.3c0.2 0 0.4-0.1 0.6-0.2c1.3-1 2.7-1.6 4.3-1.7c2.6-0.1 4.8 0.7 6.3 3c1.4 2.2 1.5 4.5 0.3 6.8c-2.4 4.6-8.8 4.8-11.6 0.5c-0.2-0.3-0.5-0.6-0.7-0.6c-1.7 0.2-3.3 0.5-5.1 0.7z"/><path class="B" d="m61 1c9.2 0.5 16.8 7.3 18.6 16.2c0.2 1.2 0.3 2.4 0.4 3.6c0.1 1.1-0.5 1.7-1.3 1.7c-0.8 0-1.3-0.6-1.4-1.6c-0.2-7.3-4.5-13.5-11.3-16.1c-1.9-0.7-3.9-1-6-1.1c-0.9 0-1.3-0.4-1.4-1.1c-0.2-0.9 0.4-1.6 1.4-1.6q0.5 0 1 0zm-0.4 8.1c6.2 0.4 11.2 5.5 11.4 11.7c0 1.3-1 2.1-2 1.5c-0.6-0.3-0.7-0.8-0.7-1.4c-0.3-4.3-3-7.8-7.1-8.8c-0.6-0.2-1.3-0.3-2-0.3c-1.1-0.1-1.7-0.6-1.7-1.5c0.1-0.8 0.7-1.2 1.9-1.2q0.1 0 0.2 0z"/></g></svg>