<svg width="180" height="173" viewBox="0 0 180 173" fill="none" xmlns="http://www.w3.org/2000/svg">
<path fill-rule="evenodd" clip-rule="evenodd" d="M132.588 42.4094C128.449 43.0865 124.92 39.5706 125.599 35.4457C126.01 32.947 128.032 30.9325 130.539 30.5229C134.679 29.8458 138.207 33.3617 137.528 37.4873C137.117 39.9853 135.095 41.9998 132.588 42.4094ZM138.418 20.3482C129.338 17.0155 118.968 18.8958 111.978 25.5612C110.112 27.3397 107.58 28.4396 104.782 28.4396C103.227 28.4396 101.754 28.0996 100.429 27.4907C91.5366 23.4003 81.1329 24.2459 73.5318 30.4013C68.7936 34.2381 64.7511 38.7264 61.5897 43.7035C56.0477 52.4295 48.1164 59.4078 38.5444 63.367C37.8385 63.6586 37.1435 63.9642 36.4596 64.2837C30.5808 67.0265 26.9038 73.2383 27.7186 79.6553C27.7892 80.2078 27.7863 80.7845 27.7002 81.3737C27.3178 83.9919 25.2322 86.1258 22.6142 86.564C22.5105 86.5816 22.4068 86.5962 22.3039 86.6087C16.9833 87.2455 12.915 91.7492 12.89 97.089V97.234C12.89 118.238 33.9761 135.265 59.9865 135.265C69.4312 135.265 78.2259 133.02 85.5975 129.156C93.6751 124.921 102.678 122.634 111.795 123.035C112.821 123.08 113.852 123.102 114.889 123.102C148.56 123.102 175.857 99.1767 175.857 69.6623C175.857 47.4583 160.407 28.4176 138.418 20.3482Z" fill="#1A3D75"/>
<path fill-rule="evenodd" clip-rule="evenodd" d="M80.7264 42.5242C80.4602 41.8997 79.8301 41.5064 79.1485 41.5421L77.9558 41.6049L78.6139 40.6695C79.0308 40.0778 79.0352 39.2906 78.6286 38.693C76.8588 36.0986 74.6654 34.0009 72.2654 32.3374C71.6514 31.9121 70.8455 31.8763 70.1977 32.2484L68.9823 32.9467L69.0764 32.2689C69.222 31.2292 68.6712 30.207 67.7087 29.7722C56.5535 24.7379 44.0535 27.1405 48.2469 31.691C48.6587 32.1375 49.1528 32.4987 49.68 32.8022C50.6726 33.372 52.9462 34.7269 55.6499 36.6443C56.4131 37.1849 57.4035 37.2966 58.2638 36.9267L58.5344 36.8114C58.8499 36.6757 59.1852 36.958 59.1021 37.29C58.8543 38.275 59.1955 39.311 59.9793 39.9633C61.0234 40.833 62.0675 41.761 63.0741 42.738C63.8521 43.4924 65.0087 43.7113 66.0072 43.283L66.2477 43.1801C66.5639 43.0444 66.8992 43.3268 66.8153 43.6587L66.5131 44.8597C66.3183 45.6309 66.4852 46.4487 66.9653 47.0857C67.6837 48.0364 68.3308 49.014 68.883 50.0114C69.2698 50.7104 69.9492 51.1992 70.7396 51.3429L71.3815 51.4597C71.7205 51.521 71.8411 51.9412 71.5867 52.171L71.4911 52.2564C70.7918 52.8861 70.4955 53.8323 70.6698 54.7538L70.6852 54.8348C72.8117 66.5983 75.8492 97.3358 75.8492 97.3358C75.8492 97.3358 88.6757 61.1831 80.7264 42.5242Z" fill="#0C326D"/>
<path fill-rule="evenodd" clip-rule="evenodd" d="M80.7324 42.1002C80.4663 41.4718 79.837 41.0721 79.1519 41.1086L78.6784 41.1335C78.3837 41.1488 78.1999 40.82 78.3689 40.5796L78.6115 40.2339C79.0284 39.6413 79.0335 38.8535 78.6263 38.2551C76.8568 35.6551 74.6646 33.5542 72.2658 31.8888C71.6527 31.4628 70.8469 31.427 70.1985 31.7989L69.617 32.1336C69.3583 32.2827 69.0414 32.0701 69.0819 31.7763C69.2252 30.7569 68.6812 29.7558 67.7387 29.329C56.9946 24.4579 44.9875 26.5215 47.8442 30.7299C48.1045 31.115 48.5566 31.3364 49.0219 31.2947C53.4005 30.9082 59.6544 31.8486 65.3128 34.8381C65.8362 35.1143 66.4545 35.1531 66.9977 34.9192L68.2489 34.3814L68.0857 35.031C67.8975 35.7786 68.182 36.5634 68.8054 37.0216C70.3257 38.1381 71.7541 39.4345 73.0303 40.9318C73.4369 41.4075 74.1132 41.5544 74.6895 41.3066L75.1012 41.1291C75.4526 40.9778 75.8268 41.2935 75.7335 41.6625L75.3475 43.1985C75.2394 43.6268 75.3027 44.0791 75.5232 44.462L75.5269 44.4678C82.2307 56.1268 78.5579 77.0531 75.2233 90.1122C75.1858 90.2599 75.1747 90.4133 75.1909 90.5646L75.2034 90.6837C75.3519 92.1042 77.364 92.2869 77.7639 90.9139C81.0044 79.8029 86.6629 56.0655 80.7324 42.1002Z" fill="#7384A8"/>
<path fill-rule="evenodd" clip-rule="evenodd" d="M80.7702 74.6307C78.0654 67.3157 74.8703 62.0197 71.4477 58.224C71.2202 57.9716 70.8561 57.8941 70.542 58.0236L69.1577 58.5927C68.478 58.8721 67.8086 58.1735 68.1191 57.5101L68.6886 56.2943C68.8413 55.9681 68.7606 55.5767 68.4853 55.3441C64.3096 51.8161 59.9204 50.1849 55.7469 49.6092C55.4555 49.569 55.1655 49.6955 54.9916 49.9325L54.6004 50.4636C54.1644 51.0539 53.2285 50.8037 53.1478 50.0752C53.1045 49.675 52.7698 49.3634 52.3661 49.3568C49.1402 49.3078 46.1308 49.7855 43.5611 50.356C39.9168 51.1651 30.714 55.5438 30.8454 59.3805C30.9511 62.493 44.9535 61.9422 56.955 69.3698C57.206 69.5256 57.5217 69.5344 57.7793 69.3888L58.3775 69.0494C59.0161 68.6873 59.7691 69.2959 59.5438 69.9937L59.4242 70.3653C59.3192 70.6916 59.4352 71.0456 59.7097 71.2526C61.5028 72.6037 63.2189 74.1662 64.7977 75.9854C65.1816 76.4272 65.556 76.8866 65.9215 77.3599C66.1153 77.6108 66.4375 77.7286 66.7472 77.6554L67.686 77.4338C68.4009 77.2648 68.9521 78.0599 68.5396 78.6663L68.0075 79.449C67.8277 79.7131 67.8247 80.0562 67.9958 80.3261C75.8737 92.7564 79.0526 111.768 80.0237 119.03C80.1353 119.86 81.281 119.988 81.5783 119.206C84.0108 112.806 88.6533 95.9508 80.7702 74.6307Z" fill="#0C326D"/>
<path fill-rule="evenodd" clip-rule="evenodd" d="M80.77 74.7973C78.0653 67.4342 74.8702 62.1032 71.4476 58.2825C71.2201 58.0285 70.856 57.9504 70.5419 58.0807L69.1576 58.6536C68.4779 58.9349 67.8085 58.2317 68.119 57.5638L68.6885 56.3401C68.8412 56.0117 68.7605 55.6178 68.4852 55.3836C64.3095 51.8323 59.9203 50.1904 55.7468 49.6109C55.4554 49.5704 55.1655 49.6978 54.9915 49.9363L54.6003 50.4702C54.1643 51.0651 53.2285 50.8133 53.1477 50.0799C53.1044 49.6771 52.7697 49.3635 52.366 49.3569C49.1401 49.3075 46.1308 49.7883 43.5611 50.3627C39.9168 51.177 30.714 55.5846 30.8454 59.4466C30.8637 59.9915 31.3034 60.4252 32.08 60.8088C33.7571 61.6371 35.7154 61.6327 37.4572 60.9502C38.476 60.5503 39.3942 60.2558 40.1032 60.0968C41.732 59.733 43.5376 59.4068 45.4628 59.2287C45.7836 59.1992 46.0581 58.9849 46.1594 58.6779L47.0145 56.075C47.2442 55.3748 48.2124 55.3232 48.5155 55.9955L49.7237 58.6801C49.8462 58.9525 50.1097 59.1315 50.4077 59.1521C51.7443 59.2426 53.1103 59.4326 54.4924 59.7507C54.7735 59.8155 55.0686 59.7294 55.2653 59.518L56.8926 57.7737C57.3939 57.2347 58.2945 57.5962 58.2879 58.3333L58.2688 60.4119C58.2651 60.7388 58.4604 61.0312 58.7584 61.1622C61.7582 62.4765 64.7565 64.5235 67.6052 67.5954C67.7828 67.7869 68.0419 67.8841 68.301 67.8495L70.5198 67.5542C71.2487 67.4577 71.7163 68.3097 71.2443 68.8751L70.3635 69.9325C70.125 70.2182 70.1147 70.6283 70.3334 70.9295C72.3453 73.7024 74.2493 77.0836 75.9874 81.1856C76.0791 81.4006 76.2597 81.5685 76.4806 81.6399L78.7633 82.3792C79.4628 82.6052 79.5201 83.5765 78.8514 83.8842L78.0029 84.2752C77.6227 84.4505 77.4429 84.8886 77.583 85.284C82.9786 100.461 82.1345 113.33 80.3407 121.73C80.323 121.815 80.3186 121.902 80.3282 121.987C80.3619 122.302 80.3781 122.469 80.3781 122.469C80.3781 122.469 90.8852 102.333 80.77 74.7973Z" fill="#7384A8"/>
<path fill-rule="evenodd" clip-rule="evenodd" d="M84.2594 72.0833C87.5421 66.8589 90.8834 63.2719 94.1609 60.8798C94.3786 60.7212 94.6748 60.7191 94.8983 60.869L95.8865 61.5273C96.3711 61.851 97.0052 61.4172 96.8703 60.8552L96.621 59.8254C96.5543 59.5495 96.6804 59.2598 96.9326 59.1236C100.754 57.0582 104.437 56.4926 107.782 56.7077C108.016 56.7229 108.222 56.8656 108.32 57.0763L108.54 57.5485C108.784 58.0735 109.554 58.0279 109.733 57.4782C109.832 57.1763 110.142 56.988 110.459 57.0473C112.98 57.5195 115.25 58.3647 117.161 59.212C119.872 60.4135 126.341 65.2519 125.622 68.195C125.04 70.5835 114.214 67.9437 103.667 71.7849C103.446 71.8653 103.199 71.8226 103.021 71.6691L102.609 71.312C102.17 70.9311 101.485 71.2823 101.549 71.8573L101.582 72.163C101.612 72.4324 101.464 72.6873 101.217 72.8032C99.6024 73.5643 98.0139 74.5 96.4906 75.6558C96.1204 75.9368 95.7553 76.2323 95.3946 76.5401C95.2026 76.7037 94.9328 76.7436 94.7041 76.6378L94.0069 76.3177C93.4769 76.0744 92.9198 76.6016 93.1434 77.1354L93.4322 77.8241C93.5297 78.0573 93.4777 78.3223 93.301 78.5041C85.1633 86.8614 79.6316 101.049 77.7073 106.507C77.4881 107.13 76.5747 107.047 76.4684 106.396C75.6005 101.067 74.6893 87.309 84.2594 72.0833Z" fill="#0C326D"/>
<path fill-rule="evenodd" clip-rule="evenodd" d="M84.2591 71.9034C87.5418 66.5851 90.8831 62.9337 94.1607 60.4986C94.3784 60.3372 94.6745 60.335 94.8981 60.4876L95.8863 61.1577C96.3709 61.4872 97.005 61.0456 96.8701 60.4736L96.6208 59.4252C96.5541 59.1443 96.6802 58.8495 96.9324 58.7109C100.754 56.6083 104.437 56.0325 107.782 56.2515C108.016 56.267 108.222 56.4122 108.32 56.6267L108.54 57.1074C108.784 57.6419 109.554 57.5954 109.733 57.0359C109.831 56.7285 110.142 56.5368 110.459 56.5972C112.98 57.0779 115.25 57.9383 117.161 58.8008C119.872 60.0238 126.341 64.9492 125.622 67.9453C125.521 68.3692 125.109 68.6368 124.443 68.8115C123.003 69.189 121.477 68.8698 120.229 68.0559C119.498 67.5796 118.83 67.2014 118.303 66.9641C117.092 66.417 115.736 65.8715 114.264 65.4225C114.018 65.3473 113.838 65.1357 113.808 64.8799L113.557 62.7081C113.49 62.1242 112.743 61.9281 112.4 62.4043L111.03 64.3071C110.891 64.501 110.657 64.5983 110.422 64.5659C109.365 64.4221 108.27 64.3499 107.142 64.3764C106.912 64.3816 106.696 64.2673 106.577 64.0705L105.587 62.4449C105.281 61.9428 104.522 62.0807 104.41 62.6579L104.093 64.285C104.044 64.5408 103.845 64.7384 103.592 64.7922C101.043 65.3363 98.3802 66.4532 95.6693 68.395C95.5007 68.5159 95.283 68.5506 95.0865 68.482L93.4041 67.8937C92.8514 67.7005 92.3515 68.2911 92.6286 68.8093L93.1468 69.7773C93.2861 70.039 93.2297 70.3604 93.0105 70.561C90.9997 72.404 88.9757 74.7388 86.9663 77.6648C86.8608 77.8182 86.6944 77.9199 86.5096 77.9405L84.6132 78.1507C84.0319 78.2148 83.8325 78.9638 84.3038 79.3118L84.9035 79.7541C85.1718 79.9524 85.2414 80.324 85.0692 80.6108C78.4415 91.6005 77.0457 101.793 77.1029 108.645C77.1037 108.714 77.0927 108.783 77.0721 108.848C76.9952 109.088 76.9563 109.217 76.9563 109.217C76.9563 109.217 71.9803 91.7907 84.2591 71.9034Z" fill="#7384A8"/>
<path fill-rule="evenodd" clip-rule="evenodd" d="M179.244 148.517H42.6479C42.2308 148.517 41.8926 148.21 41.8926 147.832C41.8926 147.453 42.2308 147.146 42.6479 147.146H179.244C179.661 147.146 180 147.453 180 147.832C180 148.21 179.661 148.517 179.244 148.517Z" fill="#001433"/>
<path fill-rule="evenodd" clip-rule="evenodd" d="M162.501 141.205H83.7911C80.2282 141.205 77.3401 138.308 77.3401 134.734V86.4423C77.3401 82.868 80.2282 79.9707 83.7911 79.9707H162.501C166.063 79.9707 168.951 82.868 168.951 86.4423V134.734C168.951 138.308 166.063 141.205 162.501 141.205Z" fill="#003180"/>
<path fill-rule="evenodd" clip-rule="evenodd" d="M81.9437 136.179H164.808V84.0835H81.9437V136.179Z" fill="#E6EFFF"/>
<path fill-rule="evenodd" clip-rule="evenodd" d="M100.388 119.293H145.851C147.394 119.293 148.644 118.025 148.644 116.459V103.369C148.644 101.804 147.394 100.535 145.851 100.535H100.388C98.8461 100.535 97.5959 101.804 97.5959 103.369V116.459C97.5959 118.025 98.8461 119.293 100.388 119.293Z" fill="#FF8B08"/>
<path fill-rule="evenodd" clip-rule="evenodd" d="M132.71 114.765H141.961C142.44 114.765 142.828 114.381 142.828 113.905V105.276C142.828 104.801 142.44 104.416 141.961 104.416H132.71C132.231 104.416 131.843 104.801 131.843 105.276V113.905C131.843 114.381 132.231 114.765 132.71 114.765Z" fill="#FFFFFE"/>
<path fill-rule="evenodd" clip-rule="evenodd" d="M103.526 106.356H127.85C128.271 106.356 128.612 106.067 128.612 105.71C128.612 105.353 128.271 105.063 127.85 105.063H103.526C103.106 105.063 102.765 105.353 102.765 105.71C102.765 106.067 103.106 106.356 103.526 106.356Z" fill="#FFFFFE"/>
<path fill-rule="evenodd" clip-rule="evenodd" d="M103.524 110.237H113.638C114.057 110.237 114.396 109.948 114.396 109.591V109.59C114.396 109.233 114.057 108.944 113.638 108.944H103.524C103.105 108.944 102.765 109.233 102.765 109.59V109.591C102.765 109.948 103.105 110.237 103.524 110.237Z" fill="#FFFFFE"/>
<path fill-rule="evenodd" clip-rule="evenodd" d="M109.974 114.119H127.865C128.277 114.119 128.612 113.828 128.612 113.471C128.612 113.115 128.277 112.825 127.865 112.825H109.974C109.561 112.825 109.227 113.115 109.227 113.471C109.227 113.828 109.561 114.119 109.974 114.119Z" fill="#FFFFFE"/>
<path fill-rule="evenodd" clip-rule="evenodd" d="M168.745 147.603H78.4673C75.0483 147.603 72.2762 144.739 72.2762 141.205H174.936C174.936 144.739 172.164 147.603 168.745 147.603Z" fill="#BFBDD4"/>
<path fill-rule="evenodd" clip-rule="evenodd" d="M168.745 145.401H78.4673C75.7985 145.401 73.5311 143.651 72.6616 141.205H72.2762C72.2762 144.739 75.0483 147.603 78.4673 147.603H168.745C172.164 147.603 174.936 144.739 174.936 141.205H174.551C173.681 143.651 171.414 145.401 168.745 145.401Z" fill="#AAA7C7"/>
<path fill-rule="evenodd" clip-rule="evenodd" d="M74.578 141.205H171.714V140.292H74.578V141.205Z" fill="#AAA7C7"/>
<path fill-rule="evenodd" clip-rule="evenodd" d="M129.09 143.49H117.202C116.035 143.49 115.09 142.467 115.09 141.205H131.202C131.202 142.467 130.256 143.49 129.09 143.49Z" fill="#4B4589"/>
<path fill-rule="evenodd" clip-rule="evenodd" d="M84.7059 139.835H96.2148V138.464H84.7059V139.835Z" fill="#7B79AC"/>
<path fill-rule="evenodd" clip-rule="evenodd" d="M150.537 139.835H162.046V138.464H150.537V139.835Z" fill="#7B79AC"/>
<path fill-rule="evenodd" clip-rule="evenodd" d="M139.488 136.179L164.348 111.045V126.083L154.409 136.179H139.488Z" fill="#E0DFE9"/>
<path fill-rule="evenodd" clip-rule="evenodd" d="M73.6573 90.9381L69.3258 60.1177L57.6387 58.4929L51.5601 90.7151L73.6573 90.9381Z" fill="#F1B4A7"/>
<path fill-rule="evenodd" clip-rule="evenodd" d="M64.6182 139.093L64.6314 142.62C64.6343 143.338 64.5378 144.052 64.3449 144.743L64.0424 145.83C63.794 146.721 64.456 147.607 65.3715 147.603C67.7426 147.595 71.7965 147.601 72.8414 147.603C73.0123 147.603 73.1797 147.487 73.195 147.314C73.2827 146.284 70.3461 145.594 68.1343 144.727C66.4493 144.066 66.5392 140.998 66.7474 139.207C66.8256 138.53 66.2681 137.954 65.5981 138.01C65.0427 138.058 64.616 138.528 64.6182 139.093Z" fill="#F1B4A7"/>
<path fill-rule="evenodd" clip-rule="evenodd" d="M48.1539 138.384L46.9312 142.3C46.8776 142.473 46.7973 142.637 46.6923 142.787L45.8261 144.029C45.2762 144.817 45.6721 145.894 46.6135 146.172C46.6135 146.172 48.36 146.764 50.1609 147.335C52.0042 147.921 54.3223 147.432 54.3223 146.962C54.3223 145.92 53.3139 146.747 51.6269 145.657C51.0613 145.293 50.4779 144.91 49.9577 144.516C48.5051 143.416 49.7732 140.63 50.6625 139.061C50.9824 138.497 50.6431 137.797 49.9912 137.662L49.57 137.576C48.9516 137.448 48.3355 137.8 48.1539 138.384Z" fill="#F1B4A7"/>
<path fill-rule="evenodd" clip-rule="evenodd" d="M60.7673 91.5814L73.8586 90.4812C73.8586 90.4812 75.1764 100.021 71.8676 117.289C70.3161 125.387 67.083 140.862 67.083 140.862C66.281 141.214 65.4668 141.302 64.6372 141.095C64.6372 141.095 64.3912 134.269 64.2413 126.918C64.0965 119.867 64.0587 112.334 63.6097 109.869C62.6935 104.835 60.7673 91.5814 60.7673 91.5814Z" fill="#4B4589"/>
<path fill-rule="evenodd" clip-rule="evenodd" d="M67.3841 111.187C70.5978 98.4081 66.3893 91.9396 66.3893 91.9396L60.7673 91.3951C60.7673 91.3951 62.6589 104.796 63.5586 109.887C63.833 111.44 63.951 114.98 64.036 119.154C64.0867 121.679 66.3514 115.295 67.3841 111.187Z" fill="#393275"/>
<path fill-rule="evenodd" clip-rule="evenodd" d="M63.3788 91.3906C64.7281 98.6854 67.7404 109.594 61.9366 119.843C56.1327 130.091 50.037 140.746 50.037 140.746C49.2512 140.778 48.5395 140.491 47.8772 139.985C47.8772 139.985 48.8954 135.339 50.3659 129.914C52.0493 123.708 54.1807 116.408 53.5729 112.602C52.4349 105.469 51.1277 95.9686 51.5235 91.3547C51.92 86.7416 62.67 87.5547 63.3788 91.3906Z" fill="#4B4589"/>
<path fill-rule="evenodd" clip-rule="evenodd" d="M74.1023 90.134L69.1778 60.1167L57.1336 58.4929L50.6615 90.1894C50.5398 90.7853 50.9323 91.3637 51.5399 91.4766C53.7825 91.894 59.1915 92.766 65.2444 92.766C69.7631 92.766 72.3025 91.9028 73.4576 91.3564C73.9257 91.135 74.1854 90.6374 74.1023 90.134Z" fill="#FFFFFE"/>
<path fill-rule="evenodd" clip-rule="evenodd" d="M51.2754 101.961C51.0765 101.16 50.9706 100.338 50.8567 100.028C50.8086 99.8997 50.5711 99.5906 50.5078 99.4965C50.3241 99.2212 49.9936 98.8211 49.9936 98.4953L49.9695 97.1278C49.9695 96.4666 49.6286 95.9649 48.9236 95.9649C48.1599 95.9649 47.8126 96.5757 47.9009 97.2873V98.2449C47.9714 98.8143 47.7621 99.3589 47.5824 99.9065C47.2175 101.021 47.5207 102.339 47.8688 103.375C48.0886 104.024 48.9701 104.421 50.1757 104.89C50.7684 105.121 51.7591 105.312 51.3789 104.644C51.0604 104.084 49.2861 103.262 49.8171 101.499C49.8428 101.412 49.927 101.194 50.0449 101.191C50.3963 101.182 50.4604 101.912 50.6289 102.268C50.8647 102.769 51.2385 102.971 51.4671 102.918C51.7093 102.862 51.4182 102.532 51.2754 101.961Z" fill="#F1B4A7"/>
<path fill-rule="evenodd" clip-rule="evenodd" d="M61.2276 60.1916C61.2276 62.3555 60.8351 64.499 60.0961 66.5332C58.6521 70.5125 56.4858 78.0366 57.7725 84.6662C59.6264 94.2113 62.0104 98.0703 58.9208 100.295C55.8304 102.521 49.9053 98.8082 49.7335 97.5709C49.5631 96.3337 50.8869 81.1316 52.3877 74.5465C53.8884 67.9607 58.0921 58.4929 58.0921 58.4929L59.8732 58.6832C60.6436 58.7656 61.2276 59.4159 61.2276 60.1916Z" fill="#7773A8"/>
<path fill-rule="evenodd" clip-rule="evenodd" d="M55.2674 76.7011C56.3724 73.8733 57.6283 70.3157 58.5824 67.6075C59.2879 65.6082 59.3862 63.8065 59.3862 61.6819L57.8462 58.4929C57.8462 58.4929 53.8962 68.0456 52.4288 74.5866C50.9614 81.1269 53.8107 80.431 55.2674 76.7011Z" fill="#665D99"/>
<path fill-rule="evenodd" clip-rule="evenodd" d="M55.6677 59.3287C55.6677 59.3287 45.0957 73.3169 45.1151 81.1468C45.1271 85.8665 46.8878 95.472 47.3065 97.6876C47.3596 97.9701 47.5936 98.1843 47.8845 98.2152C48.0699 98.2343 48.2845 98.2497 48.4826 98.2497C48.6837 98.2497 48.9439 98.2218 49.1854 98.1872C49.5839 98.1313 49.8755 97.7891 49.8673 97.3918C49.8052 94.4587 49.6153 82.8871 50.4056 80.5722C51.3118 77.9158 60.1246 65.2529 60.2973 62.459C60.4707 59.665 58.2778 57.1257 55.6677 59.3287Z" fill="#7773A8"/>
<path fill-rule="evenodd" clip-rule="evenodd" d="M66.2916 59.4068C66.2916 59.4068 68.3932 63.8541 67.6603 70.2441C66.9274 76.6333 65.2295 96.0904 71.1666 99.0285C73.0466 99.9588 77.3402 95.839 77.3402 94.3107C77.3402 92.7817 75.9072 87.665 74.5496 83.013C73.1921 78.3611 69.9195 59.8943 69.9195 59.8943L66.2916 59.4068Z" fill="#7773A8"/>
<path fill-rule="evenodd" clip-rule="evenodd" d="M74.578 85.3998C74.4302 84.8458 74.2816 84.2917 74.1338 83.7444C73.8784 82.801 73.5404 81.305 73.1622 79.5137C71.0862 80.5452 68.9944 81.5411 66.9758 82.6279C66.9005 83.1471 66.762 84.2128 66.7519 85.9114C69.3647 85.7968 71.976 85.6389 74.578 85.3998Z" fill="#665D99"/>
<path fill-rule="evenodd" clip-rule="evenodd" d="M81.8845 78.0049C81.4955 76.7217 79.3766 77.2597 77.0535 77.976C75.6552 78.4069 68.3494 81.2387 66.0404 82.137C65.6985 82.2693 65.5409 82.1393 65.1857 82.2307C64.6479 82.3696 62.8657 82.8801 63.0882 85.3663C63.1493 86.0462 63.4639 86.1071 63.7255 86.7365C63.9126 87.1875 64.4902 87.4365 64.7872 87.536C65.2366 87.6876 65.3773 88.2449 65.6079 88.1929C66.1561 88.0688 66.0934 86.5463 66.0794 86.0217C66.0706 85.7096 65.8754 84.3989 65.8754 84.3989C65.9358 84.1522 66.1295 83.9649 66.3764 83.9166C68.3605 83.5295 76.9578 82.0657 78.3819 81.6258C80.7057 80.9095 82.2735 79.2882 81.8845 78.0049Z" fill="#F1B4A7"/>
<path fill-rule="evenodd" clip-rule="evenodd" d="M58.8234 47.5556C58.8234 47.5556 59.0583 49.3001 57.9332 50.5767C56.8096 51.8526 58.4427 53.0415 58.8234 53.9095C59.2048 54.7782 58.7334 56.0669 59.8005 56.6567C60.8669 57.2466 63.9096 57.402 64.3925 56.3643C64.8761 55.3266 62.2567 46.9615 58.8234 47.5556Z" fill="#4B4589"/>
<path fill-rule="evenodd" clip-rule="evenodd" d="M70.4314 49.3054C70.5915 55.0958 65.046 56.208 61.8209 56.208C58.5958 56.208 58.4655 49.2664 58.4655 46.7648C58.4655 44.2633 61.001 43.8697 64.2261 43.8697C66.7654 43.8697 69.1692 45.7829 70.1596 47.6173C70.4277 48.1122 70.4157 48.7743 70.4314 49.3054Z" fill="#4B4589"/>
<path fill-rule="evenodd" clip-rule="evenodd" d="M64.8946 45.6976C62.261 45.6976 61.2783 47.5762 61.2281 51.0501C61.2085 52.3506 61.7929 53.6401 62.2639 54.4629C62.6128 55.0745 62.7088 55.799 62.5096 56.474L61.931 58.4349C61.5385 60.2538 62.3999 61.2513 63.6734 61.6132C64.3036 61.7931 65.0588 61.654 65.6098 61.2972C66.2648 60.8734 66.3185 59.9618 66.1972 59.1907L66.0474 58.6315C65.8461 57.8786 66.2822 57.0667 67.0425 56.9C69.0706 56.4558 69.3606 54.3384 69.9036 51.0501C70.4706 47.622 67.5281 45.6976 64.8946 45.6976Z" fill="#F1B4A7"/>
<path fill-rule="evenodd" clip-rule="evenodd" d="M71.2404 44.2733L69.7005 44.7313C69.1351 44.8994 68.5319 44.903 67.9635 44.7421L64.8897 43.8697C63.0274 43.8697 59.9521 44.8979 60.3404 47.5262L60.6835 49.3842C60.8206 50.1262 61.4535 50.682 62.2219 50.7465H62.2227C62.2938 51.003 62.5317 51.1813 62.8044 51.1813C63.1371 51.1813 63.4069 50.9175 63.4069 50.5921C63.4069 49.7545 64.0093 49.0385 64.8445 48.8552C65.8701 48.6298 66.9661 48.5769 68.1132 48.8776C70.2489 49.4392 72.5024 48.1443 72.7158 45.9907C72.7292 45.8544 72.7366 45.716 72.7366 45.5762C72.7366 44.7073 72.0022 44.0682 71.2404 44.2733Z" fill="#4B4589"/>
<path fill-rule="evenodd" clip-rule="evenodd" d="M62.1483 51.4094C62.1483 52.2927 61.8544 53.0092 61.0945 53.0092C60.3346 53.0092 59.8465 51.7943 59.8465 50.911C59.8465 50.0276 60.3346 49.8103 61.0945 49.8103C61.8544 49.8103 62.1483 50.526 62.1483 51.4094Z" fill="#F1B4A7"/>
<path fill-rule="evenodd" clip-rule="evenodd" d="M69.0431 53.6144C69.1051 54.0083 68.8871 54.3801 68.5933 54.3801C68.3499 54.3801 68.149 54.1193 68.1347 53.7847L68.133 51.1014C68.133 51.0018 68.1618 50.906 68.2132 50.8353C68.2652 50.7646 68.3349 50.7243 68.4074 50.7243C68.5109 50.7243 68.6011 50.8239 68.6232 50.9638L69.0431 53.6144Z" fill="#EA8F84"/>
<path fill-rule="evenodd" clip-rule="evenodd" d="M68.7586 60.5095C68.7586 60.5095 70.4144 59.4684 73.2785 62.277C76.1425 65.0849 82.2566 75.5441 82.8488 78.7211C83.4403 81.8988 67.0594 84.0835 67.0594 84.0835C66.5866 83.5681 66.3198 82.8284 66.2916 81.8289C66.2916 81.8289 76.4057 78.0244 76.6031 76.6849C76.8005 75.3453 69.0348 67.44 68.4202 66.2985C67.3111 64.2404 66.8968 62.0324 68.7586 60.5095Z" fill="#7773A8"/>
<path fill-rule="evenodd" clip-rule="evenodd" d="M64.2719 83.1696C64.2719 83.1696 62.2535 84.8404 62.1831 84.9855C62.034 85.2934 62.3973 85.6217 62.6549 85.3581C63.0152 84.9916 64.1034 84.538 64.4501 85.057L64.2719 83.1696Z" fill="#F1B4A7"/>
<path opacity="0.5" fill-rule="evenodd" clip-rule="evenodd" d="M142.251 5.48334C142.251 8.51236 139.777 10.9674 136.726 10.9674C133.675 10.9674 131.202 8.51236 131.202 5.48334C131.202 2.45505 133.675 0 136.726 0C139.777 0 142.251 2.45505 142.251 5.48334Z" fill="#FF8B08"/>
<path opacity="0.5" fill-rule="evenodd" clip-rule="evenodd" d="M18.8747 56.2084C18.8747 61.5085 14.6492 65.8045 9.43771 65.8045C4.22545 65.8045 0 61.5085 0 56.2084C0 50.9082 4.22545 46.6115 9.43771 46.6115C14.6492 46.6115 18.8747 50.9082 18.8747 56.2084Z" fill="#FF8B08"/>
<path opacity="0.5" fill-rule="evenodd" clip-rule="evenodd" d="M22.5575 35.8726C22.5575 37.7653 21.0118 39.2999 19.1045 39.2999C17.198 39.2999 15.6522 37.7653 15.6522 35.8726C15.6522 33.9799 17.198 32.4453 19.1045 32.4453C21.0118 32.4453 22.5575 33.9799 22.5575 35.8726Z" fill="#FF8B08"/>
<path fill-rule="evenodd" clip-rule="evenodd" d="M155.805 163.686C154.972 164.022 154.005 164.34 153.341 164.95C152.998 165.265 152.546 165.416 152.086 165.393C151.749 165.376 151.387 165.364 151.004 165.359C150.495 165.351 150.077 165.778 150.077 166.304C150.077 166.888 150.589 167.348 151.144 167.236C151.716 167.119 152.179 166.926 152.588 166.765C152.817 166.675 153.069 166.664 153.302 166.742C154.429 167.118 155.515 166.271 155.568 166.256C155.568 166.256 156.317 166.074 156.825 165.781C157.077 165.638 157.393 165.655 157.406 165.466C157.418 165.289 157.066 165.09 156.759 165.132C156.219 165.208 155.435 165.448 155.295 165.234C155.076 164.896 155.772 164.676 156.518 164.423C157.264 164.171 158.303 164.966 158.819 164.218C158.936 164.049 156.632 163.353 155.805 163.686Z" fill="#F1B4A7"/>
<path fill-rule="evenodd" clip-rule="evenodd" d="M175.718 156.307C175.381 156.219 175.036 156.411 174.921 156.749L171.302 167.8C171.18 168.17 171.293 168.58 171.587 168.827L172.43 169.538L176.778 156.585L175.718 156.307Z" fill="#D2ECF4"/>
<path fill-rule="evenodd" clip-rule="evenodd" d="M149.739 158.787C150.463 156.786 149.988 154.623 148.651 153.115C147.502 151.822 146.853 150.168 146.801 148.444C146.719 145.732 144.992 143.225 142.278 142.255C140.881 141.755 136.807 140.42 136.807 140.42C136.807 140.42 138.874 139.029 136.953 138.924C135.378 138.839 132.416 140.339 132.016 143.773C131.882 144.934 131.423 146.036 130.774 147.011C130.328 147.678 130.015 148.46 129.882 149.337C129.532 151.649 130.712 153.99 132.778 155.107C132.877 155.16 132.982 155.214 133.094 155.269C135.653 156.536 136.863 159.439 136.009 162.152C135.617 163.396 135.537 164.666 136.192 165.659C137.602 167.795 140.39 168.716 142.802 167.835C144.705 167.139 145.964 165.583 146.369 163.819C146.59 162.857 147.068 161.955 147.855 161.354C148.689 160.717 149.357 159.845 149.739 158.787Z" fill="#7773A8"/>
<path fill-rule="evenodd" clip-rule="evenodd" d="M133.165 157.125C132.925 155.754 133.03 154.336 133.572 153.048C133.925 152.207 134.467 151.404 135.269 151.264C136.88 150.985 141.206 161.39 141.997 163.616C142.093 163.884 142.34 164.074 142.634 164.104L151.594 165.045C151.922 165.716 152.022 166.379 151.796 167.031L141.538 168.59C140.709 168.726 139.868 168.449 139.297 167.857C137.557 166.053 133.994 161.872 133.165 157.125Z" fill="#393275"/>
<path fill-rule="evenodd" clip-rule="evenodd" d="M179.244 172.737H42.6479C42.2308 172.737 41.8926 172.43 41.8926 172.051C41.8926 171.673 42.2308 171.366 42.6479 171.366H179.244C179.661 171.366 180 171.673 180 172.051C180 172.43 179.661 172.737 179.244 172.737Z" fill="#001433"/>
<path fill-rule="evenodd" clip-rule="evenodd" d="M60.3057 169.786C60.2786 169.2 59.819 168.73 59.2324 168.679C58.0584 168.578 56.1209 168.296 54.7589 167.509C52.6793 166.306 52.1092 166.678 50.5614 168.226C49.0128 169.772 46.7422 169.899 45.3876 170.074C44.0323 170.248 43.4878 171.317 45.6268 171.365C47.565 171.409 54.2933 170.324 58.9857 170.99C59.707 171.092 60.3388 170.509 60.3057 169.786Z" fill="#F1B4A7"/>
<path fill-rule="evenodd" clip-rule="evenodd" d="M75.7814 140.725C76.0093 140.387 76.0191 139.958 75.8042 139.613C75.2308 138.696 74.1599 136.781 74.0163 135.085C73.8188 132.755 73.1816 132.507 70.9995 132.134C68.8174 131.761 67.7336 130.456 66.807 129.471C65.8804 128.487 64.6765 128.647 65.8697 130.382C66.9164 131.907 71.5661 136.507 73.9085 140.658C74.3034 141.358 75.3318 141.393 75.7814 140.725Z" fill="#F1B4A7"/>
<path fill-rule="evenodd" clip-rule="evenodd" d="M141.12 144.324C139.534 148.733 135.497 148.398 133.03 147.512C130.563 146.626 132.053 143.045 132.735 141.15C133.416 139.257 135.877 138.381 138.344 139.268C140.811 140.155 141.801 142.432 141.12 144.324Z" fill="#7773A8"/>
<path fill-rule="evenodd" clip-rule="evenodd" d="M72.7366 139.675C73.2574 138.862 73.97 138.392 74.9927 138.473C74.9927 138.473 85.4591 154.201 87.7453 156.23C90.0315 158.26 111.051 157.135 111.051 157.135L111.407 168.617C111.407 168.617 89.0522 169.054 83.3514 163.076C77.6521 157.097 72.7366 139.675 72.7366 139.675Z" fill="#7773A8"/>
<path fill-rule="evenodd" clip-rule="evenodd" d="M111.045 157.2C111.045 157.2 106.122 157.457 100.745 157.502C100.4 157.671 92.3672 161.532 88.0286 161.695C81.6398 161.933 79.6419 158.585 79.6419 158.585C80.6726 160.38 81.7638 161.957 82.8841 163.107C88.6799 169.052 111.407 168.617 111.407 168.617L111.045 157.2Z" fill="#665D99"/>
<path fill-rule="evenodd" clip-rule="evenodd" d="M119.693 169.758L117.997 158.762C117.997 158.762 114.48 154.47 105.451 157.187C96.4237 159.906 90.6607 163.222 86.2469 163.712C81.8324 164.201 57.8866 168.217 57.8866 168.217C57.4167 169.207 57.4451 170.163 57.8866 171.091L106.051 171.366C106.051 171.366 115.09 171.37 119.693 169.758Z" fill="#7773A8"/>
<path fill-rule="evenodd" clip-rule="evenodd" d="M135.31 150.381L135.188 150.318C132.535 148.949 129.284 149.15 126.954 151.027C126.821 151.134 126.69 151.246 126.563 151.362L123.12 154.505C122.557 155.018 121.875 155.383 121.132 155.54C120.618 155.647 120.107 155.838 119.615 156.121L119.572 156.146C118.146 156.951 117.398 155.367 116.728 156.146C116.059 156.925 111.746 155.667 111.746 155.667C111.746 155.667 107.584 155.636 109.709 161.501C111.835 167.367 115.819 170.909 118.609 170.909C120.148 170.909 122.802 169.671 124.871 168.562C125.097 168.441 125.309 168.303 125.509 168.152C126.209 167.618 126.96 167.158 127.788 166.866L128.423 166.643C129.524 166.255 130.718 166.286 131.81 166.697C133.273 167.246 135.435 167.467 136.279 164.541L137.186 153.575C137.213 152.612 136.217 150.676 135.31 150.381Z" fill="#4B4589"/>
<path fill-rule="evenodd" clip-rule="evenodd" d="M132.529 151.633C131.709 151.928 130.533 153.335 129.619 154.582C128.817 155.675 128.194 156.88 127.682 158.132C126.046 162.133 123.243 165.799 119.433 167.909C117.581 168.934 115.847 169.363 114.169 169.393C115.63 170.671 117.121 171.366 118.374 171.366C119.933 171.366 122.621 170.138 124.716 169.039C124.944 168.919 125.159 168.783 125.362 168.632C126.07 168.103 126.831 167.647 127.669 167.358L128.313 167.136C129.427 166.751 130.637 166.782 131.742 167.189C133.224 167.734 135.413 167.953 136.268 165.052L137.186 154.179C137.205 153.521 136.73 152.401 136.131 151.675C134.859 151.151 133.994 151.105 132.529 151.633Z" fill="#393275"/>
<path fill-rule="evenodd" clip-rule="evenodd" d="M138.709 140.555C136.348 139.685 134.831 141 133.611 144.015C133.154 145.145 133.241 146.463 133.385 147.337C133.491 147.986 133.332 148.65 132.925 149.174L131.742 150.695C130.775 152.152 131.211 153.308 132.23 154.044C132.734 154.409 133.459 154.538 134.074 154.409C134.804 154.255 135.16 153.477 135.312 152.764L135.368 152.226C135.442 151.503 136.108 150.938 136.846 151.043C137.42 151.125 137.923 151.42 138.415 151.302C138.898 151.186 140.893 148.77 141.587 145.706C142.304 142.54 141.071 141.426 138.709 140.555Z" fill="#F1B4A7"/>
<path fill-rule="evenodd" clip-rule="evenodd" d="M139.533 148.449C139.473 148.858 139.146 149.086 138.86 148.919C138.623 148.78 138.508 148.418 138.598 148.094L139.426 145.552C139.456 145.457 139.514 145.383 139.586 145.345C139.658 145.308 139.737 145.309 139.808 145.351C139.909 145.41 139.966 145.555 139.944 145.7L139.533 148.449Z" fill="#EA8F84"/>
<path fill-rule="evenodd" clip-rule="evenodd" d="M144.466 141.014C143.978 140.681 143.444 140.558 142.936 140.603C141.686 140.712 140.429 140.659 139.249 140.231L139.089 140.173C137.785 139.7 136.355 139.724 135.067 140.24C134.117 140.621 133.692 141.74 134.148 142.664L134.98 144.35C135.096 144.582 135.431 144.562 135.518 144.317L135.781 143.58C135.913 143.21 136.293 142.992 136.676 143.07L137.057 143.146C137.498 143.235 137.947 143.198 138.387 143.103C138.992 142.973 139.627 143.033 140.182 143.321C140.689 143.586 140.974 143.94 141.176 144.253C141.442 144.665 141.838 144.998 142.334 145.178C143.725 145.683 145.278 144.778 145.459 143.193C145.555 142.348 145.165 141.489 144.466 141.014Z" fill="#7773A8"/>
<path fill-rule="evenodd" clip-rule="evenodd" d="M134.701 145.062C134.396 145.888 133.997 146.918 133.289 146.644C132.582 146.37 132.427 144.593 132.731 143.767C133.035 142.943 133.564 142.915 134.27 143.189C134.978 143.462 135.005 144.237 134.701 145.062Z" fill="#F1B4A7"/>
<path fill-rule="evenodd" clip-rule="evenodd" d="M177.773 155.843C177.275 155.756 176.793 156.08 176.625 156.55L171.938 169.733C171.882 169.89 171.731 169.995 171.562 169.995H159.753C158.985 169.995 158.363 170.609 158.363 171.366H172.853C173.247 171.366 173.598 171.12 173.729 170.753L178.562 157.163C178.765 156.589 178.407 155.955 177.773 155.843Z" fill="#466B7E"/>
<path fill-rule="evenodd" clip-rule="evenodd" d="M169.872 169.767C169.872 169.843 169.795 169.905 169.701 169.905H168.662C168.567 169.905 168.491 169.843 168.491 169.767C168.491 169.69 168.567 169.628 168.662 169.628H169.701C169.795 169.628 169.872 169.69 169.872 169.767Z" fill="#3A5264"/>
<path fill-rule="evenodd" clip-rule="evenodd" d="M168.006 169.767C168.006 169.88 167.914 169.971 167.801 169.971C167.687 169.971 167.595 169.88 167.595 169.767C167.595 169.654 167.687 169.562 167.801 169.562C167.914 169.562 168.006 169.654 168.006 169.767Z" fill="#3A5264"/>
<path fill-rule="evenodd" clip-rule="evenodd" d="M167.085 169.767C167.085 169.88 166.993 169.971 166.88 169.971C166.766 169.971 166.674 169.88 166.674 169.767C166.674 169.654 166.766 169.562 166.88 169.562C166.993 169.562 167.085 169.654 167.085 169.767Z" fill="#3A5264"/>
<path fill-rule="evenodd" clip-rule="evenodd" d="M170.793 169.429H159.744C159.744 169.297 159.92 169.19 160.135 169.19H170.403C170.619 169.19 170.793 169.297 170.793 169.429Z" fill="#3A5264"/>
<path fill-rule="evenodd" clip-rule="evenodd" d="M159.61 168.29C159.27 168.483 158.88 168.672 158.512 168.928C157.966 169.308 157.333 169.467 156.702 169.399C156.144 169.34 155.448 169.309 154.639 169.304C154.184 169.302 153.8 169.712 153.763 170.247C153.72 170.837 154.112 171.343 154.613 171.36C155.349 171.386 155.986 171.311 156.442 171.305C156.658 171.302 156.849 171.292 157.016 171.276C157.314 171.246 157.615 171.249 157.906 171.319C158.442 171.45 159.173 170.823 159.465 170.11C159.699 169.538 159.727 169.693 160.297 169.423C160.867 169.152 162.504 169.549 162.506 169.094C162.508 168.685 160.382 167.854 159.61 168.29Z" fill="#F1B4A7"/>
<path fill-rule="evenodd" clip-rule="evenodd" d="M128.824 151.989C129.419 150.939 131.285 149.724 133.622 152.525C136.718 156.235 142.122 166.71 143.73 166.889C145.338 167.069 155.861 169.468 155.861 169.468C156.114 170.13 156.142 170.766 155.861 171.359C155.861 171.359 143.953 171.366 141.353 171.366C138.754 171.366 126.091 156.812 128.824 151.989Z" fill="#4B4589"/>
</svg>
