<svg width="170" height="148" viewBox="0 0 170 148" fill="none" xmlns="http://www.w3.org/2000/svg">
<g clip-path="url(#clip0_2_3767)">
<path d="M94.1693 0.890893C92.0287 1.27424 89.917 1.80422 87.8493 2.47707C74.1416 6.94039 48.0996 13.8555 37.9404 24.0381C26.1623 35.8719 29.7759 51.4435 17.9478 63.2072C8.14941 72.9394 -0.0250633 82.4665 -3.57043e-06 97.2325C0.0400919 123.252 22.5537 132.294 43.6039 138.848C68.5433 146.604 95.0665 150.172 121.073 146.629C132.1 145.128 143.231 142.241 152.228 135.711C165.685 125.954 172.155 108.041 169.358 91.8385C167.94 83.6174 165.459 76.1869 164.783 67.7406C163.9 56.7324 165.76 45.434 162.522 34.671C156.884 15.9221 137.152 4.64869 117.846 1.23615C110.037 -0.154883 101.948 -0.520155 94.1693 0.890893Z" fill="#1A3D75"/>
<path d="M156.122 19.9047V117.577C156.122 119.215 155.47 120.785 154.31 121.943C153.151 123.101 151.577 123.752 149.937 123.752H20.0628C18.4225 123.752 16.8494 123.101 15.6895 121.943C14.5297 120.785 13.8781 119.215 13.8781 117.577V21.731C13.8781 20.0934 14.5297 18.5229 15.6895 17.3649C16.8494 16.207 18.4225 15.5564 20.0628 15.5564H151.767C152.922 15.5564 154.029 16.0146 154.846 16.83C155.663 17.6455 156.122 18.7515 156.122 19.9047V19.9047Z" fill="white"/>
<path opacity="0.33" d="M98.8556 36.7474H36.7726V74.8407H98.8556V36.7474Z" fill="#D7D9E1"/>
<path opacity="0.33" d="M98.8556 78.4932H36.7726V116.587H98.8556V78.4932Z" fill="#D7D9E1"/>
<path d="M156.122 20V20.1601H13.8781V20C13.8781 18.3624 14.5297 16.7918 15.6895 15.6339C16.8494 14.4759 18.4225 13.8254 20.0628 13.8254H149.937C150.75 13.8247 151.554 13.984 152.305 14.294C153.055 14.6041 153.737 15.0589 154.312 15.6324C154.886 16.2059 155.342 16.8868 155.652 17.6363C155.963 18.3857 156.123 19.1889 156.122 20V20Z" fill="#FC8019"/>
<path d="M33.0688 20.16V123.737H20.0628C18.4225 123.737 16.8494 123.086 15.6895 121.928C14.5297 120.77 13.8781 119.2 13.8781 117.562V20.16H33.0688Z" fill="#D7D9E1"/>
<path d="M30.1067 46.2444H20.0878V47.2352H30.1067V46.2444Z" fill="white"/>
<path d="M30.1117 43.3171H17.7623V44.5731H30.1117V43.3171Z" fill="white"/>
<path d="M30.1067 57.953H20.0878V58.9437H30.1067V57.953Z" fill="white"/>
<path d="M30.1117 55.021H17.7623V56.2769H30.1117V55.021Z" fill="white"/>
<path d="M30.1067 69.6568H20.0878V70.6476H30.1067V69.6568Z" fill="white"/>
<path d="M30.1117 66.7294H17.7623V67.9854H30.1117V66.7294Z" fill="white"/>
<path d="M30.1067 81.3603H20.0878V82.3511H30.1067V81.3603Z" fill="white"/>
<path d="M30.1117 78.4333H17.7623V79.6893H30.1117V78.4333Z" fill="white"/>
<path d="M164.522 31.7036V52.384C164.522 53.8193 163.969 55.1996 162.977 56.2385C161.985 57.2774 160.63 57.895 159.194 57.9631C159.106 57.9682 159.017 57.9682 158.929 57.9631H124.672L121.725 64.7982L118.618 57.9631H71.4352C70.223 57.9622 69.0439 57.5686 68.075 56.8413C67.1061 56.114 66.3999 55.0925 66.0624 53.9301C65.9224 53.4268 65.8549 52.9062 65.8619 52.384V31.7036C65.8619 30.2256 66.4482 28.8078 67.4927 27.7603C68.5372 26.7128 69.9547 26.1211 71.4352 26.1145H158.929C159.664 26.1145 160.391 26.2591 161.07 26.54C161.749 26.8209 162.366 27.2327 162.885 27.7518C163.405 28.2708 163.817 28.887 164.098 29.5651C164.378 30.2432 164.523 30.9699 164.522 31.7036V31.7036Z" fill="#FC8019"/>
<path opacity="0.33" d="M164.522 33.7951V52.3839C164.522 53.8192 163.969 55.1995 162.977 56.2384C161.985 57.2773 160.63 57.8949 159.194 57.963C159.106 57.9681 159.017 57.9681 158.929 57.963H124.672L121.725 64.7981L118.618 57.963H71.4352C70.223 57.9621 69.0439 57.5685 68.075 56.8412C67.1061 56.1139 66.3999 55.0924 66.0624 53.93C65.9224 53.4268 65.8549 52.9062 65.8619 52.3839V33.7951H164.522Z" fill="white"/>
<path d="M20.4988 18.3936C21.2794 18.3936 21.9122 17.7618 21.9122 16.9825C21.9122 16.2032 21.2794 15.5715 20.4988 15.5715C19.7182 15.5715 19.0854 16.2032 19.0854 16.9825C19.0854 17.7618 19.7182 18.3936 20.4988 18.3936Z" fill="white"/>
<path d="M25.3454 18.3936C26.1259 18.3936 26.7587 17.7618 26.7587 16.9825C26.7587 16.2032 26.1259 15.5715 25.3454 15.5715C24.5648 15.5715 23.932 16.2032 23.932 16.9825C23.932 17.7618 24.5648 18.3936 25.3454 18.3936Z" fill="white"/>
<path d="M30.1919 18.3936C30.9725 18.3936 31.6053 17.7618 31.6053 16.9825C31.6053 16.2032 30.9725 15.5715 30.1919 15.5715C29.4114 15.5715 28.7786 16.2032 28.7786 16.9825C28.7786 17.7618 29.4114 18.3936 30.1919 18.3936Z" fill="white"/>
<path d="M133.087 117.628C133.087 122.992 130.953 128.136 127.154 131.929C123.354 135.722 118.202 137.853 112.829 137.853C107.456 137.853 102.303 135.722 98.504 131.929C94.7048 128.136 92.5705 122.992 92.5705 117.628C92.5705 117.107 92.5905 116.592 92.6306 116.081C93.0339 110.869 95.4433 106.015 99.3534 102.537C103.264 99.0593 108.371 97.2284 113.604 97.4284C118.837 97.6284 123.789 99.8437 127.421 103.61C131.054 107.375 133.084 112.399 133.087 117.628Z" fill="white"/>
<path opacity="0.14" d="M104.314 126.814C103.642 129.737 104.464 132.854 103.862 135.766C99.1826 133.455 95.5733 129.434 93.7834 124.538C93.6869 123.538 93.7122 122.529 93.8586 121.535C93.9939 120.46 94.1944 119.344 93.8887 118.303C93.5979 117.501 93.1725 116.755 92.6307 116.096C92.8555 113.139 93.7302 110.268 95.1924 107.686C96.6546 105.105 98.6684 102.877 101.091 101.16C101.116 101.296 101.116 101.435 101.091 101.571L100.244 105.423C100.414 106.565 100.414 107.725 100.244 108.866C100.151 109.435 99.9348 109.977 99.6101 110.455C99.2855 110.932 98.8603 111.332 98.3643 111.628C97.9903 111.782 97.627 111.961 97.2767 112.163C96.9402 112.442 96.6596 112.781 96.4498 113.164C95.8902 113.944 95.4728 114.816 95.2168 115.741C95.093 116.204 95.0868 116.69 95.1988 117.156C95.3108 117.622 95.5375 118.052 95.8584 118.408L101.507 117.312C102.098 117.197 102.815 117.117 103.221 117.562C103.722 118.093 103.401 118.939 103.507 119.654C103.642 120.565 104.454 121.22 104.83 122.066C105.481 123.532 104.684 125.218 104.314 126.814Z" fill="#020202"/>
<path opacity="0.4" d="M96.8157 107.24C97.0775 107.806 97.4946 108.286 98.0185 108.626C100.387 110.4 103.248 111.4 106.208 111.488C105.251 111.723 104.238 111.988 103.557 112.704C102.875 113.419 102.73 114.705 103.522 115.311C103.8 115.497 104.117 115.618 104.449 115.666C105.957 115.962 107.519 115.836 108.96 115.301C109.832 114.976 110.689 114.495 111.621 114.505C112.367 114.567 113.095 114.774 113.761 115.116C114.763 115.526 115.811 115.896 116.853 115.686C117.896 115.476 118.858 114.475 118.623 113.434C118.567 113.189 118.462 112.934 118.583 112.709C118.684 112.574 118.826 112.476 118.989 112.429L128.576 108.171C129.183 107.895 129.879 107.51 129.945 106.85C130.01 106.189 129.338 105.624 128.717 105.303C125.414 103.582 121.56 103.362 117.836 103.182L111.225 102.857C108.027 102.701 104.8 102.546 101.607 102.922C100.499 103.052 98.5448 103.067 97.6978 103.892C96.961 104.593 96.4749 106.334 96.8157 107.24Z" fill="#020202"/>
<path opacity="0.14" d="M133.087 117.627C133.09 120.686 132.397 123.706 131.06 126.458C129.723 129.21 127.777 131.623 125.369 133.514C125.09 133.33 124.852 133.092 124.667 132.814C124.061 131.898 124.261 130.452 125.238 129.937C124.898 130.117 123.559 129.676 123.158 129.616L121.073 129.291C120.071 129.136 118.337 129.201 117.751 128.2C117.683 128.061 117.604 127.927 117.515 127.8C117.391 127.676 117.245 127.576 117.084 127.505C116.457 127.2 115.721 126.854 115.58 126.174C115.475 125.673 115.726 125.103 115.47 124.673C115.39 124.533 115.265 124.422 115.184 124.287C115.096 124.082 115.063 123.858 115.087 123.636C115.112 123.414 115.194 123.202 115.325 123.021C116.202 121.485 118.026 120.745 119.77 120.45C121.514 120.154 123.324 120.194 125.028 119.704C126.1 119.394 127.118 118.873 128.225 118.703C128.837 118.618 129.599 118.558 129.824 117.983C129.95 117.657 129.824 117.282 129.955 116.952C130.005 116.812 130.1 116.692 130.15 116.552C130.189 116.434 130.201 116.309 130.185 116.186C130.169 116.063 130.126 115.946 130.059 115.841C129.992 115.737 129.902 115.65 129.796 115.585C129.691 115.52 129.572 115.479 129.448 115.466C129.589 115.086 129.709 114.6 129.408 114.33C129.304 114.253 129.182 114.203 129.054 114.183C128.926 114.163 128.795 114.174 128.672 114.215C127.945 114.4 127.419 115.01 126.807 115.441C124.802 116.877 122.016 116.366 120.322 114.68C120.047 114.44 119.852 114.122 119.76 113.77C119.735 113.469 119.804 113.168 119.957 112.908C120.111 112.648 120.341 112.442 120.617 112.318C121.171 112.08 121.769 111.962 122.372 111.973L121.695 107.57C118.327 108.471 116.959 105.268 116.477 102.606C115.996 99.9443 117.891 98.9936 120.332 98.8185C124.099 100.319 127.329 102.914 129.603 106.267C131.877 109.62 133.091 113.578 133.087 117.627Z" fill="#020202"/>
<path d="M121.093 72.2772L120.623 72.3143C120.331 72.3374 120.113 72.5928 120.136 72.8848L120.381 75.9875C120.405 76.2795 120.66 76.4975 120.953 76.4744L121.423 76.4373C121.715 76.4143 121.933 76.1588 121.91 75.8668L121.665 72.7642C121.642 72.4721 121.386 72.2541 121.093 72.2772Z" fill="#FC8019"/>
<path d="M117.801 71.0377L118.016 72.2336C118.086 72.6189 118.367 72.8741 118.668 72.824C119.83 72.6239 122.677 72.2286 124.727 72.749C125.841 73.032 126.93 73.4035 127.985 73.8598C128.401 74.0449 128.817 73.5796 128.747 73.0092L128.01 66.6444C127.94 66.084 127.449 65.8038 127.093 66.1441C125.624 67.4751 122.221 70.122 118.407 70.107C117.986 70.092 117.715 70.5523 117.801 71.0377Z" fill="#FC8019"/>
<path d="M128.302 73.8945C129.361 73.8109 130.078 71.9498 129.903 69.7376C129.728 67.5255 128.727 65.7999 127.667 65.8836C126.608 65.9672 125.891 67.8283 126.066 70.0405C126.241 72.2526 127.242 73.9782 128.302 73.8945Z" fill="#FC8019"/>
<path d="M128.302 73.8945C129.361 73.8109 130.078 71.9498 129.903 69.7376C129.728 67.5255 128.727 65.7999 127.667 65.8836C126.608 65.9672 125.891 67.8283 126.066 70.0405C126.241 72.2526 127.242 73.9782 128.302 73.8945Z" fill="url(#paint0_linear_2_3767)"/>
<path d="M105.361 78.4683C102.995 78.8035 97.3419 92.0684 99.0259 95.1057C100.71 98.1429 110.007 101.686 110.007 101.686L109.506 96.4567C109.506 96.4567 103.146 93.7547 103.652 92.0684C104.158 90.3822 107.817 84.0875 107.817 84.0875L105.361 78.4683Z" fill="#FC8019"/>
<path d="M120.492 78.1082C120.492 77.7779 122.692 78.7036 122.793 78.7587C124.056 79.4551 125.253 80.264 126.371 81.1754C127.373 81.976 128.421 82.7566 129.378 83.6423C130.245 84.4629 131.418 85.4736 131.208 86.8046C131.042 87.8054 129.955 88.4659 128.932 88.4709C127.907 88.3924 126.92 88.0474 126.07 87.4701C124.286 86.4444 122.597 85.3385 120.863 84.2127L120.492 78.1082Z" fill="#FC8019"/>
<path d="M106.819 78.083H119.81C120.265 78.0735 120.717 78.1555 121.139 78.3241C121.561 78.4927 121.945 78.7444 122.268 79.0643C122.591 79.3841 122.846 79.7655 123.017 80.1858C123.189 80.6061 123.275 81.0566 123.269 81.5105C123.269 81.5105 120.793 91.608 120.763 94.9955C120.763 96.8519 121.349 102.396 121.349 102.396H105.311C105.311 102.396 106.053 96.6017 106.038 94.6553C106.008 91.3528 103.386 81.5105 103.386 81.5105C103.38 81.0587 103.465 80.6103 103.635 80.1917C103.806 79.7731 104.058 79.3929 104.378 79.0734C104.698 78.7539 105.079 78.5017 105.499 78.3315C105.918 78.1614 106.367 78.0769 106.819 78.083V78.083Z" fill="#FC8019"/>
<path d="M122.577 72.3537C122.356 72.045 122.059 71.7985 121.715 71.6381C121.388 71.5419 121.04 71.5419 120.713 71.6381C120.269 71.7419 119.853 71.9417 119.496 72.2236C119.138 72.5055 118.847 72.8625 118.643 73.2693C118.556 73.4366 118.51 73.6216 118.507 73.8097C118.524 73.997 118.573 74.1799 118.653 74.3501C118.963 75.1357 119.374 76.0164 120.191 76.2465C120.624 76.301 121.059 76.3327 121.494 76.3416C121.78 76.3867 122.051 76.4967 122.336 76.5468C123.058 76.6769 124.507 76.1865 124.562 75.2808C124.587 74.8355 124.015 74.2401 123.775 73.8948C123.384 73.3594 122.998 72.849 122.577 72.3537Z" fill="#F5FAFE"/>
<path d="M115.315 79.9795C115.261 80.359 115.064 80.7036 114.764 80.9428C114.464 81.1819 114.083 81.2973 113.701 81.2654C112.107 81.1904 111.992 79.9795 111.992 79.9795V73.6648H115.315V79.9795Z" fill="#F5FAFE"/>
<path d="M111.972 76.787C111.972 76.787 114.052 80.0245 115.295 78.4683V75.9364L111.972 76.787Z" fill="url(#paint1_linear_2_3767)"/>
<path d="M110.593 75.1759C111.425 77.7529 115.56 77.8279 116.949 75.7814C117.691 74.5371 117.924 73.055 117.6 71.6433C117.38 70.254 116.954 68.905 116.337 67.6404C115.911 66.8448 115.48 66.1392 114.513 66.0191C113.409 65.9477 112.308 66.1943 111.34 66.7297C110.424 67.223 109.706 68.0177 109.31 68.979C108.913 69.9403 108.862 71.0089 109.165 72.0036C109.331 72.5013 109.541 72.9835 109.792 73.4447C110.103 74.0002 110.371 74.5791 110.593 75.1759V75.1759Z" fill="#F5FAFE"/>
<path d="M124.201 90.8225H102.439V103.777H124.201V90.8225Z" fill="#FC8019"/>
<g opacity="0.1">
<path opacity="0.1" d="M124.201 90.8225H102.439V103.777H124.201V90.8225Z" fill="#020202"/>
</g>
<path d="M111.862 110.687C111.408 111.044 110.9 111.328 110.358 111.528C109.19 112.028 106.885 112.929 107.23 113.93C107.697 115.281 109.32 115.181 110.398 114.86C112.081 114.285 113.682 113.496 115.164 112.514L111.862 110.687Z" fill="#473F47"/>
<path d="M114.653 107.165C118.603 104.288 120.667 102.161 125.103 99.469C126.161 98.8285 126.882 98.6384 128.712 99.3539C130.27 99.9644 130.105 102.641 129.253 103.757C126.702 107.105 116.868 111.728 114.879 112.429C114.027 112.729 110.994 110.182 112.222 108.966C112.992 108.313 113.804 107.712 114.653 107.165Z" fill="#473F47"/>
<path d="M112.829 112.709C113.442 113.496 114.141 114.213 114.914 114.845C116.252 115.881 117.179 116.221 118.267 115.716C119.84 114.986 118.392 113.439 117.169 112.213C116.236 111.24 115.191 110.38 114.057 109.652L112.829 112.709Z" fill="#473F47"/>
<path d="M113.029 108.926L114.718 110.322C115.067 110.604 115.365 110.942 115.6 111.323C116.147 112.324 114.252 114.43 113.019 113.204C111.786 111.978 110.684 110.667 110.684 110.667L113.029 108.926Z" fill="#F5FAFE"/>
<path d="M108.007 111.122C103.416 108.816 100.6 107.985 97.6476 103.837C96.8959 102.776 96.5951 101.03 96.8858 100.164C97.2467 99.1036 98.8004 98.4631 100.635 98.8984C102.168 99.2687 112.483 107.335 114.097 108.856C114.788 109.511 112.673 112.789 110.939 112.223C109.931 111.945 108.949 111.577 108.007 111.122V111.122Z" fill="#473F47"/>
<path d="M117.45 67.395C117.272 67.8231 117.009 68.2111 116.678 68.5358C116.004 69.1858 115.14 69.6047 114.212 69.7317C112.859 69.9469 111.486 69.7317 110.122 69.5966C110.092 69.8162 110 70.0228 109.857 70.1927C109.714 70.3626 109.527 70.489 109.315 70.5573C109.521 71.5083 109.796 72.4431 110.137 73.3544C110.473 74.2451 110.954 75.0757 111.315 75.9463C110.193 75.1708 109.31 73.8498 108.509 72.779C108.074 72.2701 107.725 71.6938 107.476 71.0727C107.352 70.7616 107.304 70.4254 107.336 70.0921C107.368 69.7587 107.48 69.4379 107.662 69.1563C107.849 68.9675 108.002 68.7474 108.113 68.5058C108.15 68.2956 108.15 68.0805 108.113 67.8703C108.095 67.3711 108.191 66.8743 108.392 66.417C108.593 65.9596 108.895 65.5534 109.275 65.2284C110.044 64.5859 110.946 64.1227 111.917 63.8724C112.747 63.5807 113.634 63.4848 114.508 63.5922C115.771 63.8073 117.284 65.1983 117.55 66.4543C117.607 66.771 117.572 67.0973 117.45 67.395Z" fill="#473F47"/>
<path d="M109.701 73.4845C109.555 73.5104 109.416 73.5648 109.291 73.6447C109.167 73.7245 109.059 73.8283 108.975 73.9499C108.928 74.045 108.901 74.1484 108.895 74.2541C108.889 74.3598 108.904 74.4656 108.94 74.5653C109.011 74.7663 109.118 74.9527 109.255 75.1157C109.325 75.2152 109.411 75.3016 109.511 75.3709C109.679 75.465 109.869 75.5133 110.062 75.511C110.213 75.511 110.363 75.511 110.513 75.511C110.59 75.5065 110.665 75.486 110.734 75.451C110.804 75.398 110.857 75.3246 110.884 75.2408C110.987 74.9271 110.987 74.5888 110.884 74.2751C110.814 73.9794 110.671 73.7058 110.468 73.4795C110.273 73.2944 109.967 73.3995 109.701 73.4845Z" fill="#F5FAFE"/>
<path d="M126.466 85.9988C126.756 86.6859 127.198 87.2984 127.759 87.7902C128.156 88.0861 128.632 88.2578 129.127 88.2838C129.622 88.3097 130.113 88.1887 130.539 87.9359C130.965 87.6832 131.306 87.3101 131.52 86.8638C131.733 86.4175 131.81 85.918 131.739 85.4284C131.573 84.7078 131.25 84.0328 130.792 83.4519C128.827 80.5498 126.807 77.681 124.732 74.8455C124.181 75.1608 122.226 75.8763 122.091 76.5018C121.956 77.1272 123.133 79.0036 123.424 79.6441C123.925 80.7249 124.426 81.8057 124.928 82.8765C125.429 83.9473 126.146 84.938 126.466 85.9988Z" fill="#FC8019"/>
<path d="M120.861 75.0148L120.224 75.2264C119.943 75.3198 119.791 75.6229 119.884 75.9035L120.096 76.5397C120.19 76.8202 120.493 76.972 120.774 76.8787L121.412 76.6671C121.693 76.5737 121.845 76.2706 121.751 75.99L121.539 75.3538C121.446 75.0732 121.142 74.9214 120.861 75.0148Z" fill="#FC8019"/>
<path d="M69.3 29.3317L71.6557 31.6784" stroke="white" stroke-width="2" stroke-miterlimit="10" stroke-linecap="round"/>
<path d="M71.796 29.3317L69.4404 31.6784" stroke="white" stroke-width="2" stroke-miterlimit="10" stroke-linecap="round"/>
<path d="M128.692 40.8352H76.402C75.7155 40.8352 75.1591 41.3908 75.1591 42.0762C75.1591 42.7615 75.7155 43.3171 76.402 43.3171H128.692C129.378 43.3171 129.935 42.7615 129.935 42.0762C129.935 41.3908 129.378 40.8352 128.692 40.8352Z" fill="white"/>
<path d="M128.692 47.025H76.402C75.7155 47.025 75.1591 47.5805 75.1591 48.2659C75.1591 48.9512 75.7155 49.5068 76.402 49.5068H128.692C129.378 49.5068 129.935 48.9512 129.935 48.2659C129.935 47.5805 129.378 47.025 128.692 47.025Z" fill="white"/>
<path opacity="0.5" fill-rule="evenodd" clip-rule="evenodd" d="M139 103.901C139 103.901 140.103 102.602 140.779 102.007C141.996 100.934 143.392 99.0391 147.856 100.436C148.203 100.544 148.539 100.689 148.873 100.833C149.267 101.004 150.486 101.009 151.735 99.993C153.719 98.3796 154.495 97.1619 157.213 97.1238C160.376 97.0802 160.873 101.118 163.331 102.152C164.896 102.81 169.023 103.464 169.877 103.755L139 103.901" fill="#FF8B08"/>
<path opacity="0.5" fill-rule="evenodd" clip-rule="evenodd" d="M4 29.7901C4 29.7901 5.61355 27.9132 6.60303 27.0533C8.38425 25.5045 10.427 22.767 16.9607 24.7845C17.468 24.941 17.9595 25.1496 18.4489 25.3589C19.0249 25.6052 20.809 25.6118 22.6361 24.1448C25.5401 21.8144 26.6757 20.0556 30.653 20.0005C35.2816 19.9375 36.0095 25.7704 39.6063 27.2641C41.8963 28.2138 47.9356 29.1584 49.1852 29.5793L4 29.7901" fill="#FF8B08"/>
</g>
<defs>
<linearGradient id="paint0_linear_2_3767" x1="123.365" y1="67.9209" x2="151.457" y2="79.9031" gradientUnits="userSpaceOnUse">
<stop offset="0.01"/>
<stop offset="0.08" stop-opacity="0.69"/>
<stop offset="0.21" stop-opacity="0.32"/>
<stop offset="1" stop-opacity="0"/>
</linearGradient>
<linearGradient id="paint1_linear_2_3767" x1="981.934" y1="555.149" x2="972.025" y2="649.39" gradientUnits="userSpaceOnUse">
<stop offset="0.01"/>
<stop offset="0.08" stop-opacity="0.69"/>
<stop offset="0.21" stop-opacity="0.32"/>
<stop offset="1" stop-opacity="0"/>
</linearGradient>
<clipPath id="clip0_2_3767">
<rect width="170" height="148" fill="white"/>
</clipPath>
</defs>
</svg>
