<svg width="200" height="147" viewBox="0 0 200 147" fill="none" xmlns="http://www.w3.org/2000/svg">
<path fill-rule="evenodd" clip-rule="evenodd" d="M148.016 57.572C119.06 38.7829 105.393 -18.9423 60.6914 15.5529C15.9908 50.0472 34.526 120.919 77.3628 138.058C120.2 155.198 175.312 145.516 190.821 113.675C217.322 59.2678 167.44 70.176 148.016 57.572Z" fill="#1A3D75"/>
<mask id="mask0_2_4" style="mask-type:alpha" maskUnits="userSpaceOnUse" x="34" y="4" width="165" height="143">
<path fill-rule="evenodd" clip-rule="evenodd" d="M148.016 57.572C119.06 38.7829 105.393 -18.9423 60.6914 15.5529C15.9908 50.0472 34.526 120.919 77.3628 138.058C120.2 155.198 175.312 145.516 190.821 113.675C217.322 59.2678 167.44 70.176 148.016 57.572Z" fill="white"/>
</mask>
<g mask="url(#mask0_2_4)">
<path fill-rule="evenodd" clip-rule="evenodd" d="M30.7124 124.37C30.7124 124.37 55.4051 97.7828 96.6475 110.398C137.89 123.014 162.172 112.199 157.051 45.3468C157.051 45.3468 215.019 54.031 207.587 98.2588C198.568 151.933 82.1472 172.414 30.7124 124.37Z" fill="#003180"/>
</g>
<path opacity="0.5" fill-rule="evenodd" clip-rule="evenodd" d="M146.864 12.5132C146.864 12.5132 148.755 10.1655 149.915 9.08997C152.003 7.15271 154.398 3.72853 162.057 6.25204C162.651 6.44776 163.227 6.70872 163.801 6.97058C164.476 7.27866 166.568 7.28681 168.709 5.45194C172.114 2.53699 173.445 0.336962 178.107 0.268098C183.533 0.189266 184.386 7.48525 188.602 9.35365C191.287 10.5416 198.366 11.7231 199.831 12.2496L146.864 12.5132Z" fill="#FF8B08"/>
<path opacity="0.5" fill-rule="evenodd" clip-rule="evenodd" d="M0 50.9235C0 50.9235 0.984479 49.6929 1.58819 49.1291C2.67497 48.1136 3.92131 46.3187 7.90775 47.6415C8.21726 47.7441 8.51715 47.8809 8.81573 48.0181C9.1672 48.1796 10.2557 48.1839 11.3705 47.2221C13.1423 45.6941 13.8352 44.5409 16.2618 44.5048C19.0859 44.4634 19.53 48.2879 21.7246 49.2673C23.1217 49.89 26.8065 50.5094 27.5689 50.7853L0 50.9235Z" fill="#FF8B08"/>
<path fill-rule="evenodd" clip-rule="evenodd" d="M105.444 34.3287L105.031 33.1377L104.619 34.3287C104.27 35.3331 103.442 36.1813 102.323 36.6821C103.442 37.183 104.27 38.0311 104.619 39.0355L105.031 40.2274L105.444 39.0355C105.793 38.0311 106.62 37.183 107.74 36.6821C106.62 36.1813 105.793 35.3331 105.444 34.3287Z" fill="#FFFFFE"/>
<path fill-rule="evenodd" clip-rule="evenodd" d="M176.03 95.7688L175.755 95.0111L175.479 95.7688C175.247 96.4077 174.696 96.9475 173.949 97.2661C174.696 97.5855 175.247 98.1245 175.479 98.7642L175.755 99.5228L176.03 98.7642C176.262 98.1245 176.813 97.5855 177.561 97.2661C176.813 96.9475 176.262 96.4077 176.03 95.7688Z" fill="#FFFFFE"/>
<path fill-rule="evenodd" clip-rule="evenodd" d="M55.0484 103.503L54.7734 102.745L54.4975 103.503C54.2654 104.142 53.7144 104.682 52.9673 105C53.7144 105.32 54.2654 105.859 54.4975 106.498L54.7734 107.257L55.0484 106.498C55.2805 105.859 55.8315 105.32 56.5787 105C55.8315 104.682 55.2805 104.142 55.0484 103.503Z" fill="#FFFFFE"/>
<path fill-rule="evenodd" clip-rule="evenodd" d="M66.3213 116.074L65.9088 114.991L65.4949 116.074C65.1468 116.986 64.3203 117.757 63.1996 118.212C64.3203 118.669 65.1468 119.439 65.4949 120.353L65.9088 121.436L66.3213 120.353C66.6694 119.439 67.4959 118.669 68.6167 118.212C67.4959 117.757 66.6694 116.986 66.3213 116.074Z" fill="#FFFFFE"/>
<path fill-rule="evenodd" clip-rule="evenodd" d="M52.0634 6.68656H76.7587C78.1057 6.68656 79.198 7.83552 79.198 9.25697V23.3455C79.198 24.767 78.1057 25.9168 76.7587 25.9168H75.4294V32.363L69.3248 25.9168H52.0634C50.7164 25.9168 49.6241 24.767 49.6241 23.3455V9.25697C49.6241 7.83552 50.7164 6.68656 52.0634 6.68656Z" fill="#FF8B08"/>
<path fill-rule="evenodd" clip-rule="evenodd" d="M62.9054 16.9571C62.4688 16.9571 62.1145 17.3887 62.1145 17.9205C62.1145 18.4522 62.4688 18.8828 62.9054 18.8828H73.5795C74.0161 18.8828 74.3696 18.4522 74.3696 17.9205C74.3696 17.3887 74.0161 16.9571 73.5795 16.9571H62.9054Z" fill="#FFFFFE"/>
<path fill-rule="evenodd" clip-rule="evenodd" d="M56.0758 13.1057C55.6371 13.1057 55.2811 13.5373 55.2811 14.069C55.2811 14.6008 55.6371 15.0314 56.0758 15.0314H73.5757C74.0144 15.0314 74.3696 14.6008 74.3696 14.069C74.3696 13.5373 74.0144 13.1057 73.5757 13.1057H56.0758Z" fill="#FFFFFE"/>
<path fill-rule="evenodd" clip-rule="evenodd" d="M114.24 96.7022C121.768 96.4197 129.296 96.2955 136.823 96.1819L142.469 96.1405C142.925 96.1307 143.442 96.1478 143.85 96.1153C144.276 96.1031 144.7 96.0707 145.12 95.9976C145.962 95.8807 146.783 95.6486 147.561 95.3353C150.706 94.1023 153.077 91.3497 153.735 88.2319C153.885 87.4957 153.96 86.5735 154.053 85.7042L154.88 77.8143C155.234 74.3068 155.644 70.8051 156.04 67.3009C156.825 60.2925 157.652 53.2882 158.56 46.2903C158.604 45.9453 158.938 45.6986 159.308 45.7408C159.664 45.7814 159.922 46.0785 159.898 46.4105C159.364 53.4432 158.752 60.4703 158.097 67.4933C157.772 71.0048 157.464 74.5179 157.097 78.0253L156.304 85.9209C156.209 86.8041 156.157 87.6418 155.965 88.6402C155.187 92.4455 152.298 95.8466 148.427 97.2663C147.473 97.6332 146.472 97.8995 145.45 98.0269C144.94 98.1057 144.427 98.1381 143.912 98.1462C143.38 98.173 142.954 98.1479 142.469 98.1511L136.823 98.1097C129.296 97.9969 121.768 97.8719 114.24 97.5902C113.978 97.5797 113.774 97.3735 113.785 97.1275C113.795 96.8954 113.996 96.7119 114.24 96.7022Z" fill="white"/>
<path fill-rule="evenodd" clip-rule="evenodd" d="M130.326 126.51H132.331V97.6238H130.326V126.51Z" fill="white"/>
<path fill-rule="evenodd" clip-rule="evenodd" d="M40.1003 71.9474H135.84V70.8776H40.1003V71.9474Z" fill="white"/>
<path fill-rule="evenodd" clip-rule="evenodd" d="M124.293 132.394L125.313 135.804L120.349 137.208L118.797 132.997L124.293 132.394Z" fill="#E0AB8B"/>
<path fill-rule="evenodd" clip-rule="evenodd" d="M94.2356 129.719V132.929H99.196L99.7494 129.719H94.2356Z" fill="#E0AB8B"/>
<path fill-rule="evenodd" clip-rule="evenodd" d="M121.535 66.4716L121.39 66.7994C121.004 67.6766 120.077 68.2069 119.106 68.2029L100.594 68.0815C99.8449 68.0759 99.243 67.5147 99.2482 66.8264C99.2533 66.2025 99.7559 65.6889 100.408 65.6023L116.661 63.4133L120.674 49.4757C121.216 47.5673 123.34 46.4242 125.416 46.9227C127.492 47.4213 128.736 49.3733 128.194 51.2817C128.153 51.4261 128.094 51.5857 128.036 51.7206L121.535 66.4716Z" fill="#CC988D"/>
<path fill-rule="evenodd" clip-rule="evenodd" d="M103.176 65.662L96.6538 65.5283C95.0422 65.5283 93.7343 66.9651 93.7343 68.7379H103.258L103.176 65.662Z" fill="#CC988D"/>
<path fill-rule="evenodd" clip-rule="evenodd" d="M118.296 53.4706L128.568 55.8997L130.253 47.0363C130.706 44.6548 128.993 42.3895 126.474 42.0374C124.354 41.7413 122.308 42.9053 121.58 44.8211L118.296 53.4706Z" fill="#4B4589"/>
<path fill-rule="evenodd" clip-rule="evenodd" d="M129.527 70.3426L97.3417 85.2401C94.3552 86.6219 92.5495 89.4881 92.7465 92.538L95.1715 130.254H100.109L106.771 89.8994L131.83 73.8526L129.527 70.3426Z" fill="#665D99"/>
<path fill-rule="evenodd" clip-rule="evenodd" d="M123.494 18.4047C123.494 18.4047 132.261 15.6301 136.865 23.3579C137.132 23.8076 137.426 24.2394 137.782 24.6313C138.718 25.66 140.667 27.554 142.816 28.1679C151.347 30.6051 156.745 45.6224 139.766 46.9585C118.518 48.6321 112.485 44.7304 115.524 36.8432C117.693 31.2191 115.756 27.2263 115.756 27.2263L123.494 18.4047Z" fill="#22222F"/>
<path fill-rule="evenodd" clip-rule="evenodd" d="M129.88 38.7821L125.272 40.6805C122.527 41.8101 120.767 44.3378 120.803 47.1178C120.874 52.7187 122.247 66.6249 127.358 71.9474H142.941C145.353 62.0944 143.962 46.9526 143.962 46.9526C144.118 43.2395 141.169 40.0381 137.184 39.5953L129.88 38.7821Z" fill="#393275"/>
<path fill-rule="evenodd" clip-rule="evenodd" d="M130.765 43.0427C129.185 43.2181 127.751 42.1442 127.55 40.6326L126.316 31.4002L132.084 30.7582L133.31 39.9261C133.514 41.4625 132.37 42.8632 130.765 43.0427Z" fill="#CC988D"/>
<path fill-rule="evenodd" clip-rule="evenodd" d="M125.624 39.2318L125.39 39.2604C121.487 39.7355 117.912 37.165 117.402 33.5188L116.291 25.5539L130.657 23.8042L131.769 31.769C132.278 35.4152 129.526 38.7558 125.624 39.2318Z" fill="#F1B4A7"/>
<path fill-rule="evenodd" clip-rule="evenodd" d="M133.333 28.1213L132.094 30.4987C132.094 30.4987 130.445 31.8207 129.978 28.4969C129.581 25.6815 127.372 26.1703 127.372 26.1703C127.372 26.1703 119.804 31.4672 115.359 27.8326C111.851 24.9639 117.521 19.7137 124.008 18.4549L132.519 21.8944L133.333 28.1213Z" fill="#22222F"/>
<path fill-rule="evenodd" clip-rule="evenodd" d="M130.842 30.7156C130.974 31.7421 131.974 32.473 133.072 32.3493C134.172 32.225 134.955 31.2924 134.822 30.2659C134.689 29.2393 133.69 28.5085 132.591 28.6321C131.492 28.7565 130.709 29.689 130.842 30.7156Z" fill="#F1B4A7"/>
<path fill-rule="evenodd" clip-rule="evenodd" d="M132.84 31.0572C132.856 31.2 132.978 31.3022 133.112 31.2851C133.246 31.2674 133.342 31.1375 133.325 30.9941C133.309 30.8507 133.187 30.7491 133.053 30.7662C132.919 30.7839 132.824 30.9139 132.84 31.0572Z" fill="#FFFFFE"/>
<path fill-rule="evenodd" clip-rule="evenodd" d="M143.273 71.4125H127.97L103.491 85.211C100.606 86.8379 99.4613 90.2097 100.82 93.0896L119.611 132.929L125.044 132.333L114.944 93.888C123.421 93.5538 139.159 92.3602 143.273 88.0835C150.232 80.8465 143.273 71.4125 143.273 71.4125Z" fill="#7773A8"/>
<path fill-rule="evenodd" clip-rule="evenodd" d="M91.5013 46.8059L100.251 68.2029H71.8158L63.7215 48.0481C63.4796 47.4449 63.9713 46.8059 64.6761 46.8059H91.5013Z" fill="#6A9AC5"/>
<path fill-rule="evenodd" clip-rule="evenodd" d="M91.2281 46.8059H92.6236C93.372 46.8059 94.0425 47.2208 94.3021 47.8447L102.757 68.2029H100.196L91.2281 46.8059Z" fill="#83AFD2"/>
<path fill-rule="evenodd" clip-rule="evenodd" d="M73.2459 70.8776H99.7494V68.2029H71.1779V68.4536C71.1779 69.7924 72.1046 70.8776 73.2459 70.8776Z" fill="#578EBE"/>
<path fill-rule="evenodd" clip-rule="evenodd" d="M99.7494 70.8776H117.642C118.28 70.8776 118.797 70.2783 118.797 69.5397C118.797 68.8012 118.28 68.2029 117.642 68.2029H99.7494V70.8776Z" fill="#619FC9"/>
<path fill-rule="evenodd" clip-rule="evenodd" d="M84.0109 56.4634C84.5786 58.0296 83.8939 59.6473 82.4821 60.0745C81.0684 60.5025 79.464 59.5782 78.8963 58.0111C78.3286 56.444 79.0134 54.8263 80.4261 54.3992C81.8379 53.972 83.4433 54.8954 84.0109 56.4634Z" fill="#DCE8E7"/>
<path fill-rule="evenodd" clip-rule="evenodd" d="M134.454 66.9178L134.309 67.2608C133.917 68.1823 132.964 68.7419 131.964 68.7378L113.159 68.6221C112.392 68.6172 111.774 68.0321 111.779 67.3141C111.783 66.6634 112.298 66.1284 112.965 66.0365L129.437 63.811L133.51 49.0746C134.055 47.0806 136.225 45.8784 138.356 46.388C140.488 46.8984 141.774 48.9285 141.228 50.9225C141.187 51.0726 141.128 51.2368 141.069 51.3779L134.454 66.9178Z" fill="#F1B4A7"/>
<path fill-rule="evenodd" clip-rule="evenodd" d="M115.204 65.6612L108.684 65.5283C107.071 65.5283 105.764 66.9656 105.764 68.7379H115.288L115.204 65.6612Z" fill="#F1B4A7"/>
<path fill-rule="evenodd" clip-rule="evenodd" d="M130.827 53.4708L141.099 55.8997L142.784 47.0357C143.238 44.6544 141.526 42.3896 139.006 42.0373C136.886 41.7416 134.839 42.9052 134.112 44.8209L130.827 53.4708Z" fill="#4B4589"/>
<path fill-rule="evenodd" clip-rule="evenodd" d="M117.628 133.928L115.212 136.158L109.783 137.392C109.223 137.519 108.771 137.903 108.58 138.41L108.305 139.145C108.168 139.51 108.463 139.89 108.876 139.883L126.351 139.486C126.921 139.474 127.362 139.018 127.315 138.488L125.938 133.861L123.297 134.451C122.414 134.725 121.447 134.632 120.643 134.194L119.704 133.683C119.032 133.316 118.181 133.417 117.628 133.928Z" fill="#6A9AC5"/>
<path fill-rule="evenodd" clip-rule="evenodd" d="M92.8795 130.718L90.5116 132.948L85.1905 134.183C84.6433 134.311 84.2 134.693 84.0121 135.202L83.7429 135.936C83.6078 136.301 83.897 136.681 84.3022 136.673L99.804 136.362C100.362 136.35 100.794 135.894 100.749 135.363L100.346 130.636L98.4352 131.242C97.5694 131.516 96.6231 131.422 95.8344 130.984L94.9141 130.473C94.2552 130.107 93.4214 130.208 92.8795 130.718Z" fill="#6A9AC5"/>
<path fill-rule="evenodd" clip-rule="evenodd" d="M55.4441 63.9235C55.4441 63.9235 63.0119 63.9473 61.439 56.9695C61.439 56.9695 53.5012 57.6733 55.4441 63.9235Z" fill="#6A9AC5"/>
<path fill-rule="evenodd" clip-rule="evenodd" d="M54.8312 63.3886C54.8312 63.3886 47.2638 63.412 48.8367 56.4346C48.8367 56.4346 56.7758 57.1379 54.8312 63.3886Z" fill="#6A9AC5"/>
<path fill-rule="evenodd" clip-rule="evenodd" d="M54.9335 63.3886C54.9335 63.3886 49.1159 58.5555 55.9776 54.2949C55.9776 54.2949 61.4903 59.9165 54.9335 63.3886Z" fill="#578EBE"/>
<path fill-rule="evenodd" clip-rule="evenodd" d="M61.1529 62.8537H49.6241L51.4599 70.8776H59.1708L61.1529 62.8537Z" fill="#FF8B08"/>
<path fill-rule="evenodd" clip-rule="evenodd" d="M83.7093 124.905H85.7143V71.4125H83.7093V124.905Z" fill="white"/>
</svg>
