<svg width="199" height="155" viewBox="0 0 199 155" fill="none" xmlns="http://www.w3.org/2000/svg">
<g clip-path="url(#clip0_244_1898)">
<path d="M192.691 133.374C191.126 136.159 189.335 138.855 186.995 141.03C185.635 142.275 184.145 143.372 182.552 144.303C181.357 145.026 180.118 145.675 178.869 146.295C171.119 150.158 162.969 153.16 154.37 154.311C145.406 155.517 136.298 154.985 127.358 153.883C115.328 152.407 103.417 149.888 91.3229 149.179C82.6003 148.662 73.8481 149.085 65.1601 149.74C57.2619 150.33 49.191 151.098 41.3767 149.991C39.9945 149.794 38.6172 149.538 37.2499 149.213C25.3137 146.369 14.9671 138.147 8.64853 127.661C3.13953 118.523 -3.05562 101.144 1.76722 90.894C6.90599 79.9801 20.8266 72.5696 29.944 65.4199C33.6364 62.5266 37.2894 59.338 39.3923 55.1505C41.7321 50.4809 41.9049 45.078 42.8773 39.9458C46.0267 23.3288 58.649 8.82768 74.712 3.37561C97.3009 -4.29566 124.569 0.79228 137.898 21.8723C138.556 22.9056 139.168 23.9586 139.734 25.0313C143.52 32.0334 147.375 39.6555 150.303 46.9872C153.265 54.4469 159.682 60.765 165.605 65.9661C172.126 71.7232 179.215 76.8456 185.351 83.0063C191.487 89.1669 196.734 96.602 198.442 105.115C200.313 114.739 197.509 124.812 192.691 133.374Z" fill="#003180"/>
<path opacity="0.5" fill-rule="evenodd" clip-rule="evenodd" d="M136.523 14.4743C136.523 14.4743 138.712 11.7586 140.054 10.5145C142.469 8.27366 145.24 4.31285 154.101 7.23183C154.789 7.45823 155.456 7.76008 156.119 8.06299C156.901 8.41934 159.32 8.42878 161.798 6.30635C165.737 2.93458 167.277 0.389769 172.671 0.310113C178.948 0.218927 179.936 8.65831 184.814 10.8195C187.92 12.1936 196.11 13.5603 197.805 14.1693L136.523 14.4743" fill="#FF8B08"/>
<path opacity="0.5" fill-rule="evenodd" clip-rule="evenodd" d="M0 58.9041C0 58.9041 1.13902 57.4806 1.8375 56.8284C3.09488 55.6538 4.53686 53.5776 9.14908 55.1077C9.50717 55.2263 9.85414 55.3846 10.1996 55.5434C10.6062 55.7302 11.8656 55.7351 13.1554 54.6225C15.2053 52.8551 16.007 51.5211 18.8146 51.4794C22.0819 51.4316 22.5958 55.8554 25.1348 56.9883C26.7513 57.7086 31.0145 58.425 31.8966 58.7442L0 58.9041" fill="#FF8B08"/>
<path opacity="0.18" d="M182.547 144.303C181.352 145.026 180.113 145.675 178.864 146.295C171.114 150.158 162.964 153.16 154.365 154.311C145.401 155.517 136.293 154.985 127.353 153.883C115.323 152.407 103.412 149.887 91.3179 149.179C82.5953 148.662 73.8431 149.085 65.1551 149.74C57.2569 150.33 49.1859 151.098 41.3716 149.991L39.4267 124.817L138.347 101.651L182.547 144.303Z" fill="#FC8019"/>
<path d="M38.3508 115.241L99.3939 87.5725C100.05 87.2147 100.771 86.9904 101.515 86.9127C102.259 86.8349 103.012 86.9054 103.728 87.1198L138.599 91.8387C140.573 92.4341 140.08 100.538 138.352 101.65L81.6526 137.783C80.5359 138.496 79.2649 138.934 77.9447 139.061C76.6246 139.187 75.2931 138.999 74.0605 138.511L39.4269 124.812C37.5264 124.064 36.5589 116.22 38.3508 115.241Z" fill="white"/>
<path d="M38.3508 115.241L99.3939 87.5725C100.05 87.2147 100.771 86.9904 101.515 86.9127C102.259 86.8349 103.012 86.9054 103.728 87.1198L138.599 91.8387C140.573 92.4341 140.08 100.538 138.352 101.65L81.6526 137.783C80.5359 138.496 79.2649 138.934 77.9447 139.061C76.6246 139.187 75.2931 138.999 74.0605 138.511L39.4269 124.812C37.5264 124.064 36.5589 116.22 38.3508 115.241Z" fill="url(#paint0_linear_244_1898)"/>
<path d="M39.1702 114.543L99.3939 81.6482C100.05 81.2903 100.771 81.066 101.515 80.9883C102.259 80.9106 103.012 80.981 103.728 81.1955L137.745 91.3812C138.188 91.514 138.583 91.7708 138.885 92.121C139.186 92.4713 139.38 92.9003 139.444 93.3572C139.508 93.8141 139.439 94.2797 139.245 94.6987C139.052 95.1177 138.742 95.4726 138.352 95.7212L81.6526 131.858C80.5344 132.568 79.2634 133.004 77.9437 133.129C76.6241 133.255 75.2933 133.067 74.0605 132.582L39.4269 118.888C39.0022 118.718 38.6347 118.431 38.3674 118.06C38.1 117.69 37.9438 117.252 37.9169 116.796C37.89 116.341 37.9935 115.887 38.2154 115.488C38.4373 115.089 38.7684 114.761 39.1702 114.543V114.543Z" fill="white"/>
<path opacity="0.52" d="M42.5121 114.036L98.6634 83.3703C99.2748 83.0367 99.9466 82.8275 100.64 82.7549C101.333 82.6822 102.034 82.7476 102.701 82.9471L134.442 92.444C134.856 92.568 135.225 92.8078 135.506 93.1348C135.787 93.4618 135.968 93.8624 136.027 94.2888C136.086 94.7153 136.021 95.1498 135.84 95.5406C135.659 95.9314 135.369 96.2622 135.005 96.4936L82.1167 130.175C81.076 130.839 79.8918 131.247 78.6619 131.365C77.432 131.483 76.1915 131.308 75.0428 130.854L42.754 118.061C42.3648 117.899 42.0289 117.632 41.7847 117.29C41.5404 116.947 41.3975 116.543 41.3723 116.124C41.3471 115.704 41.4406 115.286 41.6421 114.917C41.8436 114.548 42.1451 114.242 42.5121 114.036V114.036Z" fill="#FC8019"/>
<path d="M91.2586 89.5752L98.7471 85.4419L129.614 97.2908L121.331 101.892L91.2586 89.5752Z" fill="white"/>
<path d="M81.139 95.5932L88.6275 91.4599L119.495 103.314L111.211 107.914L81.139 95.5932Z" fill="white"/>
<path d="M71.0195 101.616L78.5079 97.4827L109.38 109.332L101.097 113.932L71.0195 101.616Z" fill="white"/>
<path d="M60.8999 107.634L68.3933 103.501L99.2604 115.354L90.9772 119.955L60.8999 107.634Z" fill="white"/>
<path d="M50.7855 113.657L58.274 109.524L89.1411 121.372L80.8579 125.973L50.7855 113.657Z" fill="white"/>
<path d="M59.814 51.6273C59.814 51.6273 56.5214 52.1489 55.2231 53.5365C53.9249 54.9241 46.8856 66.094 46.8856 66.094C46.8856 66.094 44.2447 68.8692 46.8856 69.7697C49.5266 70.6701 50.2917 70.3897 50.4299 69.7697C50.5681 69.1497 50.8446 68.1754 50.8446 68.1754C50.8446 68.1754 51.126 68.0376 51.4715 67.3438C51.6977 66.9408 51.8166 66.4868 51.817 66.0251C51.7549 65.7166 51.6623 65.4149 51.5406 65.1246L57.4643 57.783L59.4388 56.2576L59.814 51.6273Z" fill="#F5FAFE"/>
<path d="M81.6821 46.3278C81.7151 46.5443 81.6948 46.7655 81.6228 46.9724C81.4821 47.1832 81.2988 47.3625 81.0848 47.4989C80.607 47.9876 80.1803 48.5235 79.8112 49.0981C79.3768 49.6345 78.7153 50.0823 78.0489 49.9297C77.8618 49.8616 77.6683 49.8121 77.4714 49.7821C77.275 49.7995 77.0866 49.8683 76.9254 49.9815C76.7642 50.0947 76.6358 50.2482 76.5532 50.4267C76.3929 50.79 76.1707 51.1229 75.8967 51.4108C75.3142 51.9029 74.4602 51.6716 73.7493 51.4404C73.3389 51.3528 72.9721 51.1247 72.7127 50.7958C72.5984 50.5717 72.5392 50.3238 72.5399 50.0724C72.5399 49.4721 72.5745 48.8718 72.5745 48.2764C72.5745 46.3524 71.9821 44.4186 72.3524 42.5291C72.5559 41.4884 73.0616 40.5303 73.8067 39.7736C74.5517 39.017 75.5033 38.4951 76.5433 38.2727C77.4621 38.1376 78.4004 38.2728 79.2431 38.6618C80.0858 39.0508 80.7962 39.6766 81.2872 40.4624C82.309 42.0469 81.5932 44.5023 81.6821 46.3278Z" fill="#F5FAFE"/>
<path d="M81.075 59.1756C81.075 59.1756 84.412 62.7775 85.5918 62.9153C86.7716 63.0531 95.9582 53.0101 95.9582 53.0101C96.2749 52.9719 96.5745 52.8461 96.8231 52.647C97.0718 52.4478 97.2595 52.1833 97.3651 51.8832C97.5699 51.2943 97.6407 50.6674 97.5724 50.0478C97.5681 49.8674 97.5382 49.6885 97.4836 49.5164C97.353 49.2361 97.1606 48.9889 96.9208 48.7931C96.6674 48.5314 96.3721 48.3136 96.0471 48.1485C95.8867 48.0636 95.7079 48.0192 95.5263 48.0192C95.3447 48.0192 95.1659 48.0636 95.0055 48.1485C94.7952 48.3002 94.6256 48.5014 94.5119 48.734C94.1564 49.3393 93.7961 50.0675 94.0873 50.7023C94.1536 50.8065 94.1958 50.9242 94.2107 51.0467C94.1923 51.196 94.1183 51.333 94.0034 51.4305C91.6517 53.9891 88.8807 56.1305 85.809 57.7634C85.7181 57.82 85.6148 57.8538 85.5079 57.8618C85.3692 57.8506 85.2377 57.7954 85.1327 57.7043C84.4713 57.2467 83.8246 56.7743 83.1829 56.2921C82.2957 57.1047 81.5792 58.0848 81.075 59.1756V59.1756Z" fill="#F5FAFE"/>
<path d="M70.7332 50.2544L70.3926 50.8843C69.5534 52.4753 68.711 54.063 67.8652 55.6475C67.4209 56.479 66.8236 58.3883 65.9598 58.841C65.5566 59.0185 65.1075 59.065 64.6763 58.9738C63.3928 58.8016 61.8033 57.9897 60.8654 57.7486C60.5368 57.6388 60.1877 57.6035 59.8436 57.6452C59.3556 57.8088 58.9333 58.1245 58.6391 58.5457C57.1154 60.304 55.5062 61.9836 53.8113 63.5844C53.4749 63.938 53.0811 64.2325 52.6464 64.4554C51.6936 64.8786 50.6718 64.5882 49.6845 64.0962C49.2944 63.9042 48.9154 63.6906 48.5492 63.4565C48.3236 63.3425 48.1403 63.1598 48.0259 62.9349C47.863 62.5117 48.2086 62.0787 48.5196 61.7441C49.7399 60.4239 50.7912 58.9579 51.6492 57.3795C52.444 55.9033 53.1301 54.314 54.3938 53.2511C56.8867 51.1795 61.0826 51.4698 64.1876 51.0811C64.7257 51.0122 67.5937 50.9433 69.356 50.6875C70.0668 50.5841 70.595 50.4513 70.7234 50.279L70.7332 50.2544Z" fill="#FC8019"/>
<path d="M76.1929 75.7335C76.1929 75.7335 85.3894 76.4863 86.5 78.9122C87.6107 81.3381 88.7263 96.2968 88.7263 96.2968L83.5086 98.0485L82.3288 84.8169C82.3288 84.8169 67.4062 84.2708 65.5896 82.3025C64.4639 81.0464 63.6848 79.5204 63.3287 77.8739L76.1929 75.7335Z" fill="#282328"/>
<path d="M75.6054 77.4951C75.6054 77.4951 74.4058 90.8939 72.8755 92.006C71.3453 93.1181 62.2673 106.182 62.2673 106.182L57.4346 103.506L64.9576 89.3735L65.9103 78.4595L75.6054 77.4951Z" fill="#878ABC"/>
<path d="M79.3374 55.5294C79.3374 55.5294 79.3374 55.5737 79.3374 55.5983C79.061 57.4533 78.7796 59.3133 78.5032 61.1635L78.4439 61.5571C77.9964 64.539 77.5504 67.5193 77.1062 70.4979C76.7952 72.5548 76.4891 74.6116 75.9955 76.6241C75.9413 76.9432 75.8091 77.244 75.6104 77.5C75.3538 77.7395 75.0333 77.9001 74.6873 77.9625C72.4561 78.5579 70.1113 78.489 67.7764 78.4103C66.2791 78.4241 64.7861 78.2472 63.3337 77.8838C62.7759 77.7165 62.1638 77.3917 62.0404 76.8505C62.0082 76.6599 62.0082 76.4653 62.0404 76.2748C62.3069 74.1884 63.0276 72.166 63.1807 70.0649C63.2399 69.1398 63.1807 68.2049 63.2695 67.2798C63.3436 66.5122 63.5065 65.7544 63.6397 64.9967C63.7138 64.603 63.778 64.2094 63.8174 63.8108C63.9014 62.9792 63.8816 62.1427 64.0149 61.316C64.1608 60.5248 64.3806 59.7489 64.6714 58.9984C64.6714 58.964 64.6714 58.9345 64.706 58.9C65.1996 57.5321 65.6933 56.1691 66.2215 54.8306C66.6002 53.8177 67.1239 52.8647 67.7764 52.0013C68.0139 51.708 68.2819 51.4408 68.5761 51.2041C68.817 51.0143 69.0767 50.8494 69.3511 50.7121C69.6988 50.5277 70.0737 50.3998 70.4618 50.3332C70.5467 50.3185 70.6324 50.3086 70.7185 50.3037C71.2809 50.2652 71.846 50.2933 72.4018 50.3873C73.9518 50.5891 76.1929 50.6186 77.7479 51.4797C78.3792 51.8023 78.8884 52.3202 79.1992 52.9559C79.4927 53.7826 79.5407 54.6762 79.3374 55.5294Z" fill="#FC8019"/>
<path d="M95.5236 54.1663C95.5582 54.7125 95.1287 55.1505 94.724 55.5441L86.9985 62.8168C86.885 62.9251 86.7665 63.0333 86.6431 63.1366C86.4321 63.3258 86.19 63.4773 85.9273 63.5844C85.7222 63.6554 85.5075 63.6952 85.2905 63.7025C84.9416 63.7021 84.5939 63.6625 84.2539 63.5844C82.1847 63.1777 80.2229 62.3466 78.4932 61.1438C76.025 59.3478 74.6329 56.6808 76.0645 53.1379C76.1825 52.8288 76.3279 52.5307 76.4989 52.2473C76.6077 52.0063 76.7838 51.8017 77.0061 51.6577C77.2285 51.5138 77.4876 51.4366 77.7527 51.4354C78.271 51.5083 78.7565 51.7307 79.1497 52.0751C80.3887 53.01 81.5735 54.0039 82.7532 55.0274C83.0988 55.3178 83.474 55.6425 83.8639 55.9476C84.4176 56.4041 85.0344 56.7787 85.6953 57.0597C85.8416 57.1277 86.0041 57.1533 86.1643 57.1335C86.2973 57.0923 86.4201 57.0236 86.5246 56.9317C88.7131 55.2554 90.9065 53.5906 93.1048 51.9373C93.1942 51.8474 93.3027 51.7786 93.4223 51.736C93.5419 51.6934 93.6696 51.6781 93.7959 51.6912C93.9613 51.7607 94.0998 51.8815 94.1908 52.0357L95.0596 53.2019C95.1668 53.3392 95.2642 53.4839 95.3509 53.6349C95.4486 53.7965 95.5077 53.9783 95.5236 54.1663Z" fill="#FC8019"/>
<path d="M71.7156 59.4659C71.2868 59.6729 70.9244 59.995 70.6691 60.3959C69.9583 61.4244 69.4449 62.6791 68.4576 63.4861C67.1446 64.5539 65.2786 64.544 63.6348 64.9967C63.7088 64.6031 63.773 64.2094 63.8125 63.8109C63.8964 62.9793 63.8767 62.1428 64.01 61.3161C64.1559 60.5249 64.3757 59.7489 64.6665 58.9985C63.383 58.8263 61.7935 58.0144 60.8556 57.7732C60.527 57.6635 60.1779 57.6282 59.8338 57.6699C59.3458 57.8335 58.9235 58.1492 58.6293 58.5704C57.1056 60.3287 55.4964 62.0083 53.8015 63.6091C53.4651 63.9627 53.0713 64.2572 52.6366 64.4801C51.6838 64.9032 50.662 64.6129 49.6747 64.1209C49.6697 64.0916 49.6697 64.0616 49.6747 64.0323C49.6804 63.8657 49.7492 63.7075 49.8672 63.5894C52.3156 60.534 55.0658 57.7316 58.0764 55.2244C60.7717 52.9215 64.2568 52.1047 67.6678 51.4109L68.586 51.2288C69.1882 51.1156 69.7905 51.0123 70.3976 50.9336C71.6327 50.7441 72.8895 50.7441 74.1246 50.9336C75.0375 51.1281 75.8703 51.5929 76.5138 52.267C77.5406 53.2512 78.3896 54.5601 79.3522 55.5294L79.6138 55.7853C81.7141 57.6415 83.9426 59.3482 86.2829 60.8929C86.4424 61.0304 86.6447 61.1087 86.8555 61.1144C87.0296 61.0814 87.1906 60.9994 87.3195 60.8782C89.6584 59.0179 91.8775 57.0129 93.9639 54.875C94.3423 54.4658 94.7498 54.0842 95.1832 53.7334C95.2316 53.6943 95.2846 53.6613 95.3411 53.635C95.4388 53.7966 95.498 53.9784 95.5139 54.1664C95.5485 54.7126 95.119 55.1505 94.7142 55.5442L86.9987 62.8169C86.8851 62.9251 86.7666 63.0334 86.6432 63.1367L86.5642 63.1761C86.1544 63.3851 85.7286 63.5611 85.2907 63.7026C84.9418 63.7022 84.594 63.6626 84.254 63.5845C82.1848 63.1778 80.2231 62.3467 78.4933 61.1439L78.434 61.5375C78.344 61.4761 78.2583 61.4087 78.1774 61.3358C77.8614 61.0553 77.6195 60.7059 77.3135 60.4156C76.3262 59.4807 74.8453 59.3085 73.5026 59.2199C70.7876 59.0477 71.0838 61.6113 70.7185 63.7666C70.3038 66.2302 70.0093 68.7102 69.8349 71.2066C69.7065 72.9977 69.6424 74.8282 69.0154 76.511C68.862 77.0532 68.5232 77.5249 68.0578 77.8445C67.7152 78.0128 67.3389 78.1019 66.957 78.1053C65.7156 78.1829 64.4694 78.0868 63.2547 77.8199C63.0203 77.7995 62.7941 77.7237 62.5949 77.5987C62.3958 77.4738 62.2294 77.3033 62.1095 77.1015C62.0266 76.8254 62.0266 76.5312 62.1095 76.2552L64.2518 64.6178" fill="url(#paint1_linear_244_1898)"/>
<path d="M57.0545 105.036C56.6004 105.449 56.0327 105.803 55.8303 106.379C55.7323 106.698 55.7153 107.036 55.781 107.363C55.9784 108.559 56.7337 109.583 57.4593 110.557L58.2985 111.674L59.6955 113.539C60.0142 114.021 60.4191 114.442 60.8901 114.779C61.6524 115.164 62.5059 115.334 63.3583 115.271C63.7263 115.301 64.0965 115.252 64.4443 115.128C64.6156 115.063 64.7627 114.947 64.8652 114.795C64.9677 114.644 65.0207 114.464 65.0169 114.282C64.9675 113.79 64.4295 113.544 64.0296 113.298C62.7708 112.481 62.3118 110.896 61.9465 109.445C61.6947 108.461 61.4528 107.383 61.7095 106.384C61.7984 106.045 61.9465 105.72 62.0205 105.375C62.0629 105.209 62.0703 105.036 62.0423 104.866C62.0142 104.697 61.9514 104.535 61.8576 104.391C61.6835 104.196 61.4628 104.047 61.2159 103.958C60.4682 103.635 59.6868 103.396 58.8859 103.245C58.0073 103.004 57.6222 104.514 57.0545 105.036Z" fill="#F5FAFE"/>
<path d="M84.9945 99.3918C84.9698 100.076 85.1475 100.868 85.7448 101.198C86.0385 101.35 86.3669 101.423 86.6975 101.409C87.4589 101.424 88.2146 101.277 88.914 100.976C90.1431 100.445 91.1452 99.4706 92.3694 98.9637C92.7234 98.8548 93.0569 98.6886 93.3567 98.4717C93.5054 98.3611 93.6132 98.2046 93.6632 98.0266C93.7132 97.8485 93.7026 97.659 93.6331 97.4875C93.5097 97.2759 93.2678 97.1579 93.1099 96.9955C92.9519 96.8331 92.8828 96.5034 92.6705 96.3558C92.3053 96.0852 91.8067 96.3558 91.4167 96.592C90.6812 97.0308 89.8628 97.3139 89.0127 97.4236C88.8938 97.4482 88.7712 97.4482 88.6523 97.4236C88.1982 97.2809 88.213 96.5821 87.823 96.3115C87.2603 95.9326 85.7942 96.7347 85.4042 97.2021C84.9649 97.7188 85.0093 98.7079 84.9945 99.3918Z" fill="#F5FAFE"/>
<path d="M83.0545 42.3568C82.3091 43.3951 81.0158 43.9708 80.3938 45.0828C79.7718 46.1949 79.9298 47.8925 78.9524 48.8324C78.5514 49.1827 78.0611 49.416 77.5357 49.5065C76.9383 49.6443 76.2917 49.6935 75.7043 49.846C75.3181 49.9179 74.9691 50.1215 74.717 50.4217C74.4159 50.8449 74.717 51.4403 74.7466 51.8979C74.8416 52.6137 74.8048 53.3407 74.638 54.0433C74.4899 54.5008 74.2474 54.9224 73.926 55.2809C73.6047 55.6394 73.2116 55.9268 72.772 56.1247C71.8905 56.5219 70.9228 56.6911 69.9583 56.6168C69.7456 56.5841 69.528 56.6131 69.3314 56.7005C69.2156 56.7999 69.1227 56.923 69.0588 57.0614C68.9949 57.1997 68.9616 57.3502 68.9612 57.5025C68.744 59.0525 68.3491 60.7059 67.1544 61.7195C66.6298 62.14 66.0228 62.4467 65.3724 62.62C64.2217 62.9677 63.0027 63.0266 61.8237 62.7914C60.6447 62.5562 59.5423 62.0341 58.6145 61.2717C58.1073 60.832 57.6725 60.3156 57.3261 59.7414C56.8739 59.0078 56.5798 58.1884 56.4625 57.3353C56.3452 56.4822 56.4073 55.6142 56.6449 54.7863C57.1385 53.2511 58.2492 51.7651 57.8741 50.2003C57.7358 49.6344 57.41 49.1325 57.2373 48.5765C57.0406 47.7376 57.0305 46.8659 57.2076 46.0227C57.2691 45.2597 57.4965 44.5192 57.8741 43.8527C58.3043 43.2393 58.8927 42.7531 59.5771 42.4454C62.3958 41.0528 65.8315 41.2693 68.586 39.7439C70.9949 38.4055 72.7227 35.8074 75.4179 35.212C76.2056 35.0369 77.019 35.0085 77.817 35.1284C78.6019 35.2612 79.0412 35.8025 79.762 36.0338C80.1979 36.1027 80.6386 36.1373 81.08 36.1371C81.7665 36.2996 82.3609 36.7258 82.7337 37.323C83.0944 37.8206 83.3619 38.379 83.5235 38.9714C83.7024 39.535 83.7531 40.1312 83.672 40.7168C83.5909 41.3024 83.3799 41.8626 83.0545 42.3568V42.3568Z" fill="#08090A"/>
<path d="M83.0546 42.3568C82.3092 43.3951 81.0159 43.9708 80.3939 45.0829C79.7719 46.1949 79.9299 47.8926 78.9524 48.8324C78.5514 49.1828 78.0612 49.416 77.5357 49.5065C76.9384 49.6443 76.2917 49.6935 75.7043 49.846C75.3182 49.918 74.9692 50.1215 74.717 50.4218C74.4159 50.8449 74.717 51.4403 74.7467 51.898C74.8417 52.6137 74.8049 53.3408 74.6381 54.0433C74.49 54.5009 74.2475 54.9224 73.9261 55.2809C73.6047 55.6394 73.2116 55.9269 72.7721 56.1248C71.8906 56.5219 70.9229 56.6911 69.9584 56.6168C69.7457 56.5841 69.528 56.6132 69.3315 56.7005C69.2157 56.7999 69.1227 56.923 69.0588 57.0614C68.995 57.1998 68.9617 57.3502 68.9612 57.5026C68.744 59.0526 68.3491 60.7059 67.1545 61.7195C66.6298 62.14 66.0229 62.4467 65.3725 62.62C64.2218 62.9678 63.0028 63.0266 61.8238 62.7914C60.6448 62.5562 59.5424 62.0342 58.6146 61.2718C58.1074 60.8321 57.6726 60.3157 57.3262 59.7414C58.2295 60.1518 59.1927 60.4159 60.1794 60.5238C61.2822 60.5695 62.3834 60.4024 63.4226 60.0318C64.6035 59.7058 65.6908 59.1074 66.5967 58.2849C67.0454 57.87 67.3866 57.3529 67.5911 56.778C67.7957 56.203 67.8576 55.5872 67.7716 54.9832C68.8216 54.8842 69.8001 54.4095 70.5261 53.6469C71.2521 52.8844 71.6764 51.8855 71.7207 50.8351C70.9087 51.0092 70.0826 51.1096 69.2525 51.1353C71.5773 50.3734 73.6402 48.9752 75.2057 47.1003C74.9943 47.3987 74.8372 47.7318 74.7417 48.0845C75.2023 48.1638 75.6751 48.1349 76.1225 47.9999C76.5698 47.8649 76.9794 47.6276 77.3185 47.307C77.653 46.9827 77.9188 46.5948 78.1002 46.1663C78.2817 45.7378 78.3751 45.2774 78.3749 44.8122C78.3496 44.5788 78.3925 44.343 78.4983 44.1332C78.6165 43.9961 78.7676 43.8911 78.9376 43.8281C80.368 43.1199 81.5805 42.0405 82.4474 40.7035C82.7605 40.0987 83.1238 39.5209 83.5334 38.9764C83.7101 39.54 83.7588 40.1357 83.676 40.7204C83.5932 41.3051 83.3809 41.864 83.0546 42.3568Z" fill="url(#paint2_linear_244_1898)"/>
<path d="M113.482 32.3581L89.373 42.908V22.9695L113.482 12.4197V32.3581Z" stroke="white" stroke-miterlimit="10"/>
<path d="M110.688 26.8913C110.671 27.4716 110.48 28.0336 110.14 28.5053C109.815 28.9941 109.354 29.3773 108.812 29.6075L95.9384 34.725C94.9017 35.1383 94.0626 34.5872 94.0626 33.4948C94.0801 32.9144 94.2708 32.3525 94.6105 31.8808C94.9368 31.3919 95.3979 31.0074 95.9384 30.7737L96.3777 30.6015C96.2853 30.2816 96.2388 29.9502 96.2395 29.6173C96.278 28.4732 96.654 27.3659 97.3206 26.4337C97.9609 25.4668 98.8677 24.7048 99.9319 24.2391L101.028 23.8061C102.454 23.2402 103.693 23.5994 104.31 24.5983C104.597 24.3225 104.932 24.1007 105.298 23.9438L105.579 23.8307C106.808 23.3386 107.805 23.993 107.805 25.3068V25.4249C107.804 25.6538 107.776 25.8817 107.721 26.104L108.788 25.6808C109.849 25.2478 110.688 25.7989 110.688 26.8913Z" fill="white"/>
<path opacity="0.82" d="M127.99 72.043C127.99 72.8918 127.699 73.7152 127.166 74.3772C126.633 75.0391 125.889 75.5 125.058 75.6837C124.227 75.8674 123.357 75.7629 122.594 75.3875C121.83 75.0121 121.217 74.3882 120.857 73.6189C120.497 72.8496 120.411 71.9809 120.614 71.1564C120.816 70.3318 121.294 69.6007 121.97 69.0837C122.645 68.5668 123.477 68.295 124.329 68.3133C125.18 68.3315 126 68.6387 126.652 69.1841C127.071 69.5342 127.408 69.9717 127.639 70.4656C127.871 70.9595 127.99 71.4979 127.99 72.043Z" fill="#FC8019"/>
<path opacity="0.55" d="M126.865 70.4241C126.866 71.134 126.664 71.8295 126.282 72.4287C125.9 73.0279 125.354 73.5059 124.709 73.8063C124.064 74.1067 123.346 74.217 122.64 74.1243C121.934 74.0316 121.269 73.7397 120.724 73.283C120.454 72.5133 120.445 71.6766 120.697 70.9011C120.95 70.1256 121.451 69.454 122.123 68.989C122.795 68.524 123.601 68.2914 124.418 68.3266C125.235 68.3619 126.018 68.6631 126.648 69.1841C126.791 69.582 126.864 70.0015 126.865 70.4241Z" fill="white"/>
<path opacity="0.82" d="M123.686 59.9382C123.686 60.3073 123.576 60.668 123.37 60.9748C123.164 61.2816 122.872 61.5206 122.53 61.6616C122.188 61.8026 121.811 61.8393 121.448 61.7669C121.085 61.6946 120.752 61.5165 120.49 61.2552C120.229 60.9939 120.051 60.6611 119.979 60.299C119.908 59.9369 119.945 59.5618 120.088 59.2211C120.23 58.8804 120.471 58.5895 120.779 58.3852C121.087 58.1809 121.45 58.0723 121.82 58.0733C122.315 58.0746 122.79 58.2717 123.14 58.6213C123.489 58.9709 123.686 59.4445 123.686 59.9382V59.9382Z" fill="#FC8019"/>
<path opacity="0.55" d="M123.123 59.1313C123.122 59.4856 123.02 59.8324 122.829 60.131C122.637 60.4296 122.365 60.6677 122.043 60.8174C121.72 60.9671 121.362 61.0222 121.01 60.9764C120.657 60.9305 120.325 60.7855 120.052 60.5583C119.959 60.2782 119.933 59.9801 119.978 59.6883C120.022 59.3964 120.135 59.1192 120.307 58.8792C120.479 58.6392 120.706 58.4433 120.969 58.3076C121.232 58.1718 121.524 58.0999 121.82 58.098C122.259 58.097 122.684 58.2523 123.019 58.5359C123.087 58.7272 123.122 58.9285 123.123 59.1313V59.1313Z" fill="white"/>
<path opacity="0.82" d="M140.647 51.9127C140.647 52.337 140.502 52.7485 140.235 53.0794C139.969 53.4102 139.597 53.6406 139.181 53.7326C138.766 53.8245 138.331 53.7724 137.95 53.585C137.568 53.3975 137.261 53.0859 137.081 52.7015C136.901 52.3172 136.858 51.883 136.958 51.4708C137.059 51.0586 137.298 50.6929 137.635 50.4341C137.972 50.1753 138.388 50.0389 138.814 50.0474C139.239 50.0559 139.649 50.2088 139.976 50.4808C140.186 50.6559 140.355 50.8749 140.471 51.1223C140.587 51.3698 140.647 51.6396 140.647 51.9127V51.9127Z" fill="#FC8019"/>
<path opacity="0.55" d="M140.08 51.1008C140.08 51.4556 139.978 51.803 139.787 52.1023C139.596 52.4016 139.324 52.6405 139.001 52.7908C138.679 52.9411 138.321 52.9967 137.968 52.951C137.615 52.9052 137.282 52.7602 137.009 52.5327C136.873 52.1477 136.868 51.7289 136.994 51.3405C137.12 50.9522 137.37 50.6158 137.706 50.3828C138.043 50.1499 138.446 50.0334 138.855 50.0511C139.264 50.0688 139.656 50.2197 139.971 50.4808C140.042 50.6799 140.079 50.8895 140.08 51.1008V51.1008Z" fill="white"/>
<g opacity="0.82">
<path opacity="0.82" d="M127.694 70.9162L127.304 70.7735L131.105 60.1351L123.296 59.7415L123.316 59.333L131.683 59.7513L127.694 70.9162Z" fill="#FC8019"/>
</g>
<path d="M136.822 60.145H131.392V59.7365H136.506L138.298 53.01L138.697 53.1183L136.822 60.145Z" fill="#FC8019"/>
</g>
<defs>
<linearGradient id="paint0_linear_244_1898" x1="81.9389" y1="82.8094" x2="107.912" y2="178.538" gradientUnits="userSpaceOnUse">
<stop offset="0.01"/>
<stop offset="0.13" stop-opacity="0.69"/>
<stop offset="0.25" stop-opacity="0.32"/>
<stop offset="1" stop-opacity="0"/>
</linearGradient>
<linearGradient id="paint1_linear_244_1898" x1="6929.16" y1="439.018" x2="7252.18" y2="8203.16" gradientUnits="userSpaceOnUse">
<stop offset="0.01"/>
<stop offset="0.13" stop-opacity="0.69"/>
<stop offset="0.25" stop-opacity="0.32"/>
<stop offset="1" stop-opacity="0"/>
</linearGradient>
<linearGradient id="paint2_linear_244_1898" x1="3769.47" y1="2212.55" x2="4667.61" y2="3270.78" gradientUnits="userSpaceOnUse">
<stop offset="0.01"/>
<stop offset="0.13" stop-opacity="0.69"/>
<stop offset="0.25" stop-opacity="0.32"/>
<stop offset="1" stop-opacity="0"/>
</linearGradient>
<clipPath id="clip0_244_1898">
<rect width="199" height="155" fill="white"/>
</clipPath>
</defs>
</svg>
