<svg width="183" height="157" viewBox="0 0 183 157" fill="none" xmlns="http://www.w3.org/2000/svg">
<path fill-rule="evenodd" clip-rule="evenodd" d="M161.82 56.216C163.831 64.2167 162.218 72.7013 157.414 79.3947C153.869 84.2401 148.817 87.8632 145.671 92.9657C138.87 103.982 142.52 119.024 136.283 130.372C131.069 139.865 120.267 144.528 110.237 148.531C102.361 151.672 94.4067 154.832 86.0582 156.098C77.7098 157.364 68.7313 156.561 61.4974 152.198C55.5314 148.61 51.1485 142.923 47.1003 137.243C37.1491 123.268 28.1549 108.052 25.099 91.1462C22.0432 74.2408 25.8551 55.2786 38.3856 43.5824C44.4855 37.8866 52.4756 33.9589 56.7797 26.7957C61.2965 19.2804 61.3595 8.79458 68.3809 3.55762C70.972 1.62342 74.1932 0.725544 77.3909 0.298359C85.0891 -0.696947 92.9023 0.812735 99.6835 4.6058C106.563 8.47815 112.21 14.6328 119.704 17.1089C129.403 20.3167 141.851 17.8525 148.297 27.3455C153.476 34.9794 159.52 47.3242 161.82 56.216Z" fill="#1A3D75"/>
<path opacity="0.5" fill-rule="evenodd" clip-rule="evenodd" d="M152.123 109.198C152.123 109.198 153.226 107.898 153.902 107.303C155.119 106.231 156.515 104.335 160.98 105.732C161.327 105.84 161.662 105.985 161.997 106.13C162.39 106.3 163.61 106.305 164.858 105.289C166.842 103.676 167.618 102.458 170.336 102.42C173.499 102.376 173.997 106.415 176.454 107.449C178.019 108.106 182.146 108.76 183 109.052L152.123 109.198Z" fill="#FF8B08"/>
<path opacity="0.5" fill-rule="evenodd" clip-rule="evenodd" d="M0 21.0864C0 21.0864 1.61355 19.2095 2.60303 18.3496C4.38425 16.8008 6.42698 14.0633 12.9607 16.0808C13.468 16.2373 13.9595 16.4459 14.4489 16.6552C15.0249 16.9015 16.809 16.9081 18.6361 15.4411C21.5401 13.1107 22.6757 11.3519 26.653 11.2968C31.2816 11.2338 32.0095 17.0667 35.6063 18.5604C37.8963 19.5101 43.9356 20.4547 45.1852 20.8756L0 21.0864Z" fill="#FF8B08"/>
<path fill-rule="evenodd" clip-rule="evenodd" d="M121.848 50.8665C121.73 51.1075 121.57 51.3267 121.374 51.514C119.805 53.1231 117.773 54.2371 115.543 54.7115C114.756 54.8876 113.95 54.9761 113.142 54.9753C112.669 52.0096 112.187 49.0399 111.816 46.0622C111.524 43.736 111.306 41.4138 111.203 39.0796C111.133 37.6167 107.867 32.5166 108.534 31.1497C109.271 29.6468 114.58 34.7909 115.177 35.7701C118.492 41.1659 119.682 45.3387 121.955 49.9792C122.041 50.2771 122.003 50.5959 121.848 50.8665Z" fill="#393275"/>
<path d="M115.928 54.1645C115.761 54.3642 115.573 54.5479 115.366 54.713C114.54 54.8881 113.695 54.9761 112.848 54.9753C112.351 52.0262 111.846 49.0731 111.457 46.112C111.604 43.7856 111.87 41.4684 112.256 39.1605C112.092 40.1263 113.383 42.2328 113.733 43.1788L115.249 47.3004C116.04 49.4507 117.729 52.0659 115.928 54.1645Z" fill="url(#paint0_linear_2_131)"/>
<path d="M114.281 59.0078C114.595 60.8766 114.994 62.7683 115.939 64.4226C116.425 65.2727 117.15 66.1076 118.133 66.2569C118.68 66.3074 119.231 66.2273 119.74 66.0233C120.793 65.6692 121.786 65.1633 122.686 64.5222C123.546 63.8776 124.357 63.1724 125.112 62.4122C126.234 61.3766 127.273 60.2576 128.219 59.0652C128.654 58.4908 129.049 57.8858 129.524 57.3382C131.483 55.0597 134.617 54.0372 136.839 52.0038C137.439 51.46 138.653 48.9709 138.563 48.1743C137.748 47.7148 136.075 49.5644 135.174 49.8325C134.273 50.1005 133.43 50.5371 132.525 50.786C131.441 51.0814 130.297 51.0959 129.206 50.8281C128.838 50.7362 128.399 45.0572 128.031 45.1874C127.845 45.2633 127.679 45.3784 127.545 45.5244C126.785 46.2903 126.369 52.8271 125.738 53.6772C124.873 54.8261 123.674 55.6992 122.486 56.534C122.38 56.6067 122.247 56.6833 122.13 56.6259C122.051 56.569 122 56.4831 121.989 56.3885C121.679 55.2664 121.33 54.1521 120.95 53.053C120.684 52.2872 120.308 51.4447 119.52 51.2149C118.819 51.012 118.09 51.3987 117.463 51.7702C116.656 52.2527 115.841 52.7275 115.038 53.2139C114.591 53.4819 114.05 53.7423 113.839 54.2363C113.58 54.8299 113.799 55.6494 113.874 56.2583C113.991 57.1812 114.129 58.0964 114.281 59.0078Z" fill="#F5BCBA"/>
<path fill-rule="evenodd" clip-rule="evenodd" d="M120.488 113.534C120.488 114.736 120.429 115.918 120.322 117.092C118.411 137.963 100.407 153.682 79.3724 152.845C58.3382 152.007 41.6527 134.906 41.4218 113.95C41.4218 113.817 41.4218 113.687 41.4218 113.557C41.2797 99.4018 48.7838 86.2606 61.0744 79.1417C73.3649 72.0228 88.5487 72.0228 100.839 79.1417C113.13 86.2606 120.634 99.4018 120.492 113.557L120.488 113.534Z" fill="#003180"/>
<path fill-rule="evenodd" clip-rule="evenodd" d="M44.4321 114.092C44.4321 93.921 60.7848 77.5679 80.9568 77.5679C101.13 77.5679 117.481 93.9193 117.481 114.092C117.481 134.264 101.129 150.617 80.9568 150.617C60.7848 150.617 44.4321 134.263 44.4321 114.092ZM47.6345 110.128C45.4447 128.531 58.5884 145.227 76.9912 147.417C95.3957 149.606 112.089 136.457 114.279 118.056C116.469 99.6542 103.327 82.9585 84.9224 80.7687C66.5178 78.5789 49.8243 91.7245 47.6345 110.128Z" fill="url(#paint1_linear_2_131)"/>
<path fill-rule="evenodd" clip-rule="evenodd" d="M115.459 118.981C113.251 137.546 96.412 150.804 77.8477 148.595C59.2833 146.386 46.0272 129.547 48.236 110.984C50.4448 92.4221 67.2833 79.1629 85.8477 81.3717C104.412 83.5804 117.668 100.42 115.459 118.981Z" fill="#1A3D75"/>
<path fill-rule="evenodd" clip-rule="evenodd" d="M113.678 118.981C111.469 137.546 94.6303 150.804 76.0659 148.595C57.5016 146.386 44.2454 129.547 46.4542 110.984C48.663 92.4221 65.5016 79.1629 84.0659 81.3717C102.63 83.5804 115.886 100.42 113.678 118.981Z" fill="#E6EFFF"/>
<path d="M99.6646 86.6919C98.1171 86.2706 96.5419 85.9628 94.9512 85.7708C76.6516 83.5532 60.0531 96.8639 57.8758 115.502C56.3773 128.307 62.123 140.873 72.7103 147.945C56.9385 143.653 46.247 128.097 48.2325 111.104C50.4098 92.4658 67.0083 79.1551 85.3079 81.3727C90.434 81.9865 95.3494 83.8077 99.6646 86.6919Z" fill="url(#paint2_linear_2_131)"/>
<path d="M81.4022 116.765C82.6322 116.765 83.6293 115.768 83.6293 114.538C83.6293 113.308 82.6322 112.311 81.4022 112.311C80.1722 112.311 79.1751 113.308 79.1751 114.538C79.1751 115.768 80.1722 116.765 81.4022 116.765Z" fill="#68E1FD"/>
<path fill-rule="evenodd" clip-rule="evenodd" d="M81.4022 116.765C82.6322 116.765 83.6293 115.768 83.6293 114.538C83.6293 113.308 82.6322 112.311 81.4022 112.311C80.1722 112.311 79.1751 113.308 79.1751 114.538C79.1751 115.768 80.1722 116.765 81.4022 116.765Z" fill="#FF8B08"/>
<path fill-rule="evenodd" clip-rule="evenodd" d="M81.4036 88.2581C81.6488 88.2581 81.8476 88.6069 81.8476 89.0371V114.983H80.9568V89.0371C80.9568 88.6069 81.1556 88.2581 81.4008 88.2581H81.4036Z" fill="#FF8B08"/>
<rect x="80.9568" y="114.983" width="18.7078" height="0.890846" rx="0.445423" fill="#FF8B08"/>
<rect x="81.8476" y="83.8038" width="0.890846" height="1.78169" rx="0.445423" fill="white"/>
<rect x="80.9568" y="143.491" width="1.78169" height="2.67254" rx="0.890846" fill="#FF8B08"/>
<path fill-rule="evenodd" clip-rule="evenodd" d="M58.7537 93.1939C58.4458 92.886 58.4458 92.3869 58.7537 92.079C59.0616 91.7711 59.5607 91.7711 59.8686 92.079L60.6533 92.8637C60.9612 93.1716 60.9612 93.6707 60.6533 93.9786C60.3454 94.2865 59.8463 94.2865 59.5384 93.9786L58.7537 93.1939Z" fill="#FF8B08"/>
<path fill-rule="evenodd" clip-rule="evenodd" d="M102.788 137.227C102.48 136.919 102.48 136.42 102.788 136.112C103.096 135.804 103.595 135.804 103.903 136.112L104.688 136.897C104.996 137.205 104.996 137.704 104.688 138.012C104.38 138.32 103.881 138.32 103.573 138.012L102.788 137.227Z" fill="#FF8B08"/>
<path fill-rule="evenodd" clip-rule="evenodd" d="M50.668 116.765C50.176 116.765 49.7772 116.366 49.7772 115.874C49.7772 115.382 50.176 114.983 50.668 114.983H51.5589C52.0509 114.983 52.4497 115.382 52.4497 115.874C52.4497 116.366 52.0509 116.765 51.5589 116.765H50.668Z" fill="#FF8B08"/>
<path d="M113.027 116.32C112.781 116.32 112.582 116.12 112.582 115.874C112.582 115.628 112.781 115.429 113.027 115.429H113.918C114.164 115.429 114.363 115.628 114.363 115.874C114.363 116.12 114.164 116.32 113.918 116.32H113.027Z" fill="white"/>
<path fill-rule="evenodd" clip-rule="evenodd" d="M59.8687 138.012C59.5608 138.32 59.0617 138.32 58.7538 138.012C58.4459 137.704 58.4459 137.205 58.7538 136.897L59.5385 136.113C59.8464 135.805 60.3455 135.805 60.6534 136.113C60.9613 136.421 60.9613 136.92 60.6534 137.228L59.8687 138.012Z" fill="#FF8B08"/>
<path d="M103.902 93.9774C103.595 94.2852 103.095 94.2852 102.788 93.9774C102.48 93.6695 102.48 93.1703 102.788 92.8624L103.572 92.0777C103.88 91.7699 104.379 91.7699 104.687 92.0777C104.995 92.3856 104.995 92.8848 104.687 93.1927L103.902 93.9774Z" fill="white"/>
<path fill-rule="evenodd" clip-rule="evenodd" d="M141.491 70.9223L141.204 70.037L140.917 70.9223C140.675 71.6688 140.1 72.2996 139.321 72.6718C140.1 73.0451 140.675 73.6749 140.917 74.4223L141.204 75.3086L141.491 74.4223C141.733 73.6749 142.307 73.0451 143.086 72.6718C142.307 72.2996 141.733 71.6688 141.491 70.9223Z" fill="#FFFFFE"/>
<path fill-rule="evenodd" clip-rule="evenodd" d="M41.0114 82.2186L40.6672 81.3333L40.322 82.2186C40.0317 82.9651 39.3423 83.5959 38.4074 83.9681C39.3423 84.3414 40.0317 84.9711 40.322 85.7186L40.6672 86.6049L41.0114 85.7186C41.3017 84.9711 41.9911 84.3414 42.9259 83.9681C41.9911 83.5959 41.3017 82.9651 41.0114 82.2186Z" fill="#FFFFFE"/>
<path fill-rule="evenodd" clip-rule="evenodd" d="M58.0133 50.0889L57.6118 48.9506L57.209 50.0889C56.8703 51.0486 56.066 51.8596 54.9753 52.3382C56.066 52.8181 56.8703 53.6278 57.209 54.5889L57.6118 55.7284L58.0133 54.5889C58.352 53.6278 59.1563 52.8181 60.2469 52.3382C59.1563 51.8596 58.352 51.0486 58.0133 50.0889Z" fill="#FFFFFE"/>
<path d="M99.12 97.4499C100.724 98.0221 102.467 98.4314 103.782 99.5162C104.949 100.474 105.659 101.861 106.232 103.248C108.143 107.902 108.833 112.96 108.236 117.951C108.076 119.278 107.835 120.645 108.184 121.924C108.533 123.204 109.724 124.404 111.063 124.245C112.919 120.589 112.959 116.321 112.963 112.228C112.963 109.24 112.963 106.188 111.953 103.371C111.127 101.05 109.668 98.9997 108.16 97.0485C102.664 89.8957 96.013 83.2238 87.546 80.009C87.195 79.831 86.7917 79.7817 86.4075 79.8699C84.6636 80.5017 84.9482 83.5774 85.6257 84.8133C86.5879 86.5205 87.6591 88.165 88.8329 89.7368C91.4081 93.2683 94.9909 95.9546 99.12 97.4499Z" fill="url(#paint3_linear_2_131)"/>
<path d="M83.8172 88.3347C83.8397 87.8173 83.9058 87.3029 84.0146 86.7969C84.1337 86.2851 84.5246 85.8832 85.0281 85.755C85.2366 85.7493 85.4445 85.7301 85.6506 85.6973C86.0719 85.5666 86.2503 85.0707 86.3718 84.644L87.7193 79.8768C87.9774 78.9542 88.2393 77.9853 88.042 77.0511C87.7307 75.5902 86.406 74.6022 85.1154 73.8871C84.1778 73.3643 83.1226 72.8991 82.0787 73.0952C80.4617 73.3989 79.5241 75.0905 78.9206 76.6398C78.2182 78.2999 77.7862 80.0643 77.6414 81.8644C77.5351 83.9443 77.3605 89.0382 78.6321 90.8566C80.3934 93.4094 83.5363 90.6413 83.8172 88.3347Z" fill="url(#paint4_linear_2_131)"/>
<path d="M104.976 82.4286C108.597 83.6374 112.459 84.1453 115.948 85.6847C116.176 85.7525 116.364 85.911 116.468 86.1217C116.498 86.2922 116.476 86.4678 116.404 86.6257C113.456 95.2683 111.794 104.286 111.468 113.399C113.557 113.769 115.691 113.816 117.793 113.536C118.03 113.522 118.259 113.45 118.46 113.328C118.654 113.16 118.8 112.946 118.883 112.706C122.261 105.228 125.293 97.6091 127.979 89.8502C128.454 88.4762 128.926 87.0391 128.734 85.5981C128.458 83.4996 126.857 81.8459 125.336 80.3537L113.481 68.6918C113.179 68.3565 112.809 68.0882 112.395 67.9043C111.918 67.7644 111.414 67.7401 110.925 67.8335C106.25 68.4044 99.8648 68.5815 91.2719 68.2272C90.1579 68.1799 95.6642 74.4361 96.1234 75.637C96.4907 76.5898 97.6527 77.8182 98.3635 78.5584C100.144 80.401 102.548 81.6176 104.976 82.4286Z" fill="#525263"/>
<path fill-rule="evenodd" clip-rule="evenodd" d="M104.976 82.4286C108.597 83.6374 112.459 84.1453 115.948 85.6847C116.176 85.7525 116.364 85.911 116.468 86.1217C116.498 86.2922 116.476 86.4678 116.404 86.6257C113.456 95.2683 111.794 104.286 111.468 113.399C113.557 113.769 115.691 113.816 117.793 113.536C118.03 113.522 118.259 113.45 118.46 113.328C118.654 113.16 118.8 112.946 118.883 112.706C122.261 105.228 125.293 97.6091 127.979 89.8502C128.454 88.4762 128.926 87.0391 128.734 85.5981C128.458 83.4996 126.857 81.8459 125.336 80.3537L113.481 68.6918C113.179 68.3565 112.809 68.0882 112.395 67.9043C111.918 67.7644 111.414 67.7401 110.925 67.8335C106.25 68.4044 99.8648 68.5815 91.2719 68.2272C90.1579 68.1799 95.6642 74.4361 96.1234 75.637C96.4907 76.5898 97.6527 77.8182 98.3635 78.5584C100.144 80.401 102.548 81.6176 104.976 82.4286Z" fill="#665D99"/>
<path d="M110.35 118.114C110.045 118.551 109.838 119.04 109.742 119.552C109.519 120.448 109.354 121.356 109.248 122.27C109.164 122.98 109.135 123.751 109.575 124.333C110.015 124.916 110.74 125.128 111.419 125.371C113.128 126.018 114.788 126.769 116.389 127.619C117.47 128.166 118.597 128.733 119.83 128.776C121.062 128.818 122.424 128.197 122.704 127.094C122.802 126.564 122.753 126.019 122.562 125.51C121.889 123.297 120.57 121.296 118.748 119.725C118.429 119.439 118.073 119.189 117.688 118.981C117.319 118.806 116.933 118.661 116.536 118.549C115.416 118.172 114.269 117.87 113.103 117.643C112.085 117.493 111.054 117.215 110.35 118.114Z" fill="#2E2E3F"/>
<path d="M110.35 118.114C110.045 118.551 109.838 119.04 109.742 119.552C109.519 120.448 109.354 121.356 109.248 122.27C109.164 122.98 109.135 123.751 109.575 124.333C110.015 124.916 110.74 125.128 111.419 125.371C113.128 126.018 114.788 126.769 116.389 127.619C117.47 128.166 118.597 128.733 119.83 128.776C121.062 128.818 122.424 128.197 122.704 127.094C122.802 126.564 122.753 126.019 122.562 125.51C121.889 123.297 120.57 121.296 118.748 119.725C118.429 119.439 118.073 119.189 117.688 118.981C117.319 118.806 116.933 118.661 116.536 118.549C115.416 118.172 114.269 117.87 113.103 117.643C112.085 117.493 111.054 117.215 110.35 118.114Z" fill="url(#paint5_linear_2_131)"/>
<path d="M111.935 114.395C111.628 115.879 111.468 117.387 111.457 118.898C111.457 119.563 111.505 120.298 112.02 120.775C112.507 121.134 113.128 121.298 113.747 121.233C114.492 121.207 115.228 121.067 115.923 120.816C116.078 120.772 116.217 120.692 116.329 120.584C116.411 120.477 116.467 120.356 116.495 120.227C117.113 118.079 117.441 115.868 117.472 113.644C117.511 113.296 117.433 112.944 117.249 112.638C116.864 112.139 116.065 112.162 115.417 112.282C114.586 112.447 113.773 112.676 112.985 112.969C112.239 113.209 112.085 113.682 111.935 114.395Z" fill="#F5BCBA"/>
<path d="M120.305 121.402C120.571 122.076 120.787 122.77 120.952 123.478C121.066 124.029 121.132 124.617 121.473 125.057C121.907 125.607 122.66 125.748 123.347 125.759C123.913 125.792 124.479 125.694 125.003 125.471C125.276 125.36 125.504 125.157 125.65 124.894C125.752 124.634 125.787 124.352 125.753 124.074C125.699 122.146 125.234 120.254 124.39 118.533C123.906 117.643 123.361 116.791 122.759 115.982C122.569 115.619 122.249 115.346 121.866 115.223C121.47 115.209 121.084 115.361 120.798 115.644C120.192 116.115 118.858 116.901 118.998 117.793C119.174 118.981 119.894 120.275 120.305 121.402Z" fill="#F5BCBA"/>
<path d="M125.408 122.934C124.963 123.18 124.532 123.45 124.115 123.741C123.467 124.096 122.705 124.166 121.994 124.369C121.806 124.404 121.634 124.495 121.499 124.63C121.401 124.761 121.34 124.916 121.322 125.078C121.189 126.143 121.233 127.222 121.452 128.272C121.813 130.544 122.235 132.807 122.717 135.061C122.917 135.989 123.157 136.968 123.836 137.635C124.516 138.301 125.549 138.531 126.515 138.559C127.42 138.61 128.323 138.443 129.147 138.071C130.476 137.365 131.407 136.096 131.677 134.624C131.933 133.163 131.753 131.66 131.159 130.3C130.755 129.369 130.285 128.469 129.752 127.605C129.045 126.399 128.341 125.193 127.639 123.986C127.105 123.066 126.618 122.423 125.408 122.934Z" fill="#2E2E3F"/>
<path d="M125.408 122.934C124.963 123.18 124.532 123.45 124.115 123.741C123.467 124.096 122.705 124.166 121.994 124.369C121.806 124.404 121.634 124.495 121.499 124.63C121.401 124.761 121.34 124.916 121.322 125.078C121.189 126.143 121.233 127.222 121.452 128.272C121.813 130.544 122.235 132.807 122.717 135.061C122.917 135.989 123.157 136.968 123.836 137.635C124.516 138.301 125.549 138.531 126.515 138.559C127.42 138.61 128.323 138.443 129.147 138.071C130.476 137.365 131.407 136.096 131.677 134.624C131.933 133.163 131.753 131.66 131.159 130.3C130.755 129.369 130.285 128.469 129.752 127.605C129.045 126.399 128.341 125.193 127.639 123.986C127.105 123.066 126.618 122.423 125.408 122.934Z" fill="url(#paint6_linear_2_131)"/>
<path d="M76.975 50.7017C76.6217 51.5717 76.3856 52.4829 76.2725 53.4126C75.8884 55.8196 75.643 58.2458 75.5376 60.6798C75.3357 65.327 75.6426 69.9822 75.5093 74.6294C75.372 79.4624 74.7906 84.4732 76.5672 88.9821C76.8439 89.8003 77.3111 90.5444 77.932 91.1555C78.5707 91.7669 79.4869 92.012 80.3546 91.8036C81.1375 91.5086 81.7348 90.8728 81.9697 90.0846C82.1923 89.3058 82.2904 88.498 82.2604 87.6899L82.325 83.2718C82.325 83.181 82.325 83.0743 82.4179 83.0347C82.497 83.0079 82.5848 83.0245 82.6481 83.0782C82.9955 83.372 83.3257 83.6847 83.6373 84.0148C83.9967 84.2993 84.57 84.4376 84.889 84.1096C85.0676 83.877 85.1366 83.581 85.0788 83.2956C84.885 81.3829 83.181 80.0038 82.1676 78.3559C80.7059 75.9848 80.7059 72.9973 81.0733 70.239C81.5296 66.7852 82.4825 63.4144 83.4314 60.0554L84.2389 57.2141C84.8486 55.0565 85.4503 52.7012 84.562 50.6345C83.8386 49.0244 82.3726 47.8496 80.6171 47.4731C78.9293 47.1688 77.5847 49.3581 76.975 50.7017Z" fill="#F5BCBA"/>
<path fill-rule="evenodd" clip-rule="evenodd" d="M113.563 68.2015C113.044 69.5764 110.113 67.9717 108.439 68.7958C105.242 70.3807 101.595 68.7522 98.0325 68.7958C94.2404 68.8632 91.6237 72.5402 87.8598 73.0077C87.5862 73.0633 87.304 73.0633 87.0305 73.0077C86.5112 72.8572 86.2052 72.346 85.9838 71.8666C85.659 71.127 85.4265 70.3513 85.2914 69.5566C84.8244 66.9256 85.2914 64.1044 85.7906 61.4299C86.2093 59.1635 86.6266 56.8957 87.0426 54.6266C87.5256 51.9851 88.0127 49.3277 88.5039 46.6545C88.7903 44.8909 89.1937 43.1478 89.7115 41.4361C89.8082 41.1389 89.9088 40.8497 90.0175 40.5644C90.9539 38.2407 92.0836 35.997 93.395 33.8562C94.2001 32.4813 95.0052 31.0826 96.2491 30.0405C97.638 28.8875 99.4294 28.313 101.229 28.0356C102.847 27.7354 104.516 27.8306 106.088 28.313C106.985 28.622 107.324 29.5571 108.036 30.1317C108.939 30.7903 109.745 31.5691 110.431 32.4456C111.128 33.504 111.626 34.677 111.901 35.9087C114.425 45.5688 110.774 55.9897 113.173 65.6775C113.447 66.8147 113.978 67.1158 113.563 68.2015Z" fill="#393275"/>
<path d="M110.338 34.3371L110.704 36.4686L109.296 35.772V41.4198L107.691 35.1463L109.244 33.1358L110.338 34.3371Z" fill="url(#paint7_linear_2_131)"/>
<path d="M100.016 34.9056L100.843 35.2856L102.156 36.2773L98.6544 44.4321C98.6544 44.4321 103.74 37.6377 103.907 34.1722C104.009 32.0404 103.703 29.9087 103.001 27.8642L100.016 34.9056Z" fill="url(#paint8_linear_2_131)"/>
<path d="M89.6443 58.3561C89.3868 60.2797 89.3868 62.2273 89.6443 64.1509C89.8106 65.3607 90.0783 66.5667 89.9931 67.7804C89.997 68.0176 89.9185 68.2492 89.7701 68.4382C89.5796 68.5878 89.3458 68.6767 89.1009 68.6927C87.8329 68.8859 86.5635 69.083 85.2928 69.284C84.8224 66.6841 85.2928 63.8964 85.7957 61.2535C86.2175 59.0139 86.6379 56.773 87.057 54.5307C87.5436 51.9205 88.0343 49.2945 88.5291 46.653C88.8176 44.9103 89.224 43.1878 89.7457 41.4964C89.8431 41.2027 89.9444 40.9169 90.0539 40.635C91.3111 39.9615 93.059 39.4604 93.8377 40.5488C94.6488 41.7235 93.5822 44.4642 93.2659 45.6389C92.1141 49.8949 90.2243 53.963 89.6443 58.3561Z" fill="url(#paint9_linear_2_131)"/>
<path d="M118.515 24.0454C118.556 24.5292 118.542 25.0161 118.472 25.4967C118.391 25.9902 117.975 26.3618 117.471 26.3916C116.246 26.3021 115.362 27.4655 114.388 28.2126C112.83 29.3691 110.75 29.5659 109 28.7223C108.646 28.596 108.253 28.7671 108.108 29.1114C107.986 29.4546 107.959 29.8242 108.03 30.1814L108.481 34.438C108.568 35.259 108.576 36.2629 107.873 36.7064C107.17 37.15 106.337 36.7648 105.756 36.2629C104.842 35.3923 104.182 34.2944 103.843 33.084C102.281 28.0949 103.492 22.6592 107.028 18.7849C107.681 18.0622 108.446 17.4474 109.294 16.9639C110.183 16.5072 111.136 16.1884 112.122 16.0184C113.004 15.8121 113.916 15.7621 114.816 15.8706C116.024 16.0883 117.123 16.7039 117.934 17.6176C118.531 18.2635 119.112 20.1895 119.741 20.5047C119.273 21.6797 118.535 22.7186 118.515 24.0454Z" fill="#F5BCBA"/>
<path d="M109.673 7.61923C109.098 7.48624 108.498 7.50362 107.932 7.66963C106.826 8.05739 106.206 9.20126 105.806 10.2909C105.406 11.3804 105.077 12.5708 104.206 13.3425C103.457 14.0094 102.395 14.277 101.72 15.0137C100.936 15.8706 100.862 17.1386 100.936 18.2902C100.936 19.1542 101.182 20.0008 101.646 20.7331C102.061 21.2914 102.701 21.6792 103.026 22.2841C103.395 22.9782 103.52 24.0522 104.312 24.0988C104.643 24.0823 104.955 23.9439 105.187 23.711C105.987 23.0267 106.591 22.1451 106.936 21.1557C107.128 20.6051 107.253 19.9925 107.677 19.6047C108.1 19.2169 108.963 19.1937 109.155 19.7443C109.209 20.0946 109.154 20.4529 108.998 20.7718C108.896 21.1131 108.939 21.5745 109.277 21.6908C109.912 20.7214 110.269 19.5814 111.022 18.7012C111.887 17.698 113.174 17.1473 114.506 17.2095C115.838 17.2717 117.066 17.9398 117.833 19.0192C118.225 19.5737 118.492 20.2329 119.041 20.6284C119.558 20.9399 120.149 21.1111 120.754 21.1247C122.103 21.2565 123.53 21.3069 124.746 20.7137C125.962 20.1204 126.86 18.6818 126.393 17.4216C126.024 16.4329 124.974 15.8706 123.954 15.5527C122.934 15.2347 121.844 15.0757 120.946 14.5096C119.727 13.7341 119.076 12.3537 118.366 11.1013C117.656 9.84881 116.696 8.56147 115.276 8.26678C114.697 8.17759 114.107 8.17759 113.527 8.26678C112.962 8.38539 112.383 8.42972 111.806 8.39861C111.1 8.25514 110.418 7.78208 109.673 7.61923Z" fill="#2E2E3F"/>
<path d="M108.969 39.8614C109.895 44.4342 110.167 49.1098 109.78 53.7554C109.46 57.6212 108.698 61.4593 108.726 65.337C108.786 66.4275 108.752 67.5209 108.625 68.6059C108.447 69.6811 101.056 69.27 99.9778 69.2581C98.1625 69.2344 100.464 71.6298 99.0986 70.4756C96.955 68.6534 95.9988 65.8113 95.7354 63.0523C95.3585 59.1193 96.1851 55.1823 97.0847 51.3284C97.7087 48.6603 98.3732 45.9842 99.4916 43.4742C100.877 40.3713 103.07 36.4225 103.775 33.1061C103.876 32.62 102.154 30.8531 102.895 30.8768C103.377 30.8768 103.151 31.608 103.236 31.9717C103.388 32.5254 103.679 33.0335 104.083 33.45C104.648 34.0938 105.413 34.5394 106.263 34.7189C106.81 34.8177 107.434 34.794 107.831 35.1734C108.313 35.632 108.236 36.5253 108.374 37.1498C108.572 38.0431 108.783 38.9483 108.969 39.8614Z" fill="#F2F2F2"/>
<path d="M93.0129 28.3069C91.0849 29.1668 89.4278 30.4992 87.8623 31.8935C86.5665 33.0289 85.3426 34.2395 84.1975 35.5189C83.1857 36.6809 82.2615 37.8854 81.194 38.9816C79.7201 40.4882 77.8797 41.9446 77.5889 44.0168C77.5 45.0973 77.6946 46.1821 78.1546 47.1696C78.5337 48.1778 79.0934 49.1127 79.8077 49.9312C80.7142 50.9061 81.91 51.5829 83.2295 51.8678C83.6431 51.9726 84.0748 51.9911 84.4963 51.922C85.0898 51.7578 85.6355 51.4606 86.0897 51.0544C87.1281 50.2904 88.1116 49.4583 89.0334 48.5639C89.9735 47.615 90.7702 46.5344 91.6864 45.5622C92.4831 44.7256 93.3316 43.9703 94.1283 43.1492C95.0803 42.1653 95.9288 41.0925 96.7773 40.0196C97.9778 38.5643 99.0783 37.0337 100.072 35.4375C100.901 34.0289 101.56 32.5316 102.035 30.9756C102.342 29.9608 102.832 28.6749 101.773 27.9428C99.5219 26.4013 95.2556 27.2883 93.0129 28.3069Z" fill="#68E1FD"/>
<path fill-rule="evenodd" clip-rule="evenodd" d="M93.0129 28.3069C91.0849 29.1668 89.4278 30.4992 87.8623 31.8935C86.5665 33.0289 85.3426 34.2395 84.1975 35.5189C83.1857 36.6809 82.2615 37.8854 81.194 38.9816C79.7201 40.4882 77.8797 41.9446 77.5889 44.0168C77.5 45.0973 77.6946 46.1821 78.1546 47.1696C78.5337 48.1778 79.0934 49.1127 79.8077 49.9312C80.7142 50.9061 81.91 51.5829 83.2295 51.8678C83.6431 51.9726 84.0748 51.9911 84.4963 51.922C85.0898 51.7578 85.6355 51.4606 86.0897 51.0544C87.1281 50.2904 88.1116 49.4583 89.0334 48.5639C89.9735 47.615 90.7702 46.5344 91.6864 45.5622C92.4831 44.7256 93.3316 43.9703 94.1283 43.1492C95.0803 42.1653 95.9288 41.0925 96.7773 40.0196C97.9778 38.5643 99.0783 37.0337 100.072 35.4375C100.901 34.0289 101.56 32.5316 102.035 30.9756C102.342 29.9608 102.832 28.6749 101.773 27.9428C99.5219 26.4013 95.2556 27.2883 93.0129 28.3069Z" fill="#393275"/>
<path d="M126.629 46.4942C125.782 47.0615 125.514 48.2399 126.023 49.1549C126.655 50.3216 127.504 51.3407 128.517 52.1511C129.12 52.8382 130.477 52.9501 131.682 52.199C132.888 51.448 138.642 48.1281 141.517 45.9589C141.943 45.6482 142.23 45.1654 142.31 44.6237C142.391 44.082 142.258 43.529 141.942 43.0944L139.535 39.8984C138.944 39.1152 137.891 38.9293 137.093 39.467L126.629 46.4942Z" fill="#3D3D54"/>
<path d="M85.9341 80.4781C86.3785 82.1116 87.1669 83.631 88.2464 84.9343C89.4281 86.3145 91.0352 87.3004 92.5793 88.239L99.0827 92.2023C100.036 92.7514 100.949 93.3695 101.812 94.0518C103.943 95.8106 105.358 98.2635 106.732 100.661L116.217 117.212C116.698 118.06 117.372 119.018 118.345 118.987C118.868 118.919 119.361 118.7 119.763 118.356C120.98 117.5 122.288 116.526 122.65 115.079C122.902 114.069 122.65 113.008 122.347 112.007C120.889 107.073 118.605 102.428 116.312 97.81C112.67 90.5013 108.974 83.207 105.224 75.9272C104.227 73.9949 103.018 70.9859 101.371 69.5663C101.371 69.5663 86.072 68.6356 85.686 70.1538C84.8262 73.5535 84.912 77.1238 85.9341 80.4781Z" fill="#525263"/>
<path fill-rule="evenodd" clip-rule="evenodd" d="M85.9341 80.4781C86.3785 82.1116 87.1669 83.631 88.2464 84.9343C89.4281 86.3145 91.0352 87.3004 92.5793 88.239L99.0827 92.2023C100.036 92.7514 100.949 93.3695 101.812 94.0518C103.943 95.8106 105.358 98.2635 106.732 100.661L116.217 117.212C116.698 118.06 117.372 119.018 118.345 118.987C118.868 118.919 119.361 118.7 119.763 118.356C120.98 117.5 122.288 116.526 122.65 115.079C122.902 114.069 122.65 113.008 122.347 112.007C120.889 107.073 118.605 102.428 116.312 97.81C112.67 90.5013 108.974 83.207 105.224 75.9272C104.227 73.9949 103.018 70.9859 101.371 69.5663C101.371 69.5663 86.072 68.6356 85.686 70.1538C84.8262 73.5535 84.912 77.1238 85.9341 80.4781Z" fill="#7773A8"/>
<path fill-rule="evenodd" clip-rule="evenodd" d="M103.008 25.6049L100.767 26.4692L99.4074 33.8889L103.926 33.6898L103.008 25.6049Z" fill="#393275"/>
<path fill-rule="evenodd" clip-rule="evenodd" d="M107.809 33.6207C107.809 33.9548 107.809 34.289 107.809 34.6231C107.809 34.768 107.817 34.9128 107.833 35.0567C107.857 35.2029 107.889 35.3477 107.929 35.4903L108.48 37.6543L108.707 34.1378C109.358 34.4521 110.025 34.7385 110.704 34.9891C110.652 34.4621 110.518 33.9465 110.304 33.4616C109.905 32.4432 109.538 31.4209 109.107 30.4224C109.006 30.1557 108.86 29.9082 108.675 29.6905C108.487 29.4716 108.206 29.3538 107.917 29.3723C107.518 29.5393 107.769 31.0311 107.773 31.3612L107.809 33.6207Z" fill="#393275"/>
<path fill-rule="evenodd" clip-rule="evenodd" d="M139.861 43.7789L132.188 48.866C131.911 49.0228 131.567 48.957 131.361 48.7077L128.922 45.8256C128.82 45.7262 128.768 45.5833 128.779 45.4381C128.791 45.2929 128.866 45.1614 128.982 45.0814L136.67 39.9982C136.947 39.8414 137.291 39.9072 137.497 40.1565L139.936 43.0346C140.036 43.1363 140.086 43.2807 140.072 43.4261C140.057 43.5714 139.979 43.7015 139.861 43.7789Z" fill="#6A9AC5"/>
<defs>
<linearGradient id="paint0_linear_2_131" x1="103.672" y1="73.784" x2="121.399" y2="73.7562" gradientUnits="userSpaceOnUse">
<stop offset="0.01"/>
<stop offset="0.13" stop-opacity="0.69"/>
<stop offset="1" stop-opacity="0.01"/>
</linearGradient>
<linearGradient id="paint1_linear_2_131" x1="-4.48554" y1="37.4323" x2="18.8289" y2="179.286" gradientUnits="userSpaceOnUse">
<stop stop-opacity="0.01"/>
<stop offset="0.88" stop-opacity="0.8"/>
<stop offset="0.97"/>
</linearGradient>
<linearGradient id="paint2_linear_2_131" x1="-1.96637" y1="202.551" x2="183.725" y2="262.969" gradientUnits="userSpaceOnUse">
<stop stop-color="white" stop-opacity="0.01"/>
<stop offset="0.258024" stop-color="white" stop-opacity="0.258024"/>
<stop offset="0.84" stop-color="white" stop-opacity="0.84"/>
<stop offset="1" stop-color="white"/>
</linearGradient>
<linearGradient id="paint3_linear_2_131" x1="108.629" y1="50.9866" x2="64.8114" y2="68.83" gradientUnits="userSpaceOnUse">
<stop offset="0.01"/>
<stop offset="0.13" stop-opacity="0.69"/>
<stop offset="1" stop-opacity="0.01"/>
</linearGradient>
<linearGradient id="paint4_linear_2_131" x1="61.1273" y1="115.578" x2="110.938" y2="125.487" gradientUnits="userSpaceOnUse">
<stop offset="0.01"/>
<stop offset="0.13" stop-opacity="0.69"/>
<stop offset="1" stop-opacity="0.01"/>
</linearGradient>
<linearGradient id="paint5_linear_2_131" x1="126.735" y1="120.786" x2="116.204" y2="117.204" gradientUnits="userSpaceOnUse">
<stop offset="0.01"/>
<stop offset="0.13" stop-opacity="0.69"/>
<stop offset="1" stop-opacity="0.01"/>
</linearGradient>
<linearGradient id="paint6_linear_2_131" x1="121.244" y1="138.583" x2="131.811" y2="138.583" gradientUnits="userSpaceOnUse">
<stop offset="0.01"/>
<stop offset="0.13" stop-opacity="0.69"/>
<stop offset="1" stop-opacity="0.01"/>
</linearGradient>
<linearGradient id="paint7_linear_2_131" x1="100.363" y1="49.8709" x2="114.183" y2="51.2224" gradientUnits="userSpaceOnUse">
<stop offset="0.01"/>
<stop offset="0.13" stop-opacity="0.69"/>
<stop offset="1" stop-opacity="0.01"/>
</linearGradient>
<linearGradient id="paint8_linear_2_131" x1="110.225" y1="-2.74863" x2="87.5527" y2="-1.95928" gradientUnits="userSpaceOnUse">
<stop offset="0.01"/>
<stop offset="0.13" stop-opacity="0.69"/>
<stop offset="1" stop-opacity="0.01"/>
</linearGradient>
<linearGradient id="paint9_linear_2_131" x1="75.7044" y1="96.8909" x2="101.459" y2="96.8093" gradientUnits="userSpaceOnUse">
<stop offset="0.01"/>
<stop offset="0.13" stop-opacity="0.69"/>
<stop offset="1" stop-opacity="0.01"/>
</linearGradient>
</defs>
</svg>
