<svg version="1.2" xmlns="http://www.w3.org/2000/svg" viewBox="0 0 370 320" width="370" height="320">
	<title>Edge-svg</title>
	<style>
		.s0 { fill: #ebebeb } 
		.s1 { fill: #7d97f4 } 
		.s2 { fill: #f5f5f5 } 
		.s3 { fill: #e0e0e0 } 
		.s4 { fill: #fc8019 } 
		.s5 { opacity: .9;fill: #ffffff } 
		.s6 { fill: #ffffff } 
		.s7 { opacity: .3;fill: #fc8019 } 
		.s8 { opacity: .6;fill: #ffffff } 
		.s9 { opacity: .1;fill: #fc8019 } 
		.s10 { opacity: .7;fill: #ffffff } 
		.s11 { opacity: .1;fill: #ffffff } 
		.s12 { opacity: .6;fill: #fc8019 } 
	</style>
	<g id="Folder 1">
		<path id="Layer" class="s0" d="m309.6 319.8h51.4v0.2h-51.4z"/>
		<path id="Layer" class="s0" d="m241.7 314.9h8.1v0.3h-8.1z"/>
		<path id="Layer" class="s0" d="m288.9 311.2h17.9v0.2h-17.9z"/>
		<path id="Layer" fill-rule="evenodd" class="s0" d="m364.1 263.3h-179.7c-2.9 0-5.3-2.4-5.3-5.3v-252.7c0-3 2.4-5.3 5.3-5.3h179.7c3 0 5.3 2.3 5.3 5.3v252.7c0 2.9-2.3 5.3-5.3 5.3zm-179.7-263.1c-2.8 0-5 2.3-5 5.1v252.7c0 2.8 2.2 5 5 5h179.7c2.8 0 5.1-2.2 5.1-5v-252.7c0-2.8-2.3-5.1-5.1-5.1z"/>
		<path id="Layer" class="s1" d="m134.5 104.4c0 10.8-8.7 19.5-19.5 19.5h-87.5c-15.2 0-27.5-12.3-27.5-27.5c0-14.6 11.4-26.6 25.7-27.5c3.2-14.2 15.9-25 31.2-25c12.6 0 23.5 7.3 28.7 17.9c3.1-1.2 6.5-1.8 9.9-1.8c14.6 0 26.3 11.7 26.5 26.2c7.3 2.8 12.5 9.9 12.5 18.2z"/>
		<path id="Layer" class="s2" d="m358.7 231.5c0 10.8-8.6 19.4-19.4 19.4h-87.6c-15.2 0-27.6-12.3-27.6-27.4c0-14.7 11.5-26.6 25.8-27.5c3.2-14.4 15.9-25.1 31.2-25.1c12.7 0 23.5 7.4 28.8 18c3-1.2 6.4-1.9 9.8-1.9c14.5 0 26.4 11.7 26.5 26.2c7.3 2.8 12.5 9.9 12.5 18.3z"/>
		<path id="Layer" class="s3" d="m268.9 136.9c0 5.5-4.6 10.1-10.1 10.1h-45.5c-7.9 0-14.2-6.4-14.2-14.2c0-7.7 5.9-13.8 13.3-14.3c1.7-7.4 8.3-13 16.2-13c6.5 0 12.2 3.8 14.9 9.3c1.6-0.7 3.3-1 5.1-1c7.6 0 13.7 6.1 13.8 13.7c3.8 1.4 6.5 5.1 6.5 9.4z"/>
		<path id="Layer" class="s1" d="m335 57.9c0 7.5-6 13.4-13.3 13.4h-60.1c-10.4 0-18.9-8.5-18.9-18.9c0-9.9 7.9-18.1 17.7-18.8c2.2-9.8 10.9-17.1 21.3-17.1c8.7 0 16.2 5 19.8 12.3c2.1-0.9 4.4-1.3 6.8-1.3c9.9 0 18 8 18.1 17.9c5 2 8.6 6.8 8.6 12.5z"/>
		<path id="Layer" class="s2" d="m142.6 217.5c0 7.4-6 13.4-13.3 13.4h-60c-10.5 0-18.9-8.5-18.9-18.9c0-10 7.8-18.2 17.6-18.8c2.2-9.8 10.9-17.1 21.4-17.1c8.7 0 16.2 5 19.7 12.2c2.1-0.8 4.4-1.3 6.8-1.3c9.9 0 18 8.1 18.1 18c5.1 2 8.6 6.8 8.6 12.5z"/>
		<path id="Layer" class="s3" d="m64.1 111.8q-0.2 0-0.3-0.2q0-0.1-0.1-0.2q0 0 0 0q0-0.1 0-0.2q0.1-0.1 0.1-0.2c0.1-0.1 0.3-0.2 0.5-0.1q0.1 0 0.1 0.1q0.2 0.1 0.2 0.4q0 0 0 0q-0.1 0.1-0.2 0.2q-0.1 0.2-0.3 0.2z"/>
		<path id="Layer" class="s3" d="m63.7 131.8c0-0.2 0.2-0.4 0.4-0.4c0.3 0 0.5 0.2 0.5 0.4c0 0.3-0.2 0.5-0.5 0.5c-0.2 0-0.4-0.2-0.4-0.5zm0-5.1c0-0.3 0.2-0.5 0.4-0.5c0.3 0 0.5 0.2 0.5 0.5c0 0.3-0.2 0.5-0.5 0.5c-0.2 0-0.4-0.2-0.4-0.5zm0-5.1c0-0.3 0.2-0.5 0.4-0.5c0.3 0 0.5 0.2 0.5 0.5c0 0.2-0.2 0.5-0.5 0.5c-0.2 0-0.4-0.3-0.4-0.5zm0-5.1c0-0.3 0.2-0.5 0.4-0.5c0.3 0 0.5 0.2 0.5 0.5c0 0.2-0.2 0.4-0.5 0.4c-0.2 0-0.4-0.2-0.4-0.4z"/>
		<path id="Layer" class="s3" d="m64.1 137.4q-0.1 0-0.2 0q0-0.1-0.1-0.1q0-0.1-0.1-0.2q0-0.1 0-0.1q0-0.1 0-0.2q0.1-0.1 0.1-0.1q0.1-0.1 0.1-0.2q0.2 0 0.4 0q0.1 0.1 0.1 0.2q0.1 0 0.2 0.1q0 0.1 0 0.2q0 0.1-0.2 0.3q0 0-0.1 0.1q-0.1 0-0.2 0z"/>
		<path id="Layer" class="s3" d="m149 137c0-0.3 0.2-0.5 0.5-0.5c0.2 0 0.4 0.2 0.4 0.5c0 0.2-0.2 0.4-0.4 0.4c-0.3 0-0.5-0.2-0.5-0.4zm-5.7 0c0-0.3 0.2-0.5 0.5-0.5c0.2 0 0.4 0.2 0.4 0.5c0 0.2-0.2 0.4-0.4 0.4c-0.3 0-0.5-0.2-0.5-0.4zm-5.6 0c0-0.3 0.1-0.5 0.4-0.5c0.2 0 0.5 0.2 0.5 0.5c0 0.2-0.3 0.4-0.5 0.4c-0.3 0-0.4-0.2-0.4-0.4zm-5.8 0c0-0.3 0.3-0.5 0.5-0.5c0.2 0 0.4 0.2 0.4 0.5c0 0.2-0.2 0.4-0.4 0.4c-0.2 0-0.5-0.2-0.5-0.4zm-5.7 0c0-0.3 0.3-0.5 0.5-0.5c0.3 0 0.4 0.2 0.4 0.5c0 0.2-0.1 0.4-0.4 0.4c-0.2 0-0.5-0.2-0.5-0.4zm-5.7 0c0-0.3 0.2-0.5 0.5-0.5c0.3 0 0.5 0.2 0.5 0.5c0 0.2-0.2 0.4-0.5 0.4c-0.3 0-0.5-0.2-0.5-0.4zm-5.6 0c0-0.3 0.1-0.5 0.4-0.5c0.3 0 0.5 0.2 0.5 0.5c0 0.2-0.2 0.4-0.5 0.4c-0.3 0-0.4-0.2-0.4-0.4zm-5.7 0c0-0.3 0.2-0.5 0.4-0.5c0.3 0 0.5 0.2 0.5 0.5c0 0.2-0.2 0.4-0.5 0.4c-0.2 0-0.4-0.2-0.4-0.4zm-5.7 0c0-0.3 0.2-0.5 0.5-0.5c0.2 0 0.4 0.2 0.4 0.5c0 0.2-0.2 0.4-0.4 0.4c-0.3 0-0.5-0.2-0.5-0.4zm-5.7 0c0-0.3 0.2-0.5 0.5-0.5c0.2 0 0.5 0.2 0.5 0.5c0 0.2-0.3 0.4-0.5 0.4c-0.3 0-0.5-0.2-0.5-0.4zm-5.7 0c0-0.3 0.2-0.5 0.4-0.5c0.3 0 0.6 0.2 0.6 0.5c0 0.2-0.3 0.4-0.6 0.4c-0.2 0-0.4-0.2-0.4-0.4zm-5.6 0c0-0.3 0.2-0.5 0.4-0.5c0.2 0 0.4 0.2 0.4 0.5c0 0.2-0.2 0.4-0.4 0.4c-0.2 0-0.4-0.2-0.4-0.4zm-5.8 0c0-0.3 0.3-0.5 0.5-0.5c0.2 0 0.4 0.2 0.4 0.5c0 0.2-0.2 0.4-0.4 0.4c-0.2 0-0.5-0.2-0.5-0.4zm-5.7 0c0-0.3 0.3-0.5 0.5-0.5c0.3 0 0.5 0.2 0.5 0.5c0 0.2-0.2 0.4-0.5 0.4c-0.2 0-0.5-0.2-0.5-0.4zm-5.7 0c0-0.3 0.2-0.5 0.5-0.5c0.3 0 0.5 0.2 0.5 0.5c0 0.2-0.2 0.4-0.5 0.4c-0.3 0-0.5-0.2-0.5-0.4z"/>
		<path id="Layer" class="s3" d="m155.2 137.4q-0.1 0-0.2 0q-0.1-0.1-0.2-0.1q0-0.1-0.1-0.2q0-0.1 0-0.1q0-0.1 0-0.2q0.1-0.1 0.1-0.1q0.1-0.1 0.2-0.2q0.2 0 0.3 0q0.1 0.1 0.1 0.2q0.1 0 0.1 0.1q0.1 0.1 0.1 0.2q0 0.1-0.2 0.3q0 0-0.1 0.1q0 0-0.1 0z"/>
		<path id="Layer" class="s3" d="m154.7 131.5c0-0.3 0.2-0.5 0.5-0.5c0.1 0 0.4 0.2 0.4 0.5c0 0.2-0.3 0.4-0.4 0.4c-0.3 0-0.5-0.2-0.5-0.4zm0-5.6c0-0.3 0.2-0.5 0.5-0.5c0.1 0 0.4 0.2 0.4 0.5c0 0.3-0.3 0.4-0.4 0.4c-0.3 0-0.5-0.1-0.5-0.4zm0-5.6c0-0.2 0.2-0.5 0.5-0.5c0.1 0 0.4 0.3 0.4 0.5c0 0.3-0.3 0.5-0.4 0.5c-0.3 0-0.5-0.2-0.5-0.5zm0-5.5c0-0.3 0.2-0.5 0.5-0.5c0.1 0 0.4 0.2 0.4 0.5c0 0.3-0.3 0.5-0.4 0.5c-0.3 0-0.5-0.2-0.5-0.5zm0-5.6c0-0.2 0.2-0.5 0.5-0.5c0.1 0 0.4 0.3 0.4 0.5c0 0.3-0.3 0.5-0.4 0.5c-0.3 0-0.5-0.2-0.5-0.5zm0-5.5c0-0.3 0.2-0.4 0.5-0.4c0.1 0 0.4 0.1 0.4 0.4c0 0.2-0.3 0.5-0.4 0.5c-0.3 0-0.5-0.3-0.5-0.5zm0-5.6c0-0.2 0.2-0.4 0.5-0.4c0.1 0 0.4 0.2 0.4 0.4c0 0.3-0.3 0.5-0.4 0.5c-0.3 0-0.5-0.2-0.5-0.5zm0-5.5c0-0.2 0.2-0.4 0.5-0.4c0.1 0 0.4 0.2 0.4 0.4c0 0.2-0.3 0.5-0.4 0.5c-0.3 0-0.5-0.3-0.5-0.5zm0-5.5c0-0.3 0.2-0.5 0.5-0.5c0.1 0 0.4 0.2 0.4 0.5c0 0.2-0.3 0.4-0.4 0.4c-0.3 0-0.5-0.2-0.5-0.4z"/>
		<path id="Layer" class="s3" d="m155.2 82q-0.1 0-0.2-0.1q-0.1 0-0.2-0.1q0-0.1-0.1-0.1q0 0 0-0.1q0-0.1 0-0.2q0.1-0.1 0.1-0.2q0.1-0.1 0.2-0.1q0.2-0.1 0.3 0q0.1 0 0.1 0.1q0.2 0.2 0.2 0.4q0 0.1-0.2 0.2q-0.1 0.2-0.2 0.2z"/>
		<path id="Layer" class="s3" d="m282.9 81.6c0-0.3 0.2-0.6 0.4-0.6c0.3 0 0.5 0.3 0.5 0.6c0 0.1-0.2 0.4-0.5 0.4c-0.2 0-0.4-0.3-0.4-0.4zm-5.6 0c0-0.3 0.2-0.6 0.4-0.6c0.3 0 0.5 0.3 0.5 0.6c0 0.1-0.2 0.4-0.5 0.4c-0.2 0-0.4-0.3-0.4-0.4zm-5.6 0c0-0.3 0.2-0.6 0.5-0.6c0.2 0 0.4 0.3 0.4 0.6c0 0.1-0.2 0.4-0.4 0.4c-0.3 0-0.5-0.3-0.5-0.4zm-5.6 0c0-0.3 0.2-0.6 0.5-0.6c0.3 0 0.4 0.3 0.4 0.6c0 0.1-0.1 0.4-0.4 0.4c-0.3 0-0.5-0.3-0.5-0.4zm-5.6 0c0-0.3 0.3-0.6 0.5-0.6c0.3 0 0.5 0.3 0.5 0.6c0 0.1-0.2 0.4-0.5 0.4c-0.2 0-0.5-0.3-0.5-0.4zm-5.6 0c0-0.3 0.3-0.6 0.5-0.6c0.3 0 0.5 0.3 0.5 0.6c0 0.1-0.2 0.4-0.5 0.4c-0.2 0-0.5-0.3-0.5-0.4zm-5.5 0c0-0.3 0.2-0.6 0.5-0.6c0.2 0 0.5 0.3 0.5 0.6c0 0.1-0.3 0.4-0.5 0.4c-0.3 0-0.5-0.3-0.5-0.4zm-5.5 0c0-0.3 0.2-0.6 0.4-0.6c0.2 0 0.5 0.3 0.5 0.6c0 0.1-0.3 0.4-0.5 0.4c-0.2 0-0.4-0.3-0.4-0.4zm-5.6 0c0-0.3 0.2-0.6 0.4-0.6c0.3 0 0.5 0.3 0.5 0.6c0 0.1-0.2 0.4-0.5 0.4c-0.2 0-0.4-0.3-0.4-0.4zm-5.6 0c0-0.3 0.2-0.6 0.5-0.6c0.2 0 0.4 0.3 0.4 0.6c0 0.1-0.2 0.4-0.4 0.4c-0.3 0-0.5-0.3-0.5-0.4zm-5.6 0c0-0.3 0.2-0.6 0.5-0.6c0.3 0 0.4 0.3 0.4 0.6c0 0.1-0.1 0.4-0.4 0.4c-0.3 0-0.5-0.3-0.5-0.4zm-5.6 0c0-0.3 0.2-0.6 0.5-0.6c0.3 0 0.5 0.3 0.5 0.6c0 0.1-0.2 0.4-0.5 0.4c-0.3 0-0.5-0.3-0.5-0.4zm-5.6 0c0-0.3 0.3-0.6 0.5-0.6c0.3 0 0.5 0.3 0.5 0.6c0 0.1-0.2 0.4-0.5 0.4c-0.2 0-0.5-0.3-0.5-0.4zm-5.5 0c0-0.3 0.2-0.6 0.4-0.6c0.3 0 0.5 0.3 0.5 0.6c0 0.1-0.2 0.4-0.5 0.4c-0.2 0-0.4-0.3-0.4-0.4zm-5.5 0c0-0.3 0.2-0.6 0.4-0.6c0.2 0 0.5 0.3 0.5 0.6c0 0.1-0.3 0.4-0.5 0.4c-0.2 0-0.4-0.3-0.4-0.4zm-5.6 0c0-0.3 0.2-0.6 0.4-0.6c0.3 0 0.5 0.3 0.5 0.6c0 0.1-0.2 0.4-0.5 0.4c-0.2 0-0.4-0.3-0.4-0.4zm-5.6 0c0-0.3 0.2-0.6 0.5-0.6c0.2 0 0.4 0.3 0.4 0.6c0 0.1-0.2 0.4-0.4 0.4c-0.3 0-0.5-0.3-0.5-0.4zm-5.6 0c0-0.3 0.2-0.6 0.5-0.6c0.3 0 0.4 0.3 0.4 0.6c0 0.1-0.1 0.4-0.4 0.4c-0.3 0-0.5-0.3-0.5-0.4zm-5.6 0c0-0.3 0.2-0.6 0.5-0.6c0.3 0 0.5 0.3 0.5 0.6c0 0.1-0.2 0.4-0.5 0.4c-0.3 0-0.5-0.3-0.5-0.4zm-5.6 0c0-0.3 0.3-0.6 0.5-0.6c0.3 0 0.5 0.3 0.5 0.6c0 0.1-0.2 0.4-0.5 0.4c-0.2 0-0.5-0.3-0.5-0.4zm-5.5 0c0-0.3 0.2-0.6 0.4-0.6c0.3 0 0.5 0.3 0.5 0.6c0 0.1-0.2 0.4-0.5 0.4c-0.2 0-0.4-0.3-0.4-0.4zm-5.6 0c0-0.3 0.3-0.6 0.4-0.6c0.3 0 0.5 0.3 0.5 0.6c0 0.1-0.2 0.4-0.5 0.4c-0.1 0-0.4-0.3-0.4-0.4zm-5.5 0c0-0.3 0.2-0.6 0.4-0.6c0.2 0 0.5 0.3 0.5 0.6c0 0.1-0.3 0.4-0.5 0.4c-0.2 0-0.4-0.3-0.4-0.4z"/>
		<path id="Layer" class="s3" d="m288.9 82q-0.2 0-0.4-0.2q-0.1-0.1-0.1-0.2q0-0.2 0.1-0.4q0.1-0.1 0.2-0.1c0.2-0.1 0.4 0 0.5 0.1q0.1 0.1 0.1 0.2q0.1 0.1 0.1 0.2q0 0.1-0.2 0.2q-0.1 0.2-0.3 0.2z"/>
		<path id="Layer" class="s3" d="m288.4 76.2c0-0.3 0.2-0.5 0.5-0.5c0.2 0 0.5 0.2 0.5 0.5c0 0.2-0.3 0.4-0.5 0.4c-0.3 0-0.5-0.2-0.5-0.4zm0-5.4c0-0.3 0.2-0.5 0.5-0.5c0.2 0 0.5 0.2 0.5 0.5c0 0.2-0.3 0.4-0.5 0.4c-0.3 0-0.5-0.2-0.5-0.4zm0-5.4c0-0.2 0.2-0.5 0.5-0.5c0.2 0 0.5 0.3 0.5 0.5c0 0.2-0.3 0.4-0.5 0.4c-0.3 0-0.5-0.2-0.5-0.4zm0-5.3c0-0.3 0.2-0.5 0.5-0.5c0.2 0 0.5 0.2 0.5 0.5c0 0.1-0.3 0.4-0.5 0.4c-0.3 0-0.5-0.3-0.5-0.4zm0-5.4c0-0.3 0.2-0.5 0.5-0.5c0.2 0 0.5 0.2 0.5 0.5c0 0.2-0.3 0.4-0.5 0.4c-0.3 0-0.5-0.2-0.5-0.4zm0-5.4c0-0.2 0.2-0.5 0.5-0.5c0.2 0 0.5 0.3 0.5 0.5c0 0.2-0.3 0.4-0.5 0.4c-0.3 0-0.5-0.2-0.5-0.4z"/>
		<path id="Layer" class="s3" d="m288.9 44.4q-0.2 0-0.4-0.2q-0.1-0.1-0.1-0.3q0 0 0-0.1q0.1-0.1 0.1-0.2c0.2-0.2 0.5-0.2 0.7 0q0.2 0.2 0.2 0.3q0 0.1-0.1 0.1q0 0.1-0.1 0.2q0 0.1-0.1 0.1q-0.1 0.1-0.2 0.1z"/>
		<path id="Layer" class="s3" d="m96.5 219.5q-0.2 0-0.4-0.1q0 0 0-0.1q0-0.1 0-0.2q0-0.2 0-0.3c0.2-0.2 0.4-0.2 0.6-0.1q0.1 0 0.1 0.1q0.2 0.1 0.2 0.3q0 0.1 0 0.2q-0.1 0.1-0.2 0.1q0 0.1-0.1 0.1q-0.1 0-0.2 0z"/>
		<path id="Layer" class="s3" d="m96.1 242c0-0.3 0.1-0.5 0.4-0.5c0.3 0 0.5 0.2 0.5 0.5c0 0.2-0.2 0.4-0.5 0.4c-0.3 0-0.4-0.2-0.4-0.4zm0-5.8c0-0.2 0.1-0.5 0.4-0.5c0.3 0 0.5 0.3 0.5 0.5c0 0.3-0.2 0.5-0.5 0.5c-0.3 0-0.4-0.2-0.4-0.5zm0-5.7c0-0.3 0.1-0.4 0.4-0.4c0.3 0 0.5 0.1 0.5 0.4c0 0.3-0.2 0.5-0.5 0.5c-0.3 0-0.4-0.2-0.4-0.5zm0-5.7c0-0.2 0.1-0.4 0.4-0.4c0.3 0 0.5 0.2 0.5 0.4c0 0.2-0.2 0.5-0.5 0.5c-0.3 0-0.4-0.3-0.4-0.5z"/>
		<path id="Layer" class="s3" d="m96.5 248.1q-0.2 0-0.4-0.2q0 0 0-0.1q0 0 0-0.1q0-0.1 0-0.2q0-0.1 0-0.2c0.2-0.1 0.4-0.1 0.6-0.1q0.1 0.1 0.1 0.1q0.1 0.1 0.2 0.2q0 0.1 0 0.2q0 0.1 0 0.1q-0.1 0.1-0.2 0.1q0 0.1-0.1 0.2q-0.1 0-0.2 0z"/>
		<path id="Layer" class="s3" d="m149.3 247.7c0-0.3 0.3-0.5 0.5-0.5c0.2 0 0.4 0.2 0.4 0.5c0 0.2-0.2 0.4-0.4 0.4c-0.2 0-0.5-0.2-0.5-0.4zm-5.3 0c0-0.3 0.2-0.5 0.5-0.5c0.2 0 0.4 0.2 0.4 0.5c0 0.2-0.2 0.4-0.4 0.4c-0.3 0-0.5-0.2-0.5-0.4zm-5.3 0c0-0.3 0.2-0.5 0.5-0.5c0.2 0 0.4 0.2 0.4 0.5c0 0.2-0.2 0.4-0.4 0.4c-0.3 0-0.5-0.2-0.5-0.4zm-5.3 0c0-0.3 0.2-0.5 0.4-0.5c0.2 0 0.5 0.2 0.5 0.5c0 0.2-0.3 0.4-0.5 0.4c-0.2 0-0.4-0.2-0.4-0.4zm-5.4 0c0-0.3 0.3-0.5 0.4-0.5c0.3 0 0.5 0.2 0.5 0.5c0 0.2-0.2 0.4-0.5 0.4c-0.1 0-0.4-0.2-0.4-0.4zm-5.3 0c0-0.3 0.2-0.5 0.4-0.5c0.3 0 0.5 0.2 0.5 0.5c0 0.2-0.2 0.4-0.5 0.4c-0.2 0-0.4-0.2-0.4-0.4zm-5.3 0c0-0.3 0.2-0.5 0.4-0.5c0.3 0 0.5 0.2 0.5 0.5c0 0.2-0.2 0.4-0.5 0.4c-0.2 0-0.4-0.2-0.4-0.4zm-5.3 0c0-0.3 0.2-0.5 0.4-0.5c0.2 0 0.5 0.2 0.5 0.5c0 0.2-0.3 0.4-0.5 0.4c-0.2 0-0.4-0.2-0.4-0.4zm-5.4 0c0-0.3 0.2-0.5 0.4-0.5c0.3 0 0.5 0.2 0.5 0.5c0 0.2-0.2 0.4-0.5 0.4c-0.2 0-0.4-0.2-0.4-0.4zm-5.3 0c0-0.3 0.1-0.5 0.4-0.5c0.3 0 0.5 0.2 0.5 0.5c0 0.2-0.2 0.4-0.5 0.4c-0.3 0-0.4-0.2-0.4-0.4z"/>
		<path id="Layer" class="s3" d="m155.2 248.1q-0.1 0-0.2 0q-0.1-0.1-0.2-0.2q0 0-0.1-0.1q0 0 0-0.1q0-0.2 0.1-0.4q0.1 0 0.2-0.1q0.2 0 0.3 0q0.1 0.1 0.1 0.1q0.2 0.2 0.2 0.4q0 0.1-0.1 0.1q0 0.1-0.1 0.1q0 0.1-0.1 0.2q0 0-0.1 0z"/>
		<path id="Layer" class="s3" d="m154.7 242.3c0-0.3 0.2-0.5 0.5-0.5c0.1 0 0.4 0.2 0.4 0.5c0 0.1-0.3 0.4-0.4 0.4c-0.3 0-0.5-0.3-0.5-0.4zm0-5.4c0-0.3 0.2-0.6 0.5-0.6c0.1 0 0.4 0.3 0.4 0.6c0 0.1-0.3 0.4-0.4 0.4c-0.3 0-0.5-0.3-0.5-0.4zm0-5.5c0-0.2 0.2-0.5 0.5-0.5c0.1 0 0.4 0.3 0.4 0.5c0 0.2-0.3 0.4-0.4 0.4c-0.3 0-0.5-0.2-0.5-0.4zm0-5.4c0-0.3 0.2-0.5 0.5-0.5c0.1 0 0.4 0.2 0.4 0.5c0 0.2-0.3 0.4-0.4 0.4c-0.3 0-0.5-0.2-0.5-0.4zm0-5.4c0-0.3 0.2-0.5 0.5-0.5c0.1 0 0.4 0.2 0.4 0.5c0 0.2-0.3 0.4-0.4 0.4c-0.3 0-0.5-0.2-0.5-0.4zm0-5.4c0-0.3 0.2-0.5 0.5-0.5c0.1 0 0.4 0.2 0.4 0.5c0 0.2-0.3 0.4-0.4 0.4c-0.3 0-0.5-0.2-0.5-0.4zm0-5.5c0-0.2 0.2-0.5 0.5-0.5c0.1 0 0.4 0.3 0.4 0.5c0 0.2-0.3 0.4-0.4 0.4c-0.3 0-0.5-0.2-0.5-0.4zm0-5.4c0-0.3 0.2-0.5 0.5-0.5c0.1 0 0.4 0.2 0.4 0.5c0 0.3-0.3 0.4-0.4 0.4c-0.3 0-0.5-0.1-0.5-0.4zm0-5.4c0-0.3 0.2-0.5 0.5-0.5c0.1 0 0.4 0.2 0.4 0.5c0 0.2-0.3 0.4-0.4 0.4c-0.3 0-0.5-0.2-0.5-0.4zm0-5.4c0-0.3 0.2-0.5 0.5-0.5c0.1 0 0.4 0.2 0.4 0.5c0 0.2-0.3 0.4-0.4 0.4c-0.3 0-0.5-0.2-0.5-0.4zm0-5.4c0-0.3 0.2-0.5 0.5-0.5c0.1 0 0.4 0.2 0.4 0.5c0 0.2-0.3 0.4-0.4 0.4c-0.3 0-0.5-0.2-0.5-0.4zm0-5.5c0-0.2 0.2-0.5 0.5-0.5c0.1 0 0.4 0.3 0.4 0.5c0 0.3-0.3 0.4-0.4 0.4c-0.3 0-0.5-0.1-0.5-0.4zm0-5.4c0-0.3 0.2-0.5 0.5-0.5c0.1 0 0.4 0.2 0.4 0.5c0 0.3-0.3 0.4-0.4 0.4c-0.3 0-0.5-0.1-0.5-0.4zm0-5.4c0-0.3 0.2-0.5 0.5-0.5c0.1 0 0.4 0.2 0.4 0.5c0 0.3-0.3 0.4-0.4 0.4c-0.3 0-0.5-0.1-0.5-0.4z"/>
		<path id="Layer" class="s3" d="m155.2 166.8q-0.1 0-0.2-0.1q-0.1 0-0.2 0q0-0.1-0.1-0.1q0-0.1 0-0.2q0-0.2 0.1-0.4q0.1-0.1 0.2-0.1q0.2-0.1 0.3 0q0.1 0 0.1 0.1q0.2 0.2 0.2 0.4q0 0.1-0.1 0.2q0 0-0.1 0.1q0 0-0.1 0q0 0.1-0.1 0.1z"/>
		<path id="Layer" class="s3" d="m227.9 166.4c0-0.3 0.1-0.5 0.4-0.5c0.3 0 0.5 0.2 0.5 0.5c0 0.2-0.2 0.4-0.5 0.4c-0.3 0-0.4-0.2-0.4-0.4zm-5.6 0c0-0.3 0.2-0.5 0.4-0.5c0.2 0 0.5 0.2 0.5 0.5c0 0.2-0.3 0.4-0.5 0.4c-0.2 0-0.4-0.2-0.4-0.4zm-5.7 0c0-0.3 0.2-0.5 0.5-0.5c0.2 0 0.4 0.2 0.4 0.5c0 0.2-0.2 0.4-0.4 0.4c-0.3 0-0.5-0.2-0.5-0.4zm-5.6 0c0-0.3 0.2-0.5 0.5-0.5c0.2 0 0.4 0.2 0.4 0.5c0 0.2-0.2 0.4-0.4 0.4c-0.3 0-0.5-0.2-0.5-0.4zm-5.7 0c0-0.3 0.2-0.5 0.5-0.5c0.3 0 0.5 0.2 0.5 0.5c0 0.2-0.2 0.4-0.5 0.4c-0.3 0-0.5-0.2-0.5-0.4zm-5.6 0c0-0.3 0.2-0.5 0.5-0.5c0.2 0 0.5 0.2 0.5 0.5c0 0.2-0.3 0.4-0.5 0.4c-0.3 0-0.5-0.2-0.5-0.4zm-5.6 0c0-0.3 0.2-0.5 0.4-0.5c0.3 0 0.5 0.2 0.5 0.5c0 0.2-0.2 0.4-0.5 0.4c-0.2 0-0.4-0.2-0.4-0.4zm-5.6 0c0-0.3 0.2-0.5 0.4-0.5c0.2 0 0.5 0.2 0.5 0.5c0 0.2-0.3 0.4-0.5 0.4c-0.2 0-0.4-0.2-0.4-0.4zm-5.7 0c0-0.3 0.2-0.5 0.5-0.5c0.3 0 0.4 0.2 0.4 0.5c0 0.2-0.1 0.4-0.4 0.4c-0.3 0-0.5-0.2-0.5-0.4zm-5.6 0c0-0.3 0.2-0.5 0.5-0.5c0.2 0 0.5 0.2 0.5 0.5c0 0.2-0.3 0.4-0.5 0.4c-0.3 0-0.5-0.2-0.5-0.4zm-5.7 0c0-0.3 0.2-0.5 0.5-0.5c0.3 0 0.5 0.2 0.5 0.5c0 0.2-0.2 0.4-0.5 0.4c-0.3 0-0.5-0.2-0.5-0.4zm-5.5 0c0-0.3 0.1-0.5 0.4-0.5c0.2 0 0.5 0.2 0.5 0.5c0 0.2-0.3 0.4-0.5 0.4c-0.3 0-0.4-0.2-0.4-0.4zm-5.7 0c0-0.3 0.2-0.5 0.4-0.5c0.3 0 0.5 0.2 0.5 0.5c0 0.2-0.2 0.4-0.5 0.4c-0.2 0-0.4-0.2-0.4-0.4z"/>
		<path id="Layer" class="s3" d="m234 166.8q-0.2 0-0.4-0.1q-0.1-0.1-0.1-0.1q0-0.1 0-0.2q0-0.1 0-0.2q0-0.1 0.1-0.2q0.1-0.1 0.2-0.1q0.2-0.1 0.3 0q0.1 0 0.2 0.1q0.1 0.1 0.1 0.2q0.1 0.1 0.1 0.2q0 0.2-0.2 0.3q-0.1 0.1-0.3 0.1z"/>
		<path id="Layer" class="s3" d="m233.5 160.5c0-0.3 0.2-0.5 0.5-0.5c0.2 0 0.5 0.2 0.5 0.5c0 0.2-0.3 0.5-0.5 0.5c-0.3 0-0.5-0.3-0.5-0.5zm0-5.9c0-0.2 0.2-0.5 0.5-0.5c0.2 0 0.5 0.3 0.5 0.5c0 0.2-0.3 0.4-0.5 0.4c-0.3 0-0.5-0.2-0.5-0.4zm0-5.9c0-0.2 0.2-0.5 0.5-0.5c0.2 0 0.5 0.3 0.5 0.5c0 0.3-0.3 0.5-0.5 0.5c-0.3 0-0.5-0.2-0.5-0.5zm0-5.9c0-0.3 0.2-0.4 0.5-0.4c0.2 0 0.5 0.1 0.5 0.4c0 0.3-0.3 0.5-0.5 0.5c-0.3 0-0.5-0.2-0.5-0.5z"/>
		<path id="Layer" class="s3" d="m234 137.4q-0.2 0-0.4-0.1q-0.1-0.1-0.1-0.2q0-0.1 0-0.1q0-0.1 0-0.2q0-0.1 0.1-0.1q0.1-0.1 0.2-0.2q0.2 0 0.3 0q0.1 0.1 0.2 0.2q0.1 0 0.1 0.1q0.1 0.1 0.1 0.2q0 0.1-0.2 0.3q-0.1 0.1-0.3 0.1z"/>
		<path id="Layer" class="s3" d="m288.9 240.4q-0.2 0-0.4-0.2q-0.1-0.1-0.1-0.3q0-0.2 0.1-0.3c0.2-0.1 0.4-0.2 0.6-0.1q0.1 0 0.1 0.1q0.1 0.1 0.1 0.1q0.1 0.1 0.1 0.2q0 0.2-0.2 0.3q-0.1 0.2-0.3 0.2z"/>
		<path id="Layer" class="s3" d="m288.4 272.1c0-0.2 0.2-0.5 0.5-0.5c0.2 0 0.5 0.3 0.5 0.5c0 0.2-0.3 0.4-0.5 0.4c-0.3 0-0.5-0.2-0.5-0.4zm0-5.4c0-0.2 0.2-0.4 0.5-0.4c0.2 0 0.5 0.2 0.5 0.4c0 0.2-0.3 0.5-0.5 0.5c-0.3 0-0.5-0.3-0.5-0.5zm0-5.4c0-0.2 0.2-0.4 0.5-0.4c0.2 0 0.5 0.2 0.5 0.4c0 0.3-0.3 0.5-0.5 0.5c-0.3 0-0.5-0.2-0.5-0.5zm0-5.4c0-0.1 0.2-0.4 0.5-0.4c0.2 0 0.5 0.3 0.5 0.4c0 0.3-0.3 0.5-0.5 0.5c-0.3 0-0.5-0.2-0.5-0.5zm0-5.3c0-0.2 0.2-0.4 0.5-0.4c0.2 0 0.5 0.2 0.5 0.4c0 0.3-0.3 0.5-0.5 0.5c-0.3 0-0.5-0.2-0.5-0.5zm0-5.4c0-0.2 0.2-0.4 0.5-0.4c0.2 0 0.5 0.2 0.5 0.4c0 0.3-0.3 0.5-0.5 0.5c-0.3 0-0.5-0.2-0.5-0.5z"/>
		<path id="Layer" class="s3" d="m288.9 277.9q-0.2 0-0.4-0.2q-0.1-0.1-0.1-0.2q0-0.1 0-0.2q0.1-0.1 0.1-0.2c0.2-0.1 0.5-0.1 0.7 0q0.2 0.2 0.2 0.4q0 0-0.1 0.1q0 0.1-0.1 0.1q0 0.1-0.1 0.2q-0.1 0-0.2 0z"/>
		<path id="Layer" class="s3" d="m282.9 277.5c0-0.3 0.2-0.5 0.4-0.5c0.3 0 0.5 0.2 0.5 0.5c0 0.2-0.2 0.4-0.5 0.4c-0.2 0-0.4-0.2-0.4-0.4zm-5.6 0c0-0.3 0.2-0.5 0.4-0.5c0.3 0 0.5 0.2 0.5 0.5c0 0.2-0.2 0.4-0.5 0.4c-0.2 0-0.4-0.2-0.4-0.4zm-5.6 0c0-0.3 0.2-0.5 0.5-0.5c0.2 0 0.4 0.2 0.4 0.5c0 0.2-0.2 0.4-0.4 0.4c-0.3 0-0.5-0.2-0.5-0.4zm-5.6 0c0-0.3 0.2-0.5 0.5-0.5c0.3 0 0.4 0.2 0.4 0.5c0 0.2-0.1 0.4-0.4 0.4c-0.3 0-0.5-0.2-0.5-0.4zm-5.6 0c0-0.3 0.3-0.5 0.5-0.5c0.3 0 0.5 0.2 0.5 0.5c0 0.2-0.2 0.4-0.5 0.4c-0.2 0-0.5-0.2-0.5-0.4zm-5.6 0c0-0.3 0.3-0.5 0.5-0.5c0.3 0 0.5 0.2 0.5 0.5c0 0.2-0.2 0.4-0.5 0.4c-0.2 0-0.5-0.2-0.5-0.4zm-5.5 0c0-0.3 0.2-0.5 0.5-0.5c0.2 0 0.5 0.2 0.5 0.5c0 0.2-0.3 0.4-0.5 0.4c-0.3 0-0.5-0.2-0.5-0.4zm-5.5 0c0-0.3 0.2-0.5 0.4-0.5c0.2 0 0.5 0.2 0.5 0.5c0 0.2-0.3 0.4-0.5 0.4c-0.2 0-0.4-0.2-0.4-0.4zm-5.6 0c0-0.3 0.2-0.5 0.4-0.5c0.3 0 0.5 0.2 0.5 0.5c0 0.2-0.2 0.4-0.5 0.4c-0.2 0-0.4-0.2-0.4-0.4zm-5.6 0c0-0.3 0.2-0.5 0.5-0.5c0.2 0 0.4 0.2 0.4 0.5c0 0.2-0.2 0.4-0.4 0.4c-0.3 0-0.5-0.2-0.5-0.4zm-5.6 0c0-0.3 0.2-0.5 0.5-0.5c0.3 0 0.4 0.2 0.4 0.5c0 0.2-0.1 0.4-0.4 0.4c-0.3 0-0.5-0.2-0.5-0.4zm-5.6 0c0-0.3 0.2-0.5 0.5-0.5c0.3 0 0.5 0.2 0.5 0.5c0 0.2-0.2 0.4-0.5 0.4c-0.3 0-0.5-0.2-0.5-0.4zm-5.6 0c0-0.3 0.3-0.5 0.5-0.5c0.3 0 0.5 0.2 0.5 0.5c0 0.2-0.2 0.4-0.5 0.4c-0.2 0-0.5-0.2-0.5-0.4zm-5.5 0c0-0.3 0.2-0.5 0.4-0.5c0.3 0 0.5 0.2 0.5 0.5c0 0.2-0.2 0.4-0.5 0.4c-0.2 0-0.4-0.2-0.4-0.4zm-5.5 0c0-0.3 0.2-0.5 0.4-0.5c0.2 0 0.5 0.2 0.5 0.5c0 0.2-0.3 0.4-0.5 0.4c-0.2 0-0.4-0.2-0.4-0.4zm-5.6 0c0-0.3 0.2-0.5 0.4-0.5c0.3 0 0.5 0.2 0.5 0.5c0 0.2-0.2 0.4-0.5 0.4c-0.2 0-0.4-0.2-0.4-0.4zm-5.6 0c0-0.3 0.2-0.5 0.5-0.5c0.2 0 0.4 0.2 0.4 0.5c0 0.2-0.2 0.4-0.4 0.4c-0.3 0-0.5-0.2-0.5-0.4zm-5.6 0c0-0.3 0.2-0.5 0.5-0.5c0.3 0 0.4 0.2 0.4 0.5c0 0.2-0.1 0.4-0.4 0.4c-0.3 0-0.5-0.2-0.5-0.4zm-5.6 0c0-0.3 0.2-0.5 0.5-0.5c0.3 0 0.5 0.2 0.5 0.5c0 0.2-0.2 0.4-0.5 0.4c-0.3 0-0.5-0.2-0.5-0.4zm-5.6 0c0-0.3 0.3-0.5 0.5-0.5c0.3 0 0.5 0.2 0.5 0.5c0 0.2-0.2 0.4-0.5 0.4c-0.2 0-0.5-0.2-0.5-0.4zm-5.5 0c0-0.3 0.2-0.5 0.4-0.5c0.3 0 0.5 0.2 0.5 0.5c0 0.2-0.2 0.4-0.5 0.4c-0.2 0-0.4-0.2-0.4-0.4zm-5.6 0c0-0.3 0.3-0.5 0.4-0.5c0.3 0 0.5 0.2 0.5 0.5c0 0.2-0.2 0.4-0.5 0.4c-0.1 0-0.4-0.2-0.4-0.4zm-5.5 0c0-0.3 0.2-0.5 0.4-0.5c0.2 0 0.5 0.2 0.5 0.5c0 0.2-0.3 0.4-0.5 0.4c-0.2 0-0.4-0.2-0.4-0.4z"/>
		<path id="Layer" class="s3" d="m155.2 277.9q-0.1 0-0.2 0q-0.1-0.1-0.2-0.2q0 0-0.1-0.1q0-0.1 0-0.1q0-0.1 0-0.2q0.1-0.1 0.1-0.2q0.1 0 0.2-0.1q0.2 0 0.3 0q0.1 0.1 0.1 0.1q0.1 0.1 0.1 0.2q0.1 0.1 0.1 0.2q0 0-0.1 0.1q0 0.1-0.1 0.1q0 0.1-0.1 0.2q0 0-0.1 0z"/>
		<path id="Layer" class="s3" d="m154.7 271.5c0-0.3 0.2-0.5 0.5-0.5c0.1 0 0.4 0.2 0.4 0.5c0 0.3-0.3 0.5-0.4 0.5c-0.3 0-0.5-0.2-0.5-0.5zm0-6c0-0.2 0.2-0.4 0.5-0.4c0.1 0 0.4 0.2 0.4 0.4c0 0.3-0.3 0.5-0.4 0.5c-0.3 0-0.5-0.2-0.5-0.5zm0-5.9c0-0.3 0.2-0.5 0.5-0.5c0.1 0 0.4 0.2 0.4 0.5c0 0.3-0.3 0.4-0.4 0.4c-0.3 0-0.5-0.1-0.5-0.4zm0-6c0-0.3 0.2-0.4 0.5-0.4c0.1 0 0.4 0.1 0.4 0.4c0 0.3-0.3 0.5-0.4 0.5c-0.3 0-0.5-0.2-0.5-0.5z"/>
		<path id="Layer" class="s3" d="m155.2 248.1q-0.1 0-0.2 0q-0.1-0.1-0.2-0.2q0 0-0.1-0.1q0 0 0-0.1q0-0.2 0.1-0.4q0.1 0 0.2-0.1q0.2 0 0.3 0q0.1 0.1 0.1 0.1q0.2 0.2 0.2 0.4q0 0.1-0.1 0.1q0 0.1-0.1 0.1q0 0.1-0.1 0.2q0 0-0.1 0z"/>
		<path id="Layer" class="s3" d="m155.2 137.4q-0.1 0-0.2 0q-0.1-0.1-0.2-0.1q0-0.1-0.1-0.2q0-0.1 0-0.1q0-0.1 0-0.2q0.1-0.1 0.1-0.1q0.1-0.1 0.2-0.2q0.2 0 0.3 0q0.1 0.1 0.1 0.2q0.1 0 0.1 0.1q0.1 0.1 0.1 0.2q0 0.1-0.2 0.3q0 0-0.1 0.1q0 0-0.1 0z"/>
		<path id="Layer" class="s3" d="m154.7 160.5c0-0.3 0.2-0.5 0.5-0.5c0.1 0 0.4 0.2 0.4 0.5c0 0.2-0.3 0.5-0.4 0.5c-0.3 0-0.5-0.3-0.5-0.5zm0-5.9c0-0.2 0.2-0.5 0.5-0.5c0.1 0 0.4 0.3 0.4 0.5c0 0.2-0.3 0.4-0.4 0.4c-0.3 0-0.5-0.2-0.5-0.4zm0-5.9c0-0.2 0.2-0.5 0.5-0.5c0.1 0 0.4 0.3 0.4 0.5c0 0.3-0.3 0.5-0.4 0.5c-0.3 0-0.5-0.2-0.5-0.5zm0-5.9c0-0.3 0.2-0.4 0.5-0.4c0.1 0 0.4 0.1 0.4 0.4c0 0.3-0.3 0.5-0.4 0.5c-0.3 0-0.5-0.2-0.5-0.5z"/>
		<path id="Layer" class="s3" d="m155.2 166.8q-0.1 0-0.2-0.1q-0.1 0-0.2 0q0-0.1-0.1-0.1q0-0.1 0-0.2q0-0.2 0.1-0.4q0.1-0.1 0.2-0.1q0.2-0.1 0.3 0q0.1 0 0.1 0.1q0.2 0.2 0.2 0.4q0 0.1-0.1 0.2q0 0-0.1 0.1q0 0-0.1 0q0 0.1-0.1 0.1z"/>
		<path id="Layer" class="s4" d="m45.3 201.1c-2.6-63.7 84-93 149.4-98.8c89.6-7.9 124.9 43.5 119.4 87.6c-3.8 30.8-23.2 77.4-102.9 87.6c-109.2 14.1-163.1-6.4-165.9-76.4z"/>
		<path id="Layer" class="s5" d="m45.3 201.1c-2.6-63.7 84-93 149.4-98.8c89.6-7.9 124.9 43.5 119.4 87.6c-3.8 30.8-23.2 77.4-102.9 87.6c-109.2 14.1-163.1-6.4-165.9-76.4z"/>
		<path id="Layer" class="s4" d="m57 277.9l1.8-31.9c0.1-1.9 1.7-3.4 3.6-3.4h51.7c1.9 0 3.3 1.5 3.2 3.4l-1.9 31.9c-0.1 1.9-1.7 3.4-3.5 3.4h-51.8c-1.8 0-3.2-1.5-3.1-3.4z"/>
		<path id="Layer" class="s6" d="m54.4 277.9l1.8-31.9c0.1-1.9 1.7-3.4 3.6-3.4h53.8c1.8 0 3.2 1.5 3.1 3.4l-1.8 31.9c-0.1 1.9-1.7 3.4-3.6 3.4h-53.8c-1.8 0-3.2-1.5-3.1-3.4z"/>
		<path id="Layer" class="s7" d="m54.4 277.9l1.8-31.9c0.1-1.9 1.7-3.4 3.6-3.4h53.8c1.8 0 3.2 1.5 3.1 3.4l-1.8 31.9c-0.1 1.9-1.7 3.4-3.6 3.4h-53.8c-1.8 0-3.2-1.5-3.1-3.4z"/>
		<rect id="Layer" class="s4" x="76.4" y="284.3" width="26.2" height="7.2" rx="3.4"></rect>
		<g id="Layer" style="opacity: .6">
			<rect id="Layer" class="s8" x="76.4" y="284.3" width="26.2" height="7.2" rx="3.4"></rect>
		</g>
		<rect id="Layer" class="s6" x="68.4" y="284.3" width="28.3" height="7.2" rx="3.4"></rect>
		<rect id="Layer" class="s7" x="68.4" y="284.3" width="28.3" height="7.2" rx="3.4"></rect>
		<path id="Layer" class="s5" d="m112.1 279.6h-55.1c-0.9 0-1.5-0.7-1.4-1.4l1.8-32.4c0-0.8 0.8-1.5 1.6-1.5h55.1c0.9 0 1.4 0.7 1.4 1.5l-1.9 32.4c0 0.7-0.7 1.4-1.5 1.4z"/>
		<path id="Layer" class="s9" d="m72.9 279.6h-11l10-35.3h10.9z"/>
		<path id="Layer" class="s9" d="m81.8 279.6h-7.6l10-35.3h7.7z"/>
		<path id="Layer" class="s9" d="m98.5 279.6h-7.7l10.1-35.3h7.6z"/>
		<path id="Layer" class="s4" d="m146 277.9l1.9-31.9c0.1-1.9 1.7-3.4 3.5-3.4h51.8c1.9 0 3.2 1.5 3.2 3.4l-1.9 31.9c-0.1 1.9-1.7 3.4-3.5 3.4h-51.8c-1.9 0-3.3-1.5-3.2-3.4z"/>
		<path id="Layer" class="s6" d="m143.4 277.9l1.9-31.9c0.1-1.9 1.7-3.4 3.5-3.4h53.8c1.9 0 3.3 1.5 3.2 3.4l-1.8 31.9c-0.2 1.9-1.7 3.4-3.6 3.4h-53.8c-1.9 0-3.3-1.5-3.2-3.4z"/>
		<path id="Layer" class="s7" d="m143.4 277.9l1.9-31.9c0.1-1.9 1.7-3.4 3.5-3.4h53.8c1.9 0 3.3 1.5 3.2 3.4l-1.8 31.9c-0.2 1.9-1.7 3.4-3.6 3.4h-53.8c-1.9 0-3.3-1.5-3.2-3.4z"/>
		<rect id="Layer" class="s4" x="165.5" y="284.3" width="26.2" height="7.2" rx="3.4"></rect>
		<g id="Layer" style="opacity: .6">
			<rect id="Layer" class="s8" x="165.5" y="284.3" width="26.2" height="7.2" rx="3.4"></rect>
		</g>
		<rect id="Layer" class="s6" x="157.5" y="284.3" width="28.3" height="7.2" rx="3.4"></rect>
		<rect id="Layer" class="s7" x="157.5" y="284.3" width="28.3" height="7.2" rx="3.4"></rect>
		<path id="Layer" class="s5" d="m201.1 279.6h-55.1c-0.8 0-1.4-0.7-1.4-1.4l1.9-32.4c0.1-0.8 0.8-1.5 1.6-1.5h55.1c0.8 0 1.5 0.7 1.4 1.5l-1.9 32.4c0 0.7-0.7 1.4-1.6 1.4z"/>
		<path id="Layer" class="s9" d="m162 279.6h-11l10-35.3h11z"/>
		<path id="Layer" class="s9" d="m170.9 279.6h-7.6l10-35.3h7.6z"/>
		<path id="Layer" class="s9" d="m187.6 279.6h-7.7l10.1-35.3h7.6z"/>
		<path id="Layer" class="s4" d="m235.1 277.9l1.9-31.9c0.1-1.9 1.7-3.4 3.5-3.4h51.8c1.8 0 3.2 1.5 3.1 3.4l-1.8 31.9c-0.1 1.9-1.7 3.4-3.6 3.4h-51.6c-2 0-3.4-1.5-3.3-3.4z"/>
		<path id="Layer" class="s6" d="m232.5 277.9l1.9-31.9c0.1-1.9 1.6-3.4 3.5-3.4h53.8c1.9 0 3.3 1.5 3.2 3.4l-1.8 31.9c-0.1 1.9-1.8 3.4-3.6 3.4h-53.8c-1.9 0-3.3-1.5-3.2-3.4z"/>
		<path id="Layer" class="s7" d="m232.5 277.9l1.9-31.9c0.1-1.9 1.6-3.4 3.5-3.4h53.8c1.9 0 3.3 1.5 3.2 3.4l-1.8 31.9c-0.1 1.9-1.8 3.4-3.6 3.4h-53.8c-1.9 0-3.3-1.5-3.2-3.4z"/>
		<rect id="Layer" class="s4" x="254.6" y="284.3" width="26.2" height="7.2" rx="3.4"></rect>
		<g id="Layer" style="opacity: .6">
			<rect id="Layer" class="s8" x="254.6" y="284.3" width="26.2" height="7.2" rx="3.4"></rect>
		</g>
		<rect id="Layer" class="s6" x="246.7" y="284.3" width="28.2" height="7.2" rx="3.4"></rect>
		<rect id="Layer" class="s7" x="246.7" y="284.3" width="28.2" height="7.2" rx="3.4"></rect>
		<path id="Layer" class="s5" d="m290.2 279.6h-55.1c-0.8 0-1.4-0.7-1.4-1.4l1.9-32.4c0.1-0.8 0.7-1.5 1.6-1.5h55.1c0.8 0 1.5 0.7 1.4 1.5l-1.9 32.4c0 0.7-0.7 1.4-1.6 1.4z"/>
		<path id="Layer" class="s9" d="m251 279.6h-11l10.1-35.3h11z"/>
		<path id="Layer" class="s9" d="m260 279.6h-7.7l10.1-35.3h7.6z"/>
		<path id="Layer" class="s9" d="m276.7 279.6h-7.6l9.9-35.3h7.8z"/>
		<path id="Layer" class="s4" d="m85.3 236.3q-0.1 0-0.2 0q-0.1-0.1-0.2-0.2q0 0-0.1-0.1q0-0.1 0-0.2q0-0.2 0.1-0.3c0.2-0.1 0.4-0.1 0.5-0.1q0.1 0.1 0.1 0.1q0.1 0.1 0.1 0.1q0.1 0.1 0.1 0.2q0 0.1-0.1 0.2q0 0.1-0.1 0.1q0 0.1-0.1 0.2q0 0-0.1 0z"/>
		<path id="Layer" class="s4" d="m84.8 232.4c0-0.2 0.2-0.5 0.5-0.5c0.2 0 0.4 0.3 0.4 0.5c0 0.3-0.2 0.5-0.4 0.5c-0.3 0-0.5-0.2-0.5-0.5z"/>
		<path id="Layer" class="s4" d="m85.3 229.5q-0.2 0-0.4-0.2q0 0-0.1-0.1q0-0.1 0-0.2q0-0.1 0.1-0.3c0.2-0.1 0.4-0.2 0.5-0.1q0.1 0 0.1 0.1q0.1 0.1 0.1 0.2q0.1 0 0.1 0.1q0 0.1-0.1 0.2q0 0.1-0.1 0.1q0 0.1-0.1 0.1q0 0.1-0.1 0.1z"/>
		<path id="Layer" class="s4" d="m170.7 229c0-0.2 0.2-0.4 0.5-0.4c0.3 0 0.4 0.2 0.4 0.4c0 0.2-0.2 0.5-0.4 0.5c-0.3 0-0.5-0.3-0.5-0.5zm-3.7 0c0-0.2 0.2-0.4 0.4-0.4c0.2 0 0.5 0.2 0.5 0.4c0 0.2-0.3 0.5-0.5 0.5c-0.2 0-0.4-0.3-0.4-0.5zm-3.7 0c0-0.2 0.1-0.4 0.4-0.4c0.2 0 0.5 0.2 0.5 0.4c0 0.2-0.3 0.5-0.5 0.5c-0.3 0-0.4-0.3-0.4-0.5zm-3.8 0c0-0.2 0.2-0.4 0.5-0.4c0.2 0 0.4 0.2 0.4 0.4c0 0.2-0.2 0.5-0.4 0.5c-0.3 0-0.5-0.3-0.5-0.5zm-3.8 0c0-0.2 0.3-0.4 0.5-0.4c0.3 0 0.5 0.2 0.5 0.4c0 0.2-0.2 0.5-0.5 0.5c-0.2 0-0.5-0.3-0.5-0.5zm-3.7 0c0-0.2 0.2-0.4 0.5-0.4c0.2 0 0.4 0.2 0.4 0.4c0 0.2-0.2 0.5-0.4 0.5c-0.3 0-0.5-0.3-0.5-0.5zm-3.7 0c0-0.2 0.2-0.4 0.4-0.4c0.3 0 0.5 0.2 0.5 0.4c0 0.2-0.2 0.5-0.5 0.5c-0.2 0-0.4-0.3-0.4-0.5zm-3.7 0c0-0.2 0.1-0.4 0.4-0.4c0.3 0 0.5 0.2 0.5 0.4c0 0.2-0.2 0.5-0.5 0.5c-0.3 0-0.4-0.3-0.4-0.5zm-3.8 0c0-0.2 0.2-0.4 0.5-0.4c0.2 0 0.5 0.2 0.5 0.4c0 0.2-0.3 0.5-0.5 0.5c-0.3 0-0.5-0.3-0.5-0.5zm-3.7 0c0-0.2 0.2-0.4 0.5-0.4c0.2 0 0.4 0.2 0.4 0.4c0 0.2-0.2 0.5-0.4 0.5c-0.3 0-0.5-0.3-0.5-0.5zm-3.8 0c0-0.2 0.3-0.4 0.5-0.4c0.2 0 0.4 0.2 0.4 0.4c0 0.2-0.2 0.5-0.4 0.5c-0.2 0-0.5-0.3-0.5-0.5zm-3.7 0c0-0.2 0.2-0.4 0.4-0.4c0.3 0 0.5 0.2 0.5 0.4c0 0.2-0.2 0.5-0.5 0.5c-0.2 0-0.4-0.3-0.4-0.5zm-3.8 0c0-0.2 0.2-0.4 0.5-0.4c0.3 0 0.5 0.2 0.5 0.4c0 0.2-0.2 0.5-0.5 0.5c-0.3 0-0.5-0.3-0.5-0.5zm-3.7 0c0-0.2 0.2-0.4 0.5-0.4c0.3 0 0.5 0.2 0.5 0.4c0 0.2-0.2 0.5-0.5 0.5c-0.3 0-0.5-0.3-0.5-0.5zm-3.7 0c0-0.2 0.2-0.4 0.5-0.4c0.2 0 0.4 0.2 0.4 0.4c0 0.2-0.2 0.5-0.4 0.5c-0.3 0-0.5-0.3-0.5-0.5zm-3.7 0c0-0.2 0.2-0.4 0.4-0.4c0.3 0 0.5 0.2 0.5 0.4c0 0.2-0.2 0.5-0.5 0.5c-0.2 0-0.4-0.3-0.4-0.5zm-3.8 0c0-0.2 0.2-0.4 0.5-0.4c0.2 0 0.5 0.2 0.5 0.4c0 0.2-0.3 0.5-0.5 0.5c-0.3 0-0.5-0.3-0.5-0.5zm-3.7 0c0-0.2 0.2-0.4 0.5-0.4c0.2 0 0.5 0.2 0.5 0.4c0 0.2-0.3 0.5-0.5 0.5c-0.3 0-0.5-0.3-0.5-0.5zm-3.8 0c0-0.2 0.3-0.4 0.5-0.4c0.3 0 0.4 0.2 0.4 0.4c0 0.2-0.1 0.5-0.4 0.5c-0.2 0-0.5-0.3-0.5-0.5zm-3.7 0c0-0.2 0.3-0.4 0.5-0.4c0.2 0 0.4 0.2 0.4 0.4c0 0.2-0.2 0.5-0.4 0.5c-0.2 0-0.5-0.3-0.5-0.5zm-3.7 0c0-0.2 0.2-0.4 0.4-0.4c0.3 0 0.5 0.2 0.5 0.4c0 0.2-0.2 0.5-0.5 0.5c-0.2 0-0.4-0.3-0.4-0.5zm-3.8 0c0-0.2 0.2-0.4 0.5-0.4c0.3 0 0.5 0.2 0.5 0.4c0 0.2-0.2 0.5-0.5 0.5c-0.3 0-0.5-0.3-0.5-0.5zm-3.7 0c0-0.2 0.2-0.4 0.5-0.4c0.3 0 0.4 0.2 0.4 0.4c0 0.2-0.1 0.5-0.4 0.5c-0.3 0-0.5-0.3-0.5-0.5z"/>
		<path id="Layer" class="s4" d="m174.9 229.5q-0.1 0-0.2-0.1q-0.1 0-0.2-0.1q0 0-0.1-0.1q0-0.1 0-0.2q0-0.1 0-0.1q0.1-0.1 0.1-0.2q0.1-0.1 0.2-0.1q0.2-0.1 0.4 0q0.1 0 0.1 0.1q0.2 0.2 0.2 0.3q0 0.1 0 0.2q-0.1 0.1-0.2 0.1q0 0.1-0.1 0.1q-0.1 0.1-0.2 0.1z"/>
		<path id="Layer" class="s4" d="m174.9 229.5q-0.1 0-0.2-0.1q-0.1 0-0.2-0.1q0 0-0.1-0.1q0-0.1 0-0.2q0-0.1 0-0.1q0.1-0.1 0.1-0.2q0.1-0.1 0.2-0.1q0.2-0.1 0.4 0q0.1 0 0.1 0.1q0.2 0.2 0.2 0.3q0 0.1 0 0.2q-0.1 0.1-0.2 0.1q0 0.1-0.1 0.1q-0.1 0.1-0.2 0.1z"/>
		<path id="Layer" class="s4" d="m174.4 225.8c0-0.3 0.2-0.5 0.5-0.5c0.3 0 0.5 0.2 0.5 0.5c0 0.3-0.2 0.4-0.5 0.4c-0.3 0-0.5-0.1-0.5-0.4zm0-3.3c0-0.3 0.2-0.4 0.5-0.4c0.3 0 0.5 0.1 0.5 0.4c0 0.3-0.2 0.5-0.5 0.5c-0.3 0-0.5-0.2-0.5-0.5zm0-3.1c0-0.3 0.2-0.5 0.5-0.5c0.3 0 0.5 0.2 0.5 0.5c0 0.1-0.2 0.4-0.5 0.4c-0.3 0-0.5-0.3-0.5-0.4z"/>
		<path id="Layer" class="s4" d="m174.9 216.6q-0.2 0-0.4-0.2q0 0-0.1-0.1q0-0.1 0-0.2q0-0.1 0-0.2q0.1-0.1 0.1-0.2q0.1 0 0.2-0.1q0.2-0.1 0.4 0q0.1 0.1 0.1 0.1q0.1 0.1 0.2 0.2q0 0.1 0 0.2q0 0.1 0 0.2q-0.1 0.1-0.2 0.1q-0.1 0.2-0.3 0.2z"/>
		<path id="Layer" class="s4" d="m174.9 229.5q-0.1 0-0.2-0.1q-0.1 0-0.2-0.1q0 0-0.1-0.1q0-0.1 0-0.2q0-0.1 0-0.1q0.1-0.1 0.1-0.2q0.1-0.1 0.2-0.1q0.2-0.1 0.4 0q0.1 0 0.1 0.1q0.2 0.2 0.2 0.3q0 0.1 0 0.2q-0.1 0.1-0.2 0.1q0 0.1-0.1 0.1q-0.1 0.1-0.2 0.1z"/>
		<path id="Layer" class="s4" d="m174.4 232.4c0-0.2 0.2-0.5 0.5-0.5c0.3 0 0.5 0.3 0.5 0.5c0 0.3-0.2 0.5-0.5 0.5c-0.3 0-0.5-0.2-0.5-0.5z"/>
		<path id="Layer" class="s4" d="m174.9 236.3q-0.2 0-0.4-0.2q0 0-0.1-0.1q0-0.1 0-0.2q0-0.1 0-0.2q0.1 0 0.1-0.1c0.2-0.1 0.6-0.2 0.7 0q0.1 0.1 0.2 0.1q0 0.1 0 0.2q0 0.1 0 0.2q-0.1 0.1-0.2 0.1q-0.1 0.2-0.3 0.2z"/>
		<path id="Layer" class="s4" d="m264.5 236.3q-0.2 0-0.3-0.2q-0.1-0.1-0.1-0.3q0-0.2 0.1-0.3c0.1-0.1 0.5-0.2 0.7 0q0 0.1 0.1 0.1q0 0.1 0 0.2q0 0.2-0.1 0.3q-0.2 0.2-0.4 0.2z"/>
		<path id="Layer" class="s4" d="m264.1 232.4c0-0.2 0.1-0.5 0.4-0.5c0.3 0 0.5 0.3 0.5 0.5c0 0.3-0.2 0.5-0.5 0.5c-0.3 0-0.4-0.2-0.4-0.5z"/>
		<path id="Layer" class="s4" d="m264.5 229.5q-0.2 0-0.3-0.2q-0.1-0.1-0.1-0.3q0-0.1 0.1-0.3c0.1-0.2 0.5-0.2 0.7 0q0.1 0.2 0.1 0.3q0 0.2-0.1 0.3q-0.2 0.2-0.4 0.2z"/>
		<path id="Layer" class="s4" d="m260.3 229c0-0.2 0.2-0.4 0.5-0.4c0.3 0 0.5 0.2 0.5 0.4c0 0.2-0.2 0.5-0.5 0.5c-0.3 0-0.5-0.3-0.5-0.5zm-3.7 0c0-0.2 0.2-0.4 0.5-0.4c0.3 0 0.4 0.2 0.4 0.4c0 0.2-0.1 0.5-0.4 0.5c-0.3 0-0.5-0.3-0.5-0.5zm-3.7 0c0-0.2 0.2-0.4 0.5-0.4c0.2 0 0.4 0.2 0.4 0.4c0 0.2-0.2 0.5-0.4 0.5c-0.3 0-0.5-0.3-0.5-0.5zm-3.7 0c0-0.2 0.2-0.4 0.4-0.4c0.2 0 0.5 0.2 0.5 0.4c0 0.2-0.3 0.5-0.5 0.5c-0.2 0-0.4-0.3-0.4-0.5zm-3.8 0c0-0.2 0.2-0.4 0.4-0.4c0.3 0 0.6 0.2 0.6 0.4c0 0.2-0.3 0.5-0.6 0.5c-0.2 0-0.4-0.3-0.4-0.5zm-3.8 0c0-0.2 0.3-0.4 0.5-0.4c0.3 0 0.5 0.2 0.5 0.4c0 0.2-0.2 0.5-0.5 0.5c-0.2 0-0.5-0.3-0.5-0.5zm-3.7 0c0-0.2 0.3-0.4 0.5-0.4c0.3 0 0.4 0.2 0.4 0.4c0 0.2-0.1 0.5-0.4 0.5c-0.2 0-0.5-0.3-0.5-0.5zm-3.7 0c0-0.2 0.2-0.4 0.4-0.4c0.3 0 0.5 0.2 0.5 0.4c0 0.2-0.2 0.5-0.5 0.5c-0.2 0-0.4-0.3-0.4-0.5zm-3.7 0c0-0.2 0.1-0.4 0.4-0.4c0.3 0 0.5 0.2 0.5 0.4c0 0.2-0.2 0.5-0.5 0.5c-0.3 0-0.4-0.3-0.4-0.5zm-3.8 0c0-0.2 0.2-0.4 0.5-0.4c0.3 0 0.5 0.2 0.5 0.4c0 0.2-0.2 0.5-0.5 0.5c-0.3 0-0.5-0.3-0.5-0.5zm-3.7 0c0-0.2 0.2-0.4 0.5-0.4c0.3 0 0.4 0.2 0.4 0.4c0 0.2-0.1 0.5-0.4 0.5c-0.3 0-0.5-0.3-0.5-0.5zm-3.7 0c0-0.2 0.2-0.4 0.5-0.4c0.1 0 0.4 0.2 0.4 0.4c0 0.2-0.3 0.5-0.4 0.5c-0.3 0-0.5-0.3-0.5-0.5zm-3.8 0c0-0.2 0.3-0.4 0.4-0.4c0.3 0 0.5 0.2 0.5 0.4c0 0.2-0.2 0.5-0.5 0.5c-0.1 0-0.4-0.3-0.4-0.5zm-3.7 0c0-0.2 0.2-0.4 0.4-0.4c0.3 0 0.5 0.2 0.5 0.4c0 0.2-0.2 0.5-0.5 0.5c-0.2 0-0.4-0.3-0.4-0.5zm-3.8 0c0-0.2 0.2-0.4 0.5-0.4c0.3 0 0.5 0.2 0.5 0.4c0 0.2-0.2 0.5-0.5 0.5c-0.3 0-0.5-0.3-0.5-0.5zm-3.7 0c0-0.2 0.2-0.4 0.5-0.4c0.3 0 0.4 0.2 0.4 0.4c0 0.2-0.1 0.5-0.4 0.5c-0.3 0-0.5-0.3-0.5-0.5zm-3.7 0c0-0.2 0.2-0.4 0.4-0.4c0.3 0 0.5 0.2 0.5 0.4c0 0.2-0.2 0.5-0.5 0.5c-0.2 0-0.4-0.3-0.4-0.5zm-3.7 0c0-0.2 0.1-0.4 0.4-0.4c0.3 0 0.5 0.2 0.5 0.4c0 0.2-0.2 0.5-0.5 0.5c-0.3 0-0.4-0.3-0.4-0.5zm-3.8 0c0-0.2 0.2-0.4 0.5-0.4c0.2 0 0.5 0.2 0.5 0.4c0 0.2-0.3 0.5-0.5 0.5c-0.3 0-0.5-0.3-0.5-0.5zm-3.8 0c0-0.2 0.3-0.4 0.5-0.4c0.3 0 0.5 0.2 0.5 0.4c0 0.2-0.2 0.5-0.5 0.5c-0.2 0-0.5-0.3-0.5-0.5zm-3.7 0c0-0.2 0.3-0.4 0.5-0.4c0.2 0 0.4 0.2 0.4 0.4c0 0.2-0.2 0.5-0.4 0.5c-0.2 0-0.5-0.3-0.5-0.5zm-3.7 0c0-0.2 0.2-0.4 0.4-0.4c0.3 0 0.5 0.2 0.5 0.4c0 0.2-0.2 0.5-0.5 0.5c-0.2 0-0.4-0.3-0.4-0.5zm-3.7 0c0-0.2 0.1-0.4 0.4-0.4c0.3 0 0.5 0.2 0.5 0.4c0 0.2-0.2 0.5-0.5 0.5c-0.3 0-0.4-0.3-0.4-0.5z"/>
		<path id="Layer" class="s4" d="m174.9 229.5q-0.1 0-0.2-0.1q-0.1 0-0.2-0.1q0 0-0.1-0.1q0-0.1 0-0.2q0-0.1 0-0.1q0.1-0.1 0.1-0.2q0.1-0.1 0.2-0.1q0.2-0.1 0.4 0q0.1 0 0.1 0.1q0.2 0.2 0.2 0.3q0 0.1 0 0.2q-0.1 0.1-0.2 0.1q0 0.1-0.1 0.1q-0.1 0.1-0.2 0.1z"/>
		<path id="Layer" class="s4" d="m343.4 169.3c0 22.7-18.5 41.1-41.2 41.1h-184.5c-32.1 0-58-26-58-58c0-30.8 23.9-55.9 54.1-57.9c3.2-14.1 10.6-26.4 21.1-35.7v-17.1h44.7c25.1 0 46.9 13.6 58.5 33.8h23c30.7 0 55.6 24.8 55.8 55.3c15.5 6 26.5 20.9 26.5 38.5z"/>
		<path id="Layer" class="s10" d="m343.4 169.3c0 22.7-18.5 41.1-41.2 41.1h-184.5c-32.1 0-58-26-58-58c0-30.8 23.9-55.9 54.1-57.9c3.2-14.1 10.6-26.4 21.1-35.7v-17.1h44.7c25.1 0 46.9 13.6 58.5 33.8h23c30.7 0 55.6 24.8 55.8 55.3c15.5 6 26.5 20.9 26.5 38.5z"/>
		<path id="Layer" class="s4" d="m298.5 169.3c0 22.7-18.3 41.1-41 41.1h-184.7c-32 0-58-26-58-58c0-30.8 23.9-55.9 54.3-57.9c6.7-30.3 33.6-52.8 65.8-52.8c26.6 0 49.6 15.5 60.5 37.9c6.5-2.6 13.5-4.1 20.9-4.1c30.6 0 55.5 24.8 55.8 55.3c15.4 6 26.4 20.9 26.4 38.5z"/>
		<path id="Layer" class="s11" d="m343.4 169.3c0 22.7-18.5 41.1-41.2 41.1h-184.5c-32.1 0-58-26-58-58c0-30.8 23.9-55.9 54.1-57.9c6.7-30.3 33.6-52.8 65.8-52.8c26.7 0 49.7 15.5 60.6 37.9c6.5-2.6 13.5-4.1 20.9-4.1c30.7 0 55.6 24.8 55.8 55.3c15.5 6 26.5 20.9 26.5 38.5z"/>
		<path id="Layer" fill-rule="evenodd" class="s4" d="m257.5 211.3h-184.7c-32.5 0-58.9-26.4-58.9-58.9c0-30.8 23.9-56.5 54.4-58.7c3.5-14.7 11.7-28.1 23.5-37.7c12.1-9.8 27.4-15.2 43.1-15.2c25.9 0 49.3 14.4 60.9 37.6c6.6-2.5 13.4-3.8 20.5-3.8c30.7 0 56 24.9 56.6 55.6c15.9 6.3 26.5 21.9 26.5 39.1c0 23.1-18.9 42-41.9 42zm-122.6-168.7c-31 0-58.3 21.9-65 52.1c-0.1 0.4-0.4 0.6-0.8 0.6c-29.9 2-53.4 27-53.4 57.1c0 31.5 25.6 57.1 57.1 57.1h184.7c22.1 0 40.2-18.1 40.2-40.2c0-16.6-10.5-31.7-26-37.7c-0.3 0-0.6-0.4-0.6-0.8c-0.2-30-24.8-54.4-54.8-54.4c-7.1 0-14 1.3-20.6 4c-0.4 0.1-0.9-0.1-1.1-0.4c-11.2-23.1-34.1-37.4-59.7-37.4z"/>
		<path id="Layer" fill-rule="evenodd" class="s10" d="m257.5 211.3h-184.7c-32.5 0-58.9-26.4-58.9-58.9c0-30.8 23.9-56.5 54.4-58.7c3.5-14.7 11.7-28.1 23.5-37.7c12.1-9.8 27.4-15.2 43.1-15.2c25.9 0 49.3 14.4 60.9 37.6c6.6-2.5 13.4-3.8 20.5-3.8c30.7 0 56 24.9 56.6 55.6c15.9 6.3 26.5 21.9 26.5 39.1c0 23.1-18.9 42-41.9 42zm-122.6-168.7c-31 0-58.3 21.9-65 52.1c-0.1 0.4-0.4 0.6-0.8 0.6c-29.9 2-53.4 27-53.4 57.1c0 31.5 25.6 57.1 57.1 57.1h184.7c22.1 0 40.2-18.1 40.2-40.2c0-16.6-10.5-31.7-26-37.7c-0.3 0-0.6-0.4-0.6-0.8c-0.2-30-24.8-54.4-54.8-54.4c-7.1 0-14 1.3-20.6 4c-0.4 0.1-0.9-0.1-1.1-0.4c-11.2-23.1-34.1-37.4-59.7-37.4z"/>
		<path id="Layer" class="s3" d="m111.3 128.1h14.8c2.3 0 4.1 1.9 4.1 4.1v73.2c0 2.2-1.8 4.1-4.1 4.1h-14.8z"/>
		<rect id="Layer" class="s6" x="76.7" y="128.1" width="40.2" height="81.4" rx="4.1"></rect>
		<path id="Layer" class="s3" d="m116.9 193.4h-40.2v-0.8h40.2z"/>
		<path id="Layer" class="s3" d="m116.9 177.3h-40.2v-0.8h40.2z"/>
		<path id="Layer" class="s3" d="m116.9 161.1h-40.2v-0.8h40.2z"/>
		<path id="Layer" class="s3" d="m116.9 145h-40.2v-0.8h40.2z"/>
		<path id="Layer" class="s12" d="m98.3 140.5c0 0.9-0.7 1.6-1.5 1.6h-13.5c-0.8 0-1.5-0.7-1.5-1.6c0-0.8 0.7-1.5 1.5-1.5h13.5c0.8 0 1.5 0.7 1.5 1.5z"/>
		<path id="Layer" class="s12" d="m98.3 136.6c0 0.8-0.7 1.5-1.5 1.5h-13.5c-0.8 0-1.5-0.7-1.5-1.5c0-0.9 0.7-1.6 1.5-1.6h13.5c0.8 0 1.5 0.7 1.5 1.6z"/>
		<path id="Layer" class="s12" d="m98.3 132.6c0 0.8-0.7 1.5-1.5 1.5h-13.5c-0.8 0-1.5-0.7-1.5-1.5c0-0.9 0.7-1.6 1.5-1.6h13.5c0.8 0 1.5 0.7 1.5 1.6z"/>
		<path id="Layer" class="s0" d="m99.7 139h5.7v3.1h-5.7z"/>
		<path id="Layer" class="s4" d="m99.7 135h5.7v3.1h-5.7z"/>
		<path id="Layer" class="s0" d="m99.7 131h5.7v3.1h-5.7z"/>
		<path id="Layer" class="s0" d="m106.2 139h5.7v3.1h-5.7z"/>
		<path id="Layer" class="s0" d="m106.2 135h5.7v3.1h-5.7z"/>
		<path id="Layer" class="s4" d="m106.2 131h5.7v3.1h-5.7z"/>
		<path id="Layer" class="s0" d="m98.3 156.7c0 0.8-0.7 1.5-1.5 1.5h-13.5c-0.8 0-1.5-0.7-1.5-1.5c0-0.8 0.7-1.6 1.5-1.6h13.5c0.8 0 1.5 0.8 1.5 1.6z"/>
		<path id="Layer" class="s12" d="m98.3 152.7c0 0.8-0.7 1.5-1.5 1.5h-13.5c-0.8 0-1.5-0.7-1.5-1.5c0-0.8 0.7-1.6 1.5-1.6h13.5c0.8 0 1.5 0.8 1.5 1.6z"/>
		<path id="Layer" class="s12" d="m98.3 148.7c0 0.8-0.7 1.5-1.5 1.5h-13.5c-0.8 0-1.5-0.7-1.5-1.5c0-0.8 0.7-1.6 1.5-1.6h13.5c0.8 0 1.5 0.8 1.5 1.6z"/>
		<path id="Layer" class="s0" d="m99.7 155.1h5.7v3.1h-5.7z"/>
		<path id="Layer" class="s0" d="m99.7 151.1h5.7v3.1h-5.7z"/>
		<path id="Layer" class="s4" d="m99.7 147.1h5.7v3.1h-5.7z"/>
		<path id="Layer" class="s0" d="m106.2 155.1h5.7v3.1h-5.7z"/>
		<path id="Layer" class="s0" d="m106.2 151.1h5.7v3.1h-5.7z"/>
		<path id="Layer" class="s0" d="m106.2 147.1h5.7v3.1h-5.7z"/>
		<path id="Layer" class="s12" d="m98.3 172.8c0 0.8-0.7 1.5-1.5 1.5h-13.5c-0.8 0-1.5-0.7-1.5-1.5c0-0.8 0.7-1.6 1.5-1.6h13.5c0.8 0 1.5 0.8 1.5 1.6z"/>
		<path id="Layer" class="s12" d="m98.3 168.8c0 0.8-0.7 1.6-1.5 1.6h-13.5c-0.8 0-1.5-0.8-1.5-1.6c0-0.8 0.7-1.5 1.5-1.5h13.5c0.8 0 1.5 0.7 1.5 1.5z"/>
		<path id="Layer" class="s12" d="m98.3 164.8c0 0.8-0.7 1.6-1.5 1.6h-13.5c-0.8 0-1.5-0.8-1.5-1.6c0-0.8 0.7-1.5 1.5-1.5h13.5c0.8 0 1.5 0.7 1.5 1.5z"/>
		<path id="Layer" class="s0" d="m99.7 171.2h5.7v3.1h-5.7z"/>
		<path id="Layer" class="s4" d="m99.7 167.3h5.7v3.1h-5.7z"/>
		<path id="Layer" class="s0" d="m99.7 163.3h5.7v3.1h-5.7z"/>
		<path id="Layer" class="s0" d="m106.2 171.2h5.7v3.1h-5.7z"/>
		<path id="Layer" class="s0" d="m106.2 167.3h5.7v3.1h-5.7z"/>
		<path id="Layer" class="s4" d="m106.2 163.3h5.7v3.1h-5.7z"/>
		<path id="Layer" class="s12" d="m98.3 188.9c0 0.8-0.7 1.6-1.5 1.6h-13.5c-0.8 0-1.5-0.8-1.5-1.6c0-0.8 0.7-1.5 1.5-1.5h13.5c0.8 0 1.5 0.7 1.5 1.5z"/>
		<path id="Layer" class="s12" d="m98.3 184.9c0 0.8-0.7 1.6-1.5 1.6h-13.5c-0.8 0-1.5-0.8-1.5-1.6c0-0.8 0.7-1.5 1.5-1.5h13.5c0.8 0 1.5 0.7 1.5 1.5z"/>
		<path id="Layer" class="s12" d="m98.3 180.9c0 0.8-0.7 1.6-1.5 1.6h-13.5c-0.8 0-1.5-0.8-1.5-1.6c0-0.8 0.7-1.5 1.5-1.5h13.5c0.8 0 1.5 0.7 1.5 1.5z"/>
		<path id="Layer" class="s0" d="m99.7 187.4h5.7v3.1h-5.7z"/>
		<path id="Layer" class="s4" d="m99.7 183.4h5.7v3.1h-5.7z"/>
		<path id="Layer" class="s0" d="m99.7 179.4h5.7v3.1h-5.7z"/>
		<path id="Layer" class="s4" d="m106.2 187.4h5.7v3.1h-5.7z"/>
		<path id="Layer" class="s0" d="m106.2 183.4h5.7v3.1h-5.7z"/>
		<path id="Layer" class="s4" d="m106.2 179.4h5.7v3.1h-5.7z"/>
		<path id="Layer" class="s12" d="m98.3 205c0 0.9-0.7 1.6-1.5 1.6h-13.5c-0.8 0-1.5-0.7-1.5-1.6c0-0.8 0.7-1.5 1.5-1.5h13.5c0.8 0 1.5 0.7 1.5 1.5z"/>
		<path id="Layer" class="s12" d="m98.3 201c0 0.9-0.7 1.6-1.5 1.6h-13.5c-0.8 0-1.5-0.7-1.5-1.6c0-0.8 0.7-1.5 1.5-1.5h13.5c0.8 0 1.5 0.7 1.5 1.5z"/>
		<path id="Layer" class="s12" d="m98.3 197.1c0 0.8-0.7 1.5-1.5 1.5h-13.5c-0.8 0-1.5-0.7-1.5-1.5c0-0.9 0.7-1.6 1.5-1.6h13.5c0.8 0 1.5 0.7 1.5 1.6z"/>
		<path id="Layer" class="s4" d="m99.7 203.5h5.7v3.1h-5.7z"/>
		<path id="Layer" class="s0" d="m99.7 199.5h5.7v3.1h-5.7z"/>
		<path id="Layer" class="s0" d="m99.7 195.5h5.7v3.1h-5.7z"/>
		<path id="Layer" class="s0" d="m106.2 203.5h5.7v3.1h-5.7z"/>
		<path id="Layer" class="s0" d="m106.2 199.5h5.7v3.1h-5.7z"/>
		<path id="Layer" class="s4" d="m106.2 195.5h5.7v3.1h-5.7z"/>
		<path id="Layer" class="s3" d="m169.2 89.7h21.8c3.3 0 6.1 2.8 6.1 6.1v107.6c0 3.4-2.8 6.1-6.1 6.1h-21.8z"/>
		<rect id="Layer" class="s6" x="118.3" y="89.7" width="59.2" height="119.8" rx="6.1"></rect>
		<path id="Layer" class="s3" d="m177.5 185.7h-59.2v-1.1h59.2z"/>
		<path id="Layer" class="s3" d="m177.5 162h-59.2v-1.1h59.2z"/>
		<path id="Layer" class="s3" d="m177.5 138.3h-59.2v-1.2h59.2z"/>
		<path id="Layer" class="s3" d="m177.5 114.5h-59.2v-1.1h59.2z"/>
		<path id="Layer" class="s12" d="m150 108c0 1.2-1 2.2-2.2 2.2h-19.8c-1.2 0-2.3-1-2.3-2.2c0-1.3 1.1-2.2 2.3-2.2h19.8c1.2 0 2.2 0.9 2.2 2.2z"/>
		<path id="Layer" class="s12" d="m150 102.1c0 1.2-1 2.3-2.2 2.3h-19.8c-1.2 0-2.3-1.1-2.3-2.3c0-1.3 1.1-2.3 2.3-2.3h19.8c1.2 0 2.2 1 2.2 2.3z"/>
		<path id="Layer" class="s12" d="m150 96.3c0 1.2-1 2.2-2.2 2.2h-19.8c-1.2 0-2.3-1-2.3-2.2c0-1.3 1.1-2.4 2.3-2.4h19.8c1.2 0 2.2 1.1 2.2 2.4z"/>
		<path id="Layer" class="s0" d="m152.2 105.8h8.2v4.4h-8.2z"/>
		<path id="Layer" class="s4" d="m152.2 99.8h8.2v4.6h-8.2z"/>
		<path id="Layer" class="s0" d="m152.2 93.9h8.2v4.6h-8.2z"/>
		<path id="Layer" class="s0" d="m161.8 105.8h8.3v4.4h-8.3z"/>
		<path id="Layer" class="s0" d="m161.8 99.8h8.3v4.6h-8.3z"/>
		<path id="Layer" class="s4" d="m161.8 93.9h8.3v4.6h-8.3z"/>
		<path id="Layer" class="s12" d="m150 131.7c0 1.3-1 2.3-2.2 2.3h-19.8c-1.2 0-2.3-1-2.3-2.3c0-1.3 1.1-2.3 2.3-2.3h19.8c1.2 0 2.2 1 2.2 2.3z"/>
		<path id="Layer" class="s12" d="m150 125.9c0 1.2-1 2.2-2.2 2.2h-19.8c-1.2 0-2.3-1-2.3-2.2c0-1.3 1.1-2.4 2.3-2.4h19.8c1.2 0 2.2 1.1 2.2 2.4z"/>
		<path id="Layer" class="s12" d="m150 120c0 1.2-1 2.2-2.2 2.2h-19.8c-1.2 0-2.3-1-2.3-2.2c0-1.3 1.1-2.3 2.3-2.3h19.8c1.2 0 2.2 1 2.2 2.3z"/>
		<path id="Layer" class="s0" d="m152.2 129.4h8.2v4.6h-8.2z"/>
		<path id="Layer" class="s0" d="m152.2 123.5h8.2v4.6h-8.2z"/>
		<path id="Layer" class="s4" d="m152.2 117.7h8.2v4.5h-8.2z"/>
		<path id="Layer" class="s4" d="m161.8 129.4h8.3v4.6h-8.3z"/>
		<path id="Layer" class="s0" d="m161.8 123.5h8.3v4.6h-8.3z"/>
		<path id="Layer" class="s4" d="m161.8 117.7h8.3v4.5h-8.3z"/>
		<path id="Layer" class="s12" d="m150 155.5c0 1.2-1 2.2-2.2 2.2h-19.8c-1.2 0-2.3-1-2.3-2.2c0-1.3 1.1-2.3 2.3-2.3h19.8c1.2 0 2.2 1 2.2 2.3z"/>
		<path id="Layer" class="s12" d="m150 149.6c0 1.2-1 2.3-2.2 2.3h-19.8c-1.2 0-2.3-1.1-2.3-2.3c0-1.3 1.1-2.3 2.3-2.3h19.8c1.2 0 2.2 1 2.2 2.3z"/>
		<path id="Layer" class="s12" d="m150 143.8c0 1.2-1 2.2-2.2 2.2h-19.8c-1.2 0-2.3-1-2.3-2.2c0-1.4 1.1-2.4 2.3-2.4h19.8c1.2 0 2.2 1 2.2 2.4z"/>
		<path id="Layer" class="s4" d="m152.2 153.2h8.2v4.5h-8.2z"/>
		<path id="Layer" class="s0" d="m152.2 147.3h8.2v4.6h-8.2z"/>
		<path id="Layer" class="s0" d="m152.2 141.4h8.2v4.6h-8.2z"/>
		<path id="Layer" class="s0" d="m161.8 153.2h8.3v4.5h-8.3z"/>
		<path id="Layer" class="s0" d="m161.8 147.3h8.3v4.6h-8.3z"/>
		<path id="Layer" class="s4" d="m161.8 141.4h8.3v4.6h-8.3z"/>
		<path id="Layer" class="s12" d="m150 179.2c0 1.2-1 2.3-2.2 2.3h-19.8c-1.2 0-2.3-1.1-2.3-2.3c0-1.3 1.1-2.3 2.3-2.3h19.8c1.2 0 2.2 1 2.2 2.3z"/>
		<path id="Layer" class="s0" d="m150 173.4c0 1.2-1 2.2-2.2 2.2h-19.8c-1.2 0-2.3-1-2.3-2.2c0-1.3 1.1-2.4 2.3-2.4h19.8c1.2 0 2.2 1.1 2.2 2.4z"/>
		<path id="Layer" class="s12" d="m150 167.5c0 1.2-1 2.2-2.2 2.2h-19.8c-1.2 0-2.3-1-2.3-2.2c0-1.3 1.1-2.3 2.3-2.3h19.8c1.2 0 2.2 1 2.2 2.3z"/>
		<path id="Layer" class="s0" d="m152.2 176.9h8.2v4.6h-8.2z"/>
		<path id="Layer" class="s4" d="m152.2 171h8.2v4.6h-8.2z"/>
		<path id="Layer" class="s0" d="m152.2 165.2h8.2v4.5h-8.2z"/>
		<path id="Layer" class="s4" d="m161.8 176.9h8.3v4.6h-8.3z"/>
		<path id="Layer" class="s4" d="m161.8 171h8.3v4.6h-8.3z"/>
		<path id="Layer" class="s0" d="m161.8 165.2h8.3v4.5h-8.3z"/>
		<path id="Layer" class="s12" d="m150 203c0 1.2-1 2.2-2.2 2.2h-19.8c-1.2 0-2.3-1-2.3-2.2c0-1.3 1.1-2.4 2.3-2.4h19.8c1.2 0 2.2 1.1 2.2 2.4z"/>
		<path id="Layer" class="s12" d="m150 197.1c0 1.2-1 2.2-2.2 2.2h-19.8c-1.2 0-2.3-1-2.3-2.2c0-1.3 1.1-2.3 2.3-2.3h19.8c1.2 0 2.2 1 2.2 2.3z"/>
		<path id="Layer" class="s12" d="m150 191.2c0 1.2-1 2.3-2.2 2.3h-19.8c-1.2 0-2.3-1.1-2.3-2.3c0-1.3 1.1-2.3 2.3-2.3h19.8c1.2 0 2.2 1 2.2 2.3z"/>
		<path id="Layer" class="s0" d="m152.2 200.6h8.2v4.6h-8.2z"/>
		<path id="Layer" class="s0" d="m152.2 194.8h8.2v4.5h-8.2z"/>
		<path id="Layer" class="s0" d="m152.2 188.9h8.2v4.6h-8.2z"/>
		<path id="Layer" class="s0" d="m161.8 200.6h8.3v4.6h-8.3z"/>
		<path id="Layer" class="s0" d="m161.8 194.8h8.3v4.5h-8.3z"/>
		<path id="Layer" class="s4" d="m161.8 188.9h8.3v4.6h-8.3z"/>
		<path id="Layer" class="s3" d="m223.5 105.3h19c2.9 0 5.3 2.3 5.3 5.3v93.6c0 3-2.4 5.3-5.3 5.3h-19z"/>
		<rect id="Layer" class="s6" x="179.3" y="105.3" width="51.4" height="104.2" rx="5.3"></rect>
		<path id="Layer" class="s3" d="m230.6 188.8h-51.3v-0.9h51.3z"/>
		<path id="Layer" class="s3" d="m230.6 168.2h-51.3v-1h51.3z"/>
		<path id="Layer" class="s3" d="m230.6 147.6h-51.3v-1.1h51.3z"/>
		<path id="Layer" class="s3" d="m230.6 126.9h-51.3v-0.9h51.3z"/>
		<path id="Layer" class="s12" d="m206.8 121.2c0 1-0.8 2-1.9 2h-17.3c-1 0-1.9-1-1.9-2c0-1.1 0.9-1.9 1.9-1.9h17.3c1.1 0 1.9 0.8 1.9 1.9z"/>
		<path id="Layer" class="s12" d="m206.8 116.1c0 1.1-0.8 2-1.9 2h-17.3c-1 0-1.9-0.9-1.9-2c0-1.1 0.9-2 1.9-2h17.3c1.1 0 1.9 0.9 1.9 2z"/>
		<path id="Layer" class="s12" d="m206.8 111c0 1.1-0.8 1.9-1.9 1.9h-17.3c-1 0-1.9-0.8-1.9-1.9c0-1.1 0.9-2 1.9-2h17.3c1.1 0 1.9 0.9 1.9 2z"/>
		<path id="Layer" class="s0" d="m208.7 191.6h7.1v3.9h-7.1z"/>
		<path id="Layer" class="s4" d="m208.7 196.7h7.1v3.9h-7.1z"/>
		<path id="Layer" class="s0" d="m208.7 201.8h7.1v4h-7.1z"/>
		<path id="Layer" class="s0" d="m217.1 191.6h7.1v3.9h-7.1z"/>
		<path id="Layer" class="s0" d="m217.1 196.7h7.1v3.9h-7.1z"/>
		<path id="Layer" class="s4" d="m217.1 201.8h7.1v4h-7.1z"/>
		<path id="Layer" class="s0" d="m206.8 141.9c0 1-0.8 1.9-1.9 1.9h-17.3c-1 0-1.9-0.9-1.9-1.9c0-1.1 0.9-2.1 1.9-2.1h17.3c1.1 0 1.9 1 1.9 2.1z"/>
		<path id="Layer" class="s12" d="m206.8 136.8c0 1-0.8 1.9-1.9 1.9h-17.3c-1 0-1.9-0.9-1.9-1.9c0-1.1 0.9-2 1.9-2h17.3c1.1 0 1.9 0.9 1.9 2z"/>
		<path id="Layer" class="s12" d="m206.8 131.7c0 1-0.8 1.9-1.9 1.9h-17.3c-1 0-1.9-0.9-1.9-1.9c0-1.2 0.9-2 1.9-2h17.3c1.1 0 1.9 0.8 1.9 2z"/>
		<path id="Layer" class="s0" d="m208.7 170.9h7.1v3.9h-7.1z"/>
		<path id="Layer" class="s0" d="m208.7 176.1h7.1v3.9h-7.1z"/>
		<path id="Layer" class="s4" d="m208.7 181.2h7.1v3.9h-7.1z"/>
		<path id="Layer" class="s4" d="m217.1 170.9h7.1v3.9h-7.1z"/>
		<path id="Layer" class="s0" d="m217.1 176.1h7.1v3.9h-7.1z"/>
		<path id="Layer" class="s4" d="m217.1 181.2h7.1v3.9h-7.1z"/>
		<path id="Layer" class="s12" d="m206.8 162.5c0 1.1-0.8 1.9-1.9 1.9h-17.3c-1 0-1.9-0.8-1.9-1.9c0-1.1 0.9-2 1.9-2h17.3c1.1 0 1.9 0.9 1.9 2z"/>
		<path id="Layer" class="s12" d="m206.8 157.3c0 1.2-0.8 2.1-1.9 2.1h-17.3c-1 0-1.9-0.9-1.9-2.1c0-1 0.9-1.9 1.9-1.9h17.3c1.1 0 1.9 0.9 1.9 1.9z"/>
		<path id="Layer" class="s12" d="m206.8 152.3c0 1-0.8 2-1.9 2h-17.3c-1 0-1.9-1-1.9-2c0-1.1 0.9-2 1.9-2h17.3c1.1 0 1.9 0.9 1.9 2z"/>
		<path id="Layer" class="s4" d="m208.7 150.3h7.1v4h-7.1z"/>
		<path id="Layer" class="s0" d="m208.7 155.4h7.1v4h-7.1z"/>
		<path id="Layer" class="s0" d="m208.7 160.5h7.1v3.9h-7.1z"/>
		<path id="Layer" class="s0" d="m217.1 150.3h7.1v4h-7.1z"/>
		<path id="Layer" class="s0" d="m217.1 155.4h7.1v4h-7.1z"/>
		<path id="Layer" class="s4" d="m217.1 160.5h7.1v3.9h-7.1z"/>
		<path id="Layer" class="s12" d="m206.8 183.1c0 1.2-0.8 2-1.9 2h-17.3c-1 0-1.9-0.8-1.9-2c0-1.1 0.9-1.9 1.9-1.9h17.3c1.1 0 1.9 0.8 1.9 1.9z"/>
		<path id="Layer" class="s12" d="m206.8 178c0 1.1-0.8 2-1.9 2h-17.3c-1 0-1.9-0.9-1.9-2c0-1 0.9-1.9 1.9-1.9h17.3c1.1 0 1.9 0.9 1.9 1.9z"/>
		<path id="Layer" class="s12" d="m206.8 172.9c0 1.1-0.8 1.9-1.9 1.9h-17.3c-1 0-1.9-0.8-1.9-1.9c0-1 0.9-2 1.9-2h17.3c1.1 0 1.9 1 1.9 2z"/>
		<path id="Layer" class="s0" d="m208.7 129.7h7.1v3.9h-7.1z"/>
		<path id="Layer" class="s4" d="m208.7 134.8h7.1v3.9h-7.1z"/>
		<path id="Layer" class="s0" d="m208.7 139.8h7.1v4h-7.1z"/>
		<path id="Layer" class="s4" d="m217.1 129.7h7.1v3.9h-7.1z"/>
		<path id="Layer" class="s0" d="m217.1 134.8h7.1v3.9h-7.1z"/>
		<path id="Layer" class="s0" d="m217.1 139.8h7.1v4h-7.1z"/>
		<path id="Layer" class="s12" d="m206.8 203.8c0 1.1-0.8 2-1.9 2h-17.3c-1 0-1.9-0.9-1.9-2c0-1.1 0.9-2 1.9-2h17.3c1.1 0 1.9 0.9 1.9 2z"/>
		<path id="Layer" class="s12" d="m206.8 198.7c0 1.1-0.8 1.9-1.9 1.9h-17.3c-1 0-1.9-0.8-1.9-1.9c0-1.1 0.9-2 1.9-2h17.3c1.1 0 1.9 0.9 1.9 2z"/>
		<path id="Layer" class="s12" d="m206.8 193.6c0 1.1-0.8 1.9-1.9 1.9h-17.3c-1 0-1.9-0.8-1.9-1.9c0-1.2 0.9-2 1.9-2h17.3c1.1 0 1.9 0.8 1.9 2z"/>
		<path id="Layer" class="s4" d="m208.7 109h7.1v3.9h-7.1z"/>
		<path id="Layer" class="s0" d="m208.7 114.1h7.1v4h-7.1z"/>
		<path id="Layer" class="s0" d="m208.7 119.3h7.1v3.9h-7.1z"/>
		<path id="Layer" class="s0" d="m217.1 109h7.1v3.9h-7.1z"/>
		<path id="Layer" class="s0" d="m217.1 114.1h7.1v4h-7.1z"/>
		<path id="Layer" class="s4" d="m217.1 119.3h7.1v3.9h-7.1z"/>
	</g>
</svg>