<svg version="1.2" xmlns="http://www.w3.org/2000/svg" viewBox="0 0 370 320" width="370" height="320">
	<title>Edge-svg</title>
	<style>
		.s0 { fill: #a81d8a } 
		.s1 { fill: #740e5a } 
		.s2 { fill: #780e5c } 
		.s3 { fill: #c11795 } 
		.s4 { fill: #ce36a6 } 
		.s5 { fill: #ffffff } 
		.s6 { fill: #110044 } 
		.s7 { fill: #09001f } 
		.s8 { fill: #0e002e } 
		.s9 { fill: #0a0020 } 
		.s10 { fill: #261160 } 
		.s11 { fill: #bcbec0 } 
		.s12 { fill: #1e0248 } 
		.s13 { fill: #fc8019 } 
		.s14 { fill: #db4e37 } 
		.s15 { fill: #fdb375 } 
		.s16 { fill: #feddc1 } 
		.s17 { fill: #ffab66 } 
		.s18 { fill: #fdae6c } 
		.s19 { fill: #fda155 } 
		.s20 { fill: #1e0e4d } 
		.s21 { fill: #1e0d4b } 
		.s22 { fill: #1d0d49 } 
		.s23 { fill: #1c0d47 } 
		.s24 { fill: #1b0c45 } 
		.s25 { fill: #1b0c43 } 
		.s26 { fill: #1a0c41 } 
		.s27 { fill: #190b3f } 
		.s28 { fill: #180b3d } 
		.s29 { fill: #180b3c } 
		.s30 { fill: #ff9d8d } 
		.s31 { fill: #d1d3d4 } 
		.s32 { fill: #dedede } 
		.s33 { fill: #2e124d } 
		.s34 { fill: #4f328e } 
		.s35 { fill: #5d399b } 
		.s36 { fill: #f3bb98 } 
		.s37 { fill: #422568 } 
		.s38 { fill: #eaa781 } 
		.s39 { fill: #f46447 } 
	</style>
	<g id="Folder 1">
		<path id="Layer" class="s0" d="m136.6 101.8q-0.5-0.3-1.2-0.7q-1-0.5-2.1-1.1c1.5-0.9 2.8-1 4.3-0.2q1.6 0.9 3.2 1.8c-0.9-0.5-2-0.3-2.9 0c-0.6 0.2-0.8 0.5-1.3 0.2z"/>
		<path id="Layer" class="s1" d="m99.6 156.6q-1.5-0.9-3-1.7c-0.5-0.2-0.9-0.4-1.3-0.8c-0.7-0.8-1-1.9-1-3q1.8 1.1 3.7 2.1c0 1.3 0.3 2.8 1.6 3.4z"/>
		<path id="Layer" class="s2" d="m98 153.2l-3.7-2.1v-22.6l3.6 2.1z"/>
		<path id="Layer" class="s3" d="m103.3 121.4l-3.7-2.1l33.7-19.3l3.7 2.1z"/>
		<path id="Layer" class="s0" d="m97.9 130.6q-1.5-0.8-3-1.7c-0.6-0.3-0.6-0.2-0.6-0.9c0.1-0.9 0.2-1.7 0.5-2.5c0.6-1.6 1.5-3.1 2.6-4.3q0.5-0.6 1.2-1.1c0.2-0.2 0.7-0.8 1-0.8c0.3 0 0.8 0.4 1 0.6q1.4 0.7 2.7 1.5c-3 1.6-5 5.1-5.4 8.4q0 0.5 0 0.8z"/>
		<path id="Layer" class="s4" d="m137 102.1c2.9-1.8 5.4-0.4 5.4 3v22.5c0 3.4-2.3 7.6-5.3 9.3l-33.8 19.3c-2.9 1.8-5.3 0.4-5.3-3l-0.1-22.6c0-3.3 2.4-7.5 5.4-9.2z"/>
		<path id="Layer" class="s5" d="m117.3 120.7c0.4-0.3 0.9-0.4 1.4-0.4l11.7 1c1.9 0.2 1.9 3.2 0 5.5l-11.7 14.5q-0.7 0.8-1.4 1.2c-1.4 0.9-2.8 0.3-2.8-1.6v-15.4c0-1.9 1.3-4 2.8-4.8z"/>
		<path id="Layer" class="s6" d="m335.8 168.8q0 1.8 0 3.5q0 4.8 0 9.6c0 5-3.7 8.6-7.8 11q0.1-1.7 0.1-3.3q0-2.8 0-5.5c0-1.4-0.1-2.8 0-4.2c0 0-0.1-0.2 0-0.3c0.1-0.2 0.9-0.5 1.1-0.7c1.3-0.8 2.4-1.8 3.4-2.8c1.8-1.9 3-4.2 3.2-6.8q0-0.2 0-0.5z"/>
		<path id="Layer" class="s7" d="m11.8 242.6c1.1 1.2 2.4 2.1 3.8 3c0.6 0.3 0.5 0.3 0.5 0.8q0 2.2 0 4.5q-0.1 4.1-0.1 8.3c-2.8-1.7-5.6-4-7-7.1c-1.1-2.7-0.8-6-0.8-8.8q0-4.2 0.1-8.3c-0.1 2.9 1.5 5.6 3.5 7.6z"/>
		<path id="Layer" class="s8" d="m328.1 179.6l-0.1 13.3l-194.3 112.3l0.1-13.3z"/>
		<path id="Layer" class="s9" d="m96.3 291.9l-0.1 13.3l-80.2-46l0.1-13.3z"/>
		<path id="Layer" class="s7" d="m116.3 309.6c-4.4 0.1-8.9-0.3-13.2-1.5c-2.2-0.7-4.3-1.5-6.3-2.6c-0.6-0.3-0.5-0.2-0.6-0.6c0-0.3 0-0.6 0-0.9q0.1-6.1 0.1-12.1c2.5 1.4 5.3 2.4 8.1 3.1c4.7 1.2 9.9 1.6 14.8 1.1c5.1-0.4 10.2-1.7 14.6-4.2q0 0.9 0 1.9q0 3.9-0.1 7.7q0 1.5 0 3c0 0.2 0.1 0.5 0 0.6c-0.1 0.2-0.5 0.4-0.7 0.5q-0.8 0.4-1.6 0.7c-4.6 2.2-9.9 3.3-15.1 3.3z"/>
		<path id="Layer" class="s10" d="m328 158c10.3 6 10.4 15.6 0.1 21.6l-194.3 112.3c-10.3 5.9-27.2 5.9-37.5 0l-80.2-46c-10.4-6-10.5-15.6-0.1-21.7l194.3-112.2c10.4-6 27.1-6 37.5 0z"/>
		<path id="Layer" class="s5" d="m321.3 162.8c7.2 4 7.2 10.7 0.1 14.8l-194.4 112.3c-7 4.1-18.6 4.1-25.8 0l-80.2-46c-7.1-4.1-7.2-10.8 0-14.9l194.3-112.3c7.1-4.1 18.7-4.1 25.8 0z"/>
		<path id="Layer" fill-rule="evenodd" class="s11" d="m322.3 170.9l4.3 2.5l-0.3 0.2l-4.3-2.5l-4.9 2.9l4.3 2.4l-0.4 0.2l-4.3-2.5l-6.2 3.7l4.3 2.4l-0.3 0.2l-4.3-2.5l-6.3 3.7l4.3 2.4l-0.3 0.2l-4.3-2.5l-6.3 3.7l4.3 2.4l-0.3 0.1l-4.3-2.4l-6.2 3.7l4.3 2.4l-0.3 0.1l-4.3-2.4l-6.3 3.7l4.3 2.4l-0.3 0.1l-4.3-2.4l-6.3 3.7l4.3 2.4l-0.3 0.1l-4.2-2.4l-6.3 3.6l-0.3-0.2l6.3-3.5l-5.5-3.2l-6.2 3.7l5.4 3l0.3 0.2l4.2 2.5l-0.2 0.1l-4.3-2.4l-6.3 3.6l4.3 2.5l-0.3 0.1l-4.2-2.4l-6.3 3.6l4.2 2.5l-0.2 0.1l-4.3-2.4l-6.3 3.6l4.3 2.5l-0.3 0.1l-4.3-2.4l-6.3 3.6l4.4 2.5l-0.4 0.1l-4.3-2.4l-3.9 2.3l4.3 2.4l-0.3 0.2l-4.3-2.5l-4 2.3l4.3 2.5l-0.3 0.1l-4.3-2.4l-4.3 2.5l4.3 2.4l-0.3 0.2l-4.3-2.4l-6.3 3.6l4.3 2.4l-0.3 0.2l-4.3-2.5l-6.2 3.7l4.3 2.4l-0.3 0.2l-4.4-2.5l-6.2 3.7l4.3 2.4l-0.3 0.2l-4.3-2.5l-6.3 3.7l4.3 2.4l-0.3 0.2l-4.3-2.5l-6.3 3.7l4.3 2.4l-0.3 0.2l-4.3-2.5l-6.2 3.7l-0.3-0.2l6.3-3.6l-5.4-3.2l-6.3 3.7l-0.3-0.2l6.2-3.6l-5.3-3.2l-0.3-0.1l-5.5-3.2l-6.3 3.7l5.5 3.1l6.3-3.6l0.3 0.1l-6.3 3.7l5.4 3.1l0.3 0.2l5.4 3.1l0.3 0.2l4.3 2.4l-0.3 0.1l-4.3-2.4l-6.3 3.7l4.3 2.4l-0.3 0.1l-4.3-2.4l-6.3 3.7l4.3 2.4l-0.2 0.1l-4.3-2.4l-6.3 3.6l4.3 2.5l-0.3 0.1l-4.3-2.4l-6.2 3.6l4.2 2.5l-0.2 0.1l-4.3-2.4l-6.3 3.6l4.3 2.5l-0.3 0.1l-4.3-2.4l-6.3 3.6l4.3 2.5l-0.3 0.1l-4.3-2.4l-6.2 3.6l4.3 2.5l-0.3 0.1l-4.3-2.4l-6.3 3.6l-0.3-0.2l6.2-3.6l-5.3-3.1l-6.3 3.6l5.4 3.1l0.3 0.2l4.3 2.5l-0.3 0.1l-4.3-2.4l-6.3 3.5l4.3 2.5l-0.3 0.2l-4.3-2.4l-6.3 3.6l4.3 2.4l-0.3 0.2l-4.3-2.5l-6.2 3.6l-0.3-0.1l6.2-3.7l-5.3-3l-6.3 3.6l-0.3-0.2l6.2-3.6l-5.4-3.1l-6.3 3.6l5.5 3.1l0.3 0.2l5.4 3.1l0.3 0.1l4.3 2.5l-0.3 0.2l-4.3-2.5l-6.3 3.6l4.3 2.5l-0.3 0.2l-4.3-2.5l-4.6 2.7l-0.3-0.2l4.6-2.7l-5.4-3.1l-4.7 2.8l-0.2-0.3l4.6-2.6l-5.4-3.2l-4.7 2.8l-0.3-0.2l4.7-2.7l-5.5-3.1l-4.6 2.7l-0.3-0.2l4.7-2.7l-5.5-3.1l-4.6 2.7l-0.3-0.2l4.6-2.7l-5.3-3.1l-4.7 2.7l-0.3-0.2l4.7-2.7l-5.5-3l-4.6 2.7l-0.3-0.2l4.7-2.7l-5.5-3.1l-4.6 2.7l-0.3-0.2l4.6-2.7l-5.4-3.1l-4.7 2.7l-0.2-0.2l4.6-2.7l-5.4-3.1l-4.7 2.7l-0.3-0.1l4.7-2.8l-5.5-3l-4.6 2.6l-0.3-0.1l4.7-2.8l-5.4-3l-4.7 2.6l-0.3-0.1l4.7-2.8l-5.4-3l-4.7 2.7l-0.3-0.2l4.7-2.7l-5.5-3.1l-4.6 2.7l-0.3-0.2l4.6-2.7l-5.4-3.1l-4.6 2.7l-0.3-0.1l4.6-2.8l-5.4-3l-4.7 2.6l-0.3-0.1l4.7-2.8l-5.4-3l-4.7 2.6l-0.3-0.1l4.7-2.7l-5.4-3.1l-4.7 2.6l-0.3-0.1l4.7-2.7l-4.4-2.5l0.3-0.2l4.4 2.5l6.2-3.6l-4.3-2.5l0.2-0.2l4.4 2.5l6.3-3.6l-4.4-2.5l0.3-0.2l4.4 2.5l6.3-3.5l-4.4-2.6l0.3-0.2l4.4 2.5l6.3-3.5l-4.5-2.6l0.3-0.2l4.5 2.5l6.2-3.5l-4.4-2.6l0.3-0.2l4.4 2.6l6.3-3.6l-4.4-2.6l0.3-0.1l4.4 2.5l6.3-3.6l-4.5-2.6l0.3-0.1l4.5 2.5l6.2-3.6l-4.4-2.6l0.3-0.1l4.4 2.5l6.3-3.6l-4.4-2.6l0.3-0.1l4.3 2.5l6.3-3.6l-4.3-2.6l0.3-0.1l4.3 2.5l0.3 0.2l5.5 3.1l6.2-3.7l-5.4-3.1l-6.3 3.7l-0.3-0.2l6.3-3.6l-4.4-2.6l0.3-0.1l4.4 2.5l6.2-3.6l-4.3-2.6l0.3-0.1l4.3 2.5l6.3-3.6l-4.3-2.6l0.3-0.1l4.3 2.5l6.3-3.6l-4.4-2.6l0.3-0.1l4.4 2.5l6.3-3.6l-4.4-2.5l0.2-0.2l4.5 2.5l6.2-3.6l-4.4-2.5l0.3-0.2l4.4 2.5l6.3-3.6l-4.4-2.5l0.3-0.2l4.4 2.5l6.3-3.5l-4.5-2.6l0.3-0.2l4.5 2.5l0.3 0.3l5.4 3l0.3 0.2l5.4 3.1l4.3-2.5l-5.4-3.1l-4.3 2.5l-0.3-0.2l4.3-2.5l-5.4-3.1l-4.3 2.6l-0.3-0.3l4.3-2.5l-4.4-2.5l0.3-0.1l4.4 2.5l4-2.3l-4.4-2.5l0.3-0.2l4.3 2.6l4-2.3l-4.4-2.6l0.3-0.2l4.4 2.5l6.3-3.5l-4.4-2.6l0.3-0.2l4.4 2.6l0.2 0.2l5.5 3l6.2-3.6l-5.4-3.1l-6.3 3.7l-0.2-0.2l6.3-3.6l-4.5-2.6l0.3-0.1l4.4 2.5l6.3-3.6l-4.4-2.6l0.3-0.1l4.4 2.5l6.3-3.6l-4.4-2.6l0.3-0.1l4.3 2.5l6.3-3.6l-4.4-2.6l0.3-0.1l4.4 2.5l6.3-3.6l-4.4-2.6l0.3-0.1l4.4 2.5l6.2-3.6l-4.3-2.6l0.3-0.1l4.3 2.5l6.3-3.6l-4.3-2.6l0.2-0.1l4.4 2.5l6.3-3.6l-4.4-2.6l0.3-0.1l4.4 2.5l6.2-3.6l-4.3-2.5l0.2-0.2l4.5 2.5l6.2-3.6l-4.4-2.5l0.3-0.2l4.4 2.5l5-2.8l-4.4-2.5l0.2-0.2l4.5 2.5l6.4-3.7l0.2 0.2l-6.3 3.7l5.4 3.1l6.4-3.7l0.3 0.1l-6.4 3.7l5.4 3.2l6.4-3.7l0.3 0.1l-6.4 3.7l5.4 3.1l6.4-3.6l0.3 0.1l-6.4 3.7l5.4 3.1l6.4-3.6l0.3 0.1l-6.4 3.7l5.4 3.1l6.4-3.7l0.3 0.2l-6.4 3.6l5.5 3.2l6.3-3.7l0.3 0.2l-6.3 3.6l5.4 3.2l6.4-3.7l0.3 0.1l-6.4 3.7l5.4 3.1l6.4-3.6l0.3 0.1l-6.5 3.7l5.5 3.1l0.3 0.2l5.4 3.1l6.4-3.7l0.3 0.2l-6.4 3.6l5.4 3.2l6.4-3.7l0.3 0.2l-6.4 3.6l5.5 3.2l6.3-3.7l0.3 0.1l-6.4 3.7l5.5 3.2l6.4-3.7l0.2 0.1l-6.3 3.7l5.3 3.1l6.5-3.7l0.3 0.2l-6.5 3.7l5.5 3.1l6.4-3.7l0.3 0.2l-6.4 3.7l5.4 3.1l6.4-3.7l0.2 0.2l-6.3 3.6l5.4 3.2l6.4-3.8l0.3 0.3zm-11.7-6.5l5.4 3.2l-5 2.8l-5.4-3.1zm-125.8-13.2l-6.3 3.6l0.3 0.2l6.3-3.6l5.4 3.1l-6.2 3.6l0.2 0.2l6.3-3.6l5.4 3.1l-6.2 3.6l0.3 0.1l6.2-3.6l5.4 3.1l-6.3 3.7l-5.3-3.1l-0.3-0.2l-5.5-3.1l-0.2-0.2l-5.5-3.1l-0.3-0.2l-5.4-3.1l6.3-3.6zm-124.5 72.3l5.5 3l-6.3 3.7l-5.5-3.2zm181.3-84.9l5.5 3.1l-6.3 3.6l0.3 0.1l6.3-3.5l5.4 3l-6.3 3.7l0.3 0.1l6.3-3.5l5.3 3l-6.2 3.7l0.3 0.1l6.3-3.6l5.4 3.1l-6.3 3.7l-5.4-3.2l-0.3-0.1l-5.4-3.2l-0.3-0.1l-5.4-3.2l-0.3-0.1l-5.5-3.1zm27.8 23.4l5.4 3.2l-6.3 3.6l-5.4-3.1zm-6.6 3.5l-5.4-3.2l6.3-3.5l5.4 3zm-128.5 54.9l6.3-3.7l5.4 3.2l-6.2 3.5zm9.4 20.6l-5.4-3.1l6.2-3.6l5.5 3.1zm6.5-3.5l5.5 3.2l-6.3 3.5l-5.5-3zm-72.8-4.1l5.4 3.2l-6.2 3.6l-5.5-3.1zm-6.5 3.4l-5.5-3l6.3-3.7l5.5 3.2zm32.8-18.7l5.4 3.1l-6.2 3.6l-5.5-3.1zm20-11.5l6.3-3.7l5.4 3.1l-6.3 3.7l0.3 0.1l6.3-3.6l5.4 3.1l-6.2 3.7l-5.5-3.2l-0.3-0.1l-5.4-3.1l-0.3-0.2l-5.4-3.1l6.3-3.6l5.4 3.1l-6.3 3.6zm121.3-43.8l6.3-3.6l5.5 3.1l-6.3 3.6l-5.5-3.1l-0.3-0.2l-5.4-3l6.3-3.7l5.4 3.2l-6.3 3.5zm-54.7 31.7l5.4 3.1l-4.3 2.5l-5.4-3.1zm-0.1-0.3l-5.4-3.2l4.1-2.3l5.3 3.1zm0.3 0.2l4-2.3l5.5 3.1l-4.1 2.3zm4.1-2.6l-5.5-3.1l4-2.3l5.4 3.1zm-1.2-5.5l6.3-3.7l5.4 3.1l-6.3 3.6zm32.6-18.8l5.4 3.2l-6.3 3.6l-5.4-3.1zm0-0.4l-5.4-3.1l6.2-3.6l5.5 3.1zm0.3 0.2l6.3-3.7l5.4 3.2l-6.3 3.6zm6.6-3.8l6.2-3.6l5.5 3.1l-6.3 3.6zm-0.3-0.1l-5.4-3.2l6.2-3.6l5.5 3.1zm-5.8-3.3l-5.4-3.1l6.3-3.6l5.4 3.1zm-5.7-3.2l-5.4-3.2l6.3-3.6l5.4 3.1zm5.4 3.4l-6.2 3.7l-5.5-3.2l6.2-3.5zm-6.2 3.9l5.5 3.1l-6.3 3.6l-5.5-3zm-0.8 7l5.4 3.1l-6.3 3.7l-5.4-3.2zm-0.8 7.1l5.3 3.2l-6.2 3.5l-5.4-3zm-0.3-0.3l-6.3 3.7l-5.4-3.2l6.3-3.5zm-6.6 3.8l-6.3 3.6l-5.4-3.1l6.3-3.7zm-6.3 4l5.4 3.1l-6.3 3.6l-5.4-3.1zm5.7 3.3l5.5 3.1l-6.3 3.6l-5.4-3.1zm0.3-0.1l-0.4-0.2l-5.3-3.1l6.2-3.7l5.4 3.2l0.3 0.1l5.5 3.1l-6.3 3.7zm6.5-3.8l6.3-3.7l5.4 3.2l-6.2 3.6zm0.8-7.1l6.3-3.6l5.4 3.1l-6.3 3.6zm6.6-3.8l6.3-3.6l5.4 3.1l-6.3 3.7zm6.6-3.8l6.2-3.7l5.5 3.1l-6.3 3.7zm6.6-3.8l6.3-3.7l5.4 3.2l-6.3 3.6zm0.6-7.3l-5.5-3.1l6.3-3.6l5.4 3.1zm-5.6-3.3l-5.5-3.1l6.2-3.6l5.5 3.1zm-5.7-3.3l-5.4-3.1l6.2-3.6l5.5 3.1zm-5.8-3.3l-5.3-3.1l6.2-3.6l5.4 3.1zm-0.3 0.2l-6.3 3.6l-5.3-3.1l6.2-3.7zm-0.9 7.1l-6.2 3.7l-5.4-3.2l6.3-3.6zm-6.3 4l5.4 3.1l-6.3 3.6l-5.4-3.1zm4.6 10.2l-6.3 3.6l-5.4-3.1l6.2-3.6zm-6.6 3.7l-6.2 3.7l-5.4-3.2l6.3-3.5zm-6.6 3.8l-6.3 3.5l-5.4-3l6.2-3.7zm-6.5 3.8l-6.3 3.7l-5.4-3.1l6.3-3.7zm-12 0.4l-5.4-3.2l6.2-3.5l5.5 3zm5.4 3.5l-3.9 2.3l-5.5-3.1l4-2.3zm-4.3 2.4l-4 2.3l-5.4-3.1l4-2.3zm-4 2.6l5.4 3.2l-4.3 2.5l-5.4-3.2zm0.8 5.8l-6.2 3.7l-5.5-3.2l6.3-3.6zm-12 0.7l5.4 3.1l-6.3 3.6l-5.4-3.1zm-6.5 3.5l-5.5-3.2l6.3-3.5l5.4 3zm6.6-3.8l-5.4-3l6.3-3.7l5.4 3.2zm-5.7-3.3l-5.5-3.2l6.3-3.6l5.5 3.1zm-0.3 0.2l-6.3 3.6l-5.5-3.1l6.3-3.6zm-6.5 3.8l-6.3 3.6l0.3 0.2l6.2-3.7l5.5 3.2l-6.3 3.5l-5.4-3l-0.3-0.2l-5.4-3.1l6.2-3.7zm-6.5 3.8l-6.3 3.7l-5.4-3.1l6.3-3.7zm-52 30.4l6.3-3.7l5.4 3.2l-6.3 3.6zm5.1 3.3l-6.2 3.6l-5.5-3.1l6.3-3.6zm1.5-7.1l6.2-3.7l5.4 3.2l-6.2 3.6zm-0.3-0.2l-5.4-3.1l6.2-3.6l5.5 3.1zm-0.3 0.2l-6.3 3.6l-5.4-3.1l6.2-3.7zm-6.5 3.8l-6.3 3.7l-5.4-3.2l6.3-3.5zm-6.6 3.7l-6.3 3.6l-5.4-3l6.3-3.7zm0.2 0.1l5.5 3.2l-6.3 3.6l-5.4-3.1zm5.7 3.3l5.4 3.1l-6.3 3.6l-5.4-3.1zm0.3-0.2l6.3-3.6l5.4 3.1l-6.3 3.7zm6.6-3.8l6.3-3.7l5.4 3.2l-6.3 3.6l0.3 0.2l6.3-3.7l5.4 3.1l-6.3 3.6l-5.4-3l-0.3-0.2zm17.7 2.9l5.4 3.1l-6.3 3.6l-5.3-3.1zm0.3-0.2l6.2-3.6l5.4 3.1l-6.2 3.7zm-0.4-0.2l-5.3-3.1l6.2-3.7l5.4 3.2zm-5.7-3.3l-5.4-3.1l6.3-3.6l5.4 3zm-4.6-10.1l6.3-3.7l5.5 3.2l-6.3 3.6zm6.6-3.8l6.2-3.6l5.4 3.1l-6.3 3.6zm0.9-7.1l6.3-3.6l5.4 3.1l-6.3 3.7zm5.8 3.3l6.2-3.7l5.4 3.1l-6.2 3.6zm6.5-3.8l6.3-3.6l5.4 3.1l-6.3 3.7zm12.1-0.4l5.3 3.1l-6.2 3.7l-5.4-3.2zm-5.5-3.4l6.3-3.6l5.5 3.1l-6.3 3.6zm5.9-3.8l-6.2 3.6l-5.5-3.1l6.3-3.6zm-12 0.3l-5.4-3l6.3-3.7l5.4 3.1zm-12.3 0.9l5.4 3.1l-6.3 3.6l-5.3-3.1zm4.6 10.2l-6.3 3.6l-5.5-3.1l6.3-3.6zm-6.6 3.8l-6.3 3.6l-5.3-3.1l6.2-3.7zm-12 0.4l-5.4-3.2l6.3-3.5l5.4 3zm-6.8 4.1l-6.3 3.5l-5.5-3l6.3-3.7zm-6.6 3.8l-6.3 3.6l-5.3-3.1l6.2-3.6zm-6.5 3.8l-6.3 3.6l-5.4-3.1l6.2-3.6zm-6.2 3.9l5.4 3.1l-6.3 3.7l-5.4-3.2zm5.7 3.3l5.4 3.1l-6.3 3.7l0.3 0.1l6.3-3.6l5.4 3.1l-6.3 3.7l0.3 0.1l6.3-3.6l5.5 3.1l-6.3 3.7l-5.5-3.2l-0.3-0.1l-5.4-3.2l-0.3-0.1l-5.4-3.1zm11.7 6.4l6.3-3.7l5.5 3.2l-6.3 3.5zm6.5-3.8l6.3-3.5l5.4 3l-6.3 3.7zm12-0.4l5.5 3.1l-6.3 3.7l-5.5-3.1zm5.8 3.2l5.4 3.2l-6.3 3.6l-5.4-3.1zm0.3-0.2l6.3-3.6l5.4 3.1l-6.3 3.6zm6.6-3.8l6.3-3.6l5.3 3.1l-6.2 3.6zm6.2-4l-5.4-3l6.3-3.7l5.4 3.2zm-5.7-3.3l-5.4-3.2l-0.3-0.1l-5.5-3.1l6.3-3.7l5.5 3.1l-6.3 3.7l0.3 0.1l6.3-3.6l5.4 3.1zm-4.6-10.1l6.3-3.7l5.4 3.2l-6.2 3.5zm18.5-4l5.4 3l-6.2 3.7l-5.5-3.2zm5.7 3.3l5.5 3.2l-6.3 3.6l-5.5-3.1zm-5.3-3.5l6.2-3.6l5.4 3.1l-6.3 3.6zm6.3-3.9l-5.4-3.2l6.3-3.5l5.4 3zm1.2-6.8l-0.3-0.3l-5.4-3l6.3-3.7l5.3 3.1l-6.2 3.6l0.3 0.3l6.2-3.7l5.4 3.1l-6.3 3.6zm6.6-3.8l6.3-3.6l5.5 3.1l-6.3 3.6zm11.9-0.3l5.5 3.1l-6.3 3.7l-5.4-3.2zm0.3-0.1l6.3-3.7l5.4 3.2l-6.3 3.5zm6.5-3.7l6.3-3.6l5.5 3.1l-6.3 3.6zm12-0.4l5.4 3.2l-6.3 3.6l-5.4-3.1zm5.7 3.3l5.5 3.1l-6.3 3.6l-5.5-3.1zm-5.4-3.5l4.4-2.5l5.3 3.2l-4.3 2.5zm8.9-5.2l-0.3-0.2l-5.4-3.1l4-2.3l5.4 3.2l-4 2.2l0.3 0.2l3.9-2.3l5.5 3.1l-4 2.3l0.3 0.2l4-2.3l5.4 3.1l-3.9 2.3l-5.5-3.1l-0.3-0.2zm-4.2 2.5l4-2.3l5.4 3.1l-4 2.3zm14.2-1.7l6.3-3.5l5.4 3l-6.2 3.7zm6.5-3.8l6.3-3.7l5.4 3.2l-6.3 3.6zm6.6-3.8l6.2-3.6l5.5 3.1l-6.2 3.6zm0.7-7.1l6.3-3.6l5.5 3.1l-6.3 3.6zm6.6-3.8l6.3-3.6l5.3 3.1l-6.2 3.7zm6.5-3.8l6.3-3.7l5.5 3.2l-6.3 3.6zm12-0.4l5.4 3.2l-6.3 3.6l-5.4-3.1zm-5.5-3.5l6.3-3.6l5.4 3.1l-6.2 3.6zm6.6-3.8l6.2-3.6l5.4 3.1l-6.3 3.7zm6.3-4l-5.4-3.1l6.3-3.7l5.4 3.2zm-5.7-3.3l-5.4-3.1l6.3-3.7l5.3 3.1zm-5.6-3.2l-5.5-3.1l6.3-3.7l5.4 3.2zm-5.6-3.3l-5.5-3.1l6.2-3.7l5.5 3.1zm-5.7-3.2l-5.4-3.2l6.2-3.6l5.5 3.1zm-5.8-3.3l-5.3-3l6.2-3.7l5.4 3.1zm-5.7-3.2l-5.4-3.2l6.3-3.6l5.4 3.1zm-0.3 0.2l-6.3 3.6l-5.4-3.1l6.3-3.6zm-6.6 3.8l-6.2 3.6l-5.5-3.1l6.3-3.7zm-6.6 3.8l-6.3 3.7l0.3 0.1l6.3-3.6l5.5 3.1l-6.3 3.7l-5.5-3.2l-0.3-0.1l-5.4-3.1l6.3-3.7zm-0.6 7.3l5.5 3.1l-6.3 3.6l-5.4-3.1zm4.5 10.2l-6.2 3.6l-5.5-3.1l6.3-3.6zm-6.5 3.8l-6.3 3.6l-5.4-3.1l6.2-3.6zm-6.6 3.8l-6.2 3.6l-5.4-3.1l6.3-3.7zm-12.1 0.4l-5.4-3.1l6.3-3.7l5.4 3.2zm-5.7-3.3l-5.4-3.2l6.3-3.5l5.4 3zm0 0.4l5.4 3.1l-6.3 3.6l-5.4-3.1zm4.6 10.2l-3.9 2.3l-5.5-3.1l4-2.3zm-4.3 2.5l-4 2.3l-5.4-3.2l4-2.3zm-4.3 2.5l-4.3 2.5l0.3 0.2l4.3-2.5l5.4 3l-4.3 2.5l-5.4-3l-0.3-0.2l-5.4-3.1l4.3-2.5zm-10.1-0.8l-5.4-3.1l4.4-2.5l5.3 3.1zm-0.3 0.2l-6.2 3.6l-5.4-3.1l6.3-3.7zm-6.6 3.8l-6.3 3.7l-5.4-3.2l6.2-3.5zm-6.5 3.8l-6.3 3.5l-5.4-3l6.3-3.7zm-6.6 3.8l-6.3 3.7l-5.4-3.2l6.3-3.6zm-12.1 0.3l-5.3-3.1l6.2-3.6l5.4 3.1zm-5.7-3.3l-5.3-3.1l6.2-3.6l5.4 3.1zm-0.3 0.1l-6.3 3.7l0.3 0.2l6.3-3.7l5.5 3.1l-6.3 3.7l-5.5-3.1l-0.3-0.2l-5.3-3.1l6.2-3.6zm-6.5 3.7l-6.3 3.7l-5.5-3.2l6.3-3.5zm-6.3 3.9l5.5 3.1l-6.3 3.6l-5.5-3zm-1 6.8l0.3 0.2l5.3 3.1l-6.2 3.6l-5.4-3.1l-0.3-0.1l-5.5-3.2l6.3-3.5zm-6.6 3.7l-6.3 3.6l-5.3-3.1l6.2-3.6zm-6.5 3.8l-6.3 3.6l-5.4-3.1l6.3-3.6zm-6.6 3.8l-6.3 3.6l-5.4-3.1l6.2-3.6zm-6.5 3.7l-6.3 3.7l-5.4-3.2l6.3-3.5zm-12.1 0.3l-5.3-3.1l6.2-3.7l5.4 3.2zm-0.2 0.1l-6.3 3.7l0.2 0.1l6.3-3.6l5.5 3.1l-6.3 3.7l-5.5-3.2l-0.2-0.1l-5.4-3.2l6.2-3.6zm-6.5 3.8l-6.3 3.6l-5.4-3.1l6.3-3.6zm-6.6 3.8l-6.3 3.6l-5.4-3.1l6.2-3.6zm0.3 0.1l5.5 3.2l-6.3 3.6l-5.4-3.1zm5.7 3.2l5.4 3.2l-6.2 3.6l-5.5-3.1zm5.8 3.3l5.4 3l-6.3 3.7l0.3 0.1l6.3-3.5l5.3 3l-6.2 3.7l-5.4-3.2l-0.3-0.1l-5.4-3.1zm11.4 6.5l5.4 3.2l-6.3 3.6l-5.4-3.1zm5.7 3.3l5.5 3l-6.3 3.7l-5.5-3.2zm5.8 3.3l5.4 3.2l-6.3 3.6l-5.4-3.1zm0.3-0.2l6.2-3.6l5.5 3.1l-6.3 3.6zm6.6-3.8l6.3-3.6l5.4 3.1l-6.3 3.6zm12-0.4l5.4 3.2l-6.2 3.6l-5.5-3.1zm5.8 3.3l5.3 3.1l-6.2 3.6l-5.4-3.1zm0.3-0.2l6.3-3.6l5.3 3.1l-6.2 3.7zm6.5-3.8l6.3-3.7l5.4 3.2l-6.3 3.6zm6.6-3.8l6.3-3.6l5.4 3.1l-6.2 3.6zm11.9-0.3l5.5 3l-6.3 3.7l-5.4-3.1zm0.3-0.2l6.2-3.6l5.5 3.1l-6.3 3.6zm0.8-7l-0.3-0.2l-5.3-3.1l-0.4-0.2l-5.4-3.1l-0.3-0.2l-5.4-3l6.3-3.7l5.4 3.1l-6.3 3.6l0.3 0.2l6.3-3.6l5.4 3.1l-6.3 3.6l0.4 0.2l6.2-3.6l5.4 3.1l-6.3 3.6l0.3 0.2l6.3-3.7l5.4 3.2l-6.2 3.6zm0.8-7.1l6.3-3.6l5.4 3.1l-6.3 3.6zm0.9-7.1l6.2-3.6l5.5 3.1l-6.3 3.7zm6.3-4l-5.5-3.1l6.3-3.7l5.5 3.2zm1.1-7l6.2-3.5l5.5 3l-6.3 3.7l0.3 0.1l6.3-3.6l5.4 3.1l-6.3 3.7l-5.4-3.2l-0.3-0.1zm12.3-0.5l6.3-3.7l5.4 3.2l-6.3 3.6zm6.6-3.8l6.2-3.6l5.5 3.1l-6.3 3.6zm12-0.3l5.5 3l-6.3 3.7l-5.5-3.2zm5.7 3.3l5.5 3.2l-6.3 3.6l-5.5-3.1zm0.3-0.2l6.3-3.6l5.5 3.1l-6.3 3.6zm6.3-3.9l-5.5-3.2l4.3-2.4l5.5 3.1zm-0.8-5.8l3.9-2.3l5.5 3.1l-4.1 2.3zm9.8 1l5.4 3.1l-4 2.3l-5.4-3.1zm0.3-0.2l3.9-2.3l5.4 3.2l-3.9 2.3zm9.7 1l5.4 3l-3.9 2.3l-5.5-3.1zm0.3-0.2l-0.3-0.1l-5.4-3.2l6.3-3.5l5.4 3l-6.3 3.7l0.3 0.1l6.3-3.5l5.4 3l-6.3 3.7zm0.9-7.1l6.2-3.7l5.5 3.2l-6.3 3.6zm6.6-3.8l6.3-3.6l5.4 3.1l-6.3 3.6zm0.9-7.1l6.3-3.5l5.3 3l-6.2 3.7zm6.5-3.8l6.3-3.7l5.5 3.1l-6.3 3.7zm12-0.4l5.3 3.2l-6.2 3.5l-5.4-3zm0.3-0.2l6.3-3.6l5.3 3.1l-6.2 3.6zm0.9-7.1l6.2-3.6l5.4 3.1l-6.3 3.7zm6.6-3.8l6.3-3.7l5.5 3.2l-6.3 3.5zm11.9-0.3l5.4 3.1l-6.2 3.7l-5.4-3.2zm0.3-0.1l6.2-3.7l5.4 3.2l-6.3 3.6zm12.1-0.4l5.4 3.2l-6.3 3.6l-5.4-3.1zm0.2-0.2l6.3-3.6l5.5 3.1l-6.3 3.6zm-0.3-0.1l-5.4-3.2l6.3-3.6l5.4 3.1zm-5.7-3.3l-5.5-3.1l6.3-3.6l5.5 3.1zm-5.8-3.3l-5.4-3l6.3-3.7l5.4 3.1zm-5.7-3.2l-5.4-3.2l6.3-3.6l5.3 3.1zm-28.5-16.4l-5.5-3.1l6.3-3.6l5.5 3.1zm-5.7-3.3l-5.5-3.1l6.3-3.6l5.5 3.1zm-5.8-3.3l-5.4-3.1l6.3-3.6l5.4 3.1zm-0.3 0.1l-6.3 3.7l-5.4-3.1l6.3-3.7zm-6.6 3.8l-6.3 3.7l-5.3-3.2l6.2-3.6zm-6.5 3.8l-6.3 3.6l-5.5-3.1l6.3-3.6zm-6.6 3.8l-6.2 3.6l-5.4-3.1l6.2-3.7zm-6.5 3.8l-6.3 3.7l-5.4-3.1l6.3-3.7zm0.2 0.2l5.5 3.1l-6.3 3.7l-5.5-3.2zm5.8 3.3l5.4 3.1l-6.3 3.7l-5.4-3.1zm4.5 10.1l-6.2 3.6l-5.4-3.1l6.3-3.6zm-6.6 3.8l-6.3 3.6l-5.4-3.1l6.3-3.6zm-12 0.4l-5.4-3.2l6.2-3.6l5.4 3.1zm-5.7-3.3l-5.4-3l6.3-3.7l5.4 3.2zm-5.7-3.3l-5.5-3.2l6.3-3.6l5.5 3.1zm0 0.4l5.4 3l-6.3 3.7l-5.4-3.2zm-1.2 7l-6.3 3.6l0.4 0.2l6.2-3.7l5.5 3.2l-6.3 3.6l-5.4-3.1l-0.4-0.2l-5.3-3.1l6.2-3.7zm4.9 10.4l-4 2.3l-5.4-3.1l3.9-2.3zm-4.2 2.5l-4 2.3l-5.4-3.1l4-2.4zm-9.7-0.9l-5.4-3.2l4-2.3l5.4 3.1zm-3.2-11.3l-4 2.3l0.3 0.2l4-2.3l5.4 3.1l-3.9 2.3l0.3 0.1l3.9-2.2l5.4 3.1l-4 2.3l-5.3-3.2l-0.3-0.1l-5.5-3.1l-0.3-0.2l-5.4-3.1l3.9-2.3zm-2.5 8.4l5.5 3.1l-4.3 2.5l-5.5-3.1zm0.8 5.7l-6.3 3.7l-5.3-3.1l6.2-3.6zm-6.5 3.8l-6.3 3.6l-5.5-3.1l6.3-3.7zm-6.5 3.8l-6.3 3.7l-5.4-3.1l6.2-3.7zm-11.9 0.4l-5.5-3.2l6.3-3.5l5.5 3zm-5.8-3.3l-5.4-3l6.3-3.7l5.4 3.2zm-0.3 0.1l-6.3 3.7l-5.4-3.2l6.3-3.6zm-6.6 3.8l-6.3 3.6l-5.4-3.1l6.3-3.6zm-6.6 3.8l-6.2 3.6l-5.5-3.1l6.3-3.6zm-6.3 3.9l5.5 3.1l-6.3 3.7l-5.5-3.1zm-1.1 6.8l-6.2 3.7l-5.5-3.2l6.3-3.5zm-6.6 3.8l-6.3 3.5l-5.3-3l6.2-3.7zm-6.5 3.8l-6.3 3.7l-5.5-3.2l6.3-3.6zm-6.5 3.8l-6.3 3.6l-5.4-3.1l6.2-3.6zm-11.9 0.3l-5.5-3.1l6.3-3.6l5.4 3.1zm-0.3 0.2l-6.2 3.6l-5.5-3.1l6.3-3.7zm-6.6 3.8l-6.3 3.7l-5.4-3.2l6.3-3.5zm-13.1 7.6l-6.3 3.5l-5.4-3l6.3-3.7zm-6.6 3.8l-6.2 3.6l0.2 0.2l6.3-3.6l5.4 3.1l-6.3 3.6l0.3 0.2l6.3-3.7l5.4 3.2l-6.3 3.6l-5.4-3.1l-0.3-0.2l-5.4-3.1l-0.2-0.2l-5.5-3.1l6.2-3.6zm11.8 6.7l5.4 3.1l-6.3 3.7l-5.3-3.2zm5.6 3.3l5.5 3.2l-6.3 3.5l-5.4-3zm5.6 3.3l5.5 3l-6.2 3.7l-5.5-3.2zm5.7 3.3l5.4 3.2l-6.2 3.6l-5.5-3.1zm5.8 3.3l5.4 3.1l-6.3 3.6l-5.4-3.1zm5.7 3.2l5.4 3.2l-6.3 3.6l-5.4-3.1zm5.7 3.3l5.5 3.1l-6.3 3.6l-5.5-3.1zm0.3-0.2l6.3-3.6l5.4 3.1l-6.3 3.6zm6.6-3.8l6.3-3.6l5.4 3.1l-6.2 3.7zm11.9-0.4l5.5 3.1l-6.3 3.6l-5.5-3zm5.8 3.2l5.4 3.1l-6.3 3.7l-5.4-3.2zm0.3-0.1l6.2-3.7l5.5 3.2l-6.3 3.6zm6.6-3.8l6.3-3.6l5.4 3.1l-6.3 3.6zm6.6-3.8l6.2-3.6l5.5 3.1l-6.3 3.6zm12-0.3l5.4 3.1l-6.3 3.6l-5.4-3.1zm0.3-0.2l6.3-3.6l5.4 3.1l-6.3 3.6zm6.6-3.8l6.3-3.5l5.4 3l-6.3 3.7zm0.9-7.1l6.2-3.7l5.5 3.2l-6.3 3.6zm0.8-7l6.3-3.7l5.5 3.2l-6.3 3.5zm0.8-7l6.3-3.6l5.5 3l-6.3 3.7zm6.5-3.8l-0.3-0.1l-5.4-3.2l6.2-3.6l5.5 3.1l0.3 0.2l5.4 3.1l-6.3 3.7zm6.6-3.8l6.3-3.7l5.4 3.1l-6.3 3.6zm6.6-3.8l6.2-3.6l5.5 3.1l-6.3 3.6zm12-0.3l5.4 3.1l-6.2 3.7l-5.5-3.2zm5.7 3.3l5.5 3.2l-6.3 3.5l-5.5-3zm0.3-0.3l6.3-3.5l5.5 3l-6.3 3.7zm6.6-3.8l6.3-3.7l5.3 3.2l-6.2 3.6zm11.9-0.3l5.5 3.1l-6.3 3.6l-5.5-3.1zm-5.3-3.5l-0.3-0.1l-5.4-3.2l4.2-2.5l5.5 3.2l-4.3 2.5l0.3 0.1l4.3-2.5l5.4 3.2l-4.4 2.5zm4.7-2.7l4-2.3l5.4 3.1l-4 2.3zm9.7 0.9l5.4 3.2l-4 2.3l-5.4-3.1zm0.3-0.2l4-2.2l5.4 3l-4 2.3zm4.3-2.4l6.2-3.6l5.5 3.1l-6.3 3.6zm6.3-4l-5.5-3.1l6.3-3.6l5.5 3.1zm1.1-6.9l6.3-3.6l5.4 3.1l-6.2 3.6zm6.5-3.8l-0.3-0.1l-5.4-3.2l6.3-3.6l5.4 3.1l-6.3 3.7l0.3 0.1l6.3-3.6l5.4 3.1l-6.3 3.7l0.3 0.1l6.3-3.6l5.4 3.1l-6.3 3.7l-5.4-3.2l-0.3-0.1zm6.6-3.8l6.2-3.7l5.5 3.2l-6.3 3.5zm6.6-3.8l6.3-3.5l5.4 3l-6.3 3.7zm6.6-3.8l-0.3-0.2l-5.4-3.1l6.3-3.6l5.3 3.1l-6.2 3.6l0.3 0.2l6.2-3.6l5.5 3.1l-6.3 3.6zm6.5-3.8l6.3-3.6l5.5 3.1l-6.3 3.6zm12-0.3l5.4 3.1l-6.3 3.6l-5.4-3.1zm0.3-0.2l6.3-3.6l5.4 3.1l-6.3 3.7zm6.6-3.8l6.2-3.7l5.5 3.2l-6.3 3.5zm6.6-3.7l6.3-3.6l5.4 3.1l-6.3 3.6zm-0.3-0.1l-5.4-3.2l6.3-3.6l5.4 3.1zm-5.7-3.3l-5.4-3.1l6.3-3.6l5.3 3.1zm-5.7-3.3l-5.4-3.1l6.3-3.6l5.4 3.1zm-5.7-3.3l-5.4-3.1l6.2-3.6l5.5 3.1zm-5.8-3.3l-5.4-3.1l6.3-3.6l5.4 3.1zm-5.7-3.3l-5.4-3.1l6.3-3.6l5.3 3.1zm-5.6-3.3l-5.5-3.1l6.3-3.6l5.4 3.1zm-5.7-3.3l-5.4-3.1l6.2-3.7l5.5 3.2zm-5.7-3.3l-5.5-3.1l6.3-3.6l5.5 3.1zm-5.8-3.3l-5.4-3.1l6.3-3.7l5.4 3.2zm-5.7-3.3l-5.4-3.1l6.3-3.6l5.3 3zm-5.6-3.2l-5.5-3.1l6.3-3.6l5.4 3.1zm-5.7-3.3l-5.4-3.1l6.2-3.7l5.5 3.2zm-0.3 0.1l-6.3 3.7l-5.4-3.2l6.2-3.6zm-6.5 3.8l-6.3 3.6l-5.4-3l6.3-3.7zm-6.6 3.8l-6.3 3.6l-5.4-3.1l6.3-3.6zm-6.5 3.7l-6.3 3.7l-5.5-3.1l6.3-3.6zm-6.6 3.8l-6.3 3.6l-5.3-3.1l6.2-3.6zm-6.5 3.7l-6.3 3.7l-5.5-3.1l6.3-3.7zm-13.1 7.6l-6.3 3.7l-5.4-3.2l6.3-3.6zm-6.3 4l5.4 3l-6.3 3.7l-5.4-3.1zm-1.1 6.9l-6.3 3.6l-5.4-3.1l6.3-3.6zm-9.1 11.8l-5.4-3.1l4-2.3l5.3 3.1zm-1.6-5.5l-4 2.2l-5.5-3.1l4-2.3zm-4 2.7l5.5 3l-4.4 2.5l-5.4-3zm0.8 5.7l-6.3 3.6l-5.3-3l6.2-3.7zm-6.5 3.8l-6.3 3.6l-5.5-3.1l6.3-3.7zm-12 0.4l-5.4-3.1l6.3-3.6l5.4 3.1zm-5.7-3.3l-5.4-3.1l6.2-3.6l5.5 3.1zm-0.3 0.2l-6.3 3.6l-5.4-3.1l6.3-3.7zm-6.6 3.8l-6.3 3.7l-5.4-3.2l6.3-3.5zm-6.6 3.8l-6.3 3.5l-5.3-3l6.2-3.7zm-6.5 3.8l-6.3 3.7l-5.5-3.2l6.3-3.6zm-6.6 3.8l-6.3 3.6l0.3 0.2l6.3-3.6l5.5 3l-6.3 3.7l-5.5-3.1l-0.3-0.2l-5.3-3.1l6.2-3.6zm-6.2 3.9l5.3 3.2l-6.2 3.6l-5.4-3.1zm-1.2 6.9l-6.3 3.6l-5.3-3.1l6.2-3.6zm-6.5 3.7l-6.3 3.7l-5.5-3.2l6.3-3.5zm-12 0.3l-5.4-3.1l6.3-3.7l5.4 3.2zm-0.3 0.1l-6.3 3.7l-5.3-3.2l6.2-3.6zm-6.6 3.8l-6.2 3.6l-5.5-3.1l6.3-3.6zm-6.5 3.8l-6.3 3.6l-5.4-3.1l6.2-3.6zm-6.5 3.8l-6.3 3.6l-5.4-3.1l6.3-3.7zm-6.6 3.8l-6.3 3.7l-5.4-3.2l6.2-3.5zm-6.5 3.8l-6.3 3.5l-5.4-3l6.3-3.7zm-6.6 3.8l-6.3 3.6l-5.4-3.1l6.3-3.6zm0.2 0.2l5.5 3.1l-6.2 3.6l-5.5-3.1zm5.7 3.3l5.4 3.1l-6.2 3.6l-5.5-3.1zm5.8 3.3l5.4 3.1l-6.3 3.6l-5.4-3.1zm5.7 3.3l5.4 3.1l-6.3 3.6l0.3 0.2l6.3-3.7l5.5 3.2l-6.3 3.6l-5.5-3.1l-0.3-0.2l-5.4-3.1zm11.4 6.6l5.5 3.1l-6.3 3.6l-5.5-3.1zm5.8 3.3l5.4 3.1l-6.3 3.7l-5.4-3.2zm5.7 3.3l5.4 3.1l-6.3 3.6l-5.4-3.1zm5.7 3.3l5.5 3.1l-6.3 3.7l-5.4-3.2zm5.7 3.3l5.4 3.1l-6.3 3.6l-5.4-3zm5.7 3.2l5.4 3.1l-6.2 3.7l-5.4-3.2zm5.7 3.3l5.4 3.1l-6.3 3.7l-5.4-3.1zm0-0.4l-5.5-3.1l6.3-3.6l5.5 3.1zm1.1-6.9l6.3-3.7l5.4 3.2l-6.3 3.6l0.3 0.2l6.3-3.7l5.4 3.1l-6.3 3.7l-5.4-3.1l-0.3-0.2zm17.7 2.9l5.5 3.2l-6.3 3.5l-5.5-3zm5.8 3.2l5.4 3.1l-6.3 3.7l-5.4-3.2zm-5.4-3.4l6.2-3.7l5.5 3.2l-6.3 3.6zm6.6-3.8l6.3-3.6l5.4 3.1l-6.3 3.6zm6.6-3.8l6.2-3.5l5.5 3l-6.3 3.7zm12-0.4l5.4 3.1l-6.3 3.7l-5.4-3.1zm0.3-0.2l6.3-3.6l5.4 3.1l-6.3 3.6zm6.6-3.8l6.2-3.6l5.5 3.1l-6.3 3.6zm6.5-3.8l6.3-3.6l5.5 3.1l-6.3 3.6zm6.6-3.7l6.2-3.7l5.4 3.1l-6.3 3.6zm-0.2-0.1l-5.4-3.2l6.2-3.5l5.4 3zm-4.5-10.1l6.3-3.7l5.4 3.2l-6.3 3.6zm0.9-7.1l6.3-3.6l5.3 3.1l-6.2 3.6zm6.5-3.8l6.3-3.6l5.5 3.1l-6.3 3.7zm6.5-3.8l6.3-3.7l5.4 3.1l-6.2 3.7zm11.9-0.4l5.5 3.1l-6.3 3.6l-5.4-3.1zm5.7 3.3l5.4 3.1l-6.2 3.7l-5.5-3.2zm5.8 3.3l5.3 3.2l-6.2 3.5l-5.4-3zm-5.5-3.5l6.3-3.6l5.5 3.1l-6.3 3.6zm6.6-3.8l6.2-3.6l5.4 3.1l-6.3 3.7zm12-0.4l5.5 3.1l-6.3 3.6l-5.5-3zm0.3-0.3l6.3-3.5l5.5 3l-6.3 3.7zm6.6-3.8l-0.3-0.2l-5.5-3.1l4.3-2.5l5.5 3.1l-4.3 2.5l0.3 0.2l4.3-2.5l5.4 3.1l-4.4 2.5zm4.7-2.7l4-2.3l5.4 3.1l-4 2.4zm4.2-2.5l4-2.3l5.4 3.1l-3.9 2.2zm4.2-2.4l6.3-3.6l5.4 3.1l-6.3 3.7zm0.9-7.1l6.3-3.7l5.4 3.2l-6.3 3.6zm6.6-3.8l6.3-3.6l5.4 3.1l-6.3 3.6zm12-0.3l5.5 3.1l-6.3 3.6l-5.5-3.1zm0.3-0.2l6.3-3.6l5.4 3.1l-6.3 3.6zm0.9-7l6.3-3.7l5.4 3.2l-6.3 3.5zm6.6-3.8l6.3-3.5l5.4 3l-6.3 3.7zm6.6-3.8l6.3-3.7l5.4 3.2l-6.3 3.6zm12-0.3l5.4 3.1l-6.3 3.6l-5.4-3.1zm0.3-0.2l6.3-3.6l5.4 3.1l-6.2 3.6zm6.5-3.8l6.3-3.6l5.4 3.1l-6.3 3.7zm6.6-3.8l6.2-3.7l5.5 3.2l-6.3 3.5zm6.6-3.8l6.3-3.5l5.4 3l-6.3 3.7zm5.8-10l5.4 3.1l-4.9 3l-5.4-3.2zm-5.8-3.3l5.5 3.2l-5 2.8l-5.5-3.1zm-5.6-3.2l5.3 3l-4.9 2.9l-5.4-3.1zm-17.1-9.9l5.3 3.2l-4.9 2.9l0.3 0.1l5-2.9l5.3 3.2l-4.9 2.8l0.3 0.2l4.9-2.9l5.5 3.1l-5 2.9l-5.4-3.1l-0.3-0.2l-5.4-3.1l-0.3-0.1l-5.5-3.2zm-5.7-3.2l5.5 3.1l-5 2.8l-5.4-3.1zm-5.7-3.2l5.4 3l-5 3l-5.4-3.2zm-5.7-3.3l5.4 3.2l-5 2.8l-5.4-3.1zm-5.7-3.2l5.4 3l-4.9 2.9l-5.5-3.1zm-11.4-6.6l5.4 3.2l-5 2.9l0.3 0.1l5-2.9l5.4 3.1l-5 3l-5.4-3.2l-0.3-0.1l-5.4-3.2zm-5.7-3.3l5.4 3.2l-5 2.8l-5.4-3zm-5.7-3.3l5.4 3l-4.9 2.9l-5.5-3.1zm-5.7-3.3l5.4 3.1l-5 2.9l-5.3-3.1zm-5.3 3.1l5.4 3l-6.3 3.7l-5.4-3.2zm-6.6 3.8l5.5 3.2l-6.3 3.6l-5.5-3.1zm-6.5 3.8l5.4 3.1l-6.3 3.6l-5.4-3.1zm-6.5 3.8l5.4 3.1l-6.3 3.7l-5.4-3.2zm-6.6 3.8l5.4 3.2l-6.2 3.5l-5.5-3zm-6.5 3.7l5.4 3.1l-6.3 3.7l-5.4-3.1zm-6.6 3.8l5.5 3.1l-6.3 3.6l-5.5-3.1zm-6.5 3.8l5.4 3.1l-6.3 3.6l-5.4-3.1zm-12.9 7.4l6.3-3.6l5.5 3.1l-6.3 3.6zm5.4 3.5l5.5 3.1l-6.3 3.6l-5.5-3.1zm-6.6 3.8l5.5 3.1l-6.3 3.6l-5.4-3.1zm-5.7-3.2l5.4 3.1l-6.3 3.6l-5.4-3.1zm-6.6 3.7l5.4 3.2l-3.9 2.3l0.3 0.1l3.9-2.3l5.5 3.2l-4 2.3l-5.4-3.2l-0.3-0.1l-5.4-3.2zm-2.8 7.9l-5.5-3.1l4-2.3l5.5 3.1zm0.3 0.2l4-2.3l5.4 3l-4 2.4zm5.4 3.4l5.4 3.1l-4.3 2.5l-5.4-3zm-4.6 2.6l5.4 3.1l-6.2 3.6l-5.5-3zm-5.7-3.3l5.4 3l-6.3 3.7l-5.4-3.2zm-5.7-3.2l5.4 3.1l-6.2 3.6l-5.5-3.1zm-6.6 3.8l5.5 3.1l-6.3 3.6l-5.4-3.1zm-6.6 3.8l5.4 3.1l-6.2 3.7l-5.5-3.1zm-6.5 3.8l5.4 3.1l-6.3 3.6l-5.4-3.1zm-6.6 3.8l5.5 3.1l-6.3 3.6l-5.5-3.1zm-6.5 3.8l5.4 3.1l-6.2 3.6l-5.5-3.1zm-12.9 7.4l6.3-3.6l5.5 3.1l-6.3 3.7zm5.4 3.4l5.5 3.1l-6.3 3.6l-5.5-3.1zm-6.5 3.8l5.4 3.1l-6.2 3.7l-5.5-3.2zm-5.7-3.3l5.4 3.2l-6.3 3.6l-5.4-3.1zm-6.5 3.8l5.3 3.1l-6.2 3.6l-5.4-3.1zm-6.6 3.8l5.4 3.1l-6.3 3.6l-5.4-3.1zm-6.5 3.8l5.3 3.1l-6.2 3.6l-5.4-3.1zm-6.6 3.8l5.4 3.1l-6.3 3.7l-5.3-3.1zm-6.6 3.8l5.4 3.1l-6.3 3.6l-5.4-3.1zm-6.6 3.8l5.4 3.1l-6.2 3.6l-5.4-3.1zm-6.6 3.8l5.4 3.1l-6.3 3.6l-5.4-3.1zm-6.5 3.8l5.3 3.1l-6.2 3.7l-5.4-3.2zm-7.5 10.5l-5.3-3l6.2-3.7l5.4 3.2zm6 3.4l-0.2-0.2l-5.5-3.1l6.3-3.6l5.5 3.1l-6.3 3.6l0.2 0.2l6.3-3.7l5.4 3.2l-6.2 3.6zm11.1 6.4l-5.4-3.1l6.2-3.7l5.5 3.2zm0.3 0.1l6.3-3.6l5.4 3.1l-6.3 3.7zm5.7 3.3l6.3-3.7l5.4 3.1l-6.3 3.6zm5.7 3.3l6.3-3.6l5.5 3.1l-6.3 3.6zm11.1 6.4l-5.4-3.1l6.3-3.6l5.4 3.1zm5.7 3.3l-5.5-3.2l6.3-3.5l5.5 3zm0.3 0.2l6.3-3.6l5.3 3.1l-6.2 3.6zm11.1 6.4l-5.4-3.1l6.3-3.6l5.4 3.1zm0.3 0.2l6.3-3.7l5.4 3.2l-6.3 3.5zm11.4 6.6l-0.3-0.1l-5.3-3.2l6.2-3.5l5.4 3l-6.3 3.7l0.3 0.1l6.3-3.6l5.4 3.1l-6.3 3.7zm5.8 3.2l6.3-3.6l5.4 3.1l-6.3 3.6zm17.7 3l5.4 3.1l-6.3 3.6l-5.3-3.1zm-0.3-0.2l-6.3 3.7l-5.5-3.2l6.3-3.6zm-5.4-3.4l-5.4-3.2l6.3-3.6l5.4 3.1zm6.5-3.7l-5.4-3.2l-0.2-0.1l-5.5-3.1l6.2-3.7l5.5 3.1l-6.2 3.7l0.2 0.1l6.3-3.6l5.4 3.1zm5.7 3.3l-5.4-3.1l6.3-3.6l5.4 3zm5.7 3.3l-5.4-3l6.3-3.7l5.4 3.2zm12.9-7.5l-6.3 3.7l-5.5-3.2l6.3-3.6zm-5.4-3.5l-5.4-3l6.3-3.7l5.4 3.2zm6.5-3.8l-5.4-3.2l6.3-3.6l5.4 3.1zm5.7 3.3l-5.4-3.1l6.3-3.6l5.4 3.1zm6.5-3.8l-5.3-3.1l6.2-3.7l5.4 3.1zm6.6-3.8l-5.4-3.1l6.3-3.6l5.4 3.1zm6.5-3.8l-5.3-3.1l6.2-3.6l5.4 3.1zm6.6-3.8l-5.4-3.1l6.3-3.6l5.3 3.1zm6.6-3.8l-5.4-3.1l6.3-3.7l5.4 3.2zm7.4-10.5l5.4 3l-6.2 3.7l-5.4-3.2zm-0.3-0.1l-6.3 3.6l-5.4-3.1l6.3-3.6zm-5.8-3.3l-6.2 3.6l-5.4-3.1l6.2-3.6zm-5.4-3.5l-5.4-3l6.3-3.7l5.3 3.1zm1.2-6.9l6.3-3.6l5.4 3.1l-6.3 3.6zm11.2 6.4l-5.4-3.1l6.3-3.6l5.3 3.1zm0.3 0.1l6.3-3.6l5.4 3.1l-6.3 3.7zm11.2 6.3l-5.4-3l6.3-3.7l5.3 3.1zm6.6-3.7l-5.4-3.2l6.3-3.6l5.4 3.1zm6.6-3.8l-5.4-3.1l-0.3-0.2l-5.5-3l6.3-3.7l5.4 3.1l-6.2 3.6l0.3 0.2l6.3-3.6l5.3 3.1zm6.6-3.8l-5.4-3.1l6.3-3.6l5.4 3.1zm6.5-3.8l-5.3-3.1l6.2-3.7l5.4 3.2zm6.6-3.8l-5.4-3.2l4.3-2.4l5.4 3.1zm4.6-2.7l-5.4-3.1l4-2.3l5.4 3.1zm4.3-2.5l-5.4-3.1l4-2.3l5.3 3.1zm4.3-2.4l-5.4-3.2l6.3-3.5l5.4 3zm6.5-3.8l-5.4-3l6.3-3.7l-0.3-0.1l-6.3 3.6l-5.4-3.1l6.3-3.7l5.4 3.2l0.3 0.1l5.4 3.2zm6.6-3.8l-5.4-3.2l6.2-3.6l5.4 3.1zm12.9-7.4l-6.3 3.6l-5.4-3.1l6.3-3.6zm-5.4-3.4l-5.5-3.2l6.3-3.6l5.5 3.1zm6.5-3.8l-5.4-3.1l6.2-3.6l5.5 3.1zm5.7 3.3l-5.4-3.1l6.2-3.7l5.5 3.1zm6.6-3.8l-5.5-3.1l6.3-3.6l5.4 3.1zm6.6-3.8l-5.5-3.1l6.3-3.6l5.5 3.1zm6.5-3.8l-5.4-3.1l6.3-3.6l5.4 3.1zm6.6-3.8l-5.5-3.1l6.3-3.7l5.4 3.2zm6.6-3.8l-5.4-3.2l6.3-3.5l5.4 3zm6.5-3.8l-5.4-3l5-2.9l5.4 3.1z"/>
		<path id="Layer" class="s11" d="m276.6 144.7l-0.3-0.2l6.4-3.6l0.3 0.1z"/>
		<path id="Layer" class="s11" d="m217.7 185.3l-6.3 3.7l-0.3-0.2l6.3-3.6z"/>
		<path id="Layer" class="s11" d="m110.3 214.1l6.3-3.6l0.3 0.1l-6.3 3.7z"/>
		<path id="Layer" class="s11" d="m164.5 222.6l-0.2-0.2l6.3-3.6l0.2 0.1z"/>
		<path id="Layer" class="s10" d="m306.5 153.9l-4.3 2.5c-4.4 2.6-11.7 2.6-16.1 0l-41.8-24c-4.5-2.6-4.5-6.7-0.1-9.2l4.4-2.5z"/>
		<path id="Layer" class="s12" d="m295.3 150.6c1 0.6 1 1.4 0 2c-0.9 0.6-2.5 0.6-3.4 0c-1-0.6-1-1.4-0.1-2c1-0.6 2.6-0.6 3.5 0z"/>
		<path id="Layer" class="s12" d="m288.9 146.9c1 0.5 1 1.5 0 2c-1 0.5-2.5 0.5-3.5 0l-21.1-12.1c-1-0.6-1-1.5 0-2c0.9-0.6 2.5-0.6 3.5 0z"/>
		<path id="Layer" class="s13" d="m163.2 231.6c0.7 0.4 0.8 1.1 1.1 1.7c0.3 0.7 0 1.5 1.2 2.2q0.2 0.1 0.3 0.2q0.3 0.1 0.5 0.3c1 0.5 1.6 1.2 1.8 2c0 0.1 0.2 0.3 0.3 0.4c0.1 0.3 0.2 0.6 0.1 0.9c-0.4 0.5-1 1.1-1.4 1.7c-0.5 0.6-0.3 1.1 0.6 1.6c0.6 0.4 0.8 1.1 1.1 1.6c0.3 0.2 0.3 0.5 0.5 0.9c-0.2-0.2-0.5-0.2-0.7-0.4c0.2 0.7 0.6 1.4 0.6 2c0 0.9-1.5 0.9-2.3 1.2c0.7 0.2 1.8 0.2 2.2 0.5c0.8 1-0.5 1.7-1.4 2.3c0.3 0.3 0.9 0.6 0.8 0.9c0 0.2-0.7 0.4-1.2 0.7q0.7 0.1 1 0.4c1 0.5 1 1.2 0.6 2c0.2 0.1 0.4 0.1 0.4 0.1c0.8-0.1 1.1-0.1 1.3 0c0.1 0.1 0.2 0.4 0.2 0.8c0.2 0.4 0 0.9 0.6 1.3q0.2 0.2 0.6 0.3c1.4 0.4 2.2 0.1 3.6-0.2c-0.9 0.7-1.5 1.3-2.5 1.7c-1 0.3-2.3 0.5-3.5 0.5c-0.9 0-1.8-0.4-2.5-0.7c-0.3-0.1-0.5-0.3-0.8-0.3c-0.4-0.3-0.6-0.6-0.3-1c-0.2 0-0.5 0.2-0.7 0.2q-0.5-0.7-1.1-1.4c0.5 0 0.8 0.2 1.1 0.2c-0.4-0.4-0.9-0.8-1.5-1.3c-0.5 0.3-1 0.3-1.3 0.1q-0.2-0.2-0.4-0.6c-0.4-0.2-0.7-0.3-0.9-0.4c-0.8-0.5-0.8-1.2-1.4-1.8c-0.8-0.6-1.8-1.3-2.7-1.9c-1.1-0.9-2.2-1.7-3.4-2.6c-0.4-0.3-0.8-0.6-1.3-0.9q-0.4-0.2-0.8-0.4c-0.7-0.2-1.9-0.3-2.6 0c-2.3 0.5-4.3-0.2-6.4-0.5c-1.4-0.3-2.9-0.4-4.2-0.7c-0.4-0.1-0.8-0.1-1.1-0.3c-0.2-0.1-0.4-0.3-0.4-0.5c0-0.3-0.1-0.5-0.1-0.7c-0.6 0.2-1 0.2-1.2 0q-0.3-0.1-0.4-0.4c-0.4-0.5-0.6-1.2-0.7-1.9q-0.1-0.6-0.7-0.9q-0.5-0.4-1.7-0.3c-0.7 0.1-1.3-0.1-2-0.2q-0.5-0.1-0.9-0.2q-0.2 0-0.3 0.1c0.3 0.3 0.5 0.7 0.9 1c-1.1-0.3-1.9 0.6-3.1 0.2c-0.3 0-0.7 0.1-1 0.1c-0.3 0.1-0.6 0.1-0.8 0.1c-0.9-0.2-1.7-0.5-2.7-0.6c-0.5 0-1 0.1-1.5 0.4c-0.9 0.3-1.9 0.2-2.9 0.2c-0.8 0-1.5 0-1.6 0.6c0 0.2-0.5 0.4-0.8 0.4q-3 0.5-6 0.8c-0.3 0.1-0.9 0-1.1-0.2c-0.2-0.1-0.4-0.3-0.5-0.3c-0.8-0.5-1.9-0.5-2.9-0.6c-2.5-0.4-5.2-0.2-7.6-1c-0.3-0.2-0.9 0-1.4 0.1q0 0.1-0.1 0.2c0.8 0.1 1.5 0.3 2.3 0.5q2.2 0.4 4.4 0.8c0.3 0 0.7 0 1 0.1c0.4 0.1 0.7 0.2 1.1 0.3q-0.2 0.1-0.2 0.3c-1.1-0.2-2.2-0.5-3.3-0.6c-0.4-0.1-0.8 0-1.2 0c-0.4 0.1-0.8 0.1-1.1-0.1c-0.2 0-0.3-0.2-0.5-0.3q-0.2-0.1-0.3-0.1q-2-0.4-4-0.7c-0.6-0.1-1.2-0.2-1.7-0.1c-1.5 0.4-2.8-0.1-4.1-0.3c-0.7-0.1-1.5-0.3-2.2-0.5q-1.5-0.6-2.9-1.3q-0.6-0.3-1.3-0.7q-1-0.5-2-1.2q0.2-0.1 0.9-0.6c-1.3-0.2-2.3 0-3.3 0.2c-1.7 0.3-3.3 0.1-4.8-0.2c-0.5-0.2-1-0.1-1.7-0.1q0.2 0.2 0.5 0.4c-1 0.2-1.5 0.1-1.9-0.2q-0.3-0.1-0.5-0.4c-0.3-0.1-1.2-0.2-1.4-0.1c-0.6 0.6-1.7 0.7-2.7 0.9q-0.8 0.2-1.7 0.5c-1.1 0.4-2.4 0.9-3.6 1.4c0.2 0.1 0.4 0.1 0.6 0.1c-0.5 0.5-1 1-1.6 1.6c-0.3-0.2-0.6-0.4-0.9-0.7c-0.1 0.4-0.4 1.1-0.2 1.2q0.2 0.1 0.3 0.2c0.7 0.4 0 0.8 0 1.2q-0.2 0.8-0.5 1.5c0 0.2-0.2 0.3-0.3 0.5c0.3-0.1 0.5-0.1 0.7-0.1q-1.2 0.9-2.4 1.8c0.3-1.2 2.2-2.4 1-3.8c-0.8 0.4-1.5 0.9-2.3 1.4q-0.5-0.2-1.2-0.5c-0.4 1.3-1.9 0.4-2.9 0.5c-0.9-1 0.5-1.5 1.1-2.3c-0.3-0.1-0.5-0.2-0.9-0.3c-0.9 0.8-1.7 1.6-3.9 1.5q0.5-0.7 1-1.4c1.3 0.1 1.7-0.3 1.9-0.9c-1.4 0.4-2.8 0.7-4.4 1.1c0.2-0.4 0.5-0.6 0.6-0.8c0.1-0.3 0.3-0.7 0.5-1q0.5-0.7 1.1-1.4c0.8-1 2.2-1.6 3.8-2.1c1.1-0.4 2-1 3-1.4c1.7-0.8 3.4-1.6 5.4-2.1c0.4-0.2 0.7-0.4 1.1-0.5c-1-0.6 0.6-0.7 0.7-1c0.1-0.5 0.7-0.8 1.3-1.2q-0.6 0.7-1.1 1.5q0.2 0 0.4 0c0.5-0.7 1-1.4 1.5-2.2c0.4 0 1.1-0.1 1.7-0.1c0.1-0.3 0.1-0.5 0.1-0.6c0.3 0 0.5 0.1 0.8 0.1c-0.1-0.7 0.8-0.9 1.6-1.2c0.9-0.3 1.8-0.6 2.7-1c0.2-0.1 0.6-0.2 1.1-0.4c-0.1 0.3-0.1 0.4-0.1 0.6c0.8-0.3 1.3-0.8 2-1.1c0.7-0.4 1.5-0.5 2.2-0.8c0 0-0.3-0.1-0.8-0.3c0.6-0.3 1.1-0.7 1.8-1c0.8-0.4 1.6-0.8 2.4-1.1c0.2-0.1 0.4-0.3 0.4-0.3c0-0.9 1-0.9 1.9-0.7c0.1-0.4 0.1-0.8 0.3-1.2c-0.8 0.1-1.6 0.1-2.7 0.2c0-0.2-0.4-0.5-0.3-0.8c0.1-0.2 0.6-0.5 1.1-0.5c0.6-0.1 1.2 0 1.9 0.1c0.3 0 0.7-0.1 1.1-0.3c0.2 0.2 0.3 0.3 0.8 0.7c-0.1-0.5-0.1-0.6-0.1-0.8c0.8-0.7 1.5 0.6 2.5 0.1c-0.2-0.5-0.4-1-0.5-1.5q-0.2 0-0.4 0c0.5-0.3 1-0.5 1.5-0.7c0.3-0.1 0.7-0.3 1-0.1q0.1 0 0.2 0.3c0.2 0.2 0.6 0.2 1 0.4c-0.1 0.4 0 1-1.2 1c0.4 0 0.8 0.1 1.5 0.2c-1 0.1-1.7 0.2-2.3 0.3c1.1 1.2-1.2 1.1-1.7 1.7c0.9-0.3 1.5-0.5 2.5-0.8c-0.3 0.4-0.5 0.8-0.6 1.2c-0.1 0-0.2 0.1-0.2 0.2c-0.1 0.8-0.2 1.5-0.1 2.3q0.1 0.5 0.4 0.6c0.3 0.2 0.8 0.2 1.5 0.2c0.5-0.1 1.1 0.1 1.8 0.2c0.4-0.6 1.5-0.7 2.8-1c1.2-0.1 2.3-0.6 3.6-1c0.7 0.4 1.5 0.9 2.9 0.8c0.3 0 0.7 0.1 0.8-0.2c0-0.2 0-0.6-0.2-0.7c-0.6-0.3-1.4-0.4-2-0.7c0.5-0.7 0.6-1.4 0.1-1.7c-0.3-0.1-0.9-0.3-1.9-0.2c-1-0.6-1.8-1.1-2.7-1.6c1.1-1 3.1-1.4 5.2-1.7q0.2 0.2 0.4 0.3c0.7 0.4 1.3 0.4 2.1 0.1c1.2-0.4 0.3-1.1 0.1-1.7c1 0.1 2.1 0.2 3.1 0.3c0.5 0.1 1 0.5 1.5 0.5c1-0.1 2-0.3 2.9-0.4c-0.1 0.1-0.1 0.3-0.1 0.4c0.4-0.1 0.9-0.3 1.5-0.5c0.3-0.1 0.7 0 1 0.2c0.2 0.1 0.3 0.3 0.2 0.5c-0.2 0.3-0.7 0.6-0.6 1c0.2 0.9-1.1 1.4-2.1 1.8c-1.3 0.7-1.3 1.5-1.3 2.3c0.4-0.4 0.7-0.9 1.2-1.3c0.1-0.2 0.6-0.2 0.8-0.3c0.1 0.1 0 0.3 0.2 0.5c0.2 0 0.3 0.2 0.6 0.3c0.3 0.2 0.6 0.3 1.1 0.2c0.8-0.1 1.7-0.1 1.4-0.8c0-0.2 0-0.4 0.1-0.6q0.2 0.2 0.4 0.5q0.2-0.1 0.3-0.3c-0.2 0.9-0.6 1.7-1.2 2.8c-0.3-0.4-0.5-0.7-0.8-1.1c-0.5 0.8-1 1.4-1.3 2.1c-0.1 0.3 0 0.5 0.2 0.6c0.3 0.2 0.7 0.3 1.3 0.3c-0.4 0.3-0.6 0.5-0.9 0.7c-0.5 0.4-0.7 0.6-0.1 1.1c0.5 0.3 0.5 0.9 0.8 1.4c-0.5-0.2-1-0.4-1.5-0.5c0.5 0.3 0.9 0.6 1.5 0.8q0.7 0.2 1 0.4c0.6 0.4 0.6 0.7 0.4 1.5c-0.2 0.7-0.5 1.5 0.5 2.1c1 0.5 2.1 0.7 3 1.1q0.3 0 0.6 0.3c0.2 0.1 0.5 0.2 0.8 0.5q-0.2 0.1-0.4 0.2c-1.5-0.3-3.1-0.7-4.7-1.1c-0.1 0.2-0.2 0.4-0.3 0.6c-1.7-0.3-2 0.6-2.8 1c0.3 0.1 0.6 0.2 1.1 0.3c-0.9 0.4-1.7 0.6-2.3 0.9c-0.3 0.1-0.5 0.5-0.6 0.7c-0.1 0.3-0.3 0.6-0.1 0.9c0 0.3 0.3 0.5 0.7 0.8c0.5 0.4 1 0.7 1.5 1.2q0.3 0.1 0.5 0.3c1 0.5 2.2 0.7 3.4 1c0.5 0.1 1.6 0 1.8-0.2c0.5-0.5 1.6-0.9 0.7-1.6c-0.9-0.7-0.6-1.1 0.8-1.6c0.9 0.9 1.9 1.7 2.9 2.6c0.4-0.2 0.8-0.5 1.2-0.7c0.8-0.6 1.6-0.6 2.3-0.2q0.2 0.1 0.4 0.2c0.4 0.3 0.7 0.6 1.2 0.9c0.8 0.4 1.8 0.7 3.4 0.5c0.1-0.2 0.1-0.3 0.2-0.5c0.3-0.5 0.9-0.7 1.7-0.6c0.7 0 1.3 0 2.2-0.1c-1.7-1.2-0.5-2.2-0.1-3.3q0.9 0.6 1.7 1.3c-0.2-0.6-0.6-1.1-0.9-1.5c1-0.2 1.8-0.3 2.6-0.5c0.9-0.3 1.5-0.7 2-1.1c0.4-0.4 1.4-0.3 2.1-0.3c0.2 0 0.4 0.1 0.7 0.1c0.6 0 1.2 0 1.8-0.1c0.7-0.1 1.4-0.1 1.9-0.4c1.6-0.8 2.9-1 4.7-0.4c1.8 0.7 3.4 0.4 5-0.1c0.6-0.2 1-0.4 1.3-0.2q0.1 0.1 0.2 0.2c1.3-0.7 2.2-1.5 4.3-1.5c0.3 0.1 0.7 0.1 0.8 0c1-0.5 2.1-0.2 2.8 0.1z"/>
		<path id="Layer" class="s13" d="m248.7 183.1c-0.2 0.6-0.4 1.3-0.7 2c-0.6-1-0.4-1.7 0.7-2z"/>
		<path id="Layer" class="s13" d="m279.6 188.1q0 0 0 0.1c0.2 0.2 0.1 0.5 0.2 1c-1.1-0.2-1.9-0.3-2.6-0.5c0.5-0.3 0.9-0.6 1.4-0.8c0.2 0 0.8 0 1 0.2z"/>
		<path id="Layer" class="s13" d="m173.9 153.1q0.1 0.1 0.2 0.2c-0.5 0.3-1.1 0.6-1.5 0.9c-0.5 0.3-0.9 0.7-1.6 1c0.1-0.4 0.1-1 0.5-1.3c0.6-0.4 1.5-0.6 2.4-0.8z"/>
		<path id="Layer" class="s13" d="m216 154c-0.1 0.1-0.3 0.2-0.6 0.5c0.8 0.3 1.5 0.7 2.3 1c-0.1 0-0.4 0.2-0.7 0.4q-1-0.6-2.1-1.2q-0.5-0.3-1-0.7c-0.5-0.2-1-0.4-1.5-0.7q-0.2-0.1-0.3-0.2c-0.4-0.2-0.5-0.6-0.7-0.9c1.6 0.6 3 1.2 4.6 1.8z"/>
		<path id="Layer" class="s13" d="m169.9 154.1c0.2 0.3 0.4 0.5 0.6 0.6c-1.7 1.3-2 1.4-3.6 1.5c1-0.7 2-1.4 3-2.1z"/>
		<path id="Layer" class="s13" d="m168.4 154.6c-0.8 0.9-1.7 1.6-2.6 2.5q-0.1 0-0.2-0.1c-1-0.5 0.2-1.6 2.8-2.4z"/>
		<path id="Layer" class="s13" d="m221.2 156.2c-0.2 0.4-0.3 0.8-0.6 1.3c-0.3 0-0.9 0.2-1.2 0.4c0.2 0.3 0.3 0.4 0.5 0.6c-0.5-0.1-0.8-0.2-1.1-0.3c-0.3-0.2-0.3-0.4 0.1-0.7c0.1 0-0.3-0.3-0.5-0.5c-0.2-0.3-0.5-0.5-0.9-0.7c0.9-0.2 2.2 0.4 2.8-0.4c0.4 0.1 0.7 0.3 0.9 0.3z"/>
		<path id="Layer" class="s13" d="m222 158.7q0.5 0.3 0.7 0.8c0.1 0.3 0.4 0.6 0.8 0.8q0.2 0.2 0.5 0.3q0.1 0 0.2 0.1c0.7 0.4 0 0.9-0.2 1.1c-0.7 0.5-0.8 1-0.5 1.5q0 0.1-0.2 0.2c-0.3-0.2-0.8-0.3-1.3-0.5q-0.6 0.6-1.6 1.5c-0.5-1 0.3-1.6 1.4-2.2q-0.3-0.5-0.7-1.1q0.1 0.1 0.3 0.1c0.1-0.1 0.6-0.3 0.5-0.4c-0.4-0.6-0.7-1.1-1.2-1.6c-0.3-0.3-1-0.6-0.3-1c0.7 0.1 1.2 0.2 1.6 0.4z"/>
		<path id="Layer" class="s13" d="m149.6 165.5q-0.6 0.4-1.1 0.8q-0.3-0.1-0.5-0.2q0.6-0.4 1.2-0.8q0.2 0.1 0.4 0.2z"/>
		<path id="Layer" class="s13" d="m147.3 165.8c0.1 0.2 0.4 0.5 0.1 0.7c-0.4 0.4-1 0.7-1.6 1q-0.1-0.1-0.2-0.2q0.7-0.8 1.4-1.6q0.2 0 0.3 0.1z"/>
		<path id="Layer" class="s13" d="m156 165c-0.1 0.3-0.1 0.5-0.3 0.7c-0.7 0.6-1.7 1.2-2.3 1.9c-0.8 1-1.3 2.1-1 3.2q0 0 0.1 0.1c0.2 0.2 0.5 0.2 0.8 0.3c0.4 0 0.8-0.1 1.4-0.1c-1.2 0.8-2.5 1.3-4.3 1.4c0.1-0.8 0.2-1.6 0.2-2.3c0.1-1.2 1-2.1 2.4-3c0.7-0.4 1.2-1 1.7-1.5c0.3-0.3 0.6-0.5 0.9-0.7q0.2 0 0.4 0z"/>
		<path id="Layer" class="s13" d="m226 173.1c0.5 0.5 0.9 1 1.4 1.5q-0.9-0.2-1.3-0.4c-0.4-0.2-0.4-0.6-0.1-1.1z"/>
		<path id="Layer" class="s13" d="m259.5 174.1c0.8 0.6 0.4 1.3-1.1 1.5q0.6-0.7 1.1-1.5z"/>
		<path id="Layer" class="s13" d="m234 176.2q0.1 0.4 0.2 0.5q-0.9 0.3-1.9 0.6c-0.5 0.1-1.2-0.1-1.6-0.3q-0.3-0.1-0.4-0.4c0-0.1-0.3-0.2-0.3-0.3c-0.2-0.2-0.4-0.4-0.5-0.7c0 0 0.5-0.2 0.7-0.1c0.4 0.1 0.8 0.4 1.1 0.6h0.1q0.1 0.4 0.4 0.5q0.3 0.3 1.2 0c0.3-0.2 0.6-0.2 1-0.4z"/>
		<path id="Layer" class="s13" d="m239.2 178c-0.1 0.1-0.3 0.2-0.5 0.3q0.4 0.1 0.7 0.3q0 0-0.1 0.2c-0.6-0.1-1.2-0.1-2-0.2c0 0-0.1 0.1-0.2 0.2c-0.1 0.1-0.3 0.2-0.7 0.3c0.3-0.6 0.6-1.2 0.9-2c0.5 0.3 1.2 0.6 1.9 0.9z"/>
		<path id="Layer" class="s13" d="m262.1 176.7c-0.9 0.4-1.8 0.8-3.2 0.6c-1.3-0.2-1.8 0.2-1.6 1c0.1 0.2-0.6 0.7-0.8 0.7c-1.2-0.1-1.7 0.3-2.3 0.9c-0.2-0.4-0.3-0.6-0.3-0.9c-0.8-0.3-1.6-0.4-2.5-0.1q-1.1 0.5-2.3 0.7c-0.3 0.1-0.7 0-1 0q0.1-0.2 0.3-0.5c-0.8 0.1-1.5 0.3-2.4 0.5c0.3-0.4 0.4-0.7 0.6-0.9c0.4-0.3 1-0.4 1.6-0.2c0.5 0.2 1 0.3 1.7 0.5c0-0.6 0-0.9 0.2-1.2c0.1-0.2 0.3-0.4 0.5-0.5c1.4-0.4 2.8-0.7 4.3-1c1.1-0.2 2.2-0.2 3.4-0.2c0 0.1-0.1 0.3-0.1 0.5q2 0.1 3.9 0.1z"/>
		<path id="Layer" class="s13" d="m247.8 180.3c-0.6 0.3-1 0.5-1.6 0.8c-0.1-0.1-0.3-0.3-0.3-0.3c0.5-0.4 1-0.7 1.9-0.5z"/>
		<path id="Layer" class="s13" d="m132.1 178c-0.3 0.4-0.3 0.6-0.5 0.8c-0.3 0.1-0.8 0.2-1.3 0.3c-0.5-0.3-1-0.2-1.3 0.3c-0.1 0.4-0.1 0.9-0.2 1.4c-0.4 0.1-0.9 0.3-1.7 0.6c0.2-0.3 0.2-0.3 0.4-0.5c-0.4 0.2-0.7 0.2-1 0.4l-0.1-0.1q0.4-0.3 0.6-0.8q0 0-0.1-0.1c-0.7 0.7-1.5 1.4-3.4 1q0.5-0.3 1-0.6c0.3-0.1 0.5-0.3 0.8-0.5c0.3-0.1 0.8-0.2 1.5-0.3c-0.4-0.1-0.7-0.2-0.9-0.2q-0.1-0.1-0.1-0.2c2-0.5 4-1 6.3-1.5z"/>
		<path id="Layer" class="s13" d="m241.5 180c1.1 0.9-0.4 1.2-0.9 1.7c-0.5 0.3-0.7 0.5-0.5 0.6c0.2 0.1 0.5 0.1 1 0.1q0.4-0.5 0.8-1q0.2 0.1 0.3 0.1q-0.1 0.5-0.3 0.9c0.7 0.2 1.3 0.3 2 0.5q0 0.3-0.1 0.5c-0.7-0.1-1.3-0.2-1.9-0.4q0.2 0.2 0.4 0.4q0.1 0 0.3 0q0.1 0.1 0.2 0.2c0.3 0.2 0.6 0.4 0.6 0.8c-0.8-0.3-1.5-0.5-2.1-0.7q0 0-0.1 0.1q-0.9-1-1.9-2.1c0.9-0.5 2.6-0.6 2.2-1.7z"/>
		<path id="Layer" class="s13" d="m236.3 180.8c0.1 0.3 0 0.8 0.3 1.1q0 0 0.1 0c0.4 0.3 1.3 0.3 2.1 0.5c-0.5 0.5 0.2 1.5 1.4 2.3q-0.3 0.2-0.6 0.5q0 0 0-0.1c-1 0.3-2 0.7-3 1.1c-0.8-0.3-2.1-0.4-2.9-0.9q-0.4-0.1-0.6-0.4c0.4-0.2 0.7-0.2 1-0.3c0.1-1.3 0.2-2.6 0.2-3.8c0.5 0 1.3 0 2 0z"/>
		<path id="Layer" class="s13" d="m242.6 186.4q0 0.1 0.1 0.2c-0.6 0.3-1.3 0.7-1.9 1c-1.2 0.4-2.3 0.9-3.5 1.3c-0.2 0.1-0.7 0.1-1.1-0.1q-0.1-0.1-0.2-0.2c0.6-0.2 1.3-0.4 1.8-0.6c0.9-0.4 1.7-0.8 2.5-1.3c0.2-0.1 0.3-0.2 0.8-0.3q-0.2 0.3-0.3 0.5q0.8-0.2 1.8-0.5z"/>
		<path id="Layer" class="s13" d="m233.1 187.6c0.4 0 0.8-0.2 1.2-0.2q0.8 0.6 1.7 1.2c-0.3 0.1-0.6 0.3-1 0.5c-1.8-0.1-3.7-0.4-5.7-0.6c-1.9-0.2-3.8-0.3-5.8-0.6c1.8-0.8 3.9-0.4 5.7-0.6c1.3-0.1 2.6 0.1 3.9 0.3z"/>
		<path id="Layer" class="s13" d="m215.8 191.4c0.1 0.1 0.1 0.5 0 0.6c-0.2 0.4-0.6 0.3-1 0.1q-0.1 0-0.1-0.1q-0.3-0.1-0.5-0.3q-0.6-0.2-1.1-0.5q0.1-0.2 0.2-0.2c0.9 0.1 1.7 0.2 2.5 0.4z"/>
		<path id="Layer" class="s13" d="m274.5 181.8c0.8 0.4 1.2 1 1.5 1.6c0.5 0.9 0.9 1.8 1.8 2.5c0.2 0.2-1.2 1.7-1.6 1.8q-0.4 0-0.7 0.1c-0.4 0.9-1.9 1.4-3.6 1c-0.6-0.1-1.3-0.1-2-0.2q0 0.1-0.1 0.3c-0.3-0.3-0.6-0.5-1-0.9c0 0.6 0.1 1 0.2 1.5c-1-0.2-1.9-0.5-2.7-0.4c-0.8 0.1-1.8 0.5-2.3 0.9c-0.8 0.6-1.5 1.3-2 2.1c-0.3 0.5-0.5 0.9-1.2 1.3c-0.6 0.3-0.8 0.9-1.1 1.3c-0.4 0.7-1.2 0.6-2 0.7c-0.1-0.1-0.2-0.2-0.3-0.3c-0.3-0.2-0.5-0.5-0.8-0.6q-0.1-0.1-0.2-0.1c-0.9-0.4-1.9-0.6-2.8-0.8c-0.4-0.1-0.7-0.1-0.9-0.3c-0.2-0.1-0.3-0.2-0.3-0.3c-0.1-0.1-0.5-0.2-0.6-0.3c-0.5-0.2-1.1-0.4-1.5-0.6q-0.2-0.1-0.3-0.3c-0.1-0.5 0.4-1.1 0.7-1.6c0.3-0.7 2-1.2 1.1-2.3c-0.1-0.1-0.3-0.2-0.4-0.4c-0.1-0.1-0.1-0.3-0.2-0.4c0.2 0 0.5 0 0.6 0c-0.1-0.7-0.3-1.2-0.2-1.7c0.1-0.7 0.7-0.7 1.8-0.2c-0.1-0.5-0.3-1-0.3-1.3c0.1-0.4 0.3-0.7 0.3-1.1c0.1-0.1 0-0.3 0-0.4q1.3-0.5 2.8-1c0.2 0.6 0.3 0.9 0.5 1c0.3 0.3 0.9 0.2 2.1 0.1c0.8-0.1 1.6-0.2 2.8-0.3c-1.4-1.1-2.5-2-3.6-2.9q0.1-0.2 0.2-0.2c0.9 0.3 1.8 0.5 2.3 0.7c0.8 0.1 1.4 0 1.8 0.1c1.4 0.4 2.7 1 4.4 0.7c0.3 0 0.6 0 0.9 0c0.5 0.1 1 0.1 1.6 0.1c1.2 0 2.6 0.2 3.8 0.5q0.8 0.2 1.5 0.6z"/>
		<path id="Layer" class="s13" d="m156.8 197.8c0.3 0.2 0.6 0.5 0.9 0.7c-0.8 0.1-1.5 0.2-2.2 0.3q0 0-0.1-0.1q0.7-0.4 1.4-0.9z"/>
		<path id="Layer" class="s13" d="m138.9 195.7c0.1 0.1 0.1 0.3 0.2 0.5c0.1 0.1 0.3 0.2 0.5 0.5c-0.7 0.6-1.6 1.3-2.8 2.3c0.2-0.6 0.3-1 0.3-1.3c-0.3 0.1-0.7 0.2-0.9 0.3c-0.4-0.3-0.8-0.6-1-0.7q0.1-0.4 0.1-0.8q-0.7 0-1.6 0q-0.1 0.1-0.1 0.2q-0.2-0.2-0.3-0.3c-0.2 0.1-0.5 0.3-0.6 0.3c-0.4-0.1-0.9-0.2-1.1-0.4c-0.5-0.3-0.8-0.7-0.7-1c0.2-0.3 0.7-0.6 1.2-0.7c0.6-0.1 1 0 1.2 0.1c0.3 0.2 0.4 0.5 0.5 0.7c1.5 0.1 2.8 0.3 4.2 0.4c0.1 0 0.5-0.2 0.8-0.1q0 0 0.1 0z"/>
		<path id="Layer" class="s13" d="m152.3 198.5c0.4 0.3 0.7 0.6 0.4 1.1q-0.2-0.1-0.4-0.3q-0.1 0-0.3-0.1q-0.1-0.1-0.3-0.2c-0.3-0.2-0.5-0.4-0.1-0.8q0.1 0 0.1 0.1q0.2 0 0.3 0.1q0.2 0.1 0.3 0.1z"/>
		<path id="Layer" class="s13" d="m133.7 197q0.2 0.2 0.1 0.5c0 0 0.1 0.1 0.2 0.2q0.1 0 0.1 0.1q0.1 0 0.2 0.1q0.2 0.1 0.3 0.1c0.1 0.1 0.2 0.2 0.2 0.2c-0.2 0.5-0.7 1-1.1 1.4c-0.1 0-0.4 0-0.5-0.1q-0.1 0-0.1 0c-0.5-0.3-1-0.7-1.3-0.9c0-0.3 0-0.6 0-0.8c-0.2-0.6 0.7-0.7 1.3-0.8q0.4-0.1 0.6 0z"/>
		<path id="Layer" class="s13" d="m123 198.6c0.3 0.2 0 0.7 0 0.9c-0.1 0.5-0.5 0.9-0.8 1.3c-0.2 0.2-0.7 0.4-1 0.5c-0.6 0.2-1.2 0.4-1.9 0.6c0-0.1 0-0.2 0.1-0.6c-0.6 0.2-1 0.4-1.5 0.5c0.1-0.3 0.3-0.5 0.6-0.9c-0.6 0.3-1 0.5-1.3 0.6q-0.1 0-0.3 0c0.2-0.3 0.3-0.7 0.4-1.1c0.4 0.1 0.9 0.1 1.2 0.1q1-0.9 1.9-1.7q-0.1-0.1-0.2-0.3c0.8 0 1.6-0.1 2.3 0q0.3 0 0.5 0.1z"/>
		<path id="Layer" class="s13" d="m228.4 185.6c0.8 0.3 1.5 0.6 2.4 1.1c-0.8 0.2-1.8 0.2-2.6 0.1c-0.8-0.1-1.5-0.5-2.3-0.8c-0.5-0.1-1-0.3-1.5-0.3c-1.1 0-1.9-0.3-2.5-0.7c-0.4-0.2-0.7-0.4-1-0.7q-0.3-0.2-0.7-0.4c-1.3-0.8-3.2-1.2-4.8-2c-0.1 0.7 0.7 1.3-0.8 1.5q-0.3-0.4-0.7-0.7c-0.8-0.4-2-0.5-3.3-0.7c-0.7-0.1-1.5-0.3-2-0.5c-0.5 0.4-1 0.8-1.5 1.3c-0.2 0.1 0 0.4 0 0.6c0 0.3 0.2 0.7 0.3 1q0.1 1 0.3 2c0 0.3 0.1 0.5 0.1 0.7c-0.1 0.4 0 0.8 0.6 1.1c0.4 0.2 0.7 0.4 1 0.6c0.6 0.4 1.2 0.8 1.7 1.2c0.5 0.5 0.6 1.2 1 2c-2.7-0.5-4.9-1.3-7.1-2c-2.2-0.8-4.2-1.8-6.2-2.5c0.1 0.2 0.1 0.5 0.2 0.9c-0.7 0-1.5 0-2.3 0q0.3-0.4 0.3-0.4c-1.3-0.1-2.6-0.1-4-0.1c-1.1 0.5-2.3 1.3-3.5 1.9c-0.7 0.4-1.5 0.7-2.5 0.2c-0.8 1.1-2.6 1.5-4.4 1q-0.3 0-0.7-0.1c-1.4-0.3-1.6-0.2-1.5 0.7c1.5 0.3 3 0.6 4.5 0.9c-0.1 0-0.2-0.3-0.5-0.5c0.5 0.1 0.7 0.2 0.9 0.2c0.4 0.2 1.1 0.5 1.1 0.4c0.6-0.2 1.5-0.4 1.1-1.1c-0.3-0.3-0.3-0.7-0.3-1.1q0.1 0.1 0.3 0.2c0.8 0.4 1.6 0.7 2.9 0.4c0.4-0.2 1-0.1 1.4 0.2c0.4 0.2 0.8 0.6 0.9 1c0 0.3 0 0.4 0.2 0.6c0.1 0.2 0.2 0.4 0.2 0.6c0.2 0.7 0 1.4-0.4 2.1c-0.3 0.7-0.2 1.5-0.5 2.2c-0.2 0.7-0.7 1.3-1 2.1c-0.2 0.3-0.6 0.4-1.2 0.1c-1.7-0.6-3.3-1.5-5.3-1.7q-0.8-0.1-1.5-0.2c-0.7-0.2-1.3-0.3-1.9-0.5c-0.8-0.2-1.5-0.4-2.3-0.5q-1.4-0.4-2.9-0.7c-0.6 0-1.2-0.1-1.7-0.3c-0.3 0.4-0.5 0.7-0.8 1c-0.3-0.2-0.2-0.5-0.2-0.6c-0.8-0.2-1.6-0.6-2.3 0.1c-0.2-0.4-0.3-0.7 0-1c0.8-0.5 0.6-0.8 0.1-1.3c-0.8-0.7-1.6-1.5-2.5-2.3c-0.3 0.5-0.5 0.8-0.7 1.1c-0.8 0.3-2 0.5-2 0.8c0 0.8-1.2 0.6-1.9 0.7c-0.5 0.2-1.2-0.1-1.9-0.2q-0.6-0.3-1.4-0.9c-0.9 0.1-0.8 0.1-0.9 0.8c0 0.1-0.4 0.3-0.8 0.5c0.5 0 1.1 0.1 1.7 0.2q0.2 0.1 0.5 0.2q0.2 0.2 0.3 0.3c0.2 0.2 0.3 0.6 0.5 0.9c-1.8-0.3-3.9-0.3-5.6-1.2c-0.4-0.2-1.3-0.2-2-0.1c-1 0.2-1.9 0.4-2.9 0.1c-0.2-0.1-0.4 0.1-0.6 0.1c-0.3 0-0.5-0.1-0.8-0.2q-0.5 0.5-0.1 0.8q0.3 0.2 1.1 0.2c0.5 0 1 0.2 1.5 0.2c0.3 0.1 0.8 0.1 1.1 0c0.9-0.4 2-0.2 2.9-0.3c0.1 0 0.3 0.1 0.5 0.1c-0.5 0.1-0.9 0.3-1.5 0.4c0.5 0.1 0.8 0.2 1.3 0.4c0.1 0.2 0.2 0.5 0.2 0.8q-0.2-0.2-0.4-0.3c-1.1-0.6-2.3-0.3-3.7-0.2c-0.9 0.1-1.8-0.1-2.7-0.1c-0.5 0-1 0-1.6-0.1q-0.2 0.9-0.4 1.5c-0.5 0.1-1 0.2-1.2 0.4c-0.2 0.2-0.3 0.5-0.2 0.6c0.7 0.4 0.5 0.7 0.4 1.1c0 0.4 0 0.8 0.2 1.2c0.3 0.3 0.6 0.4 0.9 0.6c0.8 0.9-0.4 1.8-1.3 2.7c-0.3 0-0.8-0.1-1.3-0.1c-0.2 0.2-0.6 0.4-0.8 0.6c-0.7-0.2-1.2-0.3-1.6-0.6c-0.4-0.2-0.6-0.4-0.9-0.6c-0.4-0.2-0.7-0.5-1-0.7c-0.4-0.2-0.8-0.4-1.4-0.5c0.4-1.2 2.4-1.6 3.7-2.5c-0.4-0.3-0.7-0.7-1.1-1c-0.3-0.1-0.7-0.2-1.2-0.3c-1 0-2 0.1-3.3 0.1c0.7-0.4 1.3-0.7 1.8-1q-0.4-0.2-0.8-0.4c1-0.2 1.4-0.8 1.1-1.5c-0.1-0.1 0-0.4 0-0.6c0.1-0.3 0.2-0.6 0.1-0.9c-0.3-0.7 0.3-1.3 1.1-1.9q-0.1-0.1-0.2-0.1q-0.3-0.3-0.7-0.4q-0.7-0.3-1.1-0.4c-0.4-0.3-0.2-0.5 0-1.3q0.3 0.1 0.5 0.2q0.3 0.1 0.5 0.2c0.2 0.2 0.3 0.2 0.3 0.4c0 0.1 0.2 0.3 0.4 0.4c0.1 0.1 0.3 0.1 0.3 0.1c0.5 0 1-0.1 1.3-0.2c0.5-0.3 0.9-0.5 1.2-0.8c1.2-0.3 0.8-1.2 2.3-1.5c0.4-0.1 0.5-0.6 0.8-0.9c-0.3-0.2-0.7-0.4-0.9-0.6c-0.9-0.8-0.8-1 0.9-1c0-0.3 0-0.5-0.3-0.6c-0.1-0.2-0.4-0.2-0.8-0.1c-0.3-0.2-0.6-0.4-0.5-0.5c0.2-0.3 0.6-0.6 1-0.8q0.6-0.5 1.3-0.9q-0.2-0.1-0.3-0.2c-0.4 0.1-0.8 0.2-1 0.4c-0.4 0.4-0.7 0.8-1.2 1.1c-0.7 0.3-1.5 0.6-2.3 0.7c-0.2 0-0.3-0.1-0.5-0.2c-0.5-0.3-1.1-0.9-1-1.2c0-0.6 0.2-1.2 0.3-2c-0.6 0.3-1.2 0.3-1.4 0.5c-0.3 0.4-0.4 0.8-0.4 1.1c0 0.4 0.2 0.7 0.1 1c0 0.4-0.3 0.7-0.3 1.1q0 0.4 0.4 0.6q0.3 0.2 1.3 0.1q0.5-0.1 0.8 0.1q0.4 0.2 0.3 0.7c-0.1 0.3 0.2 0.6 0.4 1c0.2 0.4 1.1 0.6 0 1.1c0.3 1.3-0.7 0.7-1.6 0.4c-0.1-0.1-0.4-0.1-0.6-0.1c-0.8-0.1-1.6-0.4-2.1-0.3c-0.5 0.2-0.5 0.8-0.7 1.2c-0.4 0.5-1.2 0.6-1.8 0.5c-0.8-0.2-1.6-0.4-2.2-0.7c-0.9-0.5-0.5-1.1-0.2-1.5c0.5-0.9 0.9-1.8 0.9-2.7c-0.1-0.8-0.3-1.5-0.5-2.2c-0.1 0.1-0.4 0.4-0.7 0.6c0.4-0.4-0.6-1.2 1-1.2c-0.3-0.6 0.2-1.2 1-1.5c0.1 0 0-0.3 0-0.4q1-0.9 2.1-1.8c0.1 0.1 0.1 0.2 0.4 0.4c0.2-0.8 0.8-1.2 1.9-1.5c0.2 0 0.6 0.1 1.1 0.1c1.2-0.4 2.6-1 4.1-1.5c0.8-0.2 1.7-0.4 2.6-0.6c0.3 0 0.8 0 0.9 0.1c0.2 0.1 0.2 0.4 0 0.5q-1.3 0.9-2.9 1.7c-0.4 0.2-0.8 0.2-1.2 0.5c0.6-0.1 1-0.1 1.5-0.2c1.1 0.6 2.3 0.6 3.2-0.3c-0.5 0.1-0.9 0.2-1.3 0.2c0.6-0.5 1.3-0.8 2.2-1c-0.5-0.2-0.8-0.3-1-0.3c0.7-1.4 0.7-1.4 2-1.6c-0.9-0.4-1.5-0.6-2.4-0.9q1-0.4 1.9-0.7c0.1 0.3 0 0.5-0.1 0.7c1.4 0.1 1.4 0 1.6-0.8c0-0.6 0.6-1.1 1-1.7c0.1-0.1 0.4-0.3 0.8-0.4c0.3-0.2 0.8-0.4 1.1-0.6c0.4-0.3 0.7-0.6 1.1-0.9c0.2-0.1 0.7-0.1 0.9-0.3c0.3-0.1 0.4-0.3 0.7-0.6c-1 0-1.7 0.1-2.6 0.2c1.3-0.5 2.3-1.1 3.6-1.4c1.1-0.4 2.5-0.5 3.4-1.1c-1.1 0.1-2 0.1-2.7-0.4c-0.2-0.5-0.5-0.9-0.2-1.3c0.1-0.3 0.5-0.7 1-1c0.2-0.1 0.6-0.2 1.1-0.3q0.1 0.3 0.2 0.6q1.4 0.6 2.8 1.2q0.2-0.1 0.4-0.2c0 0.7 0 1.2-0.1 1.7c1.4-0.4 1.6-1.3 0.5-2.1c0.9-0.7 0.9-0.7 1.9-0.4c-0.1-0.2-0.2-0.4-0.3-0.5c-0.3 0-0.7 0-1 0.1c-0.5 0.2-1 0.5-1.5 0.8c-0.6-0.3-1.3-0.6-2-0.9c0-0.3 0.2-0.6 0.3-1q0.3 0.2 0.9 0.5c0.3-0.1 0.5-0.3 1-0.4c-0.5 0-0.7 0-1.2 0c0.5-0.2 0.8-0.4 1.1-0.5q-0.5-0.1-0.9 0c0.6-0.4 1.4-0.6 2.2-0.9c0.2-0.1 0.6-0.1 0.8-0.2c0.1 0 0.1-0.2 0.3-0.3c-0.2 0-0.5 0-0.7 0c-0.2 0-0.3 0.2-0.5 0.3q-0.6-0.3-1.1-0.4c1.1-0.7 2-1.4 3.1-2.1c-0.5 0-0.8 0-1 0c0.9-1.4 2.2-2.6 4.2-3.6c0.9-0.4 1.5-1.1 2.1-1.7c0.2-0.2 0-0.5 0.1-0.7c0.4-0.5 0.4-1.3 2.1-1.1c0.3 0.1 0.8-0.2 1.4-0.4c0.5-1.1 2.7-1.8 4.2-1.2q-1.1 1.3-2.3 2.8c0.7-0.3 1.5-0.5 1.8-0.9c0.8-0.8 1.2-1.1 2.1-1.5c0.3-0.1 0.4-0.3 0.6-0.3c0.6-0.3 1.3-0.7 2-0.8c1.3-0.1 2.2-0.7 2.1-1.5c0-0.2 0.2-0.4 0.5-0.5c0.4-0.2 0.9-0.4 1.4-0.6c0.4-0.1 0.9-0.4 1.4-0.6q0.3 0.2 0.5 0.4c0.7 0.3 1.5 0.6 2.6 0c-0.2-0.2-0.2-0.4-0.4-0.7c1.6-0.3 2.3-1 3.3-1.7q0.1-0.1 0.2-0.2q0.3-0.1 0.4-0.3c-0.2-0.1-0.5-0.1-0.9-0.1c1-0.7 1.8-1.5 2.9-1.8c1.2-0.4 2.1-1.2 3.7-1.3c1.2-0.1 2.2-0.8 3.1-1.3c0.9-0.5 1.7-1.1 3.2-0.9c0.4 0.1 0.9-0.2 1.2-0.4q1-0.6 1.9-1.1c0.4-0.2 0.6-0.5 0.9-0.8c0.2-0.2 0.5-0.3 1-0.4c0 0.2 0 0.2-0.1 0.5c0.6-0.2 1.2-0.4 1.9-0.6c-0.5-0.2-0.8-0.3-1-0.4c-0.2-1 8.2-3.5 10.4-3c-0.1-0.3-0.1-0.4-0.3-0.6c0.9-0.3 1.9-0.5 3.2-0.8c-0.3 0.4-0.5 0.6-0.6 0.9c-0.1 0.1-0.2 0.2-0.2 0.3c0.3 0.7-0.4 1.2-1.7 1.2c-0.4 0-0.8 0.1-1.1 0.2c-0.4 0.3-0.7 0.5-1.2 0.2c-0.5 0.1-0.5 0.2-0.5 0.2c0.3 0.2 0.5 0.3 0.6 0.4q-0.5 0.6-1 1.2c0.9-0.1 1.6 0 2 0.3q0.2 0 0.3 0.2c-2.3 0.9-2.5 2.3-3.1 3.8c-0.9-0.1-1.6 0.2-1.8 0.8c-0.1 0.2-0.4 0.4-0.6 0.5c-1.2 0.6-0.4 1.2-0.4 2c0.3-0.1 0.6-0.3 0.7-0.3c0.5 0.3 1 0.4 1.5 0.6c-0.5 0.4-0.6 0.6-0.3 0.8q0.2 0.1 0.8 0.1c0 0.5-1 0.8-0.4 1.2q0.2 0.1 0.5 0.2c-1.3 0.7 0.5 1.2-0.2 2c-1.1-0.4-2.1-1-3.2-1.3q-0.4 0-0.6-0.2c-0.8-0.4-0.6-1.1-1.1-1.4c0.7-1.6 1-3 0.5-4.4q-0.2 0-0.5 0c0 0.3 0.1 0.5 0.2 0.9c-0.1 0-0.2 0.3-0.3 0.4c-0.2 0.4-0.1 1-1.3 0.5c-0.1-0.1-1.1 0.6-1.4 0.9c-0.3 0.3-0.2 0.7-0.1 1.1c0 0.1 0.3 0.3 0.6 0.6c-0.4 0.3-1 0.7-1.6 1.2c-0.1-0.1-0.1-0.2-0.2-0.6c-0.8 0.6-1.4 1-2 1.5c-0.4 0.2-0.9 0.4-1.3 0.6c-0.8 0.4-1.4 0.9-1.4 1.6c0 1.1-0.2 2.2-0.4 3.3c0.5 0 1.1 0 1.6 0c0.3 0 0.6-0.2 0.7-0.4c0.2-0.2 0.2-0.6 0.4-0.6c0.5-0.1 1.2-0.1 1.6 0c0.6 0.3 0.9 0.7 1.2 1c0.2 0.3 0.4 0.3 0.4 0.3c2.1 1.2 1.8 2.7 2.3 4.2c0 0.3 0.1 0.7 0 1c-0.2 0.3-0.6 0.5-1 0.7c-0.1 0.5-0.6 1 0.3 1.6c0.3 0.2-0.1 0.8 0.1 1.1c1.1 0.3 2.2 0.5 3.2 0.9q0.2 0 0.4 0.2c0.9 0.5-0.2 1.1-0.5 1.7c-0.3-0.2-0.6-0.4-1-0.6c-0.4-0.3-0.7-0.6-1.2-0.9c-0.1-0.1-0.4-0.1-0.5 0c-0.7 0.1-1 0.1-1.2 0c-0.1-0.1-0.3-0.2-0.5-0.5c-1.1 0.1-1.6 0.5-1.4 1.3q-0.2 0-0.4 0.1c-0.3-0.3-0.6-0.7-0.9-1c-1.4 0.5 0.3 1.5-1.4 2q1.5 0.2 2.2 0.3c0.7-0.3 1.3-0.7 2.1-1.2q-0.1 1.3-0.3 2.1c1.8 0.3 3.2 0.7 4.6 1.1c-0.1 0.2-0.1 0.4-0.1 0.6c0.4-0.1 0.7-0.3 1-0.4q0.7 1 1.3 2c0.2 0.5 0.7 1.1 0.8 1.7c0 0.6 0.5 1.2-0.4 1.8c-0.6 0.4-0.8 1-1.1 1.5c-0.1 0.3 0 0.6 0 0.9q-0.3-0.2-0.8-0.4c-0.9 0.4-1.3 1.3-0.6 2q0.1 0.1 0.3 0.3c1 0.5 2.6 0.4 3.9 0.5c0.3-0.3 0.6-0.6 0.9-1c0.3 0.3 0.5 0.5 0.5 0.6c-0.2 0.5 0 0.8 0.5 1c0.2 0.2 0.5 0.3 0.8 0.4c0.7 0.4 0.8 0.8 0.8 1.3c-0.1 0.6 0 1.2-0.1 1.9q-0.1-0.2-0.3-0.3c-0.5-0.3-1.2-0.3-2-0.3c-0.6 0.1-1.2-0.2-1.9-0.2c-0.4 0-0.8 0.3-1.2 0.1h-0.5c0 0.1 0.1 0.2 0.1 0.3c0.5 0.4 0.9 0.8 1.5 1.1c0.4 0.3 1 0.4 1.4 0.7c1.2 0.5 2.7 0.4 4.1 0.5c0.5 0.1 1 0.2 1.5 0.4z"/>
		<path id="Layer" class="s13" d="m108.7 189.8c-0.8 1.5-2.2 2.9-1.5 4.6c0.3-1 1.6-0.5 2.6-0.6q-0.6 0.4-1.1 0.8c0.4 0.1 1.2 0 1.6 0.2q0.2 0.1 0.2 0.4c0.2 0 0.6 0.1 0.9 0.1c0.2 0.9 0 1.6-1.8 1.8q0 0.4 0.3 0.6c0.3 0.1 0.8 0.1 1.3 0.1c0.9-0.3 1.6-0.3 2.2 0.1q0 0 0.1 0.1c-0.4 0.5-1.1 0.7-2.2 0.4c0.1 0.4 0.1 0.7 0.1 1q1.1-0.5 2.2-1c-0.4 1.4-1 2.2-2.8 3.7c-0.3 0.2-0.3 0.6-0.2 0.8c0.3 1 0.2 1.9-1.5 2.7c-0.1 0-0.1 0.5 0.1 0.7q0.2 0 0.4 0.1c0.6 0.4 0.9 0.7 0.6 1.3c-0.1 0.1 0 0.1 0.1 0.2c0.4 0.4 0.9 0.9 1.4 1.3c0.6 0.5 0 0.6-0.6 0.7c-0.7 0.1-1.3 0.3-2 0.5c-0.5 0-1.2 0-1.7 0q-2.8-0.5-5.6-1.1c-0.2 0-0.3-0.1-0.5-0.2c-0.1-0.1-0.2-0.1-0.2-0.1q0-0.1-0.2-0.2c-0.3 0.1-0.9 0.1-1.5 0.2c0.3-0.7 0.6-1.2 0.8-1.6q0.2 0 0.4 0q-0.5-0.3-1.1-0.6q-1.2 0.3-2.3 0.5q-0.1 0-0.2-0.1c0.6-0.3 1.2-0.5 2-0.9c-0.9 0.2-1.6 0.3-2.2 0.3c-0.2 0.2-0.5 0.5-0.8 0.5c-0.5 0-1-0.2-1.5-0.3c0.3-0.2 0.5-0.3 0.7-0.4c-0.5-0.1-1-0.3-1.5-0.3c-1.5 0-3.2-0.3-4.5 0.3c-1 0.5-1.9 1.2-2.8 1.7c-0.4 0.2-0.5 0.8-1.6 0.5c-0.2-0.1-0.8 0.2-1.3 0.4q-0.2-0.1-0.3-0.2c0.4-0.3 0.9-0.6 1.5-1c-1.3 0.4-2.3 0.8-3.6 1.2c0.1-0.4 0.2-0.5 0.3-0.7c0.7-0.5 1.5-1 2.1-1.6c0.5-0.3 1-0.6 0.2-1.1q-0.6 0.3-1.3 0.7q-0.1-0.1-0.2-0.2c0.6-0.6 1.3-1.3 2-2c-0.1 0-0.3-0.2-0.5-0.3c0.9-0.6 1.6-1.2 2.4-1.7c0.1-0.2 0.6-0.1 0.9-0.2c0.2 0 0.4 0 0.5-0.1c0.5-0.4 0.9-0.8 1.3-1.2c0 0-0.2 0-0.6-0.1c1.3-0.4 2.4-0.8 3.6-1.2q-0.1 0-0.1-0.1q-0.2 0-0.3 0q-0.7 0.1-1.4 0.2c0.1-0.3 0.1-0.6 0.4-0.8c0.4-0.3 1-0.6 1.5-0.9c0.4-0.3 0.9-0.6 1.4-0.9c2.2-1.3 4.1-2.9 7.2-3.8c0.8-0.2 1.6-0.6 2.5-0.9q-0.9 0.8-1.8 1.5q0.1 0.1 0.4 0.1c0.1 0 0.4-0.1 0.5-0.2c0.3-0.3 0.6-0.5 0.9-0.8q0.2 0.5 0.4 0.8c1.2-1.5 2.5-2.9 5.3-3.7z"/>
		<path id="Layer" class="s13" d="m211.9 208.3c0.3 0.1 0.5 0.3 0.6 0.5c0 0.2 0.2 0.3 0.3 0.3c1.1 1.2 2.4 2.4 3.5 3.5c0.4 0.5-0.2 1.1-1.1 1.2c-0.6 0-1.3-0.2-1.9-0.6c-0.4-0.1-0.6-0.3-0.7-0.6c-0.2-0.3-0.8-0.7-1.2-1q-0.3-0.2-0.6-0.3q-0.5-0.3-0.9-0.6c1.5-0.9 0.4-1.9 0.3-2.8c0.7-0.1 1.3 0.1 1.7 0.4z"/>
		<path id="Layer" class="s13" d="m83.8 212.4q0.1 0 0.2 0.1c-0.4 0.3-0.8 0.6-1.3 1c-0.3-0.1-0.8-0.1-1.5-0.1c1-0.5 1.8-0.8 2.6-1z"/>
		<path id="Layer" class="s13" d="m83.5 203.5c-0.2 0.3-0.3 0.6-0.4 0.8q-1.2 1.5-2.3 3.1q-0.2 0.4-0.6 0.7c-0.7 0.5-0.6 1.1 0 1.5c-0.4 0.5-0.7 1-1.1 1.5c0.6 0 0.8-0.1 1.3-0.1c-0.6 0.4-0.5 1.1-1.8 1.1c-0.2 0-0.3 0.2-0.4 0.3c-1.2 1-2.6 1.7-3.9 2c0.3-0.3 0.6-0.6 0.8-0.9c-0.2 0-0.3-0.1-0.6-0.1c0.5-0.3 0.9-0.5 1.3-0.6q-0.1-0.1-0.2-0.2c-0.5 0.1-0.9 0.2-1.5 0.3c-0.2-0.8 1.3-0.9 1.9-1.4c-1 0.1-1.9 0.2-2.9 0.4c0-0.2 0-0.3 0.1-0.3c1.4-0.3 1.8-1.2 3-2c-1.9 0.3-2.2 1.5-4 2c-0.3 0.7-1.8 0.6-3.3 0.8c1.1-0.8 2-1.7 3.2-2.3c1.3-0.7 1.8-1.4 2.6-2.2c0.6-0.6 1.5-1 2.4-1.4q2.2-1.3 4.6-2.4c0.5-0.3 1-0.4 1.8-0.6z"/>
		<path id="Layer" class="s13" d="m73.6 212.1c0.5 1.2-0.5 1.9-3.1 2.5c0.1-0.2 0.1-0.5 0.1-0.5q-1 0.3-2.1 0.8c-0.7-0.8-0.6-1.3 0.4-1.8c0.2 0 0.4-0.1 0.7-0.2q0.5-0.1 1.1-0.3c0.7 0 1.4 0.1 1.5-0.5c0.5 0 1 0 1.4 0z"/>
		<path id="Layer" class="s13" d="m80.4 212.1c0.5 0.8 0.2 1.1-0.8 1.4c-0.4 0.1-0.6 0.4-0.9 0.6c-1.1 0.5-2.2 1.2-3.4 1.8c-0.2 0.1-0.8 0-1.1 0c-0.3-0.2-0.6-0.3-1.1-0.5c0.2-0.1 0.3-0.3 0.5-0.5c0.3 0.1 0.5 0.2 0.5 0.2c3.1-0.3 3.9-2.2 6.3-3z"/>
		<path id="Layer" class="s13" d="m70.4 215.2c-0.1 0.2-0.2 0.4-0.4 0.5c-0.4 0.2-1 0.2-1.5 0.3q-0.2-0.1-0.2-0.3c0.4-0.1 0.8-0.3 1.2-0.4c0.3-0.1 0.6 0 0.9-0.1z"/>
		<path id="Layer" class="s13" d="m72.4 215.4q0.2 0.1 0.2 0.2c-0.1 0.5-1 0.7-1.9 0.8q-0.1 0-0.1-0.2q0.9-0.3 1.8-0.8z"/>
		<path id="Layer" class="s13" d="m74 216.4q0.4 0.3-0.4 0.5c-0.2 0.1-0.4 0.1-0.6 0.2c-0.2 0-0.4 0.1-0.5 0.1q-0.1 0-0.3 0q0.4-0.5 0.8-1q0.8 0.1 1 0.2z"/>
		<path id="Layer" class="s13" d="m68.6 216.4q0.1 0.1 0.1 0.2c-1.1 0.4-2.1 0.8-3.3 1.3q0.1-0.2 0.2-0.5q-0.6 0.2-1.1 0.4q-0.2-0.1-0.3-0.2q0.7-0.3 1.4-0.6c0.5-0.1 1-0.3 1.5-0.4c0.5-0.1 1-0.1 1.5-0.2z"/>
		<path id="Layer" class="s13" d="m71.1 217.1q0 0 0 0.1c0.3 0.1 0.5 0.5 0.4 0.6c-0.3 0.2-0.9 0.3-1.3 0.4c-0.3 0.1-0.6 0.2-0.8 0.3c-0.3 0.1-0.6 0.2-0.9 0.2c-0.4 0.1-0.7 0.1-1.1 0.2c-0.1-0.2-0.1-0.4-0.1-0.4q0.6-0.1 1.2-0.1c0.1 0 0.2 0 0.4 0v-0.1c-0.1-0.1-0.3-0.1-0.6-0.3c0.6-0.1 1-0.1 1.6-0.2c-0.4-0.1-0.6-0.1-0.8-0.2c0.3-0.2 0.6-0.5 1-0.7c0.3 0 0.8 0.1 1 0.2z"/>
		<path id="Layer" class="s13" d="m196.8 199c0.5 0.4 1.1 0.7 1.3 1.1c0.9 1.5 1.7 3 1.4 4.6c-0.2 1.3 0.6 2.6 1 3.9c0 0 0.1 0.1 0.3 0.2q0 0 0.1 0q0.8 0 1.1 0.3q0.2 0.1 0.3 0.2q0.2 0.1 0.3 0.2q0.2 0.1 0.3 0.1c0.6 0.3 1.4 0.3 1.9 0.5c0.6 0.3 1.3 0.5 1.8 0.8q0.3 0.2 0.5 0.5c0.5 0.3 0.3 0.9 0.3 1.3c0 0.7-0.2 1.4-0.2 2.1c-0.1 0.1 0 0.1 0.2 0.1c0 0.1 0.2 0.2 0.2 0.2c0.4 0.1 0.8 0.2 1.3 0.3q0.3 0.2 0.5 0.3c0.6 0.3 0.7 0.7 0.4 1.2c-0.2 0.2-0.3 0.4-0.3 0.5q0.1 0 0.1 0.1q0.2 0.1 0.3 0.2q0.2 0.1 0.3 0.2c0.2 0 0.4 0.2 0.4 0.3c0.6 1.5 1.3 2.9 0 4.2c-0.5 0.6-1.4 1.1-2 1.6c-0.2 0.1-0.3 0.3-0.5 0.5c-0.8 0.2-1.5 0.2-2.1-0.3q-0.2 0-0.3-0.1c-0.6-0.4-1.8-0.6-2.6-0.6c-1.7 0-3-0.5-4.1-1.1c-1.1-0.6-2.5-0.7-3.9-1q-1.2-0.2-1.9-0.6c-0.9-0.4-1.3-1.1-1.7-1.8c-0.2-0.3-0.3-0.6-0.6-0.7c-0.2-0.1-0.4-0.2-0.8-0.2c-0.2 0-0.4-0.2-0.6-0.2q-0.1-0.1-0.3-0.2c-1.2-0.7-2.7-1.1-4.3-1.1c-1.2 0-2.1-0.2-2.8-0.7c-0.4-0.2-0.7-0.5-1.1-0.8q-0.1-0.1-0.2-0.2c-0.4-0.2-0.8-0.3-1.2-0.4c-0.4-0.1-1 0.1-1.2 0.3c-0.5 0.4-1 0.6-1.9 0.3c-1.1-0.2-1.6 0.4-2 0.8c-0.4 0.4-0.6 0.8-1 1.3c-0.2 0.2-0.4 0.3-0.7 0.5c-0.7 0.4-1.5 0.8-1.9 1.3c-0.3 0.4-0.7 0.6-1.5 0.7c-1.1 0-2.3 0.2-3.5 0.1c-1.2 0-2.4-0.2-3.6-0.4c-0.2 0-0.5 0-0.8 0c-0.2 0-0.6 0-0.8 0q-0.5-0.3-0.9-0.5c-0.6-0.4-1.1-0.7-1.5-1.2q-0.3-0.3-0.8-0.6c-0.4-0.2-0.8-0.4-1.2-0.4c-0.4-0.1-0.7-0.2-0.9-0.3c-0.4-0.3-0.5-0.7-0.7-1c-0.4-0.7-0.7-1.4-1-2.1c-0.1-0.2 0-0.4 0.2-0.5c0.5-0.7 0.7-1.2-0.3-1.7c-0.6-0.4-0.9-0.9-0.6-1.5c0.2-0.5 0-1-0.1-1.5c1.6-0.1 2.3-0.9 2.8-1.7c0.4-0.5 0.9-1 1.5-1.4c0.8-0.7 1.8-1.2 2.7-1.8c0.3-0.2 0.7-0.4 1.2-0.6c0.4 0.5 0.7 0.9 1.2 1.4c1.2 0.2 1.9-0.7 3-0.9c0.2 0 0.3-0.2 0.4-0.1c1.1 0.4 1.9-0.3 2.9-0.4c0.9 0 0.8-0.4 0.3-0.7c-0.7-0.5-0.4-1 0.7-1.3c1.1-0.3 2.2-0.6 3.3-0.9c0.6-0.2 1-0.6 1.2-0.9c0.5-0.4 0.8-0.7 1.8-0.4c1.3 0.4 2.7 0.7 4.1 1c1.1 0.3 2.5 0.2 3.4 0.6c1.3 0.7 3 0.7 4.5 1.1c0.4 0.2 1 0.2 1.4 0.2c0.9 0 1.9-0.1 2.7 0c0.5 0 1 0.2 1.4 0.3c0.3 0.1 0.8-0.1 0.9-0.1c0.9-0.8 1.6-1.6 2.5-2.5z"/>
		<path id="Layer" class="s13" d="m97.2 211.2c0.1 0.6 0.1 1.1 0.3 1.7c-0.9 0-2 0.1-3.2 0.2c0.2 0.2 0.4 0.3 0.5 0.5c1.2 0.1 2.5-0.3 3.7 0.3q0.2 0.2 0.4 0.3c-0.3 0.2-0.6 0.3-1.1 0.5c0.5 0.1 0.8 0.2 1.5 0.4c-1.7 0.3-2.7 1-4.5 0.8c-1.1-0.1-2.1 0.1-2.8 0.8c-0.2 0.2-0.7 0.2-1.2 0.4q-0.3-0.3-0.5-0.5c-0.2-0.2-0.3-0.3-0.3-0.5c0-0.1 0-0.3 0.1-0.5c0.1-0.1 0.4 0 0.7-0.1c0 0.2 0.1 0.4 0.1 0.7q0.6-0.3 1.1-0.7q-0.1-0.1-0.2-0.1c-0.2 0-0.3 0-0.8 0.2c0.1-0.3 0.3-0.5 0.2-0.7c0-0.3-0.1-0.7-0.2-0.8c-0.8-0.1-1.5 0-2.3 0c-0.2 0-0.5 0.3-0.7 0.4q-0.1-0.1-0.3-0.3c-0.3-0.1-0.9-0.1-2.2 0.3c0.3 0.4 0.5 0.7-0.6 0.7c-0.3 0-0.5 0.3-0.8 0.4q-1.9 0.9-3.9 1.8q-0.2-0.1-0.3-0.2c0.1-0.1 0.3-0.3 0.5-0.5c-0.3 0-0.5 0-0.6 0.1q-1 0.4-1.5 0.1q-0.3-0.2-0.4-0.5q-0.6-1.2 1.3-1.8c0 0.5 0.1 0.8 0.3 1c0.3 0.1 0.8 0.2 1.9 0.3c-0.3-0.3-0.7-0.4-1-0.6c-0.3-0.2-0.5-0.3-0.6-0.4c-0.1-0.3 0.3-0.8 0.7-1c0.9-0.6 1.6 0 2.4 0.2c0.4-1 1.8-1.7 3.6-1.8c0.2 0 0.6-0.2 0.9-0.3c0.1-0.1 0.2-0.1 0.3-0.2c1-0.2 2-0.4 3.1-0.5c0.5 0 1 0.1 1.6 0.2c-0.2 0.2-0.4 0.4-0.5 0.5q0.1 0.1 0.1 0.1c1.7-0.2 3.4-0.5 5.2-0.9z"/>
		<path id="Layer" class="s13" d="m64 223.5c-0.3 0.8-1 1.5-0.6 2.4c0.2 0.2-0.5 0.6-0.7 0.8c-0.7 0.1-1.4 0.3-2.2 0.3c-0.4-0.3-0.2-0.8-0.8-1.1c-0.2-0.2-0.4-0.2-0.9-0.3c1.6-0.9 3.2-1.7 5.2-2.1z"/>
		<path id="Layer" class="s13" d="m63.1 219.5c0.4 0.7-0.2 1.2-1.5 1.2c0.5-0.4 1-0.8 1.5-1.2z"/>
		<path id="Layer" class="s13" d="m67.4 219.4c0 0.3 0.2 0.5 0 0.6q-1 1-2.1 1.9c-0.3 0.3-0.7 0.5-1.1 0.7q-0.1-0.1-0.3-0.2q0.5-0.4 0.9-0.8q-0.1-0.1-0.2-0.2q-1.3 1-2.5 1.8h-0.3q0.3-0.3 0.6-0.7h-0.1q-0.2 0.2-0.5 0.3c-0.1-0.9 0.5-1.4 2.3-1.6c0.5-0.2 1-0.3 1.9-0.5c-0.8-0.2-1.2-0.3-1.6-0.3q0.2-0.2 0.2-0.6c0.7 0.1 1.6 0.5 2-0.2c0-0.1 0.5-0.1 0.8-0.2z"/>
		<path id="Layer" class="s13" d="m76.4 216.1q0.8 0.6-0.2 1.3c-0.1 0-0.3 0.1-0.2 0.2c0.6 0.4-0.2 0.6-0.6 0.5c-0.3-0.1-0.7-0.2-1-0.4c-0.1 0-0.3-0.1-0.3-0.2c0.1-0.3 0.6-0.7 1-0.9c0.3-0.2 0.8-0.4 1.3-0.5z"/>
		<path id="Layer" class="s13" d="m74.7 218.5c0.7 0.4-0.1 0.8-0.1 1.2q-1.7 0.2-3.2 0.4q-0.1-0.1-0.2-0.2q0.6-0.2 1.2-0.5q-0.1 0-0.1-0.1q-0.5 0.1-1 0.1c0.2-0.9 1.1-1.4 2.1-1.3q0 0.3-0.1 0.6q0.6-0.2 1.2-0.3q0.1 0 0.2 0.1z"/>
		<path id="Layer" class="s13" d="m75 220.9c-0.4 0.3-0.6 0.5-0.8 0.7c0.2 0.1 0.5 0.1 0.9 0.1c-0.5 0.4-0.8 0.7-1.3 0.8c-1.4 0.4-1.9 1.2-2.6 1.9c-0.4 0.3-0.9 1-2.1 0.7c-0.2-0.1-0.5 0.1-0.7 0.2q-0.8 0.3-1.7 0.5q-0.1-0.1-0.4-0.2q1.1-0.7 2.3-1.4l-0.2-0.1q-1.6 0.7-3.1 1.5q0-0.1-0.2-0.1c0.2-0.2 0.4-0.4 0.7-0.8c-0.7 0.3-1.2 0.4-1.6 0.6c-0.5-0.8-0.3-1.3 1.1-2.1q0.2 0.1 0.4 0.3c0.1-0.1 0.3-0.1 0.3-0.2c0-0.6 0.6-0.6 1.3-0.6c0.4-0.1-0.1-0.8 0.9-0.7q0.7 0.1 1.4 0.2l0.1-0.2c-0.5-0.2-1-0.3-1.6-0.6c0.4-0.2 0.8-0.5 1.2-0.7c0.9 0.2 1.8 0.6 2.7 0.6c0.9 0.1 1.8-0.2 3-0.4z"/>
		<path id="Layer" class="s13" d="m293.1 177.6c0.1 0 0.2 0.2 0.3 0.3q0.2 0.9 0.3 1.7c0 0-0.2 0.1-0.5 0.3q-0.1-0.3-0.4-0.5c-0.3-0.2-0.8-0.1-1.1 0c-0.3-0.4-0.6-0.8-1-1.2q1-0.3 2.4-0.6z"/>
		<path id="Layer" class="s13" d="m293.2 180.2c0 0.4 0.7 0.9 0.2 1.4c-0.2 0.1-0.2 0.2-0.2 0.3c0.5 1.4 0.5 1.4-1.7 2c0.1-1.2 0.2-2.5 0.4-3.8c0.1 0 0.3 0 0.6 0c0.2 0 0.6 0 0.7 0.1z"/>
		<path id="Layer" class="s13" d="m196.8 142.4c0 0.2 0 0.4-0.1 0.5c-0.1 0.2-0.2 0.4-0.4 0.5h-0.2c-0.6 0.4-1.1 0.9-1.8 1.3c-0.3 0.2-0.8 0.2-1.3 0.2q0 0-0.2 0c-0.1 0-0.2-0.2-0.2-0.3c0.1-0.2 0.3-0.5 0.6-0.5c1.3-0.3 1.6-1.2 2.6-1.5q0.5-0.1 1-0.2z"/>
		<path id="Layer" class="s13" d="m130.2 233.1q0 0 0.1 0c-0.5 0.4-0.8 0.8-1.3 1.2c-0.5 0.2-1.2 0.4-2 0.5c0.3-0.1 0.7-0.3 1.3-0.6c-0.7-0.1-1-0.1-1.3-0.1c0.8-0.8 2.5-1.3 3.2-1z"/>
		<path id="Layer" class="s13" d="m126.3 234.3c-0.6 0.4-1.1 0.7-1.5 1c-0.3 0-0.5-0.2-0.7-0.2c-1.5 0.1-2.7 0.5-3.8 1.1c-0.3 0.1-0.3 0.5-0.5 0.8c-0.5-0.7 0.4-1.7 1.8-2c1.4-0.2 2.9-0.5 4.7-0.7z"/>
		<path id="Layer" class="s13" d="m61 221.6c0 0.3 0 0.6 0 0.9c0 0-0.5 0.1-0.8 0.1c0.2 0.7-1 1.6-1.8 1.6c0.2-0.5 0.4-1.1 0.8-1.5c0.3-0.5 1-0.8 1.5-1.3q0.2 0.1 0.3 0.2z"/>
		<path id="Layer" class="s13" d="m91.2 218.7q-0.9 0.4-1.7 0.7h0.2c-0.6 0.4-1.1 0.8-1.8 1.3c-0.1-0.3-0.2-0.5-0.2-0.6q-0.6-1 1.8-1.3c0.5 0 1-0.1 1.5-0.1q0 0 0.2 0z"/>
		<path id="Layer" class="s13" d="m131.8 176.4c-0.8 0.7-1.1 1.6-3 1.7c-0.5 0-1 0.5-1.4 0.8q-0.1-0.1-0.2-0.2q2.1-1.2 4.3-2.5q0.1 0.2 0.3 0.2z"/>
		<path id="Layer" class="s13" d="m222.5 163.5c0.2 0.2 0.1 0.3-0.1 0.5c-0.2 0.2-0.3 0.4-0.1 0.5q0 0 0 0q-0.3 0-0.5-0.2c-0.4-0.2 0.2-0.6 0.2-1q0.3 0.2 0.5 0.2z"/>
		<path id="Layer" class="s13" d="m222 165c0.4 0.2 0.5 0.5 0.3 1c-0.4-0.2-0.8-0.5-1.2-0.7q-0.3 0-0.6 0c-0.1-0.1-0.1-0.3-0.3-0.6c0.8 0 1.5 0.1 1.8 0.3z"/>
		<path id="Layer" class="s13" d="m79.9 220.9q0.1 0.1 0.2 0.2c-0.7 0.3-1.3 0.6-2 1c0-0.4 0-0.6 0.1-0.9c0.5 0 1.1-0.1 1.7-0.3z"/>
		<path id="Layer" class="s14" d="m206.8 120.4q1.3-0.8 2.6-1.5q5.3-3.1 10.5-6.1q1.8-1.1 3.7-2.2c0.6-0.3 1-0.5 1.6-0.2q-1.1 0.7-2.2 1.4q-4.8 2.7-9.6 5.5q-2.1 1.2-4.1 2.4c-0.4 0.2-0.8 0.5-1.2 0.6c-0.4 0.2-0.3-0.1-0.8-0.1q-0.3 0-0.5 0.2z"/>
		<path id="Layer" class="s15" d="m164.9 92.2l31.7-18.3l16.5 9.5l-31.7 18.3z"/>
		<path id="Layer" class="s16" d="m181.4 101.7q7.5-4.3 14.9-8.5q8-4.7 16-9.4c0.7-0.4 0.6-0.4 1.3-0.1c1.2 0.6 2.3 1.8 2.9 2.9c0.4 0.5 1.4 1.5 1.2 2c-0.3 0.3-1.4 0.7-1.7 1q-15 8.6-29.9 17.2q-0.1-0.4-0.4-0.7c-1-1.8-2.4-3.4-4.3-4.4z"/>
		<path id="Layer" class="s15" d="m242.3 106.8q-9.1 5.2-18.4 10.5q-4.9 2.9-9.9 5.8c-1.9 1.1-3.9 2.6-6.1 2.7c-4.4 0.1-9-2.6-12.1-5.4c-2-1.5-3.7-3.5-5.1-5.6q-1.6-2.2-2.9-4.5c-0.1-0.5-1.9-3.1-1.7-3.5c0.2-0.4 1.5-0.8 1.7-1.1q1.9-1 3.7-2.1q5.3-3 10.7-6.1q7.8-4.6 15.6-9c2.5 5.1 5.2 9.9 9.7 13.7c3.4 2.9 8.8 6.3 13.5 5.1q0.8-0.3 1.3-0.5z"/>
		<path id="Layer" class="s17" d="m191.4 60.4l31.6-18.4l-1 12.7l-31.6 18.3z"/>
		<path id="Layer" class="s16" d="m171.3 26.1q2.3-1.5 4.7-2.8q9.6-5.6 19.3-11.2q3.2-1.9 6.6-3.9c1.2-0.6 2.1-1 3.3-0.3q-2.1 1.2-4.2 2.5q-8.9 5.1-17.6 10.2q-3.8 2.1-7.4 4.3c-0.7 0.3-1.3 0.8-2 1c-0.8 0.3-0.8 0-1.7-0.1q-0.6-0.1-1 0.3z"/>
		<path id="Layer" class="s15" d="m263.4 131.7c-1.8 1.7-4.1 2.8-6.3 4.1q-5.5 3.2-11 6.3q-8.5 4.9-16.9 9.8c5.8-3.7 7.9-10.2 8.4-16.7c0.9-14.5-4.5-28.6-13.4-39.8c-4.6-5.7-9.9-10.9-15.9-15.1c-5.1-3.7-11.3-7.7-17.9-7.3q6.4-3.7 12.7-7.3q8.2-4.7 16.3-9.4c1.2-0.6 2.2-1.6 3.5-1.6c4.4 0 8.5 1.9 12.3 4.1c18.6 11.1 33.5 31.1 34.1 53.2c0.3 6.8-0.5 14.7-5.9 19.7z"/>
		<path id="Layer" class="s17" d="m236.7 77.8q13.8-8.1 27.8-16c0 1.8-1.6 2.5-3 3.2q-14.9 8.6-29.7 17.3c0.7-0.4 1-1.4 1-2.3q2-1.1 3.9-2.2z"/>
		<path id="Layer" class="s15" d="m232.8 64.3l31.7-18.3v15.8l-31.7 18.2z"/>
		<path id="Layer" class="s15" d="m173.6 26.2l31.6-18.3l55.8 32.1l-31.7 18.3z"/>
		<path id="Layer" class="s13" d="m229.3 58.3q1.4 0.7 2.5 2.6q1 1.8 1 3.4v15.7q0 1.7-1 2.3q-1.1 0.6-2.5-0.3l-37.9-21.6l-1 12.6q2.4-0.1 5.4 0.6q3.1 0.8 6.8 2.9q7.5 4.3 13.9 10.4q6.4 6.2 11.2 13.3q4.7 7.2 7.5 15.3q2.6 8.1 2.6 16.6q0 8.9-3 14q-3 5.2-8.1 6.9q-5.2 1.7-12.1 0.2q-7-1.6-14.9-6.2q-8.9-5-15.8-11.6q-7-6.6-11.8-13.8q-4.7-7.1-7.3-14.3q-2.6-7.3-2.8-13.4q0-1.3 0.9-1.9q0.8-0.5 2 0.2l16.5 9.5q2.1 1.1 3.2 2.7q1.1 1.6 1.5 2.4q1 1.8 2 4q1.2 2.1 2.7 4.3q1.6 2.1 3.8 4.3q2.2 2.1 5.2 3.9q2.8 1.6 5.2 2.1q2.5 0.7 4.5 0.1q1.9-0.5 3-2.2q1.1-1.8 1.1-5.1q0-5.1-3.3-10.1q-3.6-5.3-9.6-8.8q-1.8-1-3.4-1.3q-1.6-0.4-2.9-0.5q-1.5-0.1-2.7-0.1q-1.1-0.2-1.9-0.5l-20.3-11.8q-1.6-0.9-2.7-2.6q-1-1.8-0.9-3.4l4.2-50.8q0.1-1.6 1-2.2q1.1-0.7 2.5 0.1z"/>
		<path id="Layer" class="s16" d="m229.3 58.3q7.8-4.6 15.8-9.2q4.8-2.7 9.7-5.6q1.9-1 3.7-2.2c0.6-0.2 1.4-1 2.2-1.2c1.3-0.3 2.7 2.3 3.3 3.3c0.1 0.5 0.7 2.1 0.5 2.6c-0.1 0.3-0.9 0.5-1.2 0.7q-15.2 8.8-30.5 17.6c0-0.6-0.1-1.1-0.3-1.7c-0.5-1.7-1.6-3.4-3.2-4.3z"/>
		<path id="Layer" class="s15" d="m333.6 158.6q-0.3 0.2-0.5 0.4c-7.6 4.5-15.3 8.8-22.9 13.2q-4.1 2.4-8.2 4.7c-4.7 2.6-10.8-0.9-14.8-3.5c-5.4-3.5-9.5-8.6-12-14.6c-2.6-6.5-2.6-13.7-2.8-20.8c-0.1-4.4-0.1-8.9 0.3-13.4c0.1-1.7 0-1.7 1.3-2.5q5.2-3 10.4-6q10.1-5.7 20.1-11.6c-0.8 5.4-0.5 11-0.4 16.3c0.1 9.2 0.7 17.9 5.9 25.7c2.6 3.8 6.1 6.9 10 9.3c3.4 2.1 8.2 4.7 12.4 3.4q0.7-0.2 1.2-0.6z"/>
		<path id="Layer" class="s17" d="m308.9 94.6c-2.7 1.7-3.6 5.3-4.1 8.2c-0.3 1.6 0 1.6-1.3 2.4q-15.3 8.9-30.7 17.7c0.7-4.1 1.5-8.2 5.4-10.4q15.4-9 30.7-17.9z"/>
		<path id="Layer" class="s17" d="m292.3 137.3q2.3-1.3 4.6-2.8q9.7-5.6 19.3-11.1q3.4-1.9 6.7-3.9c1.3-0.6 2.2-1 3.5-0.2q-2.1 1.1-4.2 2.3q-8.8 5.1-17.7 10.3q-3.6 2.1-7.4 4.2c-0.7 0.4-1.2 0.9-2 1.2c-0.6 0.2-0.9-0.2-1.7-0.3q-0.6 0-1.1 0.3z"/>
		<path id="Layer" class="s18" d="m333.6 178.5q13.9-8.1 27.8-16.1c-0.1 7.2-1.5 15.1-7.1 20.2c-1.9 1.9-4.3 3-6.6 4.3q-5.4 3.2-10.9 6.3q-8.3 4.8-16.8 9.8c7.7-4.6 9.7-14.1 9.7-22.3q1.9-1.2 3.9-2.2z"/>
		<path id="Layer" class="s15" d="m329.8 161.6l31.6-18.2v19l-31.7 18.3z"/>
		<path id="Layer" class="s15" d="m294.7 137.5l31.7-18.2l31.6 18l-31.7 18.3z"/>
		<path id="Layer" class="s15" d="m259 86.8q3.7-2.2 7.3-4.3q11.4-6.5 22.7-13c3.8-2.2 7.7-3.4 12.1-3.3c7.1 0.3 13.8 3.3 20 6.8q-2.8 1.4-5.4 3q-10.1 5.9-20.2 11.7q-1.8 1.1-3.8 2.1c-0.5 0.4-1.4 1.2-2.1 1.3c-0.5 0-0.1 0-0.6-0.1c-1.4-0.4-2.9-1.6-4.3-2.2c-2.7-1.3-5.6-2.5-8.6-3.3c-5.6-1.4-12-1.7-17.1 1.3z"/>
		<path id="Layer" class="s16" d="m326.3 155.6q7.7-4.5 15.5-8.9q4.9-2.9 9.8-5.8q1.9-1 3.8-2.1c0.6-0.4 1.4-1 2.2-1.3c0.5-0.1 0.5-0.1 1.1 0.4c1 0.8 1.7 1.8 2.1 3c0.3 0.5 0.9 2 0.6 2.5c-0.2 0.3-1 0.5-1.2 0.6q-15.3 8.9-30.4 17.6q0-0.9-0.3-1.7c-0.4-1.6-1.8-3.5-3.2-4.3z"/>
		<path id="Layer" class="s17" d="m358.2 130.4q-8.7 5-17.4 10.1q-4.5 2.5-8.8 5c-0.2 0.2-3.5 1.7-3.5 2.1c0.8-0.6 0.3-1.3 0.6-1.9c0.2 0 0.3-0.1 0.4-0.1c0.7-0.6 1.6-1 2.4-1.4q14.5-8.4 28.9-16.7q0 0.1 0 0.2c0 1.6-1.5 2-2.6 2.7z"/>
		<path id="Layer" class="s13" d="m289.4 91.2q9.1 5.3 16.4 12.4q7.3 7.3 12.4 14.9q5 7.7 7.8 14.9q2.9 7.1 3.1 12.3q0.2 1.5-0.7 2q-0.9 0.4-2.1-0.3l-17.4-9.9q-1.9-1.1-3-3.1q-1.1-2-2.2-3.9q-1.8-3.8-4.9-7.8q-3.2-3.9-9.5-7.7q-4.5-2.5-7.5-2.8q-3-0.4-4.8 0.9q-2 1.4-2.9 4q-0.9 2.6-1.3 5.8q-0.2 1.7-0.2 5.1q-0.2 3.4-0.2 7.1q0 3.6 0.2 7.1q0.1 3.7 0.2 5.6q0.2 3.7 1.2 7.3q0.9 3.7 2.9 7.2q1.8 3.4 4.9 6.6q3 3.2 7.3 5.7q3.4 1.9 6.4 2.7q3 0.9 5.2 0.1q2.2-0.6 3.5-3q1.4-2.3 1.4-6.8l-11-6.2q-1.4-0.9-2.5-2.8q-1-1.6-1-3.3l0.1-15.8q0-1.6 1.1-2.2q1-0.6 2.4 0.2l31.6 18.1q1.4 0.8 2.5 2.7q1 1.6 1 3.3l-0.1 19.1q0 9.5-3.2 15.4q-3.1 5.7-8.6 7.8q-5.4 2.2-12.9 0.8q-7.3-1.5-15.9-6.3q-9.4-5.5-16.8-12.9q-7.3-7.4-12.5-15.9q-5.2-8.5-8-17.5q-2.8-9-3.1-17.3q-0.2-6.3-0.2-13.3q0-6.9 0.2-13.2q0.3-8.1 3.3-13.8q2.8-5.7 7.9-8.2q5.2-2.6 12.7-1.6q7.4 1.2 16.8 6.5z"/>
		<path id="Layer" class="s19" d="m313.1 111.8c-6.6-8.2-14.5-15.3-23.7-20.6c0.1-0.1 0.2-0.1 0.4-0.2c0.8-0.8 2.1-1.3 3.1-1.8q2.6-1.5 5.2-3q6.4-3.7 12.8-7.5q4.6-2.6 9.3-5.3c0.1 0 0.5-0.4 0.7-0.4c0.8-0.1 2.4 1.3 3.2 1.7q4.9 3.2 9.5 7.2c11.6 10 21.9 23.8 26.1 38.9q0.5 2 0.9 4c0 0.6 0.5 2.3 0.1 2.8c-0.4 0.5-1.7 0.9-2.3 1.3q-5.4 3.2-10.9 6.3q-9.1 5.3-18.4 10.5c-0.1-1.8-0.3-3.9-0.9-5.6c-2.6-10.4-8.3-20-15.1-28.3z"/>
		<path id="Layer" class="s20" d="m292.5 208.6l-2.9-1.7q0.1-0.1 0.3-0.1l2.8 1.6q-0.1 0.1-0.2 0.2z"/>
		<path id="Layer" class="s21" d="m292.7 208.4l-2.8-1.6q0.1-0.1 0.3-0.2l2.8 1.7q-0.1 0-0.3 0.1z"/>
		<path id="Layer" class="s22" d="m293 208.3l-2.8-1.7q0 0 0.1 0l2.9 1.7q-0.1 0-0.2 0z"/>
		<path id="Layer" class="s23" d="m293.2 208.3l-2.9-1.7q0.1 0 0.2 0l2.9 1.7q-0.1 0-0.2 0z"/>
		<path id="Layer" class="s24" d="m293.4 208.3l-2.9-1.7q0.1 0 0.2 0l2.8 1.7q0 0-0.1 0z"/>
		<path id="Layer" class="s25" d="m293.5 208.3l-2.8-1.7q0 0 0 0l3 1.7q-0.1 0-0.2 0z"/>
		<path id="Layer" class="s26" d="m293.7 208.3l-3-1.7q0.1 0 0.2 0l2.9 1.7q-0.1 0-0.1 0z"/>
		<path id="Layer" class="s27" d="m293.8 208.3l-2.9-1.7q0.1 0 0.1 0.1l2.9 1.6q-0.1 0-0.1 0z"/>
		<path id="Layer" class="s28" d="m293.9 208.3l-2.9-1.6q0.1 0 0.1 0l2.9 1.7q0-0.1-0.1-0.1z"/>
		<path id="Layer" class="s29" d="m291.1 206.8q0-0.1 0-0.1l2.9 1.7z"/>
		<path id="Layer" class="s10" d="m262.7 225.7l-3-1.7l29.9-17.1l2.9 1.7z"/>
		<path id="Layer" class="s20" d="m261.1 230.8q-1.4-0.8-2.6-1.5c-1.2-0.7-1-2.1-0.5-3.1q0.2-0.7 0.7-1.4c0.3-0.2 0.6-0.7 1-0.7c0.2-0.1 0.1 0 0.3 0.1c1 0.3 1.8 1 2.7 1.5c-1.3 0.7-2.2 2.3-2.2 3.8c0 0.5 0.1 1 0.6 1.3z"/>
		<path id="Layer" class="s8" d="m292.5 208.6c1.2-0.8 2.2-0.2 2.2 1.2c0 1.4-1 3.1-2.2 3.8l-29.8 17.1c-1.2 0.7-2.2 0.1-2.2-1.2c0-1.5 1-3.1 2.2-3.8z"/>
		<path id="Layer" class="s10" d="m149.4 186.3l0.3 0.1q-0.1 0.8-0.1 1.4l-0.3-0.1q0-0.8 0.1-1.4z"/>
		<path id="Layer" class="s10" d="m205 212.9q0.3 1.5 0.4 2.9l-0.3-0.2q-0.1-1.3-0.4-2.7z"/>
		<path id="Layer" class="s10" d="m203.4 207.1h0.3q0.4 1.5 0.7 3l-0.3-0.1q-0.3-1.5-0.7-2.9z"/>
		<path id="Layer" class="s10" d="m201.4 201.2h0.3q0.6 1.4 1.1 2.9h-0.3q-0.5-1.5-1.1-2.9z"/>
		<path id="Layer" class="s10" d="m198.8 195.4l0.2-0.1q0.7 1.5 1.4 2.9l-0.3 0.1q-0.6-1.5-1.3-2.9z"/>
		<path id="Layer" class="s10" d="m195.5 189.8l0.2-0.1q0.9 1.3 1.7 2.8h-0.2q-0.8-1.3-1.7-2.7z"/>
		<path id="Layer" class="s10" d="m191.7 184.6l0.2-0.2q1 1.3 2 2.6l-0.2 0.2q-0.9-1.3-2-2.6z"/>
		<path id="Layer" class="s10" d="m187.7 179.9v-0.2q1.1 1.1 2.2 2.3l-0.2 0.2q-1-1.2-2-2.3z"/>
		<path id="Layer" class="s10" d="m183.2 175.9l0.1-0.3q1.1 1 2.3 2l-0.2 0.3q-1-1-2.2-2z"/>
		<path id="Layer" class="s10" d="m178.7 172.6v-0.3q1.2 0.8 2.3 1.5v0.4q-1.1-0.9-2.3-1.6z"/>
		<path id="Layer" class="s10" d="m174.1 169.9q1.1 0.5 2.3 1.1v0.3q-1.2-0.6-2.3-1z"/>
		<path id="Layer" class="s10" d="m169.5 168.3q1.1 0.3 2.3 0.7v0.3q-1.1-0.3-2.2-0.5z"/>
		<path id="Layer" class="s10" d="m165.2 167.8q1 0 2.1 0.2l0.1 0.3q-1.1-0.1-2.1-0.1z"/>
		<path id="Layer" class="s10" d="m161.2 168.3q0.9-0.3 1.9-0.4l0.2 0.4q-1 0.1-2 0.3z"/>
		<path id="Layer" class="s10" d="m157.6 169.6q0.9-0.4 1.7-0.8l0.2 0.4q-0.8 0.4-1.7 0.8z"/>
		<path id="Layer" class="s10" d="m154.6 172q0.7-0.7 1.4-1.3l0.2 0.4q-0.7 0.5-1.3 1.2z"/>
		<path id="Layer" class="s10" d="m152.2 175.1q0.5-0.8 1.1-1.7l0.3 0.4q-0.6 0.8-1.1 1.6z"/>
		<path id="Layer" class="s10" d="m150.5 179.1q0.4-1.1 0.8-2l0.2 0.2q-0.3 1-0.7 2.1z"/>
		<path id="Layer" class="s10" d="m149.5 183.7q0.2-1.2 0.4-2.3l0.3 0.2q-0.2 1.1-0.3 2.3z"/>
		<path id="Layer" class="s10" d="m205.6 218.6q0 0.6 0 1.3l-0.3-0.1q0-0.7 0-1.4z"/>
		<path id="Layer" class="s10" d="m194.8 148.1l0.3 0.2q0 0.6 0 1.1l-0.3-0.1q0-0.6 0-1.2z"/>
		<path id="Layer" class="s10" d="m260.7 181.1q0.1 1.3 0.2 2.5l-0.2-0.1q-0.2-1.3-0.3-2.5z"/>
		<path id="Layer" class="s10" d="m259.5 175.9h0.2q0.3 1.4 0.5 2.7l-0.2-0.1q-0.2-1.3-0.5-2.6z"/>
		<path id="Layer" class="s10" d="m258.1 170.7h0.3q0.3 1.3 0.7 2.6h-0.2q-0.4-1.3-0.8-2.6z"/>
		<path id="Layer" class="s10" d="m256.2 165.4h0.3q0.5 1.3 1 2.7h-0.3q-0.4-1.4-1-2.7z"/>
		<path id="Layer" class="s10" d="m253.9 160.2l0.3-0.1q0.6 1.3 1.2 2.7h-0.2q-0.6-1.3-1.3-2.6z"/>
		<path id="Layer" class="s10" d="m251.2 155.1l0.2-0.1q0.8 1.2 1.4 2.5l-0.1 0.1q-0.8-1.3-1.5-2.5z"/>
		<path id="Layer" class="s10" d="m248.1 150.2l0.2-0.2q0.9 1.2 1.6 2.4l-0.2 0.2q-0.8-1.2-1.6-2.4z"/>
		<path id="Layer" class="s10" d="m244.7 145.6l0.2-0.2q0.9 1.1 1.7 2.3l-0.1 0.2q-0.9-1.2-1.8-2.3z"/>
		<path id="Layer" class="s10" d="m241.1 141.4l0.1-0.3q0.9 1 1.9 2.1l-0.2 0.2q-0.9-1-1.8-2z"/>
		<path id="Layer" class="s10" d="m237.2 137.5l0.1-0.2q1 0.8 2 1.8l-0.2 0.2q-0.9-0.9-1.9-1.8z"/>
		<path id="Layer" class="s10" d="m233.2 134.2v-0.3q1.1 0.8 2.1 1.6l-0.1 0.3q-1-0.9-2-1.6z"/>
		<path id="Layer" class="s10" d="m229 131.4v-0.4q1.1 0.7 2.1 1.4v0.3q-1-0.7-2.1-1.3z"/>
		<path id="Layer" class="s10" d="m224.9 128.8q1.1 0.5 2.1 1.1v0.3q-1-0.6-2-1z"/>
		<path id="Layer" class="s10" d="m220.8 127.3q1 0.2 2.1 0.7v0.3q-1-0.4-2-0.8z"/>
		<path id="Layer" class="s10" d="m216.8 126.3q1 0.1 2 0.4l0.1 0.3q-1-0.2-2-0.4z"/>
		<path id="Layer" class="s10" d="m213 126q0.9 0 1.9 0l0.1 0.3q-1 0-1.9 0z"/>
		<path id="Layer" class="s10" d="m209.4 126.3q0.9-0.1 1.7-0.3l0.2 0.4q-0.9 0.1-1.7 0.3z"/>
		<path id="Layer" class="s10" d="m206.1 127.4q0.8-0.4 1.6-0.6l0.2 0.3q-0.8 0.2-1.6 0.6z"/>
		<path id="Layer" class="s10" d="m203.2 129q0.6-0.5 1.4-0.9l0.2 0.3q-0.7 0.4-1.5 0.9z"/>
		<path id="Layer" class="s10" d="m200.6 131.3q0.6-0.6 1.2-1.2l0.3 0.3q-0.7 0.6-1.3 1.2z"/>
		<path id="Layer" class="s10" d="m198.5 134.2q0.5-0.8 1-1.5l0.2 0.3q-0.5 0.7-1 1.5z"/>
		<path id="Layer" class="s10" d="m196.8 137.6q0.4-0.9 0.8-1.8l0.2 0.3q-0.4 0.8-0.8 1.7z"/>
		<path id="Layer" class="s10" d="m195.7 141.5q0.2-1 0.5-2l0.2 0.2q-0.3 1-0.5 2z"/>
		<path id="Layer" class="s10" d="m195 145.8q0.1-1.1 0.3-2.2l0.2 0.2q-0.2 1.1-0.2 2.2z"/>
		<path id="Layer" class="s10" d="m261 186.1q0 0.6 0 1.2l-0.3-0.1q0-0.7 0-1.3z"/>
		<path id="Layer" class="s10" d="m76.6 228.8l0.6-0.3q0 1.4 0 2.7l-0.6 0.3q0-1.3 0-2.7z"/>
		<path id="Layer" class="s10" d="m186.5 155.3q0.5 2.3 0.7 4.7l-0.5 0.5q-0.3-2.5-0.8-4.7z"/>
		<path id="Layer" class="s10" d="m183.2 147.4l0.6-0.6q0.9 1.9 1.5 4.1l-0.6 0.5q-0.6-2.1-1.5-4z"/>
		<path id="Layer" class="s10" d="m179.2 140.4l0.5-0.7q1.2 1.6 2.2 3.4l-0.5 0.5q-1-1.7-2.2-3.2z"/>
		<path id="Layer" class="s10" d="m173.9 135l0.5-0.7q1.5 1.1 2.8 2.5l-0.5 0.6q-1.3-1.3-2.8-2.4z"/>
		<path id="Layer" class="s10" d="m167.5 131.3l0.3-0.7q1.8 0.7 3.4 1.6l-0.4 0.7q-1.6-0.9-3.3-1.6z"/>
		<path id="Layer" class="s10" d="m160 129.5l0.4-0.7q1.9 0.2 3.8 0.7l-0.3 0.7q-1.9-0.4-3.9-0.7z"/>
		<path id="Layer" class="s10" d="m151.9 129.7l0.2-0.8q2.1-0.3 4.2-0.3l-0.2 0.7q-2.1 0.1-4.2 0.4z"/>
		<path id="Layer" class="s10" d="m143.2 131.7l0.1-0.7q2.3-0.7 4.5-1.3l-0.2 0.8q-2.2 0.5-4.4 1.2z"/>
		<path id="Layer" class="s10" d="m134.2 135.6v-0.7q2.3-1.2 4.6-2.1l-0.1 0.6q-2.2 1-4.5 2.2z"/>
		<path id="Layer" class="s10" d="m125 140.6q2.3-1.6 4.6-3v0.6q-2.3 1.4-4.5 3z"/>
		<path id="Layer" class="s10" d="m116.1 147.9q2.1-2 4.4-3.8l0.2 0.5q-2.3 1.9-4.5 3.8z"/>
		<path id="Layer" class="s10" d="m107.6 156.6q2-2.3 4.1-4.5l0.2 0.5q-2 2.1-4.1 4.5z"/>
		<path id="Layer" class="s10" d="m99.7 166.5q1.9-2.6 3.9-5l0.3 0.3q-2.1 2.5-3.8 5z"/>
		<path id="Layer" class="s10" d="m92.8 177.3q1.5-2.8 3.3-5.5l0.4 0.3q-1.7 2.7-3.4 5.4z"/>
		<path id="Layer" class="s10" d="m86.8 188.7q1.4-2.9 2.8-5.8l0.4 0.2q-1.4 2.8-2.7 5.7z"/>
		<path id="Layer" class="s10" d="m82.2 200.4q1-2.9 2.1-5.9h0.5q-1.1 3-2.1 5.9z"/>
		<path id="Layer" class="s10" d="m78.8 212.1q0.6-3 1.5-5.9h0.6q-0.9 2.9-1.5 5.7z"/>
		<path id="Layer" class="s10" d="m76.9 223.4q0.3-2.8 0.8-5.6l0.6-0.2q-0.5 2.8-0.8 5.6z"/>
		<path id="Layer" class="s10" d="m187.6 165.1q0.1 1.3 0.1 2.7l-0.6 0.3q0-1.3-0.1-2.6z"/>
		<path id="Layer" class="s10" d="m151.4 236.3l0.3-0.2q0 0.8 0 1.6l-0.3 0.2q0-0.8 0-1.6z"/>
		<path id="Layer" class="s10" d="m241.1 178.4q0.2 1.4 0.3 3l-0.3 0.2q-0.2-1.5-0.4-3z"/>
		<path id="Layer" class="s10" d="m239.5 173l0.3-0.3q0.4 1.4 0.7 2.7l-0.4 0.3q-0.3-1.4-0.6-2.7z"/>
		<path id="Layer" class="s10" d="m237.6 168.1l0.2-0.3q0.6 1.1 1.1 2.3l-0.3 0.4q-0.5-1.3-1-2.4z"/>
		<path id="Layer" class="s10" d="m235 163.8l0.3-0.3q0.7 0.9 1.3 2l-0.3 0.3q-0.6-1-1.3-2z"/>
		<path id="Layer" class="s10" d="m231.8 160.3l0.2-0.3q0.9 0.7 1.8 1.6l-0.3 0.4q-0.9-0.9-1.7-1.7z"/>
		<path id="Layer" class="s10" d="m228 157.7l0.3-0.5q1 0.6 2 1.3l-0.3 0.4q-1-0.7-2-1.2z"/>
		<path id="Layer" class="s10" d="m223.8 155.8l0.2-0.4q1.2 0.3 2.2 0.8l-0.2 0.5q-1-0.5-2.2-0.9z"/>
		<path id="Layer" class="s10" d="m219.2 154.9l0.1-0.4q1.2 0.1 2.4 0.3l-0.2 0.4q-1.1-0.2-2.3-0.3z"/>
		<path id="Layer" class="s10" d="m214.2 154.8l0.1-0.4q1.3-0.1 2.6-0.1l-0.2 0.4q-1.3 0-2.5 0.1z"/>
		<path id="Layer" class="s10" d="m208.9 155.7v-0.5q1.4-0.2 2.7-0.5l-0.1 0.5q-1.3 0.2-2.6 0.5z"/>
		<path id="Layer" class="s10" d="m203.3 157.5l0.1-0.5q1.4-0.5 2.7-1v0.5q-1.4 0.4-2.8 1z"/>
		<path id="Layer" class="s10" d="m197.8 160.1v-0.4q1.4-0.8 2.8-1.5v0.5q-1.5 0.6-2.8 1.4z"/>
		<path id="Layer" class="s10" d="m192.1 163.1q1.4-0.9 2.8-1.8v0.4q-1.4 0.8-2.8 1.8z"/>
		<path id="Layer" class="s10" d="m186.4 167.3q1.5-1.1 2.8-2.2l0.1 0.4q-1.3 1-2.8 2.2z"/>
		<path id="Layer" class="s10" d="m181 172.3q1.4-1.3 2.7-2.5l0.1 0.3q-1.4 1.2-2.6 2.5z"/>
		<path id="Layer" class="s10" d="m175.9 177.9q1.2-1.5 2.5-2.9l0.2 0.3q-1.3 1.3-2.6 2.8z"/>
		<path id="Layer" class="s10" d="m171 183.9q1.1-1.5 2.4-3.1l0.2 0.3q-1.3 1.5-2.4 3.1z"/>
		<path id="Layer" class="s10" d="m166.6 190.5q1-1.7 2.1-3.3l0.2 0.2q-1.1 1.6-2.1 3.3z"/>
		<path id="Layer" class="s10" d="m162.5 197.3q1-1.7 2-3.4l0.2 0.1q-1 1.8-1.9 3.5z"/>
		<path id="Layer" class="s10" d="m159 204.5q0.9-1.8 1.8-3.6l0.2 0.1q-0.8 1.8-1.7 3.6z"/>
		<path id="Layer" class="s10" d="m156.2 211.7q0.6-1.8 1.3-3.6h0.3q-0.7 1.8-1.3 3.6z"/>
		<path id="Layer" class="s10" d="m154 218.9q0.5-1.7 1-3.6h0.3q-0.6 1.8-1 3.6z"/>
		<path id="Layer" class="s10" d="m153.1 222.5l0.4-0.1q-0.5 1.8-0.8 3.6l-0.3 0.1q0.3-1.8 0.7-3.6z"/>
		<path id="Layer" class="s10" d="m151.5 233q0.2-1.7 0.4-3.5l0.3-0.1q-0.2 1.7-0.3 3.4z"/>
		<path id="Layer" class="s10" d="m241.6 184.5q0 0.8 0 1.6l-0.3 0.2q0-0.8 0-1.6z"/>
		<path id="Layer" class="s30" d="m65.1 94.2q-0.8-0.4-1.6-0.9q-1.3-0.8-2.6-1.5c2-1.2 4.2-1.6 6.2-0.3q2.1 1.2 4.3 2.4c-1.5-0.9-3.4-0.6-4.9 0.1c-0.7 0.3-0.8 0.5-1.4 0.2z"/>
		<path id="Layer" class="s11" d="m22.5 158.7q-2-1.2-4-2.4c-0.7-0.3-1.3-0.7-1.8-1.3c-0.9-1.2-1.2-2.8-1.2-4.2q2.3 1.4 4.6 2.6c0 2 0.6 4.2 2.4 5.3z"/>
		<path id="Layer" class="s31" d="m20.1 153.4l-4.6-2.6v-23.6l4.5 2.7z"/>
		<path id="Layer" class="s30" d="m28.2 115.9l-4.7-2.7l37.4-21.4l4.7 2.7z"/>
		<path id="Layer" class="s11" d="m20 129.9q-1.9-1.1-3.9-2.3c-0.1-0.1-0.5-0.2-0.6-0.3c-0.2-0.3 0-1.1 0-1.5c0.2-1.1 0.5-2.3 0.8-3.3c0.8-2.4 2.2-4.6 3.8-6.4c0.9-0.9 2-2.2 3.2-2.7c0.4-0.2 0.2-0.2 0.6 0c0.3 0.1 0.6 0.3 0.8 0.5q1.8 1 3.5 2c-4.4 2.5-7.6 7.8-8.1 12.8q0 0.6-0.1 1.2z"/>
		<path id="Layer" class="s32" d="m65.6 94.5c4.5-2.6 8.1-0.5 8.1 4.6l0.1 23.6c0 5.1-3.7 11.4-8.2 13.9l-37.3 21.5c-4.5 2.6-8.1 0.5-8.2-4.7l-0.1-23.5c0-5.2 3.7-11.4 8.2-14z"/>
		<path id="Layer" class="s13" d="m65.6 94.5c4-2.3 7.3-1 8 2.8l-26.7 29l-26.4 0.5c1-4.3 4.1-8.9 7.8-10.9z"/>
		<path id="Layer" class="s30" d="m15.7 124.5q0.3-1 0.6-2c0.8-2.4 2.2-4.6 3.8-6.4c0.9-0.9 2-2.2 3.2-2.7c0.4-0.2 0.2-0.2 0.6 0c0.3 0.1 0.6 0.3 0.8 0.5q1.8 1 3.5 2c-3.8 2.2-6.7 6.5-7.7 10.9z"/>
		<path id="Layer" class="s33" d="m123.3 208q0.3 0 2.6 2.9q-3.4-0.3-3.9-0.9q-0.6-0.6 0-2.3c0.3-0.4 1 0.3 1.3 0.3z"/>
		<path id="Layer" class="s34" d="m125.8 182.9q-0.5 14.6-2.2 25.4q0.4 0.2-1.8 0q-2.8-23.8-2.4-26.9q5.4 0.2 6.4 1.5z"/>
		<path id="Layer" class="s33" d="m117.1 210.1q0.5 0 4.2 3.3q-5.5-0.3-6.4-1q-1-0.8 0-2.6c0.5-0.4 1.6 0.3 2.2 0.3z"/>
		<path id="Layer" class="s35" d="m121.7 184.5l-4.5 25.6h-2.3q-1.5-16.6-0.9-25.4q5.1-1.3 7.7-0.2z"/>
		<path id="Layer" class="s36" d="m126.9 163.9q5.5-1 9.2-11.5q1.2-0.9 2.5 0.5q-1.2 11.1-11.1 14.4z"/>
		<path id="Layer" class="s37" d="m126.5 162.4c0.1 0 2.5 0.4 5.3-1.9q1.8 2 0.5 5.5q-1.2 2.1-5.4 2.3z"/>
		<path id="Layer" class="s13" d="m128.2 162.3q0 14.8-2.4 22.4q-5.4 2.7-11.8 0q-1.9-8.8-2.6-21.6q7.3-3.4 16.8-0.8z"/>
		<path id="Layer" class="s36" d="m113.9 168.3q-11.4-1.5-15.1-14.4q1.1-1.9 2.8-1.2q6.1 10.6 12.3 11.7z"/>
		<path id="Layer" class="s36" d="m98.9 154.1c-3.4-2.8-3.6-6.2-1.1-6.8c2.5-0.7 2.5 3.1 3.4 3.2c0.9 0 1.6-1.3 1.7-0.4q0.1 0.9-1.3 2.6z"/>
		<path id="Layer" class="s36" d="m135.9 152.4q-1.7-1.4-1.8-2.2c0-0.9 0.9 0.2 1.7 0c0.8-0.2 0-3.7 2.5-3.6c2.5 0 3 3.3 0.3 6.6z"/>
		<path id="Layer" class="s37" d="m114.4 162.1q2.1 5.2-0.5 7.1q-3.9-0.1-7.5-2.6q1.9-2.7 2.2-5.1q2.6 1 5.8 0.6z"/>
		<path id="Layer" class="s38" d="m122.3 159.7c-0.1 1 0.5 2.3 0.5 2.5q-0.1 0.8-1.5 0.9q-1.5-0.1-2-1.3q0.2-1-0.3-2.4c0.2-0.9 3.5-0.7 3.3 0.3z"/>
		<path id="Layer" class="s36" d="m124 157.8c0 0.9 0 1.7-0.5 2.4c0 0-0.1 0.2-0.2 0.3c-0.1 0-0.2 0-0.3 0c-0.9 0-1.8 0-2.7-0.3c-1.4-0.4-1.8-1.4-2.1-2.7c-0.2-0.8-0.4-1.7-0.2-2.5c0.1-0.9 0.6-1.8 1.5-2.1c0.2-0.1 0.6-0.2 0.9-0.2q0.8 0 1.5 0c1 0 1.5 0.3 1.6 1.3q0.4 1.8 0.5 3.7q0 0 0 0.1z"/>
		<path id="Layer" class="s39" d="m121 150.7c0.7-0.3 1.5-0.5 2.2-0.5c0.3 0 0.8-0.1 1 0.2c0.1 0.3 0.2 0.6 0.2 1c0.1 0.6 0.1 1.3-0.1 2c-0.1 0.6-0.4 1.3-0.9 1.8c0 0-0.1 0-0.2 0q0 0 0 0q-0.1-0.2-0.1-0.5q-0.9 0.5-1.9 0.9q0-0.4 0.1-0.7c-0.5 0.6-1.2 1.2-2.1 1.3c0.3 0.2 0.3 0.5 0.3 0.9c-0.1 0.2-0.3 0.4-0.5 0.6c-0.4 0.1-0.5-0.2-0.8-0.3c0 0.7 0.5 1.4 0.8 2c-0.9-0.1-1.7-0.6-2.3-1.2c-0.4-0.3-0.7-0.7-0.6-1c0-0.7 0.8-1.2 0.9-1.8c0-0.4-0.1-0.7-0.1-1c-0.1-1 0.7-1.7 1.4-2.2c0.9-0.5 1.7-1.1 2.7-1.5z"/>
		<path id="Layer" class="s36" d="m118.7 156.5c0.5 0.4 0.4 0.7 0.4 1.2c0 0.1 0 0.3-0.1 0.3q-0.1 0.1-0.3 0.1c-0.5 0.1-0.9-0.1-1.2-0.5c-0.3-0.4-0.4-0.9-0.3-1.4c0 0 0-0.1 0.1-0.1q0.1-0.1 0.1-0.1c0.6 0 1 0.2 1.3 0.5z"/>
		<path id="Layer" class="s33" d="m69.9 293.1q0.7 2.1 0 2.9q-0.8 0.8-5.2 1.1q2.9-3.6 3.4-3.6c0.4 0 1.3-0.9 1.8-0.4z"/>
		<path id="Layer" class="s34" d="m85.7 271.9c0.5 0.1 0 7.1-3.3 8.8c-3.3 1.7-10.4-1.3-11.8-0.7c-1.2 0.6-0.2 13.8-0.7 14.1q-1.3 0.8-2.1-0.6c-1.6-3.3-4.5-17.7-2.3-19.2q2.3-1.6 12.7-1.6q7-0.9 7.5-0.8z"/>
		<path id="Layer" class="s33" d="m82.4 298.3q1.2 2.5 0 3.4q-1.2 0.9-8.3 1.2q4.8-4.1 5.5-4.1c0.6 0 2.1-1 2.8-0.5z"/>
		<path id="Layer" class="s36" d="m78.6 254.5q-5.8 1.6-8.7 13q-1.3 1-2.8-0.4q0.3-11.7 10.5-16.2z"/>
		<path id="Layer" class="s37" d="m79.2 256.2c-0.2-0.1-1.9 0.8-4.6 3.5q-3.6-2.3-3-4.9q1.5-4.1 6.6-4.9z"/>
		<path id="Layer" class="s35" d="m93.4 272.7c0.1 0.7 3.7 8.7-2.8 9.4c-6.5 0.8-9.1 2.3-9.3 3.1q-0.1 0.8 1.1 13.7q-0.9 0.9-2.4 0q-4.2-13.2-2.8-18.2q1.2-5 8.5-8.8z"/>
		<path id="Layer" class="s13" d="m95.5 250.9q0.1 13.1-1.9 22.5q-8.6 2.3-14.4-0.6q-1.4-7-1.4-22.8q10.1-2.7 17.7 0.9z"/>
		<path id="Layer" class="s36" d="m70.1 267.5q1.9 1.3 2 2.2c0.2 1-0.9-0.2-1.7 0.1c-0.9 0.3 0.3 4-2.3 4c-2.7 0.2-3.5-3.1-1-6.8z"/>
		<path id="Layer" class="s38" d="m87.5 246.9q-0.3 1.5 0.2 2.5q-0.3 1.5-1.9 1.9q-1.3 0.1-1.7-0.7c-0.1-0.1 0.3-1.6-0.1-2.6c-0.3-1 3-1.9 3.5-1.1z"/>
		<path id="Layer" class="s36" d="m81.7 247.4c-0.5-1.3-0.9-2.5-1.3-3.8c-0.3-1 0-1.5 1-2q0.8-0.3 1.5-0.6q0.5-0.2 1.1-0.2c0.8-0.1 1.7 0.5 2.2 1.2c0.5 0.8 0.8 1.7 1 2.6c0.3 1.5 0.3 2.5-0.9 3.6c-0.7 0.7-1.6 1-2.4 1.4c-0.1 0-0.2 0.1-0.4 0.1c0 0-0.2-0.1-0.3-0.1c-0.7-0.5-1.1-1.3-1.5-2.1q0-0.1 0-0.1z"/>
		<path id="Layer" class="s33" d="m83.8 238.8c0.7 0.1 1.4 0.3 2.1 0.5q0.4 0.2 0.8 0.5q0.5 0.5 0.6 1.1c0.1 0.4-0.1 0.9 0.1 1.2c0.3 0.6 1.3 0.6 1.6 1.2c0.2 0.4 0.2 0.9 0 1.3c-0.4 0.9-0.9 1.7-1.8 2.2c0.1-0.7 0.2-1.7-0.1-2.3c-0.3 0.2-0.3 0.4-0.6 0.6c-0.3 0.1-0.6 0.1-0.9-0.1q-0.4-0.3-0.4-0.7c0-0.1-0.1-0.2-0.1-0.2q-0.1 0-0.1 0q-0.2 0-0.3-0.1q-0.1-0.1-0.1-0.3q-0.1-0.1-0.1-0.1c0-0.1-0.1-0.1-0.3-0.1c-0.6 0.1-1.2 0.1-1.9 0.4q-0.4 0.2-0.9 0.5c0 0.1-0.6 0.7-0.6 0.7c-0.9-0.3-1.6-1.1-1.9-2c-0.2-1 0-2 0.4-2.9c0.4-0.7 1.2-1.1 2-1.4c0.8-0.2 1.7-0.1 2.5 0z"/>
		<path id="Layer" class="s36" d="m87.2 242.8q0 0 0.2 0c0.1 0 0.1 0.1 0.1 0.1c0.4 0.5 0.5 1 0.4 1.5c-0.2 0.5-0.5 0.9-1 1c-0.1 0.1-0.2 0.1-0.2 0.1c-0.2-0.1-0.2-0.1-0.3-0.3c-0.2-0.5-0.5-0.8-0.2-1.3c0.2-0.5 0.5-0.8 1-1.1z"/>
		<path id="Layer" class="s36" d="m93.3 270.9q-6.3 3.7-12.8-3.6q0.1-1.5 0.9-2.3q1.8 2.3 7.3 2.3q5.5 0.1 2.8-13.1q1.1-3.5 4-3.3q4.2 16.3-2.2 20z"/>
		<path id="Layer" class="s37" d="m95.5 250.9q2.1 4.4 2.6 10.1q-4.9 1.5-6.9 0.4q-0.6-7.2 0.1-8.4c0.7-1.1 2.7-2.7 4.2-2.1z"/>
		<path id="Layer" class="s39" d="m80.5 267.9l-2.7-0.7v-6.2l2.7 0.7z"/>
		<path id="Layer" class="s36" d="m80.9 267.3q0 0.1-0.1 0.1q-0.1 0.1-0.1 0.1c-1.5-0.2-2.8-1.2-3.3-2.7c0-0.2 0-0.4 0.1-0.6q0.1-0.2 0.3-0.3c0.7-0.3 1.5 0.3 2.2 0.1c0.2-0.1 0.4-0.2 0.5-0.2c1.5-0.2 0.7 3 0.4 3.5z"/>
		<path id="Layer" class="s13" d="m228.8 190.3c0.9-0.1 2 0.4 2.8 0.9c1.2 0.6 2.4 1.3 3.1 2.5c0.8 1.5 0.4 3.3 0.4 4.9c0 1.7 0.4 3.4 1.2 5q-1.4 0.4-2.8 0.9c-3.5 1.1-7 2.2-10.6 2.9c-0.2 0-0.4 0.1-0.5 0c-0.4-0.1-0.5-0.4-0.6-0.7c-1.1-2.7-0.6-6 1.1-8.4c0.3-0.4 0.6-0.8 0.7-1.2c0.4-0.8 0.1-1.7 0.3-2.6c0.2-1.1 0.9-2 1.8-2.8c0.8-0.5 2-1.2 3.1-1.4z"/>
		<path id="Layer" class="s33" d="m235.8 249.9q0.3 0.2 1.1 4.8q-3.7-2.4-3.9-3.4q-0.3-1.1 1.4-2.7c0.7-0.1 0.9 1 1.4 1.3z"/>
		<path id="Layer" class="s34" d="m236.2 224.5q9.9 7.3 11.1 9.7c1.2 2.4-8.4 13.7-11.3 15.8q-1.5 0.8-2.2-0.5c-0.3-0.5 7-11.5 6.2-12.7c-0.9-1.2-8.5-1.9-10.6-5c-2.1-3.1 0.9-9.4 1.4-9.3q0.5 0.2 5.4 2z"/>
		<path id="Layer" class="s33" d="m227.8 253.4q0.7 0.3 4 5.6q-6.7-2.4-7.6-3.6q-0.8-1.2 1-3.2c0.9-0.3 2 1 2.6 1.2z"/>
		<path id="Layer" class="s36" d="m236.6 203.1q4.8 3.6 15.6-1.2q1.3-0.6 1.1 1.5q-9.1 8-18.8 2.7z"/>
		<path id="Layer" class="s37" d="m237.6 201.7c0 0.1 1.8 2.1 5.6 2.5q0.4 3.9-2 4.9q-4.2 0.7-7.9-2.8z"/>
		<path id="Layer" class="s35" d="m229.8 226q5.8 5.7 5.6 10.8q-0.1 5.2-8 16.6q-1.8 0.5-2.3-0.7q4.9-11.9 4.9-12.8c0.1-0.8-1.9-3.1-7.9-5.6c-5.9-2.5-0.2-9.1 0.1-9.8z"/>
		<path id="Layer" class="s13" d="m237.6 201.7c0 8.9-1.5 12.4-2.2 16q-0.5 2.8 0.8 6.8q-5.8 2.9-14.5 0.6c-0.3-1.7 1-5 0.8-6.9q-1.1-8.3-2.7-15.6q7.7-3.6 17.8-0.9z"/>
		<path id="Layer" class="s33" d="m236.8 206.2q0.5 2.8 1.1 3.7c0.7 0.8-0.3 5.3-2.5 4.8q-2.1-0.6-1.4-7.3z"/>
		<path id="Layer" class="s36" d="m252.2 202.3q-0.4-1.2-0.2-1.6c0.3-0.4 0.4 0.3 0.8 0.6c0.4 0.1 1.1-1.8 2.3-1c1.1 0.8 0.4 2.5-1.9 3.2z"/>
		<path id="Layer" class="s38" d="m231.3 199.7c-0.3 1 0 2.5 0 2.6q-0.4 0.8-1.8 0.7q-1.5-0.4-1.8-1.9q0.4-1.1 0.2-2.5c0.4-0.8 3.8 0.1 3.4 1.1z"/>
		<path id="Layer" class="s36" d="m233.6 199.2c-0.3 0.8-0.8 1.6-1.5 2.1c-0.1 0-0.2 0.1-0.3 0.1c-0.1 0-0.3-0.1-0.3-0.1c-0.9-0.3-1.7-0.8-2.5-1.3c-1.2-1.2-1.1-2.2-0.8-3.7c0.1-0.9 0.4-1.8 0.9-2.6c0.5-0.7 1.4-1.3 2.3-1.2c0.4 0 0.7 0.1 1.1 0.2q0.7 0.3 1.4 0.6c1 0.5 1.4 1 1 2c-0.4 1.3-0.7 2.5-1.2 3.7q-0.1 0.1-0.1 0.2z"/>
		<path id="Layer" class="s36" d="m229.2 195.6c0.3 0.5 0 0.8-0.2 1.3c-0.1 0.1-0.2 0.3-0.3 0.3q-0.1 0-0.2 0c-0.5-0.2-0.9-0.7-1-1.2c-0.2-0.4 0-1 0.3-1.3c0-0.1 0.1-0.2 0.2-0.2q0.1 0 0.2 0.1c0.4 0.1 0.8 0.6 1 1z"/>
		<path id="Layer" class="s36" d="m219.8 202.6q2.9-0.2 4 3.2q-2.6 13.3 2.8 13.3q5.5-0.1 7.4-2.4q0.8 0.7 0.8 2.4q-6.4 7.1-12.8 3.5q-6.3-3.7-2.2-20z"/>
		<path id="Layer" class="s37" d="m224 204.7q0.7 1.2 0.2 8.4q-2 1.2-7-0.4q0.6-5.7 2.6-10.1c1.5-0.6 3.6 1 4.2 2.1z"/>
		<path id="Layer" class="s13" d="m234.8 213.4l2.8-0.8v6.3l-2.8 0.7z"/>
		<path id="Layer" class="s36" d="m234.8 215.5c0.2 0 0.3 0.1 0.5 0.1c0.8 0.3 1.5-0.2 2.3 0q0.2 0.1 0.2 0.3c0.2 0.2 0.1 0.4 0 0.7c-0.3 1.3-1.7 2.4-3.1 2.6q-0.1 0-0.1 0q-0.1-0.1-0.1-0.2c-0.3-0.6-1.2-3.6 0.3-3.5z"/>
		<path id="Layer" class="s13" d="m234.8 194.7c-0.8 0.8-2 1.1-2.8 1.3c-0.5 0-1.1 0-1.5 0.3c-1 0.5-1.5 1.6-1.5 2.7c-0.2 1.3-0.1 2.5-0.3 3.8c-0.1 0.5-0.2 0.9-0.3 1.3q0 0.6 0 1.2c0.1 1.1 0.1 2.2 0.6 3.1c-1.3-0.2-2.5-1.3-2.8-2.6c-0.2-0.5-0.2-1-0.2-1.5c-0.2-0.7-0.4-1.6-1-2.1c-0.5-0.3-1-0.4-1.5-0.5c-0.6 0-1.1 0.1-1.7 0.2c0.2-0.6 1.1-1.1 1.5-1.5q0.9-0.8 1.7-1.6c0.6-0.6 0.2-1 0-1.7c-0.1-0.5-0.3-1-0.3-1.6c0.1-1.2 0.8-2.3 1.8-3c0.2-0.2 0.4-0.3 0.6-0.5c0.4-0.5 0.6-1 1.1-1.4c0.5-0.4 1.3-0.4 2-0.3c0.9 0.2 1.8 0.4 2.6 0.9c0.8 0.4 1.4 1 2.1 1.5c0.2 0.3 0.4 0.4 0.4 0.7c0.1 0.6-0.1 1-0.5 1.3z"/>
	</g>
</svg>