<svg version="1.2" xmlns="http://www.w3.org/2000/svg" viewBox="0 0 370 320" width="370" height="320">
	<title>Edge-svg</title>
	<defs>
		<linearGradient id="g1" x1="560665.4" y1="1051194" x2="37219.9" y2="604715.3" gradientUnits="userSpaceOnUse">
			<stop offset="0" stop-color="#feddc1"/>
			<stop offset="1" stop-color="#ffd4b0"/>
		</linearGradient>
		<linearGradient id="g2" x1="-231674.4" y1="155509.6" x2="41829.7" y2="862046.2" gradientUnits="userSpaceOnUse">
			<stop offset="0" stop-color="#fc8019"/>
			<stop offset="1" stop-color="#ffdbb1"/>
		</linearGradient>
		<linearGradient id="g3" x1="357270.5" y1="238985.2" x2="333619.5" y2="123027.2" gradientUnits="userSpaceOnUse">
			<stop offset="0" stop-color="#ffffff"/>
			<stop offset="1" stop-color="#1a0f91"/>
		</linearGradient>
		<linearGradient id="g4" x1="76776.3" y1="22587.7" x2="86171.6" y2="75820.9" gradientUnits="userSpaceOnUse">
			<stop offset="0" stop-color="#09005d"/>
			<stop offset="1" stop-color="#1a0f91"/>
		</linearGradient>
		<linearGradient id="g5" x1="428867.2" y1="125614.4" x2="368694.5" y2="174628.9" gradientUnits="userSpaceOnUse">
			<stop offset="0" stop-color="#fc8019"/>
			<stop offset=".5" stop-color="#ffa961"/>
			<stop offset="1" stop-color="#fc8019"/>
		</linearGradient>
		<linearGradient id="g6" x1="5503.2" y1="23135.2" x2="3467.4" y2="25633.4" gradientUnits="userSpaceOnUse">
			<stop offset="0" stop-color="#09005d"/>
			<stop offset="1" stop-color="#1a0f91"/>
		</linearGradient>
		<linearGradient id="g7" x1="2363.8" y1="17964.5" x2="-46.4" y2="21033.8" gradientUnits="userSpaceOnUse">
			<stop offset="0" stop-color="#09005d"/>
			<stop offset="1" stop-color="#1a0f91"/>
		</linearGradient>
		<linearGradient id="g8" x1="13732.1" y1="35984.7" x2="18045.1" y2="42538.1" gradientUnits="userSpaceOnUse">
			<stop offset="0" stop-color="#febbba"/>
			<stop offset="1" stop-color="#ff928e"/>
		</linearGradient>
		<linearGradient id="g9" x1="58762" y1="44090.1" x2="35441.6" y2="62843.6" gradientUnits="userSpaceOnUse">
			<stop offset="0" stop-color="#fc8019"/>
			<stop offset="1" stop-color="#ffa052"/>
		</linearGradient>
		<linearGradient id="g10" x1="43524.7" y1="24093.8" x2="39400.4" y2="11287.2" gradientUnits="userSpaceOnUse">
			<stop offset="0" stop-color="#febbba"/>
			<stop offset="1" stop-color="#ff928e"/>
		</linearGradient>
		<linearGradient id="g11" x1="10877.2" y1="10427.9" x2="10748.1" y2="9303.1" gradientUnits="userSpaceOnUse">
			<stop offset="0" stop-color="#febbba"/>
			<stop offset="1" stop-color="#ff928e"/>
		</linearGradient>
		<linearGradient id="g12" x1="16530.1" y1="16016.6" x2="17522.3" y2="13044.5" gradientUnits="userSpaceOnUse">
			<stop offset="0" stop-color="#febbba"/>
			<stop offset="1" stop-color="#ff928e"/>
		</linearGradient>
		<linearGradient id="g13" x1="21681.6" y1="10026.3" x2="21009.6" y2="15388.7" gradientUnits="userSpaceOnUse">
			<stop offset="0" stop-color="#09005d"/>
			<stop offset="1" stop-color="#1a0f91"/>
		</linearGradient>
		<linearGradient id="g14" x1="3547.1" y1="5189.9" x2="3934" y2="4426.2" gradientUnits="userSpaceOnUse">
			<stop offset="0" stop-color="#febbba"/>
			<stop offset="1" stop-color="#ff928e"/>
		</linearGradient>
		<linearGradient id="g15" x1="12336.6" y1="34103.9" x2="6238.7" y2="34103.9" gradientUnits="userSpaceOnUse">
			<stop offset="0" stop-color="#09005d"/>
			<stop offset="1" stop-color="#1a0f91"/>
		</linearGradient>
		<linearGradient id="g16" x1="12189.1" y1="4843.1" x2="13214.7" y2="7024.9" gradientUnits="userSpaceOnUse">
			<stop offset="0" stop-color="#09005d"/>
			<stop offset="1" stop-color="#1a0f91"/>
		</linearGradient>
		<linearGradient id="g17" x1="2090.8" y1="4763.9" x2="-2469.7" y2="17962.9" gradientUnits="userSpaceOnUse">
			<stop offset="0" stop-color="#e1473d"/>
			<stop offset="1" stop-color="#e9605a"/>
		</linearGradient>
		<linearGradient id="g18" x1="7791.1" y1="4697" x2="6368.2" y2="18677.2" gradientUnits="userSpaceOnUse">
			<stop offset="0" stop-color="#e1473d"/>
			<stop offset="1" stop-color="#e9605a"/>
		</linearGradient>
		<linearGradient id="g19" x1="15887" y1="5256.7" x2="14940.2" y2="20664.9" gradientUnits="userSpaceOnUse">
			<stop offset="0" stop-color="#e1473d"/>
			<stop offset="1" stop-color="#e9605a"/>
		</linearGradient>
	</defs>
	<style>
		.s0 { fill: url(#g1) } 
		.s1 { fill: url(#g2) } 
		.s2 { opacity: .2;fill: #ffffff } 
		.s3 { fill: url(#g3) } 
		.s4 { fill: #fc8019 } 
		.s5 { fill: #ffffff } 
		.s6 { fill: url(#g4) } 
		.s7 { fill: #ffdbb1 } 
		.s8 { opacity: .5;fill: #ffffff } 
		.s9 { fill: #91b3fa } 
		.s10 { opacity: .7;fill: #ffffff } 
		.s11 { fill: url(#g5) } 
		.s12 { opacity: .6;fill: #ffffff } 
		.s13 { fill: url(#g6) } 
		.s14 { fill: #7d97f4 } 
		.s15 { fill: url(#g7) } 
		.s16 { fill: url(#g8) } 
		.s17 { fill: url(#g9) } 
		.s18 { fill: url(#g10) } 
		.s19 { fill: url(#g11) } 
		.s20 { fill: url(#g12) } 
		.s21 { fill: url(#g13) } 
		.s22 { fill: url(#g14) } 
		.s23 { fill: url(#g15) } 
		.s24 { fill: url(#g16) } 
		.s25 { fill: url(#g17) } 
		.s26 { fill: url(#g18) } 
		.s27 { fill: url(#g19) } 
	</style>
	<g id="Folder 1">
		<path id="Layer" class="s0" d="m313.6 204.2c-26.5 63.6-97.3 99.1-158.6 89.5c-10-1.5-37.3-6.2-61.6-28.1c-46.6-42.3-56.6-126-18.9-185c27.3-42.9 76.4-67.2 123-66c10.1 0.2 48.6 1.9 82.4 30.2c5 4.2 15.9 14.1 25.8 29.8c23.2 36.8 25.2 88.2 7.9 129.6z"/>
		<path id="Layer" class="s1" d="m44.6 192.4c4.5-19.4 19.3-34.6 38.2-39.3c13-3.2 25.4-1.5 35.9 3.7c3.5 1.7 7.7-0.2 8.6-4.1c9.4-37 42.1-64.3 81-64.3c46.2 0 83.7 38.4 83.7 85.9c0 1.2 0 2.9-0.1 4.6c0.2 3.5 1.7 5 3.9 5.4c18.1 2 32.4 17.3 33.2 36.2c0.9 21.7-16.3 39.7-37.5 39.7h-195.6c-33.5 0-59.7-32-51.3-67.8z"/>
		<path id="Layer" class="s2" d="m59.7 199.6c4.1-17.3 17.3-30.9 34.2-35c11.5-2.9 22.7-1.3 32 3.3c3.2 1.5 6.9-0.2 7.7-3.7c8.3-33 37.6-57.4 72.3-57.4c41.3 0 74.7 34.3 74.7 76.7c0 1.1 0 2.6 0 4.1c0.1 3.2 1.5 4.5 3.5 4.8c16.1 1.8 28.8 15.4 29.5 32.3c0.9 19.4-14.5 35.5-33.4 35.5h-174.6c-29.9 0-53.4-28.6-45.9-60.6z"/>
		<path id="Layer" class="s3" d="m80.3 192.6c0-2 0.7-3.9 2.1-5.3c1.4-1.4 3.4-2.2 5.4-2.2l152.5 4c3.4-0.2 5.2 2.9 5.2 4.5l-1.3 89.8c0 1.6-1.3 2.9-2.8 2.9h-156.1c-1.6 0-2.9-1.3-2.9-2.9z"/>
		<path id="Layer" class="s4" d="m83.1 193.8c0-1.4 0.5-2.7 1.5-3.7c1-1 2.4-1.6 3.8-1.5l146.1 3.9c2.6-0.1 6.9 1.7 7 6.6l-1.2 81.5c0 1.5-1.2 2.7-2.7 2.7h-149.6c-1.5 0-2.7-1.2-2.7-2.7z"/>
		<path id="Layer" class="s5" d="m238.7 241.9c-0.2 0-0.4-0.2-0.4-0.4l0.1-6.7c0-0.2 0.2-0.3 0.4-0.3q0 0 0 0c0.2 0 0.4 0.1 0.4 0.4l-0.1 6.6c0 0.2-0.2 0.4-0.4 0.4z"/>
		<path id="Layer" class="s5" d="m238.9 225.7c-0.2 0-0.4-0.2-0.4-0.4l0.4-25.4q0-2.2-1.3-3.5c-1.7-1.6-4.3-1.5-4.5-1.5l-46.7-1.3c-0.2 0-0.4-0.2-0.4-0.4c0-0.2 0.2-0.4 0.5-0.4l46.6 1.3c0.3-0.1 3.1-0.1 5 1.7q1.6 1.5 1.6 4.1l-0.4 25.4c0 0.2-0.1 0.4-0.4 0.4z"/>
		<rect id="Layer" class="s6" x="69.8" y="285.8" width="183.9" height="7.9" rx=".5"></rect>
		<path id="Layer" class="s7" d="m150.2 279.4h-57.6c-2.1 0-3.8-1.8-3.8-3.9v-75.3c0-2.2 1.8-3.9 3.9-3.8l57.6 2.2c2.1 0 3.7 1.7 3.7 3.8v73.1c0 2.1-1.7 3.9-3.8 3.9z"/>
		<rect id="Layer" class="s8" x="100" y="225.9" width="39.2" height="5.1" rx=".5"></rect>
		<rect id="Layer" class="s8" x="100.1" y="234" width="39.2" height="5.1" rx=".5"></rect>
		<rect id="Layer" class="s8" x="100.3" y="242.3" width="39.2" height="5.1" rx=".5"></rect>
		<rect id="Layer" class="s8" x="100.4" y="250.4" width="39.2" height="5.1" rx=".5"></rect>
		<rect id="Layer" class="s8" x="166.5" y="225.9" width="56.4" height="5.1" rx=".5"></rect>
		<rect id="Layer" class="s8" x="166.7" y="234" width="56.4" height="5.1" rx=".5"></rect>
		<rect id="Layer" class="s8" x="166.7" y="242.3" width="33.4" height="5.1" rx=".5"></rect>
		<g id="Layer" style="opacity: .5">
			<path id="Layer" class="s8" d="m196.5 207h-0.9c-0.4 0-0.8-0.4-0.8-0.8v-3c0-1-0.8-1.9-1.9-1.9h-5.3c-1 0-1.9 0.9-1.9 1.9v3c0 0.4-0.3 0.8-0.8 0.8h-0.8c-0.5 0-0.8-0.4-0.8-0.8v-3c0-2.3 1.9-4.3 4.3-4.3h5.3c2.4 0 4.3 2 4.3 4.3v3c0 0.4-0.3 0.8-0.7 0.8z"/>
			<path id="Layer" fill-rule="evenodd" class="s8" d="m181.4 209.2c0-0.9 0.7-1.5 1.5-1.5h14.7c0.9 0 1.5 0.6 1.5 1.5v11.3c0 0.9-0.6 1.6-1.5 1.6h-14.7c-0.8 0-1.5-0.7-1.5-1.6zm10.3 6.4c0.7-0.5 1.3-1.3 1.3-2.3c0-1.6-1.3-2.8-2.9-2.7c-1.4 0.1-2.4 1.2-2.5 2.5c-0.1 1.1 0.5 2 1.3 2.5l-0.7 2.9c-0.1 0.4 0.2 0.8 0.6 0.8h3c0.4 0 0.6-0.4 0.6-0.8z"/>
		</g>
		<path id="Layer" class="s9" d="m238.7 76.6q0 0-0.1-0.1c-0.2-0.1-0.2-0.3-0.1-0.4q0.3-0.6 0.6-1.2c0.1-0.2 0.3-0.3 0.5-0.2c0.1 0.1 0.2 0.3 0.1 0.5q-0.3 0.6-0.6 1.2q-0.1 0.2-0.4 0.2z"/>
		<path id="Layer" class="s9" d="m198.3 100.4q-0.3 0-0.6 0c-0.2 0-0.4-0.1-0.4-0.3c0-0.2 0.2-0.4 0.4-0.4q1.3 0.1 2.7 0c0.1 0 0.3 0.2 0.3 0.3c0 0.2-0.1 0.4-0.3 0.4q-1.1 0.1-2.1 0zm-5-0.2q-0.1 0-0.1 0q-1.3-0.2-2.7-0.4c-0.2 0-0.3-0.2-0.3-0.4c0.1-0.2 0.2-0.3 0.4-0.3q1.4 0.2 2.7 0.4c0.2 0 0.3 0.2 0.3 0.4c0 0.1-0.2 0.3-0.3 0.3zm11.5-0.2c-0.2 0-0.4-0.1-0.4-0.3c0-0.2 0.1-0.4 0.3-0.4q1.3-0.2 2.7-0.4c0.2-0.1 0.3 0 0.4 0.2c0 0.2-0.1 0.4-0.3 0.4q-1.3 0.3-2.7 0.5q0 0 0 0zm-18.5-1.1q-0.1 0-0.1 0q-1.3-0.4-2.6-0.8c-0.2-0.1-0.3-0.3-0.3-0.5c0.1-0.1 0.3-0.2 0.5-0.2q1.3 0.4 2.6 0.8c0.1 0 0.3 0.2 0.2 0.4c0 0.2-0.2 0.3-0.3 0.3zm25.4-0.4c-0.1 0-0.3-0.1-0.3-0.3c-0.1-0.2 0-0.4 0.2-0.4q1.3-0.4 2.6-0.9c0.1 0 0.4 0 0.4 0.2c0.1 0.2 0 0.4-0.2 0.5q-1.3 0.4-2.6 0.8q0 0.1-0.1 0.1zm-32.1-2q-0.1 0-0.2 0q-1.2-0.6-2.4-1.2c-0.2-0.1-0.3-0.3-0.2-0.5c0.1-0.1 0.3-0.2 0.5-0.1q1.2 0.6 2.4 1.1c0.2 0.1 0.3 0.3 0.2 0.5q-0.1 0.2-0.3 0.2zm38.7-0.6c-0.1 0-0.2-0.1-0.3-0.2c0-0.2 0-0.4 0.2-0.5q1.2-0.6 2.4-1.2c0.2-0.1 0.4-0.1 0.5 0.1c0.1 0.2 0 0.4-0.2 0.5q-1.2 0.6-2.4 1.2q-0.1 0.1-0.2 0.1zm-45-2.8q-0.1 0-0.2 0q-1.1-0.8-2.3-1.6c-0.1-0.1-0.1-0.3 0-0.4c0.1-0.2 0.3-0.2 0.4-0.1q1.1 0.8 2.3 1.5c0.1 0.1 0.2 0.3 0.1 0.5q-0.1 0.1-0.3 0.1zm51.2-0.8q-0.2 0-0.3-0.2c-0.1-0.1 0-0.3 0.1-0.4q1.1-0.8 2.2-1.6c0.1-0.2 0.3-0.1 0.5 0c0.1 0.2 0.1 0.4-0.1 0.5q-1.1 0.8-2.2 1.6q-0.1 0.1-0.2 0.1zm-56.9-3.5q-0.1 0-0.2 0q-1-0.9-2-1.9c-0.1-0.2-0.1-0.4 0-0.5c0.1-0.1 0.3-0.1 0.5 0q0.9 0.9 1.9 1.8c0.2 0.2 0.2 0.4 0.1 0.5q-0.1 0.1-0.3 0.1zm62.4-1q-0.1 0-0.2-0.1c-0.1-0.2-0.1-0.4 0-0.5q1-0.9 1.9-1.9c0.1-0.1 0.4-0.2 0.5 0c0.1 0.1 0.1 0.3 0 0.5q-0.9 1-1.9 1.9q-0.1 0.1-0.3 0.1zm-67.3-4.1q-0.2 0-0.3-0.1q-0.9-1.1-1.7-2.2c-0.1-0.1-0.1-0.3 0.1-0.4c0.1-0.2 0.3-0.1 0.5 0q0.8 1.1 1.6 2.2c0.1 0.1 0.1 0.3 0 0.4q-0.1 0.1-0.2 0.1zm72.1-1.2q-0.1 0-0.2 0c-0.1-0.2-0.2-0.4 0-0.5q0.8-1.1 1.5-2.2c0.2-0.2 0.4-0.2 0.5-0.1c0.2 0.1 0.2 0.3 0.1 0.5q-0.7 1.1-1.6 2.2q-0.1 0.1-0.3 0.1zm-76.3-4.6q-0.1 0-0.3-0.2q-0.7-1.1-1.3-2.3c-0.1-0.2 0-0.4 0.1-0.5c0.2-0.1 0.4 0 0.5 0.1q0.6 1.2 1.3 2.4c0.1 0.2 0.1 0.4-0.1 0.5q-0.1 0-0.2 0zm-3.1-6.4q-0.3 0-0.4-0.2q-0.5-1.3-0.9-2.6c-0.1-0.1 0-0.3 0.2-0.4c0.2 0 0.4 0 0.4 0.2q0.5 1.3 1 2.6c0 0.1 0 0.3-0.2 0.4q-0.1 0-0.1 0z"/>
		<path id="Layer" class="s9" d="m153.2 64.7c-0.2 0-0.3-0.1-0.3-0.2q-0.2-0.7-0.3-1.4c-0.1-0.2 0-0.4 0.2-0.4c0.2-0.1 0.4 0.1 0.4 0.3q0.2 0.6 0.3 1.3c0.1 0.2 0 0.4-0.2 0.4q-0.1 0-0.1 0z"/>
		<path id="Layer" class="s9" d="m159.1 29.4q-0.1 0-0.2-0.1c-0.2-0.1-0.2-0.3-0.1-0.5q0.3-0.5 0.7-1.1c0.1-0.2 0.4-0.2 0.5-0.1c0.2 0.1 0.2 0.3 0.1 0.5q-0.4 0.5-0.8 1.1q-0.1 0.2-0.2 0.2z"/>
		<path id="Layer" class="s9" d="m242.7 41c-0.2 0-0.3-0.1-0.3-0.3q-0.4-1.3-0.9-2.7c-0.1-0.1 0-0.3 0.2-0.4c0.2-0.1 0.4 0 0.4 0.2q0.5 1.4 0.9 2.7c0.1 0.2 0 0.4-0.2 0.5q-0.1 0-0.1 0zm-2.7-7q-0.2 0-0.3-0.2q-0.6-1.3-1.3-2.5c-0.1-0.2 0-0.4 0.1-0.5c0.2-0.1 0.4 0 0.5 0.1q0.7 1.3 1.3 2.6c0.1 0.2 0 0.4-0.1 0.5q-0.1 0-0.2 0zm-3.8-6.5q-0.1 0-0.3-0.1q-0.8-1.2-1.6-2.3c-0.2-0.2-0.1-0.4 0-0.5c0.2-0.1 0.4-0.1 0.5 0.1q0.9 1.1 1.7 2.3c0.1 0.1 0.1 0.3-0.1 0.5q-0.1 0-0.2 0zm-73.6-3q-0.1 0-0.2-0.1c-0.2-0.1-0.2-0.3-0.1-0.5q0.9-1.1 1.9-2.1c0.2-0.2 0.4-0.2 0.5 0c0.2 0.1 0.2 0.3 0 0.4q-0.9 1.1-1.8 2.2q-0.2 0.1-0.3 0.1zm68.9-2.8q-0.2 0-0.3-0.1q-1-1-2-1.9c-0.2-0.2-0.2-0.4 0-0.5c0.1-0.2 0.3-0.2 0.5-0.1q1 1 2 2.1c0.1 0.1 0.1 0.3 0 0.5q-0.1 0-0.2 0zm-63.7-2.6q-0.1 0-0.3-0.1c-0.1-0.1-0.1-0.4 0.1-0.5q1.1-0.9 2.2-1.8c0.2-0.1 0.4-0.1 0.5 0.1c0.1 0.1 0.1 0.3-0.1 0.4q-1.1 0.9-2.2 1.8q-0.1 0.1-0.2 0.1zm58-2.3q-0.1 0-0.2-0.1q-1.1-0.8-2.3-1.6c-0.2-0.1-0.2-0.3-0.1-0.5c0.1-0.1 0.3-0.2 0.5-0.1q1.2 0.8 2.3 1.7c0.2 0.1 0.2 0.3 0.1 0.5q-0.1 0.1-0.3 0.1zm-52-2.1q-0.2 0-0.3-0.2c-0.1-0.2 0-0.4 0.1-0.5q1.3-0.7 2.5-1.4c0.2-0.1 0.4-0.1 0.5 0.1c0.1 0.2 0 0.4-0.1 0.5q-1.3 0.7-2.5 1.4q-0.1 0.1-0.2 0.1zm45.7-1.9q-0.1 0-0.2 0q-1.2-0.6-2.5-1.2c-0.2-0.1-0.3-0.3-0.2-0.5c0.1-0.1 0.3-0.2 0.5-0.2q1.3 0.6 2.6 1.3c0.1 0.1 0.2 0.3 0.1 0.5q-0.1 0.1-0.3 0.1zm-39-1.6c-0.2 0-0.3 0-0.3-0.2c-0.1-0.2 0-0.4 0.1-0.4q1.4-0.6 2.7-1.1c0.2 0 0.4 0.1 0.5 0.3c0 0.1-0.1 0.3-0.2 0.4q-1.4 0.5-2.7 1q0 0-0.1 0zm32.1-1.2q-0.1 0-0.1-0.1q-1.4-0.4-2.7-0.7c-0.2-0.1-0.3-0.3-0.3-0.5c0.1-0.2 0.3-0.3 0.4-0.2q1.4 0.3 2.8 0.8c0.2 0 0.3 0.2 0.2 0.4c0 0.2-0.2 0.3-0.3 0.3zm-25-1.1c-0.2 0-0.3-0.1-0.3-0.2c-0.1-0.2 0-0.4 0.2-0.5q1.4-0.3 2.8-0.5c0.2-0.1 0.4 0.1 0.4 0.3c0.1 0.1-0.1 0.3-0.3 0.4q-1.3 0.2-2.7 0.5q-0.1 0-0.1 0zm17.7-0.7q0 0 0 0q-1.4-0.2-2.9-0.3c-0.1 0-0.3-0.2-0.3-0.4c0-0.2 0.2-0.3 0.4-0.3q1.4 0.1 2.9 0.3c0.1 0.1 0.3 0.3 0.3 0.4c-0.1 0.2-0.2 0.3-0.4 0.3zm-10.3-0.4c-0.2 0-0.3-0.1-0.3-0.3c-0.1-0.2 0.1-0.4 0.3-0.4q1.4-0.1 2.8-0.1c0.2 0 0.4 0.2 0.4 0.3c0 0.2-0.2 0.4-0.4 0.4q-1.4 0-2.8 0.1q0 0 0 0z"/>
		<path id="Layer" class="s9" d="m244 46.9c-0.2 0-0.3-0.1-0.3-0.3q-0.1-0.7-0.3-1.4c0-0.1 0.1-0.3 0.3-0.4c0.2 0 0.4 0.1 0.4 0.3q0.1 0.7 0.3 1.4c0 0.2-0.2 0.4-0.3 0.4q-0.1 0-0.1 0z"/>
		<path id="Layer" class="s4" d="m233.2 60.8c0 0.2-0.2 0.4-0.4 0.5l-6.6 1.7c-0.9 3-2.4 5.9-4.3 8.5l2.5 6.3c0.1 0.2 0 0.5-0.2 0.6l-6.1 5.3c-0.2 0.2-0.5 0.2-0.7 0.1l-5.8-3.4c-2.9 1.4-6 2.4-9.1 2.9l-2.7 6.2c-0.1 0.2-0.3 0.4-0.5 0.4l-8.1-0.7c-0.3 0-0.5-0.2-0.5-0.4l-1.7-6.5c-3-1-5.9-2.5-8.5-4.4l-6.3 2.5c-0.2 0.1-0.5 0-0.6-0.2l-5.3-6.1c-0.2-0.2-0.2-0.5-0.1-0.7l3.4-5.8c-1.5-2.9-2.4-6-2.9-9.1l-6.2-2.7c-0.2-0.1-0.4-0.3-0.3-0.6l0.6-8.1c0-0.2 0.2-0.4 0.4-0.4l6.5-1.8c1-3 2.5-5.9 4.4-8.5l-2.5-6.3c-0.1-0.2 0-0.4 0.2-0.6l6.1-5.3c0.2-0.1 0.5-0.2 0.7 0l5.8 3.4c2.9-1.5 5.9-2.5 9.1-3l2.7-6.2c0-0.2 0.3-0.3 0.5-0.3l8.1 0.6c0.2 0 0.4 0.2 0.5 0.4l1.7 6.6c3 0.9 5.9 2.4 8.5 4.3l6.3-2.5c0.2-0.1 0.5 0 0.6 0.2l5.3 6.2c0.1 0.1 0.2 0.4 0.1 0.6l-3.5 5.8c1.5 2.9 2.5 6 3 9.1l6.2 2.7c0.2 0.1 0.3 0.3 0.3 0.6z"/>
		<path id="Layer" fill-rule="evenodd" class="s10" d="m198 61.7c-1.6 0-3.2-0.5-4.5-1.4c-3.5-2.5-4.3-7.3-1.8-10.8c1.2-1.7 3-2.8 5-3.2c2-0.3 4.1 0.2 5.7 1.3c1.7 1.2 2.9 3 3.2 5.1c0.3 2-0.1 4.1-1.3 5.7c-1.2 1.7-3 2.8-5 3.2q-0.7 0.1-1.3 0.1zm0-14.4q-0.6 0-1.1 0.1c-1.8 0.3-3.3 1.2-4.4 2.7c-2.1 3-1.4 7.2 1.6 9.3c1.5 1.1 3.3 1.5 5 1.2c1.8-0.3 3.3-1.3 4.3-2.8c1.1-1.4 1.5-3.2 1.2-5c-0.3-1.7-1.3-3.3-2.8-4.3c-1.1-0.8-2.4-1.2-3.8-1.2z"/>
		<path id="Layer" class="s10" d="m197.8 74.1q-0.8 0-1.5-0.1c-5.4-0.4-10.3-2.9-13.8-7c-3.1-3.6-4.8-8.2-4.8-13q0-0.8 0.1-1.6c0.4-5.4 2.9-10.2 7-13.7c4-3.5 9.2-5.2 14.6-4.8c5.3 0.4 10.2 2.9 13.7 7q1.4 1.6 2.4 3.5l-0.9 0.5c-0.6-1.2-1.4-2.3-2.3-3.3c-3.3-3.9-7.9-6.3-13-6.7c-5.1-0.4-10 1.2-13.9 4.6c-3.8 3.3-6.2 7.9-6.6 13q0 0.7 0 1.5c0 4.5 1.6 8.9 4.5 12.4c3.3 3.9 8 6.2 13 6.6c5.1 0.4 10-1.2 13.9-4.5c2.6-2.3 4.6-5.2 5.7-8.5l1 0.4c-1.2 3.4-3.3 6.5-6 8.9c-3.7 3.1-8.3 4.8-13.1 4.8z"/>
		<path id="Layer" class="s9" d="m277.8 88q-0.1 0-0.2-0.1c-0.2-0.1-0.2-0.3-0.1-0.5q0.3-0.6 0.6-1.2c0.1-0.1 0.3-0.2 0.5-0.1c0.2 0.1 0.3 0.3 0.2 0.5q-0.4 0.6-0.7 1.2c-0.1 0.1-0.2 0.2-0.3 0.2z"/>
		<path id="Layer" class="s9" d="m255.5 99.6q-0.1 0-0.1 0q-1.4-0.1-2.8-0.4c-0.2-0.1-0.3-0.2-0.3-0.4c0.1-0.2 0.3-0.3 0.5-0.3q1.3 0.3 2.7 0.4c0.2 0 0.3 0.1 0.3 0.3c0 0.2-0.2 0.4-0.3 0.4zm4.5-0.1c-0.2 0-0.3-0.1-0.4-0.3c0-0.2 0.1-0.4 0.3-0.4q1.4-0.2 2.7-0.5c0.2 0 0.4 0.1 0.5 0.3c0 0.2-0.1 0.4-0.3 0.4q-1.4 0.3-2.8 0.5q0 0 0 0zm-11.7-1.6q0 0-0.1 0q-1.3-0.6-2.5-1.3c-0.2-0.1-0.3-0.3-0.2-0.4c0.1-0.2 0.3-0.3 0.5-0.2q1.2 0.7 2.5 1.2c0.2 0.1 0.2 0.3 0.2 0.5c-0.1 0.1-0.2 0.2-0.4 0.2zm18.7-0.3c-0.1 0-0.2-0.1-0.3-0.2c-0.1-0.2 0-0.4 0.2-0.5q1.2-0.5 2.4-1.3c0.2-0.1 0.4 0 0.5 0.2c0.1 0.1 0 0.3-0.1 0.4q-1.2 0.8-2.5 1.3q-0.1 0.1-0.2 0.1zm-24.9-3.5q-0.1 0-0.2-0.1q-1.1-0.9-2.1-1.9c-0.1-0.1-0.1-0.4 0-0.5c0.2-0.1 0.4-0.1 0.5 0q1 1 2 1.9c0.2 0.1 0.2 0.3 0.1 0.5q-0.1 0.1-0.3 0.1zm31-0.5q-0.1 0-0.2-0.1c-0.1-0.2-0.1-0.4 0-0.5l0.2-0.2q0.9-0.8 1.8-1.8c0.1-0.1 0.3-0.1 0.4 0c0.2 0.1 0.2 0.4 0.1 0.5q-0.9 1-1.8 1.8l-0.2 0.2q-0.1 0.1-0.3 0.1zm-35.8-5q-0.2 0-0.3-0.1q-0.8-1.2-1.4-2.5c-0.1-0.2 0-0.4 0.2-0.4c0.1-0.1 0.3-0.1 0.4 0.1q0.6 1.3 1.4 2.4c0.1 0.2 0 0.4-0.1 0.5q-0.1 0-0.2 0z"/>
		<path id="Layer" class="s9" d="m234.3 81.9c-0.1 0-0.3-0.1-0.3-0.2q-0.2-0.7-0.3-1.4c-0.1-0.2 0.1-0.4 0.2-0.4c0.2 0 0.4 0.1 0.5 0.3q0.1 0.6 0.3 1.3c0 0.2-0.1 0.4-0.3 0.4q0 0-0.1 0z"/>
		<path id="Layer" class="s9" d="m237.2 63.1q-0.1 0-0.2 0c-0.2-0.1-0.2-0.3-0.1-0.5q0.4-0.6 0.8-1.2c0.1-0.1 0.3-0.2 0.5-0.1c0.1 0.2 0.1 0.4 0 0.5q-0.4 0.6-0.7 1.2q-0.1 0.1-0.3 0.1z"/>
		<path id="Layer" class="s9" d="m279.2 66.5q-0.2 0-0.3-0.2q-0.5-1.3-1.2-2.4c-0.1-0.2 0-0.4 0.1-0.5c0.2-0.1 0.4 0 0.5 0.1q0.7 1.2 1.2 2.5c0.1 0.2 0 0.4-0.1 0.5q-0.1 0-0.2 0zm-3.8-6.1q-0.1 0-0.2-0.1q-0.3-0.3-0.6-0.7q-0.6-0.7-1.3-1.3c-0.1-0.1-0.1-0.4 0-0.5c0.1-0.1 0.3-0.1 0.5 0q0.7 0.7 1.3 1.4q0.3 0.3 0.6 0.6c0.1 0.2 0.1 0.4 0 0.5q-0.1 0.1-0.3 0.1zm-34.5-1.8q-0.2 0-0.3-0.1c-0.1-0.1-0.1-0.4 0-0.5q0.2-0.2 0.5-0.4q0.8-0.7 1.6-1.4c0.2-0.1 0.4-0.1 0.5 0.1c0.2 0.1 0.1 0.3 0 0.5q-0.9 0.6-1.7 1.3q-0.2 0.2-0.4 0.4q-0.1 0.1-0.2 0.1zm29.1-2.9q-0.1 0-0.2-0.1q-1.1-0.7-2.3-1.3c-0.2-0.1-0.3-0.3-0.2-0.5c0.1-0.1 0.3-0.2 0.5-0.1q1.2 0.6 2.4 1.3c0.2 0.1 0.2 0.3 0.1 0.5q-0.1 0.2-0.3 0.2zm-23.3-1.2c-0.1 0-0.2-0.1-0.3-0.2c-0.1-0.2 0-0.4 0.2-0.5q1.2-0.6 2.6-1.1c0.1 0 0.3 0 0.4 0.2c0.1 0.2 0 0.4-0.2 0.5q-1.3 0.4-2.5 1q-0.1 0.1-0.2 0.1zm16.7-1.7q0 0 0 0q-1.3-0.4-2.7-0.6c-0.2 0-0.3-0.2-0.3-0.4c0-0.1 0.2-0.3 0.4-0.2q1.4 0.2 2.7 0.5c0.2 0.1 0.3 0.2 0.3 0.4c-0.1 0.2-0.2 0.3-0.4 0.3zm-9.8-0.5c-0.2 0-0.3-0.1-0.4-0.3c0-0.2 0.1-0.4 0.3-0.4q1.4-0.2 2.8-0.3c0.2 0 0.4 0.2 0.4 0.3c0 0.2-0.2 0.4-0.4 0.4q-1.3 0.1-2.7 0.3q0 0 0 0z"/>
		<path id="Layer" class="s9" d="m280.8 72.1c-0.1 0-0.3-0.1-0.3-0.3q-0.1-0.6-0.3-1.3c0-0.2 0.1-0.4 0.3-0.4c0.2-0.1 0.4 0.1 0.4 0.2q0.2 0.7 0.3 1.4c0 0.2-0.1 0.4-0.3 0.4q-0.1 0-0.1 0z"/>
		<path id="Layer" class="s4" d="m275.3 79.1q-0.1 0.2-0.3 0.3l-3.3 0.8c-0.5 1.6-1.3 3.1-2.2 4.4l1.2 3.2c0.1 0.1 0 0.3 0 0.4l-3.2 2.7c-0.1 0.1-0.2 0.1-0.3 0l-3-1.8c-1.5 0.8-3.1 1.3-4.7 1.6l-1.4 3.2c0 0.1-0.1 0.1-0.3 0.1l-4.1-0.3q-0.2 0-0.3-0.2l-0.8-3.4q-2.4-0.7-4.4-2.2l-3.3 1.3q-0.1 0-0.3-0.1l-2.7-3.2c-0.1-0.1-0.1-0.2 0-0.3l1.8-3q-1.2-2.3-1.6-4.7l-3.2-1.4c-0.1 0-0.1-0.1-0.1-0.2l0.3-4.2c0-0.1 0.1-0.2 0.2-0.3l3.4-0.8q0.7-2.4 2.2-4.4l-1.3-3.3q0-0.1 0.1-0.3l3.2-2.7c0.1-0.1 0.2-0.1 0.3 0l3 1.7q2.2-1.1 4.7-1.5l1.3-3.2c0.1-0.1 0.2-0.2 0.3-0.1l4.2 0.3c0.1 0 0.2 0.1 0.2 0.2l0.9 3.4q2.3 0.7 4.4 2.2l3.2-1.3c0.1 0 0.2 0 0.3 0.1l2.7 3.2c0.1 0.1 0.1 0.2 0.1 0.3l-1.8 3c0.8 1.5 1.3 3.1 1.5 4.7l3.2 1.3q0.2 0.1 0.2 0.3z"/>
		<path id="Layer" fill-rule="evenodd" class="s10" d="m257.2 79.8c-0.9 0-1.7-0.3-2.5-0.8c-1.9-1.3-2.3-4-1-5.8c0.7-1 1.7-1.6 2.8-1.8c1.1-0.2 2.2 0.1 3.1 0.7c0.9 0.7 1.5 1.7 1.7 2.8c0.2 1.1 0 2.2-0.7 3.1c-0.6 1-1.6 1.6-2.7 1.8q-0.4 0-0.7 0zm0-7.4c-1 0-2 0.5-2.6 1.4c-1 1.4-0.7 3.4 0.7 4.4c0.7 0.5 1.6 0.7 2.4 0.5c0.9-0.1 1.6-0.6 2.1-1.3c0.5-0.7 0.7-1.5 0.5-2.3c-0.1-0.9-0.6-1.6-1.3-2.1c-0.5-0.4-1.2-0.6-1.8-0.6z"/>
		<path id="Layer" class="s10" d="m257.1 86.2q-0.4 0-0.8 0c-2.8-0.3-5.4-1.6-7.2-3.7c-1.7-2-2.6-4.5-2.6-6.9c0-3 1.3-6 3.7-8.1c4.5-3.8 11.1-3.2 14.9 1.2q0.1 0.1 0.1 0.1q0.6 0.8 1.1 1.6q0 0 0 0q0 0 0 0.1q0.1 0 0.1 0q0 0 0 0.1l-0.9 0.5q-0.5-0.9-1.2-1.7c-2.4-2.9-6.1-3.9-9.5-3.1c-1.4 0.4-2.7 1-3.9 2c-2.2 1.9-3.3 4.6-3.3 7.3c0 2.2 0.7 4.4 2.2 6.2c3.5 4 9.5 4.5 13.5 1.1c1.3-1.2 2.3-2.6 2.8-4.3l1 0.4c-0.6 1.8-1.7 3.4-3.1 4.6c-2 1.7-4.4 2.6-6.9 2.6z"/>
		<path id="Layer" class="s11" d="m189.7 123.4c0.9-0.8 2-1.2 3.2-1.1c12.5 1.1 35.7-4.9 50.9-20.5c1-1.1 3-0.4 4.2 0.5c16.8 12.6 44.8 15.2 54.6 15.8c2 0.1 3.6 1.6 3.8 3.6c8.9 85.6-46.7 116.5-58.3 122c-1.2 0.6-2.7 0.5-3.9-0.2c-57.4-35.9-55-82.5-55.8-117c0-1.2 0.5-2.3 1.3-3.1z"/>
		<path id="Layer" fill-rule="evenodd" class="s12" d="m246.6 237.5q-0.4 0-0.7-0.2c-22.1-14.1-36.4-31-43.9-51.6c-6.7-18.3-7.1-37.1-7.4-53.6v-2.2q0-0.5 0.4-1c0.2-0.2 0.6-0.4 1-0.4c13.6 0 34.1-6 49.1-19.5c0.5-0.4 1.1-0.4 1.7-0.1c16.5 11 40 14.2 52.6 15.1c0.6 0 1.2 0.6 1.2 1.2c2.9 33.4-4 61.6-20.6 83.9c-12.4 16.6-27 25.3-32.8 28.2q-0.3 0.2-0.6 0.2zm0.4-0.6c5.7-3 20.3-11.6 32.6-28.1c16.5-22.2 23.4-50.3 20.5-83.5c-0.1-0.4-0.4-0.7-0.8-0.8c-12.6-0.9-36.2-4.1-52.8-15.1c-0.3-0.2-0.8-0.2-1 0c-15.1 13.6-35.8 19.7-49.5 19.7q-0.4 0-0.6 0.2q-0.2 0.3-0.2 0.6v2.2c0.3 16.5 0.6 35.2 7.3 53.4c7.4 20.5 21.7 37.3 43.7 51.3c0.2 0.2 0.5 0.2 0.8 0.1z"/>
		<path id="Layer" class="s7" d="m266.7 155.7h-2.6c-1.3 0-2.4-1.1-2.4-2.4v-8.9c0-3.2-2.5-5.7-5.7-5.7h-16.1c-3.2 0-5.8 2.5-5.8 5.7v8.9c0 1.3-1 2.4-2.3 2.4h-2.6c-1.3 0-2.3-1.1-2.3-2.4v-8.9c0-7.2 5.8-13 13-13h16.1c7.2 0 13 5.8 13 13v8.9c0 1.3-1 2.4-2.3 2.4z"/>
		<path id="Layer" fill-rule="evenodd" class="s7" d="m221.1 162.3c0-2.5 2-4.5 4.6-4.5h44.5c2.5 0 4.6 2 4.6 4.5v34.4c0 2.5-2.1 4.6-4.6 4.6h-44.5c-2.6 0-4.6-2.1-4.6-4.6zm31 19.3c2.4-1.5 4-4.1 4-7c0-4.7-4-8.5-8.7-8.2c-4.1 0.3-7.4 3.6-7.6 7.7c-0.2 3.2 1.5 6 4 7.5l-2.2 8.8c-0.2 1.1 0.6 2.2 1.8 2.2h9.1c1.1 0 2-1.1 1.7-2.2z"/>
		<path id="Layer" class="s13" d="m79.6 146.7q3.5 0.2 4 7.5q-8.3 7.4-19.4 9.2c-0.8 0.1 1.2-5.7 1.5-6.5c1.4-3.8 5.9-6.2 13.9-10.2z"/>
		<path id="Layer" class="s14" d="m103.2 148q-3.4-3.3-23.1-20.5l0.9 21.4q-0.4 0.9-1.2 1.4c-1.9 1.2-4.4 0.3-5.3-1.7q-11-25.1-0.5-38.6q15.1 2.6 38.1 28.1h7.5c4.3 11.2-13 13.2-16.4 9.9z"/>
		<path id="Layer" class="s15" d="m47.1 191.6c3.1-2.7 8.1-5.8 15.4-6.7l2.4 1.5q-1.5 2.3-4.4 4.7c-2.6 1.5-6.7 3.6-10 4c-3.3 0.5-3.8-1.5-3.4-3.5z"/>
		<path id="Layer" class="s9" d="m65.7 156.9c1.9 0.6 2.8 3.4 7.7 1.6c4.7-1.8 8.3-4.1 10.1-5.4q0 0.6 0.1 1.1q-8.7 8.3-19.9 10.1c-0.8 0.1-1.5-0.7-1.2-1.5c0.6-1.4 1.6-3.6 3.2-5.9z"/>
		<path id="Layer" class="s9" d="m44.7 194q0.9-1.1 2.4-2.4c-0.4 2 0.1 4 3.4 3.5c3.3-0.4 7.4-2.5 10-4c-3.3 2.8-8.3 5.8-14.6 5.6c-1.4 0-2.1-1.7-1.2-2.7z"/>
		<path id="Layer" class="s14" d="m134.5 149.7c-5.4 8.3-12.8 9-22 7q-19.2-7.8-28.9 9.4q-7.9 14.1-20.1 22q-3.6-0.3-3-2.2q3.6-25.3 23.7-42l35.2-0.4z"/>
		<path id="Layer" class="s16" d="m123.8 124.3q-7 14.3-20.3 19.6l-15.4-0.5l1.5-2.5l6.6 0.8q18.6-7.5 22.3-26.5c9.4 0.7 5.5 8.7 5.3 9.1z"/>
		<path id="Layer" class="s17" d="m116.5 143.2q4.3-11.7 5.2-23.1q-3.1-2.7-5.1-3.9c-0.6-0.3-0.9-1.1-0.5-1.8c1.4-3 10.2-14.8 10.8-15c3.6-0.8 18.2-7.8 28.5 6.3c4.4 6-0.9 24.7-20.9 44c-6.5 1-12.5-0.8-18-6.5z"/>
		<path id="Layer" class="s18" d="m139.5 131.7q-9.3 11.2-27.9 11.9h-19.6q4-5.7 7-7q2.9-1.3 6.9 2.3q15.2-2 27.2-16.2c3.4 2.7 5.6 5 6.4 9z"/>
		<path id="Layer" class="s19" d="m140.1 89.5l2.6 8.7c0.1 0.4 0 0.9-0.4 1.1c-1.2 0.9-4.5 2.6-9.1 0.9c-0.5-0.2-0.8-0.7-0.9-1.2l-0.6-7.6z"/>
		<path id="Layer" class="s20" d="m137.5 76.4l4.5 11.7c-2.2 6.9-9 9-12.5 6.2q-3.5-2.8-4.8-11.9z"/>
		<path id="Layer" class="s21" d="m138 84c-0.3 0.1-0.5-0.1-0.6-0.4c-0.1-0.8-0.4-2.4-1.1-3.6q0.4-1.2-3 0.6c-3.3 1.8-8.3 4.5-11.2 2.9c-2.9-1.5-5.8-9.2 1.8-7.8c0.3 0 0.5-0.2 0.5-0.5c-0.1-1.3 0-4.2 3-5.1c2.7-0.9 4.3 0.4 4.9 1.1c0.2 0.2 0.5 0.2 0.7 0c0.8-1.1 3-3.4 6.3-1.9c2.8 1.2 3.2 2.9 3.1 3.9c0 0.4 0.4 0.6 0.7 0.4c0.8-0.3 2.1-0.5 3.4 1.1c1.8 2.2-0.7 4.1-1.5 4.6q-0.2 0.2-0.2 0.4c0 1.2-0.2 6.2-2.7 9.1c-0.2 0.2-0.6 0.1-0.8-0.2l-1.9-4.6c-0.1-0.2-0.3-0.3-0.6-0.3z"/>
		<path id="Layer" class="s22" d="m138 84.9q1.1-4.8 2.9-3.2c1.9 1.5-0.4 5-2.5 5.7z"/>
		<path id="Layer" class="s23" d="m91.5 145.6l-11.7-1.3c-0.9-0.1-1.7-0.7-2.1-1.6l-9.8-28.1c-0.4-1.2 0.5-2.4 1.7-2.3l11.9 0.8c1.2 0.1 2.3 1 2.7 2.2l8.8 29.4z"/>
		<path id="Layer" class="s9" d="m76.9 122.2c0.7-0.4 1.9 0.4 2.5 1.7c0.7 1.3 0.6 2.7-0.1 3.1c-0.8 0.4-1.9-0.4-2.6-1.8c-0.6-1.3-0.6-2.7 0.2-3z"/>
		<path id="Layer" class="s24" d="m90.4 144.5c0-0.6 0.5-1.1 1.1-1.1l25-1.3c0.6 0 1.1 0.5 1.1 1.1c0.1 0.6-0.4 1.1-1 1.2l-25 1.2q0 0-0.1 0c-0.5 0-1-0.5-1.1-1.1z"/>
		<path id="Layer" class="s25" d="m121.7 120.3c-0.1 0-0.1-0.1-0.1-0.2c0-5.3 2-12.2 2-12.3c0-0.1 0.1-0.2 0.2-0.1c0.1 0 0.2 0.1 0.1 0.2c0 0.1-2 7-2 12.2c0 0.1-0.1 0.2-0.2 0.2z"/>
		<path id="Layer" class="s26" d="m133.1 122.9q-0.1 0-0.1-0.1c-0.1 0-0.1-0.1 0-0.2c0-0.1 5.4-7 7.3-11.7c0-0.1 0.1-0.1 0.2-0.1c0.1 0 0.1 0.1 0.1 0.2c-1.9 4.8-7.3 11.7-7.4 11.8q0 0.1-0.1 0.1z"/>
		<path id="Layer" class="s27" d="m140.8 133.5l-1-1.4c-0.1-0.1 0-0.2 0-0.2c0.1-0.1 0.2-0.1 0.3 0l0.8 1.2c7.7-3.4 12.5-12.6 12.5-12.7c0.1-0.1 0.2-0.2 0.3-0.1c0 0 0.1 0.1 0 0.2c0 0.1-4.9 9.6-12.8 12.9z"/>
	</g>
</svg>