<svg version="1.2" xmlns="http://www.w3.org/2000/svg" viewBox="0 0 77 77" width="77" height="77"><defs><clipPath clipPathUnits="userSpaceOnUse" id="cp1"><path d="m-72-228h1224v1584h-1224z"/></clipPath></defs><style>.A{fill:#383838}.B{fill:#f57a1a}</style><g clip-path="url(#cp1)"><path fill-rule="evenodd" class="A" d="m19.3 60.5c0 0.1 0.4 0.5 0.7 0.6q6 2.8 12.5 2.8c0.6 0.1 1.2 0.1 1.5 0.8c0.5 0.9-0.2 1.9-1.2 1.8c-2.5-0.2-4.9-0.3-7.3-0.9c-10.1-2.3-17.6-8.1-22.7-17.2c0 0-0.1-0.1-0.2-0.3v25.9q0.3 0.1 0.6 0.1q32 0 63.9 0c3.8 0 6.4-2.8 6.3-6.5c0-3.6-3-6.3-6.6-6.2c-3.2 0.2-5.8 2.8-6 5.9q0 0.3 0 0.6c-0.1 0.7-0.7 1.2-1.3 1.1c-0.7 0-1.1-0.4-1.2-1.1c-0.1-0.3 0-0.6 0-0.9q-0.1-23.8-0.1-47.6v-1h-15.1v-2.5h15.2c0.4-2.1 1.2-3.8 2.7-5.1c2.8-2.6 6-3.3 9.5-1.8c3.6 1.4 5.4 4.3 5.5 8.1c0 7.8 0 15.6 0 23.4q0 13.7 0 27.3c0 4.2-2.6 7.6-6.6 8.6c-0.8 0.1-1.5 0.2-2.3 0.2q-33.2 0-66.3 0h-0.8v-60.7h20.2v2.4h-17.7v1c0 6.6 0 13.1 0 19.6c0 1.7 0.3 3.3 0.9 4.8q4 10 13.1 15.6c0.1 0.1 0.2 0.1 0.4 0.2zm54.1 1v-0.9q0-21.5 0-43.1q0-0.4 0-0.8c-0.2-3.2-2.9-5.8-6.1-5.9c-3.6-0.1-6.5 2.7-6.5 6.4q0 21.8 0 43.6v0.7c4.2-3.5 8.4-3.4 12.6 0z"/><path fill-rule="evenodd" class="B" d="m16.9 59.5c0.2-0.7 0.4-1.4 0.5-2.1c0.1-0.1-0.1-0.3-0.2-0.5c-1.3-1.1-1.5-2.5-1.1-4.1q4-15 8-29.9c0.2-0.5 0.1-0.9-0.2-1.5c-2.1-3.7-1.2-8.4 2.1-11.1c0.5-0.4 0.6-0.7 0.6-1.3q-0.1-1.7 0-3.4c0-2.8 2.3-5 5.1-5c2.7 0.1 4.9 2.2 5 5q0.1 1.7 0 3.5c0 0.5 0.1 0.8 0.6 1.2c3.3 2.7 4.2 7.5 2 11.2c-0.2 0.4-0.3 0.8-0.1 1.3c2.6 9.8 5.2 19.7 7.9 29.5c0.5 1.8 0.4 3.4-1.1 4.7c-0.1 0.2-0.1 0.5-0.1 0.7c0.3 1.1 0.6 2.2 0.9 3.2c0.2 0.9-0.2 1.5-0.9 1.7c-0.7 0.2-1.3-0.2-1.6-1c-0.3-1.1-0.5-2.1-0.9-3.2c0-0.2-0.3-0.5-0.5-0.6c-1.7-0.4-2.6-1.4-3-3q-2-7.3-4-14.7q0-0.2-0.1-0.5c-1 0.1-1.9 0.2-2.9 0.3c-0.1 1 0.4 2.5-1.3 2.5c-1.6-0.1-1.1-1.5-1.3-2.5q-1.2-0.2-2.3-0.3c-0.5-0.1-0.6 0.2-0.7 0.6q-1.9 7.2-3.9 14.5c-0.4 1.7-1.3 2.7-3 3.1q-0.1 0-0.1 0c-0.9 0.7-0.6 1.8-1 2.7zm21.1-42.4c0-3.5-2.8-6.3-6.3-6.3c-3.5-0.1-6.4 2.8-6.4 6.3c0.1 3.5 2.9 6.3 6.4 6.3c3.5 0 6.3-2.8 6.3-6.3zm-11.6 7.2c0 0.2-0.1 0.2-0.1 0.3q-3.3 12.1-6.5 24.2c-0.4 1.7-0.9 3.3-1.3 5c-0.2 0.7 0.2 1.3 0.9 1.5c0.7 0.1 1.2-0.2 1.5-0.9q0.1-0.2 0.2-0.5q2.8-10.6 5.6-21.1q1-3.7 2-7.3c-0.8-0.4-1.5-0.8-2.3-1.2zm8.3 1.2q0 0.2 0.1 0.4q3.1 11.5 6.1 22.9q0.8 2.8 1.5 5.5c0.2 0.8 0.8 1.1 1.5 1c0.7-0.2 1.1-0.8 0.9-1.6q0-0.2-0.1-0.5q-3.7-14-7.5-28.1q-0.1-0.4-0.3-0.8c-0.7 0.4-1.4 0.8-2.2 1.2zm-4.3 11.8c0.1-1.1-0.2-2.5 1.3-2.4c1.5 0 1.2 1.3 1.3 2.4c0.7-0.1 1.4-0.2 2.1-0.3c-0.9-3.5-1.8-6.9-2.7-10.3c-0.2-0.7-0.5-0.9-1.2-0.7q-1.5 5.4-3 11c0.8 0.1 1.4 0.2 2.2 0.3zm3.8-28.9c0-0.6 0-1.3 0-2c0-0.4 0-0.7 0-1c-0.1-1.2-1.2-2.2-2.4-2.2c-1.2-0.1-2.4 0.7-2.6 1.9c-0.1 1.1 0 2.3 0 3.3z"/><path fill-rule="evenodd" class="B" d="m35.4 17.1c0 2.1-1.7 3.8-3.8 3.8c-2 0-3.8-1.7-3.7-3.8c0-2.1 1.7-3.8 3.8-3.8c2.1 0 3.7 1.7 3.7 3.8zm-2.5 0c0-0.6-0.5-1.2-1.2-1.3c-0.7 0-1.3 0.6-1.3 1.3c0 0.7 0.5 1.3 1.2 1.3c0.7 0 1.3-0.6 1.3-1.3z"/></g></svg>